<?xml version="1.0" encoding="UTF-8"?>
<svg xmlns="http://www.w3.org/2000/svg" xmlns:xlink="http://www.w3.org/1999/xlink" width="576" height="230" viewBox="0 0 576 230">
<defs>
<g>
<g id="glyph-0-0">
<path d="M 6.546875 0 L 8.171875 -6.40625 L 7.25 -6.40625 L 6.078125 -1.203125 L 4.625 -6.40625 L 3.734375 -6.40625 L 2.3125 -1.203125 L 1.109375 -6.40625 L 0.1875 -6.40625 L 1.84375 0 L 2.734375 0 L 4.171875 -5.265625 L 5.640625 0 Z M 6.546875 0 "/>
</g>
<g id="glyph-0-1">
<path d="M 4.515625 -2.0625 C 4.515625 -2.765625 4.453125 -3.1875 4.328125 -3.53125 C 4.03125 -4.28125 3.328125 -4.734375 2.46875 -4.734375 C 1.171875 -4.734375 0.359375 -3.765625 0.359375 -2.25 C 0.359375 -0.71875 1.140625 0.203125 2.453125 0.203125 C 3.5 0.203125 4.234375 -0.390625 4.421875 -1.40625 L 3.671875 -1.40625 C 3.46875 -0.796875 3.0625 -0.46875 2.46875 -0.46875 C 2 -0.46875 1.609375 -0.6875 1.359375 -1.078125 C 1.1875 -1.34375 1.125 -1.59375 1.125 -2.0625 Z M 1.140625 -2.65625 C 1.203125 -3.515625 1.71875 -4.0625 2.453125 -4.0625 C 3.203125 -4.0625 3.71875 -3.484375 3.71875 -2.65625 Z M 1.140625 -2.65625 "/>
</g>
<g id="glyph-0-2">
<path d="M 1.3125 -4.609375 L 0.59375 -4.609375 L 0.59375 0 L 1.3125 0 Z M 1.3125 -6.40625 L 0.578125 -6.40625 L 0.578125 -5.484375 L 1.3125 -5.484375 Z M 1.3125 -6.40625 "/>
</g>
<g id="glyph-0-3">
<path d="M 3.546875 -4.609375 L 3.546875 -3.9375 C 3.1875 -4.5 2.78125 -4.734375 2.203125 -4.734375 C 1.078125 -4.734375 0.3125 -3.703125 0.3125 -2.21875 C 0.3125 -1.453125 0.5 -0.890625 0.890625 -0.421875 C 1.234375 -0.015625 1.671875 0.203125 2.140625 0.203125 C 2.703125 0.203125 3.09375 -0.046875 3.484375 -0.625 L 3.484375 -0.390625 C 3.484375 0.84375 3.140625 1.296875 2.21875 1.296875 C 1.59375 1.296875 1.28125 1.0625 1.203125 0.53125 L 0.453125 0.53125 C 0.53125 1.375 1.203125 1.921875 2.203125 1.921875 C 2.890625 1.921875 3.453125 1.703125 3.75 1.328125 C 4.09375 0.890625 4.234375 0.328125 4.234375 -0.75 L 4.234375 -4.609375 Z M 2.265625 -4.0625 C 3.046875 -4.0625 3.484375 -3.40625 3.484375 -2.25 C 3.484375 -1.125 3.03125 -0.46875 2.265625 -0.46875 C 1.515625 -0.46875 1.078125 -1.140625 1.078125 -2.265625 C 1.078125 -3.390625 1.515625 -4.0625 2.265625 -4.0625 Z M 2.265625 -4.0625 "/>
</g>
<g id="glyph-0-4">
<path d="M 0.609375 -6.40625 L 0.609375 0 L 1.34375 0 L 1.34375 -2.546875 C 1.34375 -3.484375 1.84375 -4.09375 2.59375 -4.09375 C 2.84375 -4.09375 3.0625 -4.03125 3.25 -3.890625 C 3.453125 -3.734375 3.546875 -3.515625 3.546875 -3.1875 L 3.546875 0 L 4.28125 0 L 4.28125 -3.484375 C 4.28125 -4.25 3.71875 -4.734375 2.828125 -4.734375 C 2.171875 -4.734375 1.78125 -4.546875 1.34375 -3.96875 L 1.34375 -6.40625 Z M 0.609375 -6.40625 "/>
</g>
<g id="glyph-0-5">
<path d="M 2.234375 -4.609375 L 1.484375 -4.609375 L 1.484375 -5.875 L 0.75 -5.875 L 0.75 -4.609375 L 0.125 -4.609375 L 0.125 -4.015625 L 0.75 -4.015625 L 0.75 -0.53125 C 0.75 -0.046875 1.0625 0.203125 1.640625 0.203125 C 1.828125 0.203125 1.984375 0.1875 2.234375 0.140625 L 2.234375 -0.46875 C 2.125 -0.453125 2.03125 -0.4375 1.875 -0.4375 C 1.5625 -0.4375 1.484375 -0.53125 1.484375 -0.859375 L 1.484375 -4.015625 L 2.234375 -4.015625 Z M 2.234375 -4.609375 "/>
</g>
<g id="glyph-0-6">
<path d="M 0.765625 -0.921875 L 0.765625 0 L 1.296875 0 L 1.296875 0.15625 C 1.296875 0.765625 1.171875 0.9375 0.765625 0.953125 L 0.765625 1.296875 C 1.34375 1.3125 1.6875 0.890625 1.6875 0.140625 L 1.6875 -0.921875 Z M 0.765625 -0.921875 "/>
</g>
<g id="glyph-0-7">
</g>
<g id="glyph-0-8">
<path d="M 1.234375 -6.40625 L 0.515625 -6.40625 L 0.515625 0 L 1.234375 0 L 1.234375 -1.796875 L 1.953125 -2.5 L 3.515625 0 L 4.421875 0 L 2.53125 -3.015625 L 4.140625 -4.609375 L 3.1875 -4.609375 L 1.234375 -2.65625 Z M 1.234375 -6.40625 "/>
</g>
<g id="glyph-0-9">
<path d="M 1.75 -6.03125 C 0.921875 -6.03125 0.25 -5.34375 0.25 -4.515625 C 0.25 -3.6875 0.921875 -3.015625 1.765625 -3.015625 C 2.578125 -3.015625 3.25 -3.6875 3.25 -4.5 C 3.25 -5.359375 2.59375 -6.03125 1.75 -6.03125 Z M 1.75 -5.40625 C 2.25 -5.40625 2.640625 -5.015625 2.640625 -4.515625 C 2.640625 -4.03125 2.25 -3.640625 1.765625 -3.640625 C 1.265625 -3.640625 0.859375 -4.03125 0.859375 -4.515625 C 0.859375 -5.015625 1.265625 -5.40625 1.75 -5.40625 Z M 5.359375 -6.234375 L 1.875 0.171875 L 2.46875 0.171875 L 5.9375 -6.234375 Z M 6.046875 -2.828125 C 5.21875 -2.828125 4.5625 -2.15625 4.5625 -1.34375 C 4.5625 -0.5 5.21875 0.171875 6.0625 0.171875 C 6.875 0.171875 7.5625 -0.5 7.5625 -1.3125 C 7.5625 -2.15625 6.890625 -2.828125 6.046875 -2.828125 Z M 6.046875 -2.21875 C 6.546875 -2.21875 6.953125 -1.828125 6.953125 -1.3125 C 6.953125 -0.84375 6.546875 -0.453125 6.0625 -0.453125 C 5.5625 -0.453125 5.15625 -0.84375 5.15625 -1.34375 C 5.15625 -1.828125 5.5625 -2.21875 6.046875 -2.21875 Z M 6.046875 -2.21875 "/>
</g>
<g id="glyph-0-10">
<path d="M 4.140625 -3.0625 C 4.109375 -3.515625 4.015625 -3.796875 3.828125 -4.0625 C 3.515625 -4.484375 2.96875 -4.734375 2.328125 -4.734375 C 1.078125 -4.734375 0.265625 -3.75 0.265625 -2.21875 C 0.265625 -0.734375 1.0625 0.203125 2.3125 0.203125 C 3.40625 0.203125 4.109375 -0.453125 4.203125 -1.578125 L 3.453125 -1.578125 C 3.328125 -0.84375 2.953125 -0.46875 2.328125 -0.46875 C 1.515625 -0.46875 1.03125 -1.140625 1.03125 -2.21875 C 1.03125 -3.375 1.515625 -4.0625 2.3125 -4.0625 C 2.921875 -4.0625 3.3125 -3.703125 3.40625 -3.0625 Z M 4.140625 -3.0625 "/>
</g>
<g id="glyph-0-11">
<path d="M 4.703125 -0.4375 C 4.625 -0.40625 4.59375 -0.40625 4.546875 -0.40625 C 4.296875 -0.40625 4.15625 -0.546875 4.15625 -0.78125 L 4.15625 -3.484375 C 4.15625 -4.296875 3.546875 -4.734375 2.421875 -4.734375 C 1.734375 -4.734375 1.203125 -4.546875 0.890625 -4.203125 C 0.671875 -3.96875 0.59375 -3.703125 0.578125 -3.25 L 1.3125 -3.25 C 1.375 -3.8125 1.703125 -4.0625 2.390625 -4.0625 C 3.0625 -4.0625 3.421875 -3.8125 3.421875 -3.375 L 3.421875 -3.1875 C 3.40625 -2.875 3.25 -2.75 2.65625 -2.671875 C 1.625 -2.546875 1.453125 -2.5 1.171875 -2.390625 C 0.640625 -2.15625 0.375 -1.765625 0.375 -1.15625 C 0.375 -0.328125 0.953125 0.203125 1.875 0.203125 C 2.46875 0.203125 2.921875 0 3.453125 -0.46875 C 3.5 0 3.734375 0.203125 4.203125 0.203125 C 4.359375 0.203125 4.453125 0.1875 4.703125 0.125 Z M 3.421875 -1.453125 C 3.421875 -1.203125 3.359375 -1.0625 3.125 -0.859375 C 2.828125 -0.578125 2.46875 -0.4375 2.046875 -0.4375 C 1.46875 -0.4375 1.140625 -0.71875 1.140625 -1.171875 C 1.140625 -1.65625 1.453125 -1.90625 2.25 -2.015625 C 3.03125 -2.125 3.171875 -2.15625 3.421875 -2.28125 Z M 3.421875 -1.453125 "/>
</g>
<g id="glyph-0-12">
<path d="M 0.609375 -4.609375 L 0.609375 0 L 1.359375 0 L 1.359375 -2.546875 C 1.359375 -3.484375 1.84375 -4.09375 2.609375 -4.09375 C 3.1875 -4.09375 3.546875 -3.75 3.546875 -3.1875 L 3.546875 0 L 4.28125 0 L 4.28125 -3.484375 C 4.28125 -4.25 3.71875 -4.734375 2.828125 -4.734375 C 2.140625 -4.734375 1.703125 -4.484375 1.296875 -3.828125 L 1.296875 -4.609375 Z M 0.609375 -4.609375 "/>
</g>
<g id="glyph-0-13">
<path d="M 4.875 0 L 6.234375 -4.609375 L 5.40625 -4.609375 L 4.484375 -1.015625 L 3.578125 -4.609375 L 2.6875 -4.609375 L 1.796875 -1.015625 L 0.859375 -4.609375 L 0.046875 -4.609375 L 1.390625 0 L 2.21875 0 L 3.109375 -3.609375 L 4.03125 0 Z M 4.875 0 "/>
</g>
<g id="glyph-0-14">
<path d="M 3.859375 -3.328125 C 3.84375 -4.234375 3.25 -4.734375 2.1875 -4.734375 C 1.109375 -4.734375 0.40625 -4.1875 0.40625 -3.328125 C 0.40625 -2.609375 0.78125 -2.265625 1.875 -2 L 2.5625 -1.84375 C 3.0625 -1.71875 3.265625 -1.53125 3.265625 -1.203125 C 3.265625 -0.765625 2.84375 -0.46875 2.203125 -0.46875 C 1.796875 -0.46875 1.46875 -0.59375 1.28125 -0.78125 C 1.171875 -0.921875 1.125 -1.046875 1.078125 -1.375 L 0.296875 -1.375 C 0.328125 -0.3125 0.9375 0.203125 2.140625 0.203125 C 3.296875 0.203125 4.03125 -0.375 4.03125 -1.265625 C 4.03125 -1.9375 3.65625 -2.328125 2.734375 -2.546875 L 2.03125 -2.703125 C 1.4375 -2.84375 1.171875 -3.046875 1.171875 -3.375 C 1.171875 -3.796875 1.5625 -4.0625 2.15625 -4.0625 C 2.75 -4.0625 3.0625 -3.8125 3.078125 -3.328125 Z M 3.859375 -3.328125 "/>
</g>
<g id="glyph-0-15">
<path d="M 3.421875 -6.515625 C 1.578125 -6.515625 0.328125 -5.15625 0.328125 -3.15625 C 0.328125 -1.140625 1.578125 0.203125 3.4375 0.203125 C 4.21875 0.203125 4.90625 -0.03125 5.421875 -0.46875 C 6.109375 -1.0625 6.53125 -2.0625 6.53125 -3.109375 C 6.53125 -5.171875 5.296875 -6.515625 3.421875 -6.515625 Z M 3.421875 -5.796875 C 4.8125 -5.796875 5.703125 -4.75 5.703125 -3.125 C 5.703125 -1.578125 4.78125 -0.515625 3.4375 -0.515625 C 2.0625 -0.515625 1.15625 -1.578125 1.15625 -3.15625 C 1.15625 -4.734375 2.0625 -5.796875 3.421875 -5.796875 Z M 3.421875 -5.796875 "/>
</g>
<g id="glyph-0-16">
<path d="M 2.390625 -4.734375 C 1.09375 -4.734375 0.3125 -3.8125 0.3125 -2.265625 C 0.3125 -0.71875 1.09375 0.203125 2.40625 0.203125 C 3.703125 0.203125 4.484375 -0.71875 4.484375 -2.234375 C 4.484375 -3.828125 3.734375 -4.734375 2.390625 -4.734375 Z M 2.40625 -4.0625 C 3.234375 -4.0625 3.71875 -3.390625 3.71875 -2.25 C 3.71875 -1.15625 3.203125 -0.46875 2.40625 -0.46875 C 1.578125 -0.46875 1.078125 -1.15625 1.078125 -2.265625 C 1.078125 -3.390625 1.578125 -4.0625 2.40625 -4.0625 Z M 2.40625 -4.0625 "/>
</g>
<g id="glyph-0-17">
<path d="M 0.46875 -6.40625 L 0.46875 0 L 1.140625 0 L 1.140625 -0.59375 C 1.484375 -0.046875 1.953125 0.203125 2.59375 0.203125 C 3.8125 0.203125 4.59375 -0.796875 4.59375 -2.328125 C 4.59375 -3.8125 3.859375 -4.734375 2.625 -4.734375 C 2 -4.734375 1.546875 -4.5 1.203125 -3.984375 L 1.203125 -6.40625 Z M 2.484375 -4.0625 C 3.3125 -4.0625 3.828125 -3.34375 3.828125 -2.25 C 3.828125 -1.203125 3.296875 -0.484375 2.484375 -0.484375 C 1.703125 -0.484375 1.203125 -1.1875 1.203125 -2.265625 C 1.203125 -3.359375 1.703125 -4.0625 2.484375 -4.0625 Z M 2.484375 -4.0625 "/>
</g>
<g id="glyph-0-18">
<path d="M 0.609375 -4.609375 L 0.609375 0 L 1.34375 0 L 1.34375 -2.390625 C 1.359375 -3.5 1.8125 -4 2.828125 -3.96875 L 2.828125 -4.71875 C 2.703125 -4.734375 2.625 -4.734375 2.546875 -4.734375 C 2.0625 -4.734375 1.703125 -4.453125 1.28125 -3.78125 L 1.28125 -4.609375 Z M 0.609375 -4.609375 "/>
</g>
<g id="glyph-0-19">
<path d="M 4.453125 -0.765625 L 1.171875 -0.765625 C 1.25 -1.296875 1.53125 -1.625 2.296875 -2.09375 L 3.171875 -2.59375 C 4.046875 -3.0625 4.5 -3.71875 4.5 -4.5 C 4.5 -5.03125 4.28125 -5.53125 3.921875 -5.875 C 3.546875 -6.203125 3.09375 -6.359375 2.5 -6.359375 C 1.703125 -6.359375 1.125 -6.078125 0.78125 -5.53125 C 0.546875 -5.203125 0.453125 -4.796875 0.4375 -4.15625 L 1.21875 -4.15625 C 1.234375 -4.59375 1.296875 -4.84375 1.40625 -5.0625 C 1.59375 -5.4375 2 -5.6875 2.46875 -5.6875 C 3.171875 -5.6875 3.703125 -5.171875 3.703125 -4.484375 C 3.703125 -3.96875 3.40625 -3.53125 2.859375 -3.21875 L 2.046875 -2.75 C 0.75 -2 0.375 -1.40625 0.296875 -0.015625 L 4.453125 -0.015625 Z M 4.453125 -0.765625 "/>
</g>
<g id="glyph-0-20">
<path d="M 2.421875 -6.359375 C 1.84375 -6.359375 1.3125 -6.09375 0.984375 -5.671875 C 0.578125 -5.109375 0.375 -4.25 0.375 -3.078125 C 0.375 -0.9375 1.078125 0.203125 2.421875 0.203125 C 3.734375 0.203125 4.453125 -0.9375 4.453125 -3.03125 C 4.453125 -4.25 4.265625 -5.078125 3.859375 -5.671875 C 3.53125 -6.109375 3.015625 -6.359375 2.421875 -6.359375 Z M 2.421875 -5.671875 C 3.25 -5.671875 3.671875 -4.828125 3.671875 -3.09375 C 3.671875 -1.28125 3.265625 -0.4375 2.40625 -0.4375 C 1.578125 -0.4375 1.171875 -1.3125 1.171875 -3.0625 C 1.171875 -4.828125 1.578125 -5.671875 2.421875 -5.671875 Z M 2.421875 -5.671875 "/>
</g>
<g id="glyph-0-21">
<path d="M 1.9375 -2.921875 L 2.359375 -2.921875 C 3.203125 -2.921875 3.65625 -2.53125 3.65625 -1.765625 C 3.65625 -0.96875 3.171875 -0.484375 2.375 -0.484375 C 1.515625 -0.484375 1.109375 -0.921875 1.0625 -1.84375 L 0.28125 -1.84375 C 0.3125 -1.34375 0.40625 -1 0.546875 -0.71875 C 0.875 -0.109375 1.484375 0.203125 2.34375 0.203125 C 3.625 0.203125 4.453125 -0.578125 4.453125 -1.78125 C 4.453125 -2.59375 4.140625 -3.03125 3.390625 -3.296875 C 3.96875 -3.53125 4.265625 -3.96875 4.265625 -4.609375 C 4.265625 -5.703125 3.546875 -6.359375 2.359375 -6.359375 C 1.109375 -6.359375 0.4375 -5.65625 0.40625 -4.3125 L 1.1875 -4.3125 C 1.203125 -4.703125 1.234375 -4.921875 1.328125 -5.109375 C 1.5 -5.46875 1.890625 -5.6875 2.375 -5.6875 C 3.0625 -5.6875 3.46875 -5.265625 3.46875 -4.578125 C 3.46875 -4.140625 3.3125 -3.859375 2.96875 -3.71875 C 2.765625 -3.625 2.484375 -3.59375 1.9375 -3.578125 Z M 1.9375 -2.921875 "/>
</g>
<g id="glyph-0-22">
<path d="M 0.6875 0 L 3.59375 0 C 4.203125 0 4.640625 -0.171875 4.984375 -0.53125 C 5.296875 -0.875 5.484375 -1.328125 5.484375 -1.828125 C 5.484375 -2.609375 5.125 -3.0625 4.3125 -3.390625 C 4.90625 -3.65625 5.203125 -4.125 5.203125 -4.78125 C 5.203125 -5.265625 5.015625 -5.671875 4.6875 -5.96875 C 4.34375 -6.265625 3.921875 -6.40625 3.296875 -6.40625 L 0.6875 -6.40625 Z M 1.515625 -3.65625 L 1.515625 -5.6875 L 3.09375 -5.6875 C 3.546875 -5.6875 3.8125 -5.625 4.03125 -5.46875 C 4.25 -5.28125 4.375 -5.015625 4.375 -4.671875 C 4.375 -4.3125 4.25 -4.0625 4.03125 -3.875 C 3.8125 -3.71875 3.546875 -3.65625 3.09375 -3.65625 Z M 1.515625 -0.71875 L 1.515625 -2.921875 L 3.515625 -2.921875 C 4.234375 -2.921875 4.65625 -2.515625 4.65625 -1.828125 C 4.65625 -1.140625 4.234375 -0.71875 3.515625 -0.71875 Z M 1.515625 -0.71875 "/>
</g>
<g id="glyph-0-23">
<path d="M 4.109375 0 L 5.921875 -5.375 L 5.921875 0 L 6.6875 0 L 6.6875 -6.40625 L 5.5625 -6.40625 L 3.6875 -0.828125 L 1.796875 -6.40625 L 0.65625 -6.40625 L 0.65625 0 L 1.4375 0 L 1.4375 -5.375 L 3.25 0 Z M 4.109375 0 "/>
</g>
<g id="glyph-0-24">
<path d="M 1.703125 -6.40625 L 0.875 -6.40625 L 0.875 0 L 1.703125 0 Z M 1.703125 -6.40625 "/>
</g>
<g id="glyph-0-25">
<path d="M 1.34375 -6.40625 L 0.59375 -6.40625 L 0.59375 0 L 1.34375 0 Z M 1.34375 -6.40625 "/>
</g>
<g id="glyph-0-26">
<path d="M 4.234375 0 L 4.234375 -4.609375 L 3.515625 -4.609375 L 3.515625 -2 C 3.515625 -1.0625 3.015625 -0.4375 2.25 -0.4375 C 1.671875 -0.4375 1.296875 -0.796875 1.296875 -1.34375 L 1.296875 -4.609375 L 0.578125 -4.609375 L 0.578125 -1.0625 C 0.578125 -0.296875 1.140625 0.203125 2.046875 0.203125 C 2.71875 0.203125 3.15625 -0.03125 3.578125 -0.640625 L 3.578125 0 Z M 4.234375 0 "/>
</g>
<g id="glyph-0-27">
<path d="M 0.46875 1.921875 L 1.21875 1.921875 L 1.21875 -0.484375 C 1.59375 -0.015625 2.03125 0.203125 2.625 0.203125 C 3.828125 0.203125 4.59375 -0.75 4.59375 -2.21875 C 4.59375 -3.78125 3.84375 -4.734375 2.625 -4.734375 C 2 -4.734375 1.5 -4.453125 1.15625 -3.921875 L 1.15625 -4.609375 L 0.46875 -4.609375 Z M 2.5 -4.0625 C 3.3125 -4.0625 3.828125 -3.34375 3.828125 -2.25 C 3.828125 -1.203125 3.296875 -0.484375 2.5 -0.484375 C 1.71875 -0.484375 1.21875 -1.1875 1.21875 -2.265625 C 1.21875 -3.359375 1.71875 -4.0625 2.5 -4.0625 Z M 2.5 -4.0625 "/>
</g>
<g id="glyph-0-28">
<path d="M 4.703125 -3.109375 L 0.4375 -3.109375 L 0.4375 -2.484375 L 4.703125 -2.484375 Z M 4.703125 -1.59375 L 0.4375 -1.59375 L 0.4375 -0.96875 L 4.703125 -0.96875 Z M 4.703125 -1.59375 "/>
</g>
<g id="glyph-0-29">
<path d="M 0.609375 -4.609375 L 0.609375 0 L 1.359375 0 L 1.359375 -2.890625 C 1.359375 -3.5625 1.84375 -4.09375 2.4375 -4.09375 C 2.984375 -4.09375 3.296875 -3.765625 3.296875 -3.171875 L 3.296875 0 L 4.03125 0 L 4.03125 -2.890625 C 4.03125 -3.5625 4.515625 -4.09375 5.109375 -4.09375 C 5.640625 -4.09375 5.96875 -3.75 5.96875 -3.171875 L 5.96875 0 L 6.703125 0 L 6.703125 -3.453125 C 6.703125 -4.28125 6.234375 -4.734375 5.359375 -4.734375 C 4.75 -4.734375 4.375 -4.5625 3.953125 -4.03125 C 3.671875 -4.53125 3.3125 -4.734375 2.703125 -4.734375 C 2.09375 -4.734375 1.6875 -4.515625 1.296875 -3.953125 L 1.296875 -4.609375 Z M 0.609375 -4.609375 "/>
</g>
<g id="glyph-0-30">
<path d="M 4.359375 -6.40625 L 3.625 -6.40625 L 3.625 -4.03125 C 3.3125 -4.5 2.828125 -4.734375 2.203125 -4.734375 C 1.015625 -4.734375 0.234375 -3.78125 0.234375 -2.3125 C 0.234375 -0.75 0.984375 0.203125 2.234375 0.203125 C 2.875 0.203125 3.3125 -0.03125 3.703125 -0.609375 L 3.703125 0 L 4.359375 0 Z M 2.328125 -4.0625 C 3.125 -4.0625 3.625 -3.359375 3.625 -2.25 C 3.625 -1.1875 3.109375 -0.484375 2.34375 -0.484375 C 1.53125 -0.484375 1 -1.203125 1 -2.265625 C 1 -3.34375 1.53125 -4.0625 2.328125 -4.0625 Z M 2.328125 -4.0625 "/>
</g>
<g id="glyph-0-31">
<path d="M 1.890625 -4.609375 L 0.96875 -4.609375 L 0.96875 -3.6875 L 1.890625 -3.6875 Z M 0.96875 -0.921875 L 0.96875 0 L 1.5 0 L 1.5 0.15625 C 1.5 0.765625 1.375 0.9375 0.96875 0.953125 L 0.96875 1.296875 C 1.546875 1.3125 1.890625 0.890625 1.890625 0.140625 L 1.890625 -0.921875 Z M 0.96875 -0.921875 "/>
</g>
<g id="glyph-0-32">
<path d="M 3.4375 -3.296875 L 5.609375 -6.40625 L 4.625 -6.40625 L 2.96875 -3.890625 L 1.328125 -6.40625 L 0.328125 -6.40625 L 2.46875 -3.296875 L 0.1875 0 L 1.1875 0 L 2.953125 -2.671875 L 4.703125 0 L 5.703125 0 Z M 3.4375 -3.296875 "/>
</g>
<g id="glyph-0-33">
<path d="M 6.453125 0.015625 L 5.625 -0.671875 C 6.234375 -1.34375 6.53125 -2.15625 6.53125 -3.171875 C 6.53125 -5.171875 5.28125 -6.515625 3.4375 -6.515625 C 1.578125 -6.515625 0.328125 -5.171875 0.328125 -3.15625 C 0.328125 -1.15625 1.578125 0.203125 3.4375 0.203125 C 4.078125 0.203125 4.59375 0.0625 5.109375 -0.25 L 6.03125 0.515625 Z M 4.234375 -1.796875 L 3.828125 -1.3125 L 4.484375 -0.765625 C 4.09375 -0.578125 3.8125 -0.515625 3.421875 -0.515625 C 2.0625 -0.515625 1.15625 -1.578125 1.15625 -3.15625 C 1.15625 -4.734375 2.0625 -5.796875 3.4375 -5.796875 C 4.796875 -5.796875 5.703125 -4.734375 5.703125 -3.171875 C 5.703125 -2.328125 5.484375 -1.703125 5.015625 -1.15625 Z M 4.234375 -1.796875 "/>
</g>
<g id="glyph-0-34">
<path d="M 1.640625 -2.765625 L 3.75 -2.765625 C 4.484375 -2.765625 4.796875 -2.40625 4.796875 -1.625 L 4.796875 -1.046875 C 4.796875 -0.65625 4.859375 -0.265625 4.984375 0 L 5.96875 0 L 5.96875 -0.203125 C 5.671875 -0.40625 5.609375 -0.640625 5.59375 -1.5 C 5.578125 -2.546875 5.40625 -2.875 4.71875 -3.171875 C 5.4375 -3.53125 5.734375 -3.953125 5.734375 -4.703125 C 5.734375 -5.8125 5.046875 -6.40625 3.78125 -6.40625 L 0.8125 -6.40625 L 0.8125 0 L 1.640625 0 Z M 1.640625 -3.484375 L 1.640625 -5.6875 L 3.609375 -5.6875 C 4.078125 -5.6875 4.34375 -5.625 4.546875 -5.4375 C 4.765625 -5.265625 4.875 -4.96875 4.875 -4.59375 C 4.875 -3.828125 4.484375 -3.484375 3.609375 -3.484375 Z M 1.640625 -3.484375 "/>
</g>
<g id="glyph-1-0">
<path d="M 5.234375 -7.796875 L 1.203125 -7.796875 L 0.625 -3.546875 L 1.515625 -3.546875 C 1.96875 -4.09375 2.34375 -4.28125 2.953125 -4.28125 C 4 -4.28125 4.65625 -3.5625 4.65625 -2.40625 C 4.65625 -1.28125 4 -0.609375 2.953125 -0.609375 C 2.09375 -0.609375 1.578125 -1.03125 1.359375 -1.90625 L 0.390625 -1.90625 C 0.515625 -1.28125 0.625 -0.96875 0.859375 -0.6875 C 1.296875 -0.09375 2.09375 0.25 2.96875 0.25 C 4.546875 0.25 5.640625 -0.890625 5.640625 -2.546875 C 5.640625 -4.078125 4.625 -5.140625 3.125 -5.140625 C 2.578125 -5.140625 2.140625 -5 1.6875 -4.65625 L 1.984375 -6.84375 L 5.234375 -6.84375 Z M 5.234375 -7.796875 "/>
</g>
<g id="glyph-1-1">
<path d="M 5.484375 -5.890625 C 5.296875 -7.1875 4.453125 -7.953125 3.265625 -7.953125 C 2.40625 -7.953125 1.640625 -7.53125 1.171875 -6.8125 C 0.6875 -6.03125 0.46875 -5.078125 0.46875 -3.625 C 0.46875 -2.28125 0.65625 -1.4375 1.140625 -0.734375 C 1.546875 -0.09375 2.234375 0.25 3.09375 0.25 C 4.578125 0.25 5.640625 -0.859375 5.640625 -2.40625 C 5.640625 -3.875 4.65625 -4.90625 3.25 -4.90625 C 2.484375 -4.90625 1.875 -4.625 1.46875 -4.03125 C 1.46875 -6 2.09375 -7.09375 3.203125 -7.09375 C 3.890625 -7.09375 4.359375 -6.65625 4.515625 -5.890625 Z M 3.140625 -4.046875 C 4.0625 -4.046875 4.65625 -3.390625 4.65625 -2.328125 C 4.65625 -1.328125 4 -0.609375 3.109375 -0.609375 C 2.203125 -0.609375 1.515625 -1.359375 1.515625 -2.375 C 1.515625 -3.359375 2.171875 -4.046875 3.140625 -4.046875 Z M 3.140625 -4.046875 "/>
</g>
<g id="glyph-1-2">
<path d="M 3.03125 -7.953125 C 2.296875 -7.953125 1.640625 -7.625 1.234375 -7.078125 C 0.71875 -6.375 0.46875 -5.328125 0.46875 -3.84375 C 0.46875 -1.171875 1.359375 0.25 3.03125 0.25 C 4.671875 0.25 5.578125 -1.171875 5.578125 -3.78125 C 5.578125 -5.328125 5.328125 -6.359375 4.8125 -7.078125 C 4.40625 -7.640625 3.765625 -7.953125 3.03125 -7.953125 Z M 3.03125 -7.09375 C 4.0625 -7.09375 4.59375 -6.03125 4.59375 -3.875 C 4.59375 -1.609375 4.078125 -0.546875 3 -0.546875 C 1.984375 -0.546875 1.46875 -1.65625 1.46875 -3.84375 C 1.46875 -6.03125 1.984375 -7.09375 3.03125 -7.09375 Z M 3.03125 -7.09375 "/>
</g>
<g id="glyph-1-3">
<path d="M 5.71875 -7.796875 L 0.5 -7.796875 L 0.5 -6.84375 L 4.71875 -6.84375 C 2.859375 -4.1875 2.09375 -2.5625 1.515625 0 L 2.546875 0 C 2.984375 -2.5 3.953125 -4.640625 5.71875 -6.984375 Z M 5.71875 -7.796875 "/>
</g>
<g id="glyph-1-4">
<path d="M 3.125 -3.4375 L 0.5 -3.4375 L 0.5 -2.640625 L 3.125 -2.640625 Z M 3.125 -3.4375 "/>
</g>
<g id="glyph-1-5">
<path d="M 2.84375 -5.671875 L 2.84375 0 L 3.8125 0 L 3.8125 -7.953125 L 3.171875 -7.953125 C 2.84375 -6.734375 2.625 -6.5625 1.125 -6.375 L 1.125 -5.671875 Z M 2.84375 -5.671875 "/>
</g>
<g id="glyph-1-6">
<path d="M 4.296875 -4.1875 C 5.109375 -4.6875 5.375 -5.078125 5.375 -5.828125 C 5.375 -7.078125 4.40625 -7.953125 3.03125 -7.953125 C 1.65625 -7.953125 0.6875 -7.078125 0.6875 -5.84375 C 0.6875 -5.078125 0.9375 -4.703125 1.734375 -4.1875 C 0.84375 -3.734375 0.40625 -3.09375 0.40625 -2.21875 C 0.40625 -0.765625 1.46875 0.25 3.03125 0.25 C 4.5625 0.25 5.640625 -0.765625 5.640625 -2.21875 C 5.640625 -3.09375 5.203125 -3.734375 4.296875 -4.1875 Z M 3.03125 -7.09375 C 3.84375 -7.09375 4.375 -6.59375 4.375 -5.8125 C 4.375 -5.0625 3.84375 -4.5625 3.03125 -4.5625 C 2.203125 -4.5625 1.671875 -5.0625 1.671875 -5.828125 C 1.671875 -6.59375 2.203125 -7.09375 3.03125 -7.09375 Z M 3.03125 -3.75 C 4 -3.75 4.65625 -3.109375 4.65625 -2.1875 C 4.65625 -1.234375 4 -0.609375 3 -0.609375 C 2.0625 -0.609375 1.390625 -1.25 1.390625 -2.171875 C 1.390625 -3.125 2.046875 -3.75 3.03125 -3.75 Z M 3.03125 -3.75 "/>
</g>
<g id="glyph-1-7">
<path d="M 3.59375 -1.921875 L 3.59375 0 L 4.5625 0 L 4.5625 -1.921875 L 5.71875 -1.921875 L 5.71875 -2.796875 L 4.5625 -2.796875 L 4.5625 -7.953125 L 3.84375 -7.953125 L 0.3125 -2.953125 L 0.3125 -1.921875 Z M 3.59375 -2.796875 L 1.15625 -2.796875 L 3.59375 -6.296875 Z M 3.59375 -2.796875 "/>
</g>
<g id="glyph-1-8">
<path d="M 5.5625 -0.953125 L 1.46875 -0.953125 C 1.5625 -1.609375 1.90625 -2.03125 2.875 -2.625 L 3.96875 -3.234375 C 5.0625 -3.84375 5.625 -4.65625 5.625 -5.625 C 5.625 -6.296875 5.359375 -6.90625 4.890625 -7.34375 C 4.4375 -7.75 3.859375 -7.953125 3.125 -7.953125 C 2.140625 -7.953125 1.390625 -7.59375 0.96875 -6.921875 C 0.6875 -6.5 0.578125 -6 0.546875 -5.203125 L 1.515625 -5.203125 C 1.546875 -5.734375 1.609375 -6.0625 1.75 -6.328125 C 2 -6.8125 2.515625 -7.109375 3.09375 -7.109375 C 3.96875 -7.109375 4.625 -6.46875 4.625 -5.609375 C 4.625 -4.96875 4.265625 -4.421875 3.578125 -4.03125 L 2.5625 -3.4375 C 0.9375 -2.5 0.46875 -1.75 0.375 -0.015625 L 5.5625 -0.015625 Z M 5.5625 -0.953125 "/>
</g>
<g id="glyph-1-9">
<path d="M 2.4375 -3.65625 L 2.953125 -3.65625 C 4.015625 -3.65625 4.578125 -3.171875 4.578125 -2.21875 C 4.578125 -1.203125 3.96875 -0.609375 2.96875 -0.609375 C 1.90625 -0.609375 1.390625 -1.140625 1.3125 -2.3125 L 0.359375 -2.3125 C 0.390625 -1.671875 0.5 -1.25 0.6875 -0.90625 C 1.09375 -0.125 1.859375 0.25 2.921875 0.25 C 4.53125 0.25 5.5625 -0.71875 5.5625 -2.21875 C 5.5625 -3.234375 5.1875 -3.78125 4.25 -4.109375 C 4.96875 -4.40625 5.328125 -4.96875 5.328125 -5.765625 C 5.328125 -7.125 4.4375 -7.953125 2.953125 -7.953125 C 1.390625 -7.953125 0.546875 -7.078125 0.515625 -5.390625 L 1.484375 -5.390625 C 1.5 -5.875 1.546875 -6.15625 1.65625 -6.390625 C 1.875 -6.84375 2.359375 -7.109375 2.96875 -7.109375 C 3.828125 -7.109375 4.34375 -6.59375 4.34375 -5.734375 C 4.34375 -5.171875 4.140625 -4.828125 3.71875 -4.640625 C 3.453125 -4.53125 3.109375 -4.484375 2.4375 -4.484375 Z M 2.4375 -3.65625 "/>
</g>
<g id="glyph-1-10">
<path d="M 4.3125 0 L 7.09375 -8.015625 L 6 -8.015625 L 3.78125 -1.234375 L 1.4375 -8.015625 L 0.328125 -8.015625 L 3.21875 0 Z M 4.3125 0 "/>
</g>
<g id="glyph-1-11">
<path d="M 5.890625 -0.53125 C 5.78125 -0.515625 5.734375 -0.515625 5.6875 -0.515625 C 5.375 -0.515625 5.1875 -0.6875 5.1875 -0.96875 L 5.1875 -4.359375 C 5.1875 -5.375 4.4375 -5.921875 3.03125 -5.921875 C 2.171875 -5.921875 1.5 -5.6875 1.109375 -5.265625 C 0.84375 -4.96875 0.734375 -4.625 0.71875 -4.0625 L 1.640625 -4.0625 C 1.71875 -4.765625 2.140625 -5.078125 2.984375 -5.078125 C 3.828125 -5.078125 4.28125 -4.78125 4.28125 -4.21875 L 4.28125 -3.984375 C 4.265625 -3.59375 4.0625 -3.4375 3.328125 -3.34375 C 2.03125 -3.171875 1.828125 -3.140625 1.46875 -2.984375 C 0.796875 -2.703125 0.46875 -2.203125 0.46875 -1.453125 C 0.46875 -0.40625 1.1875 0.25 2.359375 0.25 C 3.078125 0.25 3.65625 0 4.3125 -0.59375 C 4.375 0 4.65625 0.25 5.265625 0.25 C 5.453125 0.25 5.578125 0.234375 5.890625 0.15625 Z M 4.28125 -1.8125 C 4.28125 -1.5 4.1875 -1.3125 3.921875 -1.0625 C 3.546875 -0.71875 3.09375 -0.546875 2.546875 -0.546875 C 1.84375 -0.546875 1.421875 -0.890625 1.421875 -1.46875 C 1.421875 -2.078125 1.8125 -2.390625 2.8125 -2.53125 C 3.78125 -2.65625 3.96875 -2.703125 4.28125 -2.84375 Z M 4.28125 -1.8125 "/>
</g>
<g id="glyph-1-12">
<path d="M 1.671875 -8.015625 L 0.75 -8.015625 L 0.75 0 L 1.671875 0 Z M 1.671875 -8.015625 "/>
</g>
<g id="glyph-1-13">
<path d="M 5.296875 0 L 5.296875 -5.765625 L 4.390625 -5.765625 L 4.390625 -2.5 C 4.390625 -1.3125 3.765625 -0.546875 2.8125 -0.546875 C 2.09375 -0.546875 1.625 -0.984375 1.625 -1.6875 L 1.625 -5.765625 L 0.71875 -5.765625 L 0.71875 -1.3125 C 0.71875 -0.359375 1.4375 0.25 2.546875 0.25 C 3.40625 0.25 3.9375 -0.046875 4.484375 -0.796875 L 4.484375 0 Z M 5.296875 0 "/>
</g>
<g id="glyph-1-14">
<path d="M 5.640625 -2.578125 C 5.640625 -3.453125 5.578125 -3.984375 5.40625 -4.40625 C 5.03125 -5.359375 4.15625 -5.921875 3.078125 -5.921875 C 1.46875 -5.921875 0.4375 -4.703125 0.4375 -2.8125 C 0.4375 -0.90625 1.4375 0.25 3.0625 0.25 C 4.375 0.25 5.296875 -0.5 5.515625 -1.75 L 4.59375 -1.75 C 4.34375 -0.984375 3.828125 -0.59375 3.09375 -0.59375 C 2.515625 -0.59375 2.015625 -0.859375 1.703125 -1.34375 C 1.484375 -1.671875 1.40625 -2 1.390625 -2.578125 Z M 1.421875 -3.328125 C 1.5 -4.390625 2.140625 -5.078125 3.0625 -5.078125 C 4 -5.078125 4.65625 -4.359375 4.65625 -3.328125 Z M 1.421875 -3.328125 "/>
</g>
</g>
<clipPath id="clip-0">
<path clip-rule="nonzero" d="M 8.21875 32.75 L 142.628906 32.75 L 142.628906 178.371094 L 8.21875 178.371094 Z M 8.21875 32.75 "/>
</clipPath>
<clipPath id="clip-1">
<path clip-rule="nonzero" d="M 8.21875 159 L 142.628906 159 L 142.628906 161 L 8.21875 161 Z M 8.21875 159 "/>
</clipPath>
<clipPath id="clip-2">
<path clip-rule="nonzero" d="M 8.21875 123 L 142.628906 123 L 142.628906 125 L 8.21875 125 Z M 8.21875 123 "/>
</clipPath>
<clipPath id="clip-3">
<path clip-rule="nonzero" d="M 8.21875 87 L 142.628906 87 L 142.628906 88 L 8.21875 88 Z M 8.21875 87 "/>
</clipPath>
<clipPath id="clip-4">
<path clip-rule="nonzero" d="M 8.21875 50 L 142.628906 50 L 142.628906 52 L 8.21875 52 Z M 8.21875 50 "/>
</clipPath>
<clipPath id="clip-5">
<path clip-rule="nonzero" d="M 25 32.75 L 26 32.75 L 26 178.371094 L 25 178.371094 Z M 25 32.75 "/>
</clipPath>
<clipPath id="clip-6">
<path clip-rule="nonzero" d="M 57 32.75 L 59 32.75 L 59 178.371094 L 57 178.371094 Z M 57 32.75 "/>
</clipPath>
<clipPath id="clip-7">
<path clip-rule="nonzero" d="M 90 32.75 L 92 32.75 L 92 178.371094 L 90 178.371094 Z M 90 32.75 "/>
</clipPath>
<clipPath id="clip-8">
<path clip-rule="nonzero" d="M 123 32.75 L 124 32.75 L 124 178.371094 L 123 178.371094 Z M 123 32.75 "/>
</clipPath>
<clipPath id="clip-9">
<path clip-rule="nonzero" d="M 8.21875 177 L 142.628906 177 L 142.628906 178.371094 L 8.21875 178.371094 Z M 8.21875 177 "/>
</clipPath>
<clipPath id="clip-10">
<path clip-rule="nonzero" d="M 8.21875 141 L 142.628906 141 L 142.628906 143 L 8.21875 143 Z M 8.21875 141 "/>
</clipPath>
<clipPath id="clip-11">
<path clip-rule="nonzero" d="M 8.21875 105 L 142.628906 105 L 142.628906 107 L 8.21875 107 Z M 8.21875 105 "/>
</clipPath>
<clipPath id="clip-12">
<path clip-rule="nonzero" d="M 8.21875 68 L 142.628906 68 L 142.628906 70 L 8.21875 70 Z M 8.21875 68 "/>
</clipPath>
<clipPath id="clip-13">
<path clip-rule="nonzero" d="M 8.21875 32.75 L 142.628906 32.75 L 142.628906 34 L 8.21875 34 Z M 8.21875 32.75 "/>
</clipPath>
<clipPath id="clip-14">
<path clip-rule="nonzero" d="M 8.21875 32.75 L 10 32.75 L 10 178.371094 L 8.21875 178.371094 Z M 8.21875 32.75 "/>
</clipPath>
<clipPath id="clip-15">
<path clip-rule="nonzero" d="M 41 32.75 L 43 32.75 L 43 178.371094 L 41 178.371094 Z M 41 32.75 "/>
</clipPath>
<clipPath id="clip-16">
<path clip-rule="nonzero" d="M 73 32.75 L 75 32.75 L 75 178.371094 L 73 178.371094 Z M 73 32.75 "/>
</clipPath>
<clipPath id="clip-17">
<path clip-rule="nonzero" d="M 106 32.75 L 108 32.75 L 108 178.371094 L 106 178.371094 Z M 106 32.75 "/>
</clipPath>
<clipPath id="clip-18">
<path clip-rule="nonzero" d="M 139 32.75 L 141 32.75 L 141 178.371094 L 139 178.371094 Z M 139 32.75 "/>
</clipPath>
<clipPath id="clip-19">
<path clip-rule="nonzero" d="M 8.21875 32.75 L 142.628906 32.75 L 142.628906 178.371094 L 8.21875 178.371094 Z M 8.21875 32.75 "/>
</clipPath>
<clipPath id="clip-20">
<path clip-rule="nonzero" d="M 150.847656 32.75 L 285.257812 32.75 L 285.257812 178.371094 L 150.847656 178.371094 Z M 150.847656 32.75 "/>
</clipPath>
<clipPath id="clip-21">
<path clip-rule="nonzero" d="M 150.847656 159 L 285.257812 159 L 285.257812 161 L 150.847656 161 Z M 150.847656 159 "/>
</clipPath>
<clipPath id="clip-22">
<path clip-rule="nonzero" d="M 150.847656 123 L 285.257812 123 L 285.257812 125 L 150.847656 125 Z M 150.847656 123 "/>
</clipPath>
<clipPath id="clip-23">
<path clip-rule="nonzero" d="M 150.847656 87 L 285.257812 87 L 285.257812 88 L 150.847656 88 Z M 150.847656 87 "/>
</clipPath>
<clipPath id="clip-24">
<path clip-rule="nonzero" d="M 150.847656 50 L 285.257812 50 L 285.257812 52 L 150.847656 52 Z M 150.847656 50 "/>
</clipPath>
<clipPath id="clip-25">
<path clip-rule="nonzero" d="M 169 32.75 L 171 32.75 L 171 178.371094 L 169 178.371094 Z M 169 32.75 "/>
</clipPath>
<clipPath id="clip-26">
<path clip-rule="nonzero" d="M 202 32.75 L 204 32.75 L 204 178.371094 L 202 178.371094 Z M 202 32.75 "/>
</clipPath>
<clipPath id="clip-27">
<path clip-rule="nonzero" d="M 236 32.75 L 237 32.75 L 237 178.371094 L 236 178.371094 Z M 236 32.75 "/>
</clipPath>
<clipPath id="clip-28">
<path clip-rule="nonzero" d="M 269 32.75 L 271 32.75 L 271 178.371094 L 269 178.371094 Z M 269 32.75 "/>
</clipPath>
<clipPath id="clip-29">
<path clip-rule="nonzero" d="M 150.847656 177 L 285.257812 177 L 285.257812 178.371094 L 150.847656 178.371094 Z M 150.847656 177 "/>
</clipPath>
<clipPath id="clip-30">
<path clip-rule="nonzero" d="M 150.847656 141 L 285.257812 141 L 285.257812 143 L 150.847656 143 Z M 150.847656 141 "/>
</clipPath>
<clipPath id="clip-31">
<path clip-rule="nonzero" d="M 150.847656 105 L 285.257812 105 L 285.257812 107 L 150.847656 107 Z M 150.847656 105 "/>
</clipPath>
<clipPath id="clip-32">
<path clip-rule="nonzero" d="M 150.847656 68 L 285.257812 68 L 285.257812 70 L 150.847656 70 Z M 150.847656 68 "/>
</clipPath>
<clipPath id="clip-33">
<path clip-rule="nonzero" d="M 150.847656 32.75 L 285.257812 32.75 L 285.257812 34 L 150.847656 34 Z M 150.847656 32.75 "/>
</clipPath>
<clipPath id="clip-34">
<path clip-rule="nonzero" d="M 152 32.75 L 154 32.75 L 154 178.371094 L 152 178.371094 Z M 152 32.75 "/>
</clipPath>
<clipPath id="clip-35">
<path clip-rule="nonzero" d="M 185 32.75 L 188 32.75 L 188 178.371094 L 185 178.371094 Z M 185 32.75 "/>
</clipPath>
<clipPath id="clip-36">
<path clip-rule="nonzero" d="M 219 32.75 L 221 32.75 L 221 178.371094 L 219 178.371094 Z M 219 32.75 "/>
</clipPath>
<clipPath id="clip-37">
<path clip-rule="nonzero" d="M 252 32.75 L 254 32.75 L 254 178.371094 L 252 178.371094 Z M 252 32.75 "/>
</clipPath>
<clipPath id="clip-38">
<path clip-rule="nonzero" d="M 150.847656 32.75 L 285.257812 32.75 L 285.257812 178.371094 L 150.847656 178.371094 Z M 150.847656 32.75 "/>
</clipPath>
<clipPath id="clip-39">
<path clip-rule="nonzero" d="M 293.480469 32.75 L 427.890625 32.75 L 427.890625 178.371094 L 293.480469 178.371094 Z M 293.480469 32.75 "/>
</clipPath>
<clipPath id="clip-40">
<path clip-rule="nonzero" d="M 293.480469 159 L 427.890625 159 L 427.890625 161 L 293.480469 161 Z M 293.480469 159 "/>
</clipPath>
<clipPath id="clip-41">
<path clip-rule="nonzero" d="M 293.480469 123 L 427.890625 123 L 427.890625 125 L 293.480469 125 Z M 293.480469 123 "/>
</clipPath>
<clipPath id="clip-42">
<path clip-rule="nonzero" d="M 293.480469 87 L 427.890625 87 L 427.890625 88 L 293.480469 88 Z M 293.480469 87 "/>
</clipPath>
<clipPath id="clip-43">
<path clip-rule="nonzero" d="M 293.480469 50 L 427.890625 50 L 427.890625 52 L 293.480469 52 Z M 293.480469 50 "/>
</clipPath>
<clipPath id="clip-44">
<path clip-rule="nonzero" d="M 293.480469 32.75 L 294 32.75 L 294 178.371094 L 293.480469 178.371094 Z M 293.480469 32.75 "/>
</clipPath>
<clipPath id="clip-45">
<path clip-rule="nonzero" d="M 319 32.75 L 321 32.75 L 321 178.371094 L 319 178.371094 Z M 319 32.75 "/>
</clipPath>
<clipPath id="clip-46">
<path clip-rule="nonzero" d="M 346 32.75 L 348 32.75 L 348 178.371094 L 346 178.371094 Z M 346 32.75 "/>
</clipPath>
<clipPath id="clip-47">
<path clip-rule="nonzero" d="M 373 32.75 L 374 32.75 L 374 178.371094 L 373 178.371094 Z M 373 32.75 "/>
</clipPath>
<clipPath id="clip-48">
<path clip-rule="nonzero" d="M 399 32.75 L 401 32.75 L 401 178.371094 L 399 178.371094 Z M 399 32.75 "/>
</clipPath>
<clipPath id="clip-49">
<path clip-rule="nonzero" d="M 426 32.75 L 427 32.75 L 427 178.371094 L 426 178.371094 Z M 426 32.75 "/>
</clipPath>
<clipPath id="clip-50">
<path clip-rule="nonzero" d="M 293.480469 177 L 427.890625 177 L 427.890625 178.371094 L 293.480469 178.371094 Z M 293.480469 177 "/>
</clipPath>
<clipPath id="clip-51">
<path clip-rule="nonzero" d="M 293.480469 141 L 427.890625 141 L 427.890625 143 L 293.480469 143 Z M 293.480469 141 "/>
</clipPath>
<clipPath id="clip-52">
<path clip-rule="nonzero" d="M 293.480469 105 L 427.890625 105 L 427.890625 107 L 293.480469 107 Z M 293.480469 105 "/>
</clipPath>
<clipPath id="clip-53">
<path clip-rule="nonzero" d="M 293.480469 68 L 427.890625 68 L 427.890625 70 L 293.480469 70 Z M 293.480469 68 "/>
</clipPath>
<clipPath id="clip-54">
<path clip-rule="nonzero" d="M 293.480469 32.75 L 427.890625 32.75 L 427.890625 34 L 293.480469 34 Z M 293.480469 32.75 "/>
</clipPath>
<clipPath id="clip-55">
<path clip-rule="nonzero" d="M 306 32.75 L 308 32.75 L 308 178.371094 L 306 178.371094 Z M 306 32.75 "/>
</clipPath>
<clipPath id="clip-56">
<path clip-rule="nonzero" d="M 332 32.75 L 335 32.75 L 335 178.371094 L 332 178.371094 Z M 332 32.75 "/>
</clipPath>
<clipPath id="clip-57">
<path clip-rule="nonzero" d="M 359 32.75 L 361 32.75 L 361 178.371094 L 359 178.371094 Z M 359 32.75 "/>
</clipPath>
<clipPath id="clip-58">
<path clip-rule="nonzero" d="M 386 32.75 L 388 32.75 L 388 178.371094 L 386 178.371094 Z M 386 32.75 "/>
</clipPath>
<clipPath id="clip-59">
<path clip-rule="nonzero" d="M 412 32.75 L 414 32.75 L 414 178.371094 L 412 178.371094 Z M 412 32.75 "/>
</clipPath>
<clipPath id="clip-60">
<path clip-rule="nonzero" d="M 293.480469 32.75 L 427.890625 32.75 L 427.890625 178.371094 L 293.480469 178.371094 Z M 293.480469 32.75 "/>
</clipPath>
<clipPath id="clip-61">
<path clip-rule="nonzero" d="M 436.109375 32.75 L 570.519531 32.75 L 570.519531 178.371094 L 436.109375 178.371094 Z M 436.109375 32.75 "/>
</clipPath>
<clipPath id="clip-62">
<path clip-rule="nonzero" d="M 436.109375 159 L 570.519531 159 L 570.519531 161 L 436.109375 161 Z M 436.109375 159 "/>
</clipPath>
<clipPath id="clip-63">
<path clip-rule="nonzero" d="M 436.109375 123 L 570.519531 123 L 570.519531 125 L 436.109375 125 Z M 436.109375 123 "/>
</clipPath>
<clipPath id="clip-64">
<path clip-rule="nonzero" d="M 436.109375 87 L 570.519531 87 L 570.519531 88 L 436.109375 88 Z M 436.109375 87 "/>
</clipPath>
<clipPath id="clip-65">
<path clip-rule="nonzero" d="M 436.109375 50 L 570.519531 50 L 570.519531 52 L 436.109375 52 Z M 436.109375 50 "/>
</clipPath>
<clipPath id="clip-66">
<path clip-rule="nonzero" d="M 454 32.75 L 456 32.75 L 456 178.371094 L 454 178.371094 Z M 454 32.75 "/>
</clipPath>
<clipPath id="clip-67">
<path clip-rule="nonzero" d="M 488 32.75 L 489 32.75 L 489 178.371094 L 488 178.371094 Z M 488 32.75 "/>
</clipPath>
<clipPath id="clip-68">
<path clip-rule="nonzero" d="M 521 32.75 L 523 32.75 L 523 178.371094 L 521 178.371094 Z M 521 32.75 "/>
</clipPath>
<clipPath id="clip-69">
<path clip-rule="nonzero" d="M 554 32.75 L 556 32.75 L 556 178.371094 L 554 178.371094 Z M 554 32.75 "/>
</clipPath>
<clipPath id="clip-70">
<path clip-rule="nonzero" d="M 436.109375 177 L 570.519531 177 L 570.519531 178.371094 L 436.109375 178.371094 Z M 436.109375 177 "/>
</clipPath>
<clipPath id="clip-71">
<path clip-rule="nonzero" d="M 436.109375 141 L 570.519531 141 L 570.519531 143 L 436.109375 143 Z M 436.109375 141 "/>
</clipPath>
<clipPath id="clip-72">
<path clip-rule="nonzero" d="M 436.109375 105 L 570.519531 105 L 570.519531 107 L 436.109375 107 Z M 436.109375 105 "/>
</clipPath>
<clipPath id="clip-73">
<path clip-rule="nonzero" d="M 436.109375 68 L 570.519531 68 L 570.519531 70 L 436.109375 70 Z M 436.109375 68 "/>
</clipPath>
<clipPath id="clip-74">
<path clip-rule="nonzero" d="M 436.109375 32.75 L 570.519531 32.75 L 570.519531 34 L 436.109375 34 Z M 436.109375 32.75 "/>
</clipPath>
<clipPath id="clip-75">
<path clip-rule="nonzero" d="M 437 32.75 L 439 32.75 L 439 178.371094 L 437 178.371094 Z M 437 32.75 "/>
</clipPath>
<clipPath id="clip-76">
<path clip-rule="nonzero" d="M 471 32.75 L 473 32.75 L 473 178.371094 L 471 178.371094 Z M 471 32.75 "/>
</clipPath>
<clipPath id="clip-77">
<path clip-rule="nonzero" d="M 504 32.75 L 506 32.75 L 506 178.371094 L 504 178.371094 Z M 504 32.75 "/>
</clipPath>
<clipPath id="clip-78">
<path clip-rule="nonzero" d="M 537 32.75 L 540 32.75 L 540 178.371094 L 537 178.371094 Z M 537 32.75 "/>
</clipPath>
<clipPath id="clip-79">
<path clip-rule="nonzero" d="M 436.109375 32.75 L 570.519531 32.75 L 570.519531 178.371094 L 436.109375 178.371094 Z M 436.109375 32.75 "/>
</clipPath>
<clipPath id="clip-80">
<path clip-rule="nonzero" d="M 8.21875 5.480469 L 142.628906 5.480469 L 142.628906 32.75 L 8.21875 32.75 Z M 8.21875 5.480469 "/>
</clipPath>
<clipPath id="clip-81">
<path clip-rule="nonzero" d="M 150.847656 5.480469 L 285.257812 5.480469 L 285.257812 32.75 L 150.847656 32.75 Z M 150.847656 5.480469 "/>
</clipPath>
<clipPath id="clip-82">
<path clip-rule="nonzero" d="M 293.480469 5.480469 L 427.890625 5.480469 L 427.890625 32.75 L 293.480469 32.75 Z M 293.480469 5.480469 "/>
</clipPath>
<clipPath id="clip-83">
<path clip-rule="nonzero" d="M 436.109375 5.480469 L 570.519531 5.480469 L 570.519531 32.75 L 436.109375 32.75 Z M 436.109375 5.480469 "/>
</clipPath>
</defs>
<rect x="-57.6" y="-23" width="691.2" height="276" fill="rgb(100%, 100%, 100%)" fill-opacity="1"/>
<rect x="-57.6" y="-23" width="691.2" height="276" fill="rgb(100%, 100%, 100%)" fill-opacity="1"/>
<path fill="none" stroke-width="1.066978" stroke-linecap="round" stroke-linejoin="round" stroke="rgb(100%, 100%, 100%)" stroke-opacity="1" stroke-miterlimit="10" d="M 0 230 L 576 230 L 576 0 L 0 0 Z M 0 230 "/>
<g clip-path="url(#clip-0)">
<path fill-rule="nonzero" fill="rgb(100%, 100%, 100%)" fill-opacity="1" stroke-width="1.066978" stroke-linecap="round" stroke-linejoin="round" stroke="rgb(0%, 0%, 0%)" stroke-opacity="1" stroke-miterlimit="10" d="M 8.21875 178.371094 L 142.628906 178.371094 L 142.628906 32.75 L 8.21875 32.75 Z M 8.21875 178.371094 "/>
</g>
<g clip-path="url(#clip-1)">
<path fill="none" stroke-width="0.533489" stroke-linecap="butt" stroke-linejoin="round" stroke="rgb(94.117647%, 97.254902%, 100%)" stroke-opacity="1" stroke-miterlimit="10" d="M 8.21875 160.167969 L 142.628906 160.167969 "/>
</g>
<g clip-path="url(#clip-2)">
<path fill="none" stroke-width="0.533489" stroke-linecap="butt" stroke-linejoin="round" stroke="rgb(94.117647%, 97.254902%, 100%)" stroke-opacity="1" stroke-miterlimit="10" d="M 8.21875 123.761719 L 142.628906 123.761719 "/>
</g>
<g clip-path="url(#clip-3)">
<path fill="none" stroke-width="0.533489" stroke-linecap="butt" stroke-linejoin="round" stroke="rgb(94.117647%, 97.254902%, 100%)" stroke-opacity="1" stroke-miterlimit="10" d="M 8.21875 87.359375 L 142.628906 87.359375 "/>
</g>
<g clip-path="url(#clip-4)">
<path fill="none" stroke-width="0.533489" stroke-linecap="butt" stroke-linejoin="round" stroke="rgb(94.117647%, 97.254902%, 100%)" stroke-opacity="1" stroke-miterlimit="10" d="M 8.21875 50.953125 L 142.628906 50.953125 "/>
</g>
<g clip-path="url(#clip-5)">
<path fill="none" stroke-width="0.533489" stroke-linecap="butt" stroke-linejoin="round" stroke="rgb(94.117647%, 97.254902%, 100%)" stroke-opacity="1" stroke-miterlimit="10" d="M 25.4375 178.371094 L 25.4375 32.75 "/>
</g>
<g clip-path="url(#clip-6)">
<path fill="none" stroke-width="0.533489" stroke-linecap="butt" stroke-linejoin="round" stroke="rgb(94.117647%, 97.254902%, 100%)" stroke-opacity="1" stroke-miterlimit="10" d="M 58.109375 178.371094 L 58.109375 32.75 "/>
</g>
<g clip-path="url(#clip-7)">
<path fill="none" stroke-width="0.533489" stroke-linecap="butt" stroke-linejoin="round" stroke="rgb(94.117647%, 97.254902%, 100%)" stroke-opacity="1" stroke-miterlimit="10" d="M 90.78125 178.371094 L 90.78125 32.75 "/>
</g>
<g clip-path="url(#clip-8)">
<path fill="none" stroke-width="0.533489" stroke-linecap="butt" stroke-linejoin="round" stroke="rgb(94.117647%, 97.254902%, 100%)" stroke-opacity="1" stroke-miterlimit="10" d="M 123.453125 178.371094 L 123.453125 32.75 "/>
</g>
<g clip-path="url(#clip-9)">
<path fill="none" stroke-width="1.066978" stroke-linecap="butt" stroke-linejoin="round" stroke="rgb(100%, 100%, 100%)" stroke-opacity="1" stroke-miterlimit="10" d="M 8.21875 178.371094 L 142.628906 178.371094 "/>
</g>
<g clip-path="url(#clip-10)">
<path fill="none" stroke-width="1.066978" stroke-linecap="butt" stroke-linejoin="round" stroke="rgb(100%, 100%, 100%)" stroke-opacity="1" stroke-miterlimit="10" d="M 8.21875 141.964844 L 142.628906 141.964844 "/>
</g>
<g clip-path="url(#clip-11)">
<path fill="none" stroke-width="1.066978" stroke-linecap="butt" stroke-linejoin="round" stroke="rgb(100%, 100%, 100%)" stroke-opacity="1" stroke-miterlimit="10" d="M 8.21875 105.558594 L 142.628906 105.558594 "/>
</g>
<g clip-path="url(#clip-12)">
<path fill="none" stroke-width="1.066978" stroke-linecap="butt" stroke-linejoin="round" stroke="rgb(100%, 100%, 100%)" stroke-opacity="1" stroke-miterlimit="10" d="M 8.21875 69.15625 L 142.628906 69.15625 "/>
</g>
<g clip-path="url(#clip-13)">
<path fill="none" stroke-width="1.066978" stroke-linecap="butt" stroke-linejoin="round" stroke="rgb(100%, 100%, 100%)" stroke-opacity="1" stroke-miterlimit="10" d="M 8.21875 32.75 L 142.628906 32.75 "/>
</g>
<g clip-path="url(#clip-14)">
<path fill="none" stroke-width="1.066978" stroke-linecap="butt" stroke-linejoin="round" stroke="rgb(100%, 100%, 100%)" stroke-opacity="1" stroke-miterlimit="10" d="M 9.101562 178.371094 L 9.101562 32.75 "/>
</g>
<g clip-path="url(#clip-15)">
<path fill="none" stroke-width="1.066978" stroke-linecap="butt" stroke-linejoin="round" stroke="rgb(100%, 100%, 100%)" stroke-opacity="1" stroke-miterlimit="10" d="M 41.773438 178.371094 L 41.773438 32.75 "/>
</g>
<g clip-path="url(#clip-16)">
<path fill="none" stroke-width="1.066978" stroke-linecap="butt" stroke-linejoin="round" stroke="rgb(100%, 100%, 100%)" stroke-opacity="1" stroke-miterlimit="10" d="M 74.445312 178.371094 L 74.445312 32.75 "/>
</g>
<g clip-path="url(#clip-17)">
<path fill="none" stroke-width="1.066978" stroke-linecap="butt" stroke-linejoin="round" stroke="rgb(100%, 100%, 100%)" stroke-opacity="1" stroke-miterlimit="10" d="M 107.117188 178.371094 L 107.117188 32.75 "/>
</g>
<g clip-path="url(#clip-18)">
<path fill="none" stroke-width="1.066978" stroke-linecap="butt" stroke-linejoin="round" stroke="rgb(100%, 100%, 100%)" stroke-opacity="1" stroke-miterlimit="10" d="M 139.789062 178.371094 L 139.789062 32.75 "/>
</g>
<path fill="none" stroke-width="1.066978" stroke-linecap="butt" stroke-linejoin="round" stroke="rgb(0%, 0%, 54.509804%)" stroke-opacity="1" stroke-miterlimit="10" d="M 136.519531 105.558594 L 136.519531 105.558594 "/>
<path fill="none" stroke-width="1.066978" stroke-linecap="butt" stroke-linejoin="round" stroke="rgb(0%, 0%, 54.509804%)" stroke-opacity="1" stroke-miterlimit="10" d="M 136.519531 105.558594 L 14.328125 105.558594 "/>
<path fill="none" stroke-width="1.066978" stroke-linecap="butt" stroke-linejoin="round" stroke="rgb(0%, 0%, 54.509804%)" stroke-opacity="1" stroke-miterlimit="10" d="M 14.328125 105.558594 L 14.328125 105.558594 "/>
<path fill-rule="nonzero" fill="rgb(0%, 0%, 54.509804%)" fill-opacity="1" stroke-width="0.708661" stroke-linecap="round" stroke-linejoin="round" stroke="rgb(0%, 0%, 54.509804%)" stroke-opacity="1" stroke-miterlimit="10" d="M 45.328125 105.558594 C 45.328125 110.300781 38.21875 110.300781 38.21875 105.558594 C 38.21875 100.820312 45.328125 100.820312 45.328125 105.558594 "/>
<path fill="none" stroke-width="1.417323" stroke-linecap="round" stroke-linejoin="round" stroke="rgb(54.509804%, 0%, 0%)" stroke-opacity="1" stroke-miterlimit="10" d="M 58.390625 109.46875 L 66.207031 101.652344 "/>
<path fill="none" stroke-width="1.417323" stroke-linecap="round" stroke-linejoin="round" stroke="rgb(54.509804%, 0%, 0%)" stroke-opacity="1" stroke-miterlimit="10" d="M 58.390625 101.652344 L 66.207031 109.46875 "/>
<g clip-path="url(#clip-19)">
<path fill="none" stroke-width="1.066978" stroke-linecap="round" stroke-linejoin="round" stroke="rgb(0.392157%, 27.058824%, 30.980392%)" stroke-opacity="1" stroke-miterlimit="10" d="M 8.21875 178.371094 L 142.628906 178.371094 L 142.628906 32.75 L 8.21875 32.75 Z M 8.21875 178.371094 "/>
</g>
<g clip-path="url(#clip-20)">
<path fill-rule="nonzero" fill="rgb(100%, 100%, 100%)" fill-opacity="1" stroke-width="1.066978" stroke-linecap="round" stroke-linejoin="round" stroke="rgb(0%, 0%, 0%)" stroke-opacity="1" stroke-miterlimit="10" d="M 150.847656 178.371094 L 285.257812 178.371094 L 285.257812 32.75 L 150.847656 32.75 Z M 150.847656 178.371094 "/>
</g>
<g clip-path="url(#clip-21)">
<path fill="none" stroke-width="0.533489" stroke-linecap="butt" stroke-linejoin="round" stroke="rgb(94.117647%, 97.254902%, 100%)" stroke-opacity="1" stroke-miterlimit="10" d="M 150.847656 160.167969 L 285.261719 160.167969 "/>
</g>
<g clip-path="url(#clip-22)">
<path fill="none" stroke-width="0.533489" stroke-linecap="butt" stroke-linejoin="round" stroke="rgb(94.117647%, 97.254902%, 100%)" stroke-opacity="1" stroke-miterlimit="10" d="M 150.847656 123.761719 L 285.261719 123.761719 "/>
</g>
<g clip-path="url(#clip-23)">
<path fill="none" stroke-width="0.533489" stroke-linecap="butt" stroke-linejoin="round" stroke="rgb(94.117647%, 97.254902%, 100%)" stroke-opacity="1" stroke-miterlimit="10" d="M 150.847656 87.359375 L 285.261719 87.359375 "/>
</g>
<g clip-path="url(#clip-24)">
<path fill="none" stroke-width="0.533489" stroke-linecap="butt" stroke-linejoin="round" stroke="rgb(94.117647%, 97.254902%, 100%)" stroke-opacity="1" stroke-miterlimit="10" d="M 150.847656 50.953125 L 285.261719 50.953125 "/>
</g>
<g clip-path="url(#clip-25)">
<path fill="none" stroke-width="0.533489" stroke-linecap="butt" stroke-linejoin="round" stroke="rgb(94.117647%, 97.254902%, 100%)" stroke-opacity="1" stroke-miterlimit="10" d="M 169.816406 178.371094 L 169.816406 32.75 "/>
</g>
<g clip-path="url(#clip-26)">
<path fill="none" stroke-width="0.533489" stroke-linecap="butt" stroke-linejoin="round" stroke="rgb(94.117647%, 97.254902%, 100%)" stroke-opacity="1" stroke-miterlimit="10" d="M 203.1875 178.371094 L 203.1875 32.75 "/>
</g>
<g clip-path="url(#clip-27)">
<path fill="none" stroke-width="0.533489" stroke-linecap="butt" stroke-linejoin="round" stroke="rgb(94.117647%, 97.254902%, 100%)" stroke-opacity="1" stroke-miterlimit="10" d="M 236.5625 178.371094 L 236.5625 32.75 "/>
</g>
<g clip-path="url(#clip-28)">
<path fill="none" stroke-width="0.533489" stroke-linecap="butt" stroke-linejoin="round" stroke="rgb(94.117647%, 97.254902%, 100%)" stroke-opacity="1" stroke-miterlimit="10" d="M 269.9375 178.371094 L 269.9375 32.75 "/>
</g>
<g clip-path="url(#clip-29)">
<path fill="none" stroke-width="1.066978" stroke-linecap="butt" stroke-linejoin="round" stroke="rgb(100%, 100%, 100%)" stroke-opacity="1" stroke-miterlimit="10" d="M 150.847656 178.371094 L 285.261719 178.371094 "/>
</g>
<g clip-path="url(#clip-30)">
<path fill="none" stroke-width="1.066978" stroke-linecap="butt" stroke-linejoin="round" stroke="rgb(100%, 100%, 100%)" stroke-opacity="1" stroke-miterlimit="10" d="M 150.847656 141.964844 L 285.261719 141.964844 "/>
</g>
<g clip-path="url(#clip-31)">
<path fill="none" stroke-width="1.066978" stroke-linecap="butt" stroke-linejoin="round" stroke="rgb(100%, 100%, 100%)" stroke-opacity="1" stroke-miterlimit="10" d="M 150.847656 105.558594 L 285.261719 105.558594 "/>
</g>
<g clip-path="url(#clip-32)">
<path fill="none" stroke-width="1.066978" stroke-linecap="butt" stroke-linejoin="round" stroke="rgb(100%, 100%, 100%)" stroke-opacity="1" stroke-miterlimit="10" d="M 150.847656 69.15625 L 285.261719 69.15625 "/>
</g>
<g clip-path="url(#clip-33)">
<path fill="none" stroke-width="1.066978" stroke-linecap="butt" stroke-linejoin="round" stroke="rgb(100%, 100%, 100%)" stroke-opacity="1" stroke-miterlimit="10" d="M 150.847656 32.75 L 285.261719 32.75 "/>
</g>
<g clip-path="url(#clip-34)">
<path fill="none" stroke-width="1.066978" stroke-linecap="butt" stroke-linejoin="round" stroke="rgb(100%, 100%, 100%)" stroke-opacity="1" stroke-miterlimit="10" d="M 153.128906 178.371094 L 153.128906 32.75 "/>
</g>
<g clip-path="url(#clip-35)">
<path fill="none" stroke-width="1.066978" stroke-linecap="butt" stroke-linejoin="round" stroke="rgb(100%, 100%, 100%)" stroke-opacity="1" stroke-miterlimit="10" d="M 186.5 178.371094 L 186.5 32.75 "/>
</g>
<g clip-path="url(#clip-36)">
<path fill="none" stroke-width="1.066978" stroke-linecap="butt" stroke-linejoin="round" stroke="rgb(100%, 100%, 100%)" stroke-opacity="1" stroke-miterlimit="10" d="M 219.875 178.371094 L 219.875 32.75 "/>
</g>
<g clip-path="url(#clip-37)">
<path fill="none" stroke-width="1.066978" stroke-linecap="butt" stroke-linejoin="round" stroke="rgb(100%, 100%, 100%)" stroke-opacity="1" stroke-miterlimit="10" d="M 253.25 178.371094 L 253.25 32.75 "/>
</g>
<path fill="none" stroke-width="1.066978" stroke-linecap="butt" stroke-linejoin="round" stroke="rgb(0%, 0%, 54.509804%)" stroke-opacity="1" stroke-miterlimit="10" d="M 279.152344 105.558594 L 279.152344 105.558594 "/>
<path fill="none" stroke-width="1.066978" stroke-linecap="butt" stroke-linejoin="round" stroke="rgb(0%, 0%, 54.509804%)" stroke-opacity="1" stroke-miterlimit="10" d="M 279.152344 105.558594 L 156.957031 105.558594 "/>
<path fill="none" stroke-width="1.066978" stroke-linecap="butt" stroke-linejoin="round" stroke="rgb(0%, 0%, 54.509804%)" stroke-opacity="1" stroke-miterlimit="10" d="M 156.957031 105.558594 L 156.957031 105.558594 "/>
<path fill-rule="nonzero" fill="rgb(0%, 0%, 54.509804%)" fill-opacity="1" stroke-width="0.708661" stroke-linecap="round" stroke-linejoin="round" stroke="rgb(0%, 0%, 54.509804%)" stroke-opacity="1" stroke-miterlimit="10" d="M 216.808594 105.558594 C 216.808594 110.300781 209.695312 110.300781 209.695312 105.558594 C 209.695312 100.820312 216.808594 100.820312 216.808594 105.558594 "/>
<path fill="none" stroke-width="1.417323" stroke-linecap="round" stroke-linejoin="round" stroke="rgb(54.509804%, 0%, 0%)" stroke-opacity="1" stroke-miterlimit="10" d="M 209.542969 109.46875 L 217.359375 101.652344 "/>
<path fill="none" stroke-width="1.417323" stroke-linecap="round" stroke-linejoin="round" stroke="rgb(54.509804%, 0%, 0%)" stroke-opacity="1" stroke-miterlimit="10" d="M 209.542969 101.652344 L 217.359375 109.46875 "/>
<g clip-path="url(#clip-38)">
<path fill="none" stroke-width="1.066978" stroke-linecap="round" stroke-linejoin="round" stroke="rgb(0.392157%, 27.058824%, 30.980392%)" stroke-opacity="1" stroke-miterlimit="10" d="M 150.847656 178.371094 L 285.257812 178.371094 L 285.257812 32.75 L 150.847656 32.75 Z M 150.847656 178.371094 "/>
</g>
<g clip-path="url(#clip-39)">
<path fill-rule="nonzero" fill="rgb(100%, 100%, 100%)" fill-opacity="1" stroke-width="1.066978" stroke-linecap="round" stroke-linejoin="round" stroke="rgb(0%, 0%, 0%)" stroke-opacity="1" stroke-miterlimit="10" d="M 293.480469 178.371094 L 427.890625 178.371094 L 427.890625 32.75 L 293.480469 32.75 Z M 293.480469 178.371094 "/>
</g>
<g clip-path="url(#clip-40)">
<path fill="none" stroke-width="0.533489" stroke-linecap="butt" stroke-linejoin="round" stroke="rgb(94.117647%, 97.254902%, 100%)" stroke-opacity="1" stroke-miterlimit="10" d="M 293.480469 160.167969 L 427.890625 160.167969 "/>
</g>
<g clip-path="url(#clip-41)">
<path fill="none" stroke-width="0.533489" stroke-linecap="butt" stroke-linejoin="round" stroke="rgb(94.117647%, 97.254902%, 100%)" stroke-opacity="1" stroke-miterlimit="10" d="M 293.480469 123.761719 L 427.890625 123.761719 "/>
</g>
<g clip-path="url(#clip-42)">
<path fill="none" stroke-width="0.533489" stroke-linecap="butt" stroke-linejoin="round" stroke="rgb(94.117647%, 97.254902%, 100%)" stroke-opacity="1" stroke-miterlimit="10" d="M 293.480469 87.359375 L 427.890625 87.359375 "/>
</g>
<g clip-path="url(#clip-43)">
<path fill="none" stroke-width="0.533489" stroke-linecap="butt" stroke-linejoin="round" stroke="rgb(94.117647%, 97.254902%, 100%)" stroke-opacity="1" stroke-miterlimit="10" d="M 293.480469 50.953125 L 427.890625 50.953125 "/>
</g>
<g clip-path="url(#clip-44)">
<path fill="none" stroke-width="0.533489" stroke-linecap="butt" stroke-linejoin="round" stroke="rgb(94.117647%, 97.254902%, 100%)" stroke-opacity="1" stroke-miterlimit="10" d="M 293.644531 178.371094 L 293.644531 32.75 "/>
</g>
<g clip-path="url(#clip-45)">
<path fill="none" stroke-width="0.533489" stroke-linecap="butt" stroke-linejoin="round" stroke="rgb(94.117647%, 97.254902%, 100%)" stroke-opacity="1" stroke-miterlimit="10" d="M 320.195312 178.371094 L 320.195312 32.75 "/>
</g>
<g clip-path="url(#clip-46)">
<path fill="none" stroke-width="0.533489" stroke-linecap="butt" stroke-linejoin="round" stroke="rgb(94.117647%, 97.254902%, 100%)" stroke-opacity="1" stroke-miterlimit="10" d="M 346.742188 178.371094 L 346.742188 32.75 "/>
</g>
<g clip-path="url(#clip-47)">
<path fill="none" stroke-width="0.533489" stroke-linecap="butt" stroke-linejoin="round" stroke="rgb(94.117647%, 97.254902%, 100%)" stroke-opacity="1" stroke-miterlimit="10" d="M 373.289062 178.371094 L 373.289062 32.75 "/>
</g>
<g clip-path="url(#clip-48)">
<path fill="none" stroke-width="0.533489" stroke-linecap="butt" stroke-linejoin="round" stroke="rgb(94.117647%, 97.254902%, 100%)" stroke-opacity="1" stroke-miterlimit="10" d="M 399.839844 178.371094 L 399.839844 32.75 "/>
</g>
<g clip-path="url(#clip-49)">
<path fill="none" stroke-width="0.533489" stroke-linecap="butt" stroke-linejoin="round" stroke="rgb(94.117647%, 97.254902%, 100%)" stroke-opacity="1" stroke-miterlimit="10" d="M 426.386719 178.371094 L 426.386719 32.75 "/>
</g>
<g clip-path="url(#clip-50)">
<path fill="none" stroke-width="1.066978" stroke-linecap="butt" stroke-linejoin="round" stroke="rgb(100%, 100%, 100%)" stroke-opacity="1" stroke-miterlimit="10" d="M 293.480469 178.371094 L 427.890625 178.371094 "/>
</g>
<g clip-path="url(#clip-51)">
<path fill="none" stroke-width="1.066978" stroke-linecap="butt" stroke-linejoin="round" stroke="rgb(100%, 100%, 100%)" stroke-opacity="1" stroke-miterlimit="10" d="M 293.480469 141.964844 L 427.890625 141.964844 "/>
</g>
<g clip-path="url(#clip-52)">
<path fill="none" stroke-width="1.066978" stroke-linecap="butt" stroke-linejoin="round" stroke="rgb(100%, 100%, 100%)" stroke-opacity="1" stroke-miterlimit="10" d="M 293.480469 105.558594 L 427.890625 105.558594 "/>
</g>
<g clip-path="url(#clip-53)">
<path fill="none" stroke-width="1.066978" stroke-linecap="butt" stroke-linejoin="round" stroke="rgb(100%, 100%, 100%)" stroke-opacity="1" stroke-miterlimit="10" d="M 293.480469 69.15625 L 427.890625 69.15625 "/>
</g>
<g clip-path="url(#clip-54)">
<path fill="none" stroke-width="1.066978" stroke-linecap="butt" stroke-linejoin="round" stroke="rgb(100%, 100%, 100%)" stroke-opacity="1" stroke-miterlimit="10" d="M 293.480469 32.75 L 427.890625 32.75 "/>
</g>
<g clip-path="url(#clip-55)">
<path fill="none" stroke-width="1.066978" stroke-linecap="butt" stroke-linejoin="round" stroke="rgb(100%, 100%, 100%)" stroke-opacity="1" stroke-miterlimit="10" d="M 306.917969 178.371094 L 306.917969 32.75 "/>
</g>
<g clip-path="url(#clip-56)">
<path fill="none" stroke-width="1.066978" stroke-linecap="butt" stroke-linejoin="round" stroke="rgb(100%, 100%, 100%)" stroke-opacity="1" stroke-miterlimit="10" d="M 333.46875 178.371094 L 333.46875 32.75 "/>
</g>
<g clip-path="url(#clip-57)">
<path fill="none" stroke-width="1.066978" stroke-linecap="butt" stroke-linejoin="round" stroke="rgb(100%, 100%, 100%)" stroke-opacity="1" stroke-miterlimit="10" d="M 360.015625 178.371094 L 360.015625 32.75 "/>
</g>
<g clip-path="url(#clip-58)">
<path fill="none" stroke-width="1.066978" stroke-linecap="butt" stroke-linejoin="round" stroke="rgb(100%, 100%, 100%)" stroke-opacity="1" stroke-miterlimit="10" d="M 386.5625 178.371094 L 386.5625 32.75 "/>
</g>
<g clip-path="url(#clip-59)">
<path fill="none" stroke-width="1.066978" stroke-linecap="butt" stroke-linejoin="round" stroke="rgb(100%, 100%, 100%)" stroke-opacity="1" stroke-miterlimit="10" d="M 413.113281 178.371094 L 413.113281 32.75 "/>
</g>
<path fill="none" stroke-width="1.066978" stroke-linecap="butt" stroke-linejoin="round" stroke="rgb(0%, 0%, 54.509804%)" stroke-opacity="1" stroke-miterlimit="10" d="M 421.78125 105.558594 L 421.78125 105.558594 "/>
<path fill="none" stroke-width="1.066978" stroke-linecap="butt" stroke-linejoin="round" stroke="rgb(0%, 0%, 54.509804%)" stroke-opacity="1" stroke-miterlimit="10" d="M 421.78125 105.558594 L 299.589844 105.558594 "/>
<path fill="none" stroke-width="1.066978" stroke-linecap="butt" stroke-linejoin="round" stroke="rgb(0%, 0%, 54.509804%)" stroke-opacity="1" stroke-miterlimit="10" d="M 299.589844 105.558594 L 299.589844 105.558594 "/>
<path fill-rule="nonzero" fill="rgb(0%, 0%, 54.509804%)" fill-opacity="1" stroke-width="0.708661" stroke-linecap="round" stroke-linejoin="round" stroke="rgb(0%, 0%, 54.509804%)" stroke-opacity="1" stroke-miterlimit="10" d="M 348.019531 105.558594 C 348.019531 110.300781 340.90625 110.300781 340.90625 105.558594 C 340.90625 100.820312 348.019531 100.820312 348.019531 105.558594 "/>
<path fill="none" stroke-width="1.417323" stroke-linecap="round" stroke-linejoin="round" stroke="rgb(54.509804%, 0%, 0%)" stroke-opacity="1" stroke-miterlimit="10" d="M 359.742188 109.46875 L 367.5625 101.652344 "/>
<path fill="none" stroke-width="1.417323" stroke-linecap="round" stroke-linejoin="round" stroke="rgb(54.509804%, 0%, 0%)" stroke-opacity="1" stroke-miterlimit="10" d="M 359.742188 101.652344 L 367.5625 109.46875 "/>
<g clip-path="url(#clip-60)">
<path fill="none" stroke-width="1.066978" stroke-linecap="round" stroke-linejoin="round" stroke="rgb(0.392157%, 27.058824%, 30.980392%)" stroke-opacity="1" stroke-miterlimit="10" d="M 293.480469 178.371094 L 427.890625 178.371094 L 427.890625 32.75 L 293.480469 32.75 Z M 293.480469 178.371094 "/>
</g>
<g clip-path="url(#clip-61)">
<path fill-rule="nonzero" fill="rgb(100%, 100%, 100%)" fill-opacity="1" stroke-width="1.066978" stroke-linecap="round" stroke-linejoin="round" stroke="rgb(0%, 0%, 0%)" stroke-opacity="1" stroke-miterlimit="10" d="M 436.109375 178.371094 L 570.519531 178.371094 L 570.519531 32.75 L 436.109375 32.75 Z M 436.109375 178.371094 "/>
</g>
<g clip-path="url(#clip-62)">
<path fill="none" stroke-width="0.533489" stroke-linecap="butt" stroke-linejoin="round" stroke="rgb(94.117647%, 97.254902%, 100%)" stroke-opacity="1" stroke-miterlimit="10" d="M 436.109375 160.167969 L 570.519531 160.167969 "/>
</g>
<g clip-path="url(#clip-63)">
<path fill="none" stroke-width="0.533489" stroke-linecap="butt" stroke-linejoin="round" stroke="rgb(94.117647%, 97.254902%, 100%)" stroke-opacity="1" stroke-miterlimit="10" d="M 436.109375 123.761719 L 570.519531 123.761719 "/>
</g>
<g clip-path="url(#clip-64)">
<path fill="none" stroke-width="0.533489" stroke-linecap="butt" stroke-linejoin="round" stroke="rgb(94.117647%, 97.254902%, 100%)" stroke-opacity="1" stroke-miterlimit="10" d="M 436.109375 87.359375 L 570.519531 87.359375 "/>
</g>
<g clip-path="url(#clip-65)">
<path fill="none" stroke-width="0.533489" stroke-linecap="butt" stroke-linejoin="round" stroke="rgb(94.117647%, 97.254902%, 100%)" stroke-opacity="1" stroke-miterlimit="10" d="M 436.109375 50.953125 L 570.519531 50.953125 "/>
</g>
<g clip-path="url(#clip-66)">
<path fill="none" stroke-width="0.533489" stroke-linecap="butt" stroke-linejoin="round" stroke="rgb(94.117647%, 97.254902%, 100%)" stroke-opacity="1" stroke-miterlimit="10" d="M 455.074219 178.371094 L 455.074219 32.75 "/>
</g>
<g clip-path="url(#clip-67)">
<path fill="none" stroke-width="0.533489" stroke-linecap="butt" stroke-linejoin="round" stroke="rgb(94.117647%, 97.254902%, 100%)" stroke-opacity="1" stroke-miterlimit="10" d="M 488.449219 178.371094 L 488.449219 32.75 "/>
</g>
<g clip-path="url(#clip-68)">
<path fill="none" stroke-width="0.533489" stroke-linecap="butt" stroke-linejoin="round" stroke="rgb(94.117647%, 97.254902%, 100%)" stroke-opacity="1" stroke-miterlimit="10" d="M 521.820312 178.371094 L 521.820312 32.75 "/>
</g>
<g clip-path="url(#clip-69)">
<path fill="none" stroke-width="0.533489" stroke-linecap="butt" stroke-linejoin="round" stroke="rgb(94.117647%, 97.254902%, 100%)" stroke-opacity="1" stroke-miterlimit="10" d="M 555.195312 178.371094 L 555.195312 32.75 "/>
</g>
<g clip-path="url(#clip-70)">
<path fill="none" stroke-width="1.066978" stroke-linecap="butt" stroke-linejoin="round" stroke="rgb(100%, 100%, 100%)" stroke-opacity="1" stroke-miterlimit="10" d="M 436.109375 178.371094 L 570.519531 178.371094 "/>
</g>
<g clip-path="url(#clip-71)">
<path fill="none" stroke-width="1.066978" stroke-linecap="butt" stroke-linejoin="round" stroke="rgb(100%, 100%, 100%)" stroke-opacity="1" stroke-miterlimit="10" d="M 436.109375 141.964844 L 570.519531 141.964844 "/>
</g>
<g clip-path="url(#clip-72)">
<path fill="none" stroke-width="1.066978" stroke-linecap="butt" stroke-linejoin="round" stroke="rgb(100%, 100%, 100%)" stroke-opacity="1" stroke-miterlimit="10" d="M 436.109375 105.558594 L 570.519531 105.558594 "/>
</g>
<g clip-path="url(#clip-73)">
<path fill="none" stroke-width="1.066978" stroke-linecap="butt" stroke-linejoin="round" stroke="rgb(100%, 100%, 100%)" stroke-opacity="1" stroke-miterlimit="10" d="M 436.109375 69.15625 L 570.519531 69.15625 "/>
</g>
<g clip-path="url(#clip-74)">
<path fill="none" stroke-width="1.066978" stroke-linecap="butt" stroke-linejoin="round" stroke="rgb(100%, 100%, 100%)" stroke-opacity="1" stroke-miterlimit="10" d="M 436.109375 32.75 L 570.519531 32.75 "/>
</g>
<g clip-path="url(#clip-75)">
<path fill="none" stroke-width="1.066978" stroke-linecap="butt" stroke-linejoin="round" stroke="rgb(100%, 100%, 100%)" stroke-opacity="1" stroke-miterlimit="10" d="M 438.386719 178.371094 L 438.386719 32.75 "/>
</g>
<g clip-path="url(#clip-76)">
<path fill="none" stroke-width="1.066978" stroke-linecap="butt" stroke-linejoin="round" stroke="rgb(100%, 100%, 100%)" stroke-opacity="1" stroke-miterlimit="10" d="M 471.761719 178.371094 L 471.761719 32.75 "/>
</g>
<g clip-path="url(#clip-77)">
<path fill="none" stroke-width="1.066978" stroke-linecap="butt" stroke-linejoin="round" stroke="rgb(100%, 100%, 100%)" stroke-opacity="1" stroke-miterlimit="10" d="M 505.136719 178.371094 L 505.136719 32.75 "/>
</g>
<g clip-path="url(#clip-78)">
<path fill="none" stroke-width="1.066978" stroke-linecap="butt" stroke-linejoin="round" stroke="rgb(100%, 100%, 100%)" stroke-opacity="1" stroke-miterlimit="10" d="M 538.507812 178.371094 L 538.507812 32.75 "/>
</g>
<path fill="none" stroke-width="1.066978" stroke-linecap="butt" stroke-linejoin="round" stroke="rgb(0%, 0%, 54.509804%)" stroke-opacity="1" stroke-miterlimit="10" d="M 564.410156 105.558594 L 564.410156 105.558594 "/>
<path fill="none" stroke-width="1.066978" stroke-linecap="butt" stroke-linejoin="round" stroke="rgb(0%, 0%, 54.509804%)" stroke-opacity="1" stroke-miterlimit="10" d="M 564.410156 105.558594 L 442.21875 105.558594 "/>
<path fill="none" stroke-width="1.066978" stroke-linecap="butt" stroke-linejoin="round" stroke="rgb(0%, 0%, 54.509804%)" stroke-opacity="1" stroke-miterlimit="10" d="M 442.21875 105.558594 L 442.21875 105.558594 "/>
<path fill-rule="nonzero" fill="rgb(0%, 0%, 54.509804%)" fill-opacity="1" stroke-width="0.708661" stroke-linecap="round" stroke-linejoin="round" stroke="rgb(0%, 0%, 54.509804%)" stroke-opacity="1" stroke-miterlimit="10" d="M 502.066406 105.558594 C 502.066406 110.300781 494.957031 110.300781 494.957031 105.558594 C 494.957031 100.820312 502.066406 100.820312 502.066406 105.558594 "/>
<path fill="none" stroke-width="1.417323" stroke-linecap="round" stroke-linejoin="round" stroke="rgb(54.509804%, 0%, 0%)" stroke-opacity="1" stroke-miterlimit="10" d="M 494.800781 109.46875 L 502.621094 101.652344 "/>
<path fill="none" stroke-width="1.417323" stroke-linecap="round" stroke-linejoin="round" stroke="rgb(54.509804%, 0%, 0%)" stroke-opacity="1" stroke-miterlimit="10" d="M 494.800781 101.652344 L 502.621094 109.46875 "/>
<g clip-path="url(#clip-79)">
<path fill="none" stroke-width="1.066978" stroke-linecap="round" stroke-linejoin="round" stroke="rgb(0.392157%, 27.058824%, 30.980392%)" stroke-opacity="1" stroke-miterlimit="10" d="M 436.109375 178.371094 L 570.519531 178.371094 L 570.519531 32.75 L 436.109375 32.75 Z M 436.109375 178.371094 "/>
</g>
<g clip-path="url(#clip-80)">
<path fill-rule="nonzero" fill="rgb(0.392157%, 27.058824%, 30.980392%)" fill-opacity="1" stroke-width="3.200935" stroke-linecap="round" stroke-linejoin="round" stroke="rgb(0.392157%, 27.058824%, 30.980392%)" stroke-opacity="1" stroke-miterlimit="10" d="M 8.21875 32.75 L 142.628906 32.75 L 142.628906 5.480469 L 8.21875 5.480469 Z M 8.21875 32.75 "/>
</g>
<g fill="rgb(100%, 100%, 100%)" fill-opacity="1">
<use xlink:href="#glyph-0-0" x="55.425781" y="22.02832"/>
<use xlink:href="#glyph-0-1" x="63.425781" y="22.02832"/>
<use xlink:href="#glyph-0-2" x="68.425781" y="22.02832"/>
<use xlink:href="#glyph-0-3" x="70.425781" y="22.02832"/>
<use xlink:href="#glyph-0-4" x="75.425781" y="22.02832"/>
<use xlink:href="#glyph-0-5" x="80.425781" y="22.02832"/>
<use xlink:href="#glyph-0-6" x="82.425781" y="22.02832"/>
<use xlink:href="#glyph-0-7" x="84.425781" y="22.02832"/>
<use xlink:href="#glyph-0-8" x="86.425781" y="22.02832"/>
<use xlink:href="#glyph-0-3" x="90.425781" y="22.02832"/>
</g>
<g clip-path="url(#clip-81)">
<path fill-rule="nonzero" fill="rgb(0.392157%, 27.058824%, 30.980392%)" fill-opacity="1" stroke-width="3.200935" stroke-linecap="round" stroke-linejoin="round" stroke="rgb(0.392157%, 27.058824%, 30.980392%)" stroke-opacity="1" stroke-miterlimit="10" d="M 150.847656 32.75 L 285.257812 32.75 L 285.257812 5.480469 L 150.847656 5.480469 Z M 150.847656 32.75 "/>
</g>
<g fill="rgb(100%, 100%, 100%)" fill-opacity="1">
<use xlink:href="#glyph-0-9" x="169.554688" y="17.27832"/>
<use xlink:href="#glyph-0-7" x="177.554688" y="17.27832"/>
<use xlink:href="#glyph-0-10" x="179.554688" y="17.27832"/>
<use xlink:href="#glyph-0-4" x="183.554688" y="17.27832"/>
<use xlink:href="#glyph-0-11" x="188.554688" y="17.27832"/>
<use xlink:href="#glyph-0-12" x="193.554688" y="17.27832"/>
<use xlink:href="#glyph-0-3" x="198.554688" y="17.27832"/>
<use xlink:href="#glyph-0-1" x="203.554688" y="17.27832"/>
<use xlink:href="#glyph-0-7" x="208.554688" y="17.27832"/>
<use xlink:href="#glyph-0-2" x="210.554688" y="17.27832"/>
<use xlink:href="#glyph-0-12" x="212.554688" y="17.27832"/>
<use xlink:href="#glyph-0-7" x="217.554688" y="17.27832"/>
<use xlink:href="#glyph-0-13" x="219.554688" y="17.27832"/>
<use xlink:href="#glyph-0-1" x="225.554688" y="17.27832"/>
<use xlink:href="#glyph-0-2" x="230.554688" y="17.27832"/>
<use xlink:href="#glyph-0-3" x="232.554688" y="17.27832"/>
<use xlink:href="#glyph-0-4" x="237.554688" y="17.27832"/>
<use xlink:href="#glyph-0-5" x="242.554688" y="17.27832"/>
<use xlink:href="#glyph-0-7" x="244.554688" y="17.27832"/>
<use xlink:href="#glyph-0-14" x="246.554688" y="17.27832"/>
<use xlink:href="#glyph-0-2" x="250.554688" y="17.27832"/>
<use xlink:href="#glyph-0-12" x="252.554688" y="17.27832"/>
<use xlink:href="#glyph-0-10" x="257.554688" y="17.27832"/>
<use xlink:href="#glyph-0-1" x="261.554688" y="17.27832"/>
</g>
<g fill="rgb(100%, 100%, 100%)" fill-opacity="1">
<use xlink:href="#glyph-0-15" x="191.554688" y="26.782227"/>
<use xlink:href="#glyph-0-10" x="198.554688" y="26.782227"/>
<use xlink:href="#glyph-0-5" x="202.554688" y="26.782227"/>
<use xlink:href="#glyph-0-16" x="204.554688" y="26.782227"/>
<use xlink:href="#glyph-0-17" x="209.554688" y="26.782227"/>
<use xlink:href="#glyph-0-1" x="214.554688" y="26.782227"/>
<use xlink:href="#glyph-0-18" x="219.554688" y="26.782227"/>
<use xlink:href="#glyph-0-7" x="222.554688" y="26.782227"/>
<use xlink:href="#glyph-0-19" x="224.554688" y="26.782227"/>
<use xlink:href="#glyph-0-20" x="229.554688" y="26.782227"/>
<use xlink:href="#glyph-0-19" x="234.554688" y="26.782227"/>
<use xlink:href="#glyph-0-21" x="239.554688" y="26.782227"/>
</g>
<g clip-path="url(#clip-82)">
<path fill-rule="nonzero" fill="rgb(0.392157%, 27.058824%, 30.980392%)" fill-opacity="1" stroke-width="3.200935" stroke-linecap="round" stroke-linejoin="round" stroke="rgb(0.392157%, 27.058824%, 30.980392%)" stroke-opacity="1" stroke-miterlimit="10" d="M 293.480469 32.75 L 427.890625 32.75 L 427.890625 5.480469 L 293.480469 5.480469 Z M 293.480469 32.75 "/>
</g>
<g fill="rgb(100%, 100%, 100%)" fill-opacity="1">
<use xlink:href="#glyph-0-22" x="353.183594" y="22.02832"/>
<use xlink:href="#glyph-0-23" x="359.183594" y="22.02832"/>
<use xlink:href="#glyph-0-24" x="366.183594" y="22.02832"/>
</g>
<g clip-path="url(#clip-83)">
<path fill-rule="nonzero" fill="rgb(0.392157%, 27.058824%, 30.980392%)" fill-opacity="1" stroke-width="3.200935" stroke-linecap="round" stroke-linejoin="round" stroke="rgb(0.392157%, 27.058824%, 30.980392%)" stroke-opacity="1" stroke-miterlimit="10" d="M 436.109375 32.75 L 570.519531 32.75 L 570.519531 5.480469 L 436.109375 5.480469 Z M 436.109375 32.75 "/>
</g>
<g fill="rgb(100%, 100%, 100%)" fill-opacity="1">
<use xlink:href="#glyph-0-9" x="459.816406" y="17.27832"/>
<use xlink:href="#glyph-0-7" x="467.816406" y="17.27832"/>
<use xlink:href="#glyph-0-10" x="469.816406" y="17.27832"/>
<use xlink:href="#glyph-0-4" x="473.816406" y="17.27832"/>
<use xlink:href="#glyph-0-11" x="478.816406" y="17.27832"/>
<use xlink:href="#glyph-0-12" x="483.816406" y="17.27832"/>
<use xlink:href="#glyph-0-3" x="488.816406" y="17.27832"/>
<use xlink:href="#glyph-0-1" x="493.816406" y="17.27832"/>
<use xlink:href="#glyph-0-7" x="498.816406" y="17.27832"/>
<use xlink:href="#glyph-0-2" x="500.816406" y="17.27832"/>
<use xlink:href="#glyph-0-12" x="502.816406" y="17.27832"/>
<use xlink:href="#glyph-0-7" x="507.816406" y="17.27832"/>
<use xlink:href="#glyph-0-22" x="509.816406" y="17.27832"/>
<use xlink:href="#glyph-0-23" x="515.816406" y="17.27832"/>
<use xlink:href="#glyph-0-24" x="522.816406" y="17.27832"/>
<use xlink:href="#glyph-0-7" x="524.816406" y="17.27832"/>
<use xlink:href="#glyph-0-14" x="526.816406" y="17.27832"/>
<use xlink:href="#glyph-0-2" x="530.816406" y="17.27832"/>
<use xlink:href="#glyph-0-12" x="532.816406" y="17.27832"/>
<use xlink:href="#glyph-0-10" x="537.816406" y="17.27832"/>
<use xlink:href="#glyph-0-1" x="541.816406" y="17.27832"/>
</g>
<g fill="rgb(100%, 100%, 100%)" fill-opacity="1">
<use xlink:href="#glyph-0-15" x="476.816406" y="26.782227"/>
<use xlink:href="#glyph-0-10" x="483.816406" y="26.782227"/>
<use xlink:href="#glyph-0-5" x="487.816406" y="26.782227"/>
<use xlink:href="#glyph-0-16" x="489.816406" y="26.782227"/>
<use xlink:href="#glyph-0-17" x="494.816406" y="26.782227"/>
<use xlink:href="#glyph-0-1" x="499.816406" y="26.782227"/>
<use xlink:href="#glyph-0-18" x="504.816406" y="26.782227"/>
<use xlink:href="#glyph-0-7" x="507.816406" y="26.782227"/>
<use xlink:href="#glyph-0-19" x="509.816406" y="26.782227"/>
<use xlink:href="#glyph-0-20" x="514.816406" y="26.782227"/>
<use xlink:href="#glyph-0-19" x="519.816406" y="26.782227"/>
<use xlink:href="#glyph-0-21" x="524.816406" y="26.782227"/>
</g>
<path fill="none" stroke-width="1.066978" stroke-linecap="butt" stroke-linejoin="round" stroke="rgb(0.392157%, 27.058824%, 30.980392%)" stroke-opacity="1" stroke-miterlimit="10" d="M 9.101562 181.109375 L 9.101562 178.371094 "/>
<path fill="none" stroke-width="1.066978" stroke-linecap="butt" stroke-linejoin="round" stroke="rgb(0.392157%, 27.058824%, 30.980392%)" stroke-opacity="1" stroke-miterlimit="10" d="M 41.773438 181.109375 L 41.773438 178.371094 "/>
<path fill="none" stroke-width="1.066978" stroke-linecap="butt" stroke-linejoin="round" stroke="rgb(0.392157%, 27.058824%, 30.980392%)" stroke-opacity="1" stroke-miterlimit="10" d="M 74.445312 181.109375 L 74.445312 178.371094 "/>
<path fill="none" stroke-width="1.066978" stroke-linecap="butt" stroke-linejoin="round" stroke="rgb(0.392157%, 27.058824%, 30.980392%)" stroke-opacity="1" stroke-miterlimit="10" d="M 107.117188 181.109375 L 107.117188 178.371094 "/>
<path fill="none" stroke-width="1.066978" stroke-linecap="butt" stroke-linejoin="round" stroke="rgb(0.392157%, 27.058824%, 30.980392%)" stroke-opacity="1" stroke-miterlimit="10" d="M 139.789062 181.109375 L 139.789062 178.371094 "/>
<g fill="rgb(0.392157%, 27.058824%, 30.980392%)" fill-opacity="1">
<use xlink:href="#glyph-1-0" x="3.101562" y="191.319336"/>
<use xlink:href="#glyph-1-0" x="9.101562" y="191.319336"/>
</g>
<g fill="rgb(0.392157%, 27.058824%, 30.980392%)" fill-opacity="1">
<use xlink:href="#glyph-1-1" x="35.773438" y="191.319336"/>
<use xlink:href="#glyph-1-2" x="41.773438" y="191.319336"/>
</g>
<g fill="rgb(0.392157%, 27.058824%, 30.980392%)" fill-opacity="1">
<use xlink:href="#glyph-1-1" x="68.445312" y="191.319336"/>
<use xlink:href="#glyph-1-0" x="74.445312" y="191.319336"/>
</g>
<g fill="rgb(0.392157%, 27.058824%, 30.980392%)" fill-opacity="1">
<use xlink:href="#glyph-1-3" x="101.117188" y="191.319336"/>
<use xlink:href="#glyph-1-2" x="107.117188" y="191.319336"/>
</g>
<g fill="rgb(0.392157%, 27.058824%, 30.980392%)" fill-opacity="1">
<use xlink:href="#glyph-1-3" x="133.789062" y="191.319336"/>
<use xlink:href="#glyph-1-0" x="139.789062" y="191.319336"/>
</g>
<path fill="none" stroke-width="1.066978" stroke-linecap="butt" stroke-linejoin="round" stroke="rgb(0.392157%, 27.058824%, 30.980392%)" stroke-opacity="1" stroke-miterlimit="10" d="M 153.128906 181.109375 L 153.128906 178.371094 "/>
<path fill="none" stroke-width="1.066978" stroke-linecap="butt" stroke-linejoin="round" stroke="rgb(0.392157%, 27.058824%, 30.980392%)" stroke-opacity="1" stroke-miterlimit="10" d="M 186.5 181.109375 L 186.5 178.371094 "/>
<path fill="none" stroke-width="1.066978" stroke-linecap="butt" stroke-linejoin="round" stroke="rgb(0.392157%, 27.058824%, 30.980392%)" stroke-opacity="1" stroke-miterlimit="10" d="M 219.875 181.109375 L 219.875 178.371094 "/>
<path fill="none" stroke-width="1.066978" stroke-linecap="butt" stroke-linejoin="round" stroke="rgb(0.392157%, 27.058824%, 30.980392%)" stroke-opacity="1" stroke-miterlimit="10" d="M 253.25 181.109375 L 253.25 178.371094 "/>
<g fill="rgb(0.392157%, 27.058824%, 30.980392%)" fill-opacity="1">
<use xlink:href="#glyph-1-4" x="145.128906" y="191.319336"/>
<use xlink:href="#glyph-1-5" x="149.128906" y="191.319336"/>
<use xlink:href="#glyph-1-6" x="155.128906" y="191.319336"/>
</g>
<g fill="rgb(0.392157%, 27.058824%, 30.980392%)" fill-opacity="1">
<use xlink:href="#glyph-1-4" x="178.5" y="191.319336"/>
<use xlink:href="#glyph-1-5" x="182.5" y="191.319336"/>
<use xlink:href="#glyph-1-1" x="188.5" y="191.319336"/>
</g>
<g fill="rgb(0.392157%, 27.058824%, 30.980392%)" fill-opacity="1">
<use xlink:href="#glyph-1-4" x="211.875" y="191.319336"/>
<use xlink:href="#glyph-1-5" x="215.875" y="191.319336"/>
<use xlink:href="#glyph-1-7" x="221.875" y="191.319336"/>
</g>
<g fill="rgb(0.392157%, 27.058824%, 30.980392%)" fill-opacity="1">
<use xlink:href="#glyph-1-4" x="245.25" y="191.319336"/>
<use xlink:href="#glyph-1-5" x="249.25" y="191.319336"/>
<use xlink:href="#glyph-1-8" x="255.25" y="191.319336"/>
</g>
<path fill="none" stroke-width="1.066978" stroke-linecap="butt" stroke-linejoin="round" stroke="rgb(0.392157%, 27.058824%, 30.980392%)" stroke-opacity="1" stroke-miterlimit="10" d="M 306.917969 181.109375 L 306.917969 178.371094 "/>
<path fill="none" stroke-width="1.066978" stroke-linecap="butt" stroke-linejoin="round" stroke="rgb(0.392157%, 27.058824%, 30.980392%)" stroke-opacity="1" stroke-miterlimit="10" d="M 333.46875 181.109375 L 333.46875 178.371094 "/>
<path fill="none" stroke-width="1.066978" stroke-linecap="butt" stroke-linejoin="round" stroke="rgb(0.392157%, 27.058824%, 30.980392%)" stroke-opacity="1" stroke-miterlimit="10" d="M 360.015625 181.109375 L 360.015625 178.371094 "/>
<path fill="none" stroke-width="1.066978" stroke-linecap="butt" stroke-linejoin="round" stroke="rgb(0.392157%, 27.058824%, 30.980392%)" stroke-opacity="1" stroke-miterlimit="10" d="M 386.5625 181.109375 L 386.5625 178.371094 "/>
<path fill="none" stroke-width="1.066978" stroke-linecap="butt" stroke-linejoin="round" stroke="rgb(0.392157%, 27.058824%, 30.980392%)" stroke-opacity="1" stroke-miterlimit="10" d="M 413.113281 181.109375 L 413.113281 178.371094 "/>
<g fill="rgb(0.392157%, 27.058824%, 30.980392%)" fill-opacity="1">
<use xlink:href="#glyph-1-8" x="300.917969" y="191.319336"/>
<use xlink:href="#glyph-1-2" x="306.917969" y="191.319336"/>
</g>
<g fill="rgb(0.392157%, 27.058824%, 30.980392%)" fill-opacity="1">
<use xlink:href="#glyph-1-8" x="327.46875" y="191.319336"/>
<use xlink:href="#glyph-1-5" x="333.46875" y="191.319336"/>
</g>
<g fill="rgb(0.392157%, 27.058824%, 30.980392%)" fill-opacity="1">
<use xlink:href="#glyph-1-8" x="354.015625" y="191.319336"/>
<use xlink:href="#glyph-1-8" x="360.015625" y="191.319336"/>
</g>
<g fill="rgb(0.392157%, 27.058824%, 30.980392%)" fill-opacity="1">
<use xlink:href="#glyph-1-8" x="380.5625" y="191.319336"/>
<use xlink:href="#glyph-1-9" x="386.5625" y="191.319336"/>
</g>
<g fill="rgb(0.392157%, 27.058824%, 30.980392%)" fill-opacity="1">
<use xlink:href="#glyph-1-8" x="407.113281" y="191.319336"/>
<use xlink:href="#glyph-1-7" x="413.113281" y="191.319336"/>
</g>
<path fill="none" stroke-width="1.066978" stroke-linecap="butt" stroke-linejoin="round" stroke="rgb(0.392157%, 27.058824%, 30.980392%)" stroke-opacity="1" stroke-miterlimit="10" d="M 438.386719 181.109375 L 438.386719 178.371094 "/>
<path fill="none" stroke-width="1.066978" stroke-linecap="butt" stroke-linejoin="round" stroke="rgb(0.392157%, 27.058824%, 30.980392%)" stroke-opacity="1" stroke-miterlimit="10" d="M 471.761719 181.109375 L 471.761719 178.371094 "/>
<path fill="none" stroke-width="1.066978" stroke-linecap="butt" stroke-linejoin="round" stroke="rgb(0.392157%, 27.058824%, 30.980392%)" stroke-opacity="1" stroke-miterlimit="10" d="M 505.136719 181.109375 L 505.136719 178.371094 "/>
<path fill="none" stroke-width="1.066978" stroke-linecap="butt" stroke-linejoin="round" stroke="rgb(0.392157%, 27.058824%, 30.980392%)" stroke-opacity="1" stroke-miterlimit="10" d="M 538.507812 181.109375 L 538.507812 178.371094 "/>
<g fill="rgb(0.392157%, 27.058824%, 30.980392%)" fill-opacity="1">
<use xlink:href="#glyph-1-4" x="430.386719" y="191.319336"/>
<use xlink:href="#glyph-1-5" x="434.386719" y="191.319336"/>
<use xlink:href="#glyph-1-6" x="440.386719" y="191.319336"/>
</g>
<g fill="rgb(0.392157%, 27.058824%, 30.980392%)" fill-opacity="1">
<use xlink:href="#glyph-1-4" x="463.761719" y="191.319336"/>
<use xlink:href="#glyph-1-5" x="467.761719" y="191.319336"/>
<use xlink:href="#glyph-1-1" x="473.761719" y="191.319336"/>
</g>
<g fill="rgb(0.392157%, 27.058824%, 30.980392%)" fill-opacity="1">
<use xlink:href="#glyph-1-4" x="497.136719" y="191.319336"/>
<use xlink:href="#glyph-1-5" x="501.136719" y="191.319336"/>
<use xlink:href="#glyph-1-7" x="507.136719" y="191.319336"/>
</g>
<g fill="rgb(0.392157%, 27.058824%, 30.980392%)" fill-opacity="1">
<use xlink:href="#glyph-1-4" x="530.507812" y="191.319336"/>
<use xlink:href="#glyph-1-5" x="534.507812" y="191.319336"/>
<use xlink:href="#glyph-1-8" x="540.507812" y="191.319336"/>
</g>
<g fill="rgb(0.392157%, 27.058824%, 30.980392%)" fill-opacity="1">
<use xlink:href="#glyph-1-10" x="275.871094" y="206.061523"/>
<use xlink:href="#glyph-1-11" x="282.871094" y="206.061523"/>
<use xlink:href="#glyph-1-12" x="288.871094" y="206.061523"/>
<use xlink:href="#glyph-1-13" x="290.871094" y="206.061523"/>
<use xlink:href="#glyph-1-14" x="296.871094" y="206.061523"/>
</g>
<g fill="rgb(0%, 0%, 0%)" fill-opacity="1">
<use xlink:href="#glyph-0-22" x="391.519531" y="221.93457"/>
<use xlink:href="#glyph-0-25" x="397.519531" y="221.93457"/>
<use xlink:href="#glyph-0-26" x="399.519531" y="221.93457"/>
<use xlink:href="#glyph-0-1" x="404.519531" y="221.93457"/>
<use xlink:href="#glyph-0-7" x="409.519531" y="221.93457"/>
<use xlink:href="#glyph-0-27" x="411.519531" y="221.93457"/>
<use xlink:href="#glyph-0-16" x="416.519531" y="221.93457"/>
<use xlink:href="#glyph-0-2" x="421.519531" y="221.93457"/>
<use xlink:href="#glyph-0-12" x="423.519531" y="221.93457"/>
<use xlink:href="#glyph-0-5" x="428.519531" y="221.93457"/>
<use xlink:href="#glyph-0-7" x="430.519531" y="221.93457"/>
<use xlink:href="#glyph-0-28" x="432.519531" y="221.93457"/>
<use xlink:href="#glyph-0-7" x="437.519531" y="221.93457"/>
<use xlink:href="#glyph-0-29" x="439.519531" y="221.93457"/>
<use xlink:href="#glyph-0-1" x="446.519531" y="221.93457"/>
<use xlink:href="#glyph-0-30" x="451.519531" y="221.93457"/>
<use xlink:href="#glyph-0-2" x="456.519531" y="221.93457"/>
<use xlink:href="#glyph-0-11" x="458.519531" y="221.93457"/>
<use xlink:href="#glyph-0-12" x="463.519531" y="221.93457"/>
<use xlink:href="#glyph-0-31" x="468.519531" y="221.93457"/>
<use xlink:href="#glyph-0-7" x="470.519531" y="221.93457"/>
<use xlink:href="#glyph-0-32" x="472.519531" y="221.93457"/>
<use xlink:href="#glyph-0-7" x="478.519531" y="221.93457"/>
<use xlink:href="#glyph-0-28" x="480.519531" y="221.93457"/>
<use xlink:href="#glyph-0-7" x="485.519531" y="221.93457"/>
<use xlink:href="#glyph-0-29" x="487.519531" y="221.93457"/>
<use xlink:href="#glyph-0-1" x="494.519531" y="221.93457"/>
<use xlink:href="#glyph-0-11" x="499.519531" y="221.93457"/>
<use xlink:href="#glyph-0-12" x="504.519531" y="221.93457"/>
<use xlink:href="#glyph-0-31" x="509.519531" y="221.93457"/>
<use xlink:href="#glyph-0-7" x="511.519531" y="221.93457"/>
<use xlink:href="#glyph-0-17" x="513.519531" y="221.93457"/>
<use xlink:href="#glyph-0-25" x="518.519531" y="221.93457"/>
<use xlink:href="#glyph-0-26" x="520.519531" y="221.93457"/>
<use xlink:href="#glyph-0-1" x="525.519531" y="221.93457"/>
<use xlink:href="#glyph-0-7" x="530.519531" y="221.93457"/>
<use xlink:href="#glyph-0-25" x="532.519531" y="221.93457"/>
<use xlink:href="#glyph-0-2" x="534.519531" y="221.93457"/>
<use xlink:href="#glyph-0-12" x="536.519531" y="221.93457"/>
<use xlink:href="#glyph-0-1" x="541.519531" y="221.93457"/>
<use xlink:href="#glyph-0-7" x="546.519531" y="221.93457"/>
<use xlink:href="#glyph-0-28" x="548.519531" y="221.93457"/>
<use xlink:href="#glyph-0-7" x="553.519531" y="221.93457"/>
<use xlink:href="#glyph-0-24" x="555.519531" y="221.93457"/>
<use xlink:href="#glyph-0-33" x="557.519531" y="221.93457"/>
<use xlink:href="#glyph-0-34" x="564.519531" y="221.93457"/>
</g>
</svg>
