<?xml version="1.0" encoding="UTF-8"?>
<svg xmlns="http://www.w3.org/2000/svg" xmlns:xlink="http://www.w3.org/1999/xlink" width="576" height="230" viewBox="0 0 576 230">
<defs>
<g>
<g id="glyph-0-0">
<path d="M 6.546875 0 L 8.171875 -6.40625 L 7.25 -6.40625 L 6.078125 -1.203125 L 4.625 -6.40625 L 3.734375 -6.40625 L 2.3125 -1.203125 L 1.109375 -6.40625 L 0.1875 -6.40625 L 1.84375 0 L 2.734375 0 L 4.171875 -5.265625 L 5.640625 0 Z M 6.546875 0 "/>
</g>
<g id="glyph-0-1">
<path d="M 4.515625 -2.0625 C 4.515625 -2.765625 4.453125 -3.1875 4.328125 -3.53125 C 4.03125 -4.28125 3.328125 -4.734375 2.46875 -4.734375 C 1.171875 -4.734375 0.359375 -3.765625 0.359375 -2.25 C 0.359375 -0.71875 1.140625 0.203125 2.453125 0.203125 C 3.5 0.203125 4.234375 -0.390625 4.421875 -1.40625 L 3.671875 -1.40625 C 3.46875 -0.796875 3.0625 -0.46875 2.46875 -0.46875 C 2 -0.46875 1.609375 -0.6875 1.359375 -1.078125 C 1.1875 -1.34375 1.125 -1.59375 1.125 -2.0625 Z M 1.140625 -2.65625 C 1.203125 -3.515625 1.71875 -4.0625 2.453125 -4.0625 C 3.203125 -4.0625 3.71875 -3.484375 3.71875 -2.65625 Z M 1.140625 -2.65625 "/>
</g>
<g id="glyph-0-2">
<path d="M 1.3125 -4.609375 L 0.59375 -4.609375 L 0.59375 0 L 1.3125 0 Z M 1.3125 -6.40625 L 0.578125 -6.40625 L 0.578125 -5.484375 L 1.3125 -5.484375 Z M 1.3125 -6.40625 "/>
</g>
<g id="glyph-0-3">
<path d="M 3.546875 -4.609375 L 3.546875 -3.9375 C 3.1875 -4.5 2.78125 -4.734375 2.203125 -4.734375 C 1.078125 -4.734375 0.3125 -3.703125 0.3125 -2.21875 C 0.3125 -1.453125 0.5 -0.890625 0.890625 -0.421875 C 1.234375 -0.015625 1.671875 0.203125 2.140625 0.203125 C 2.703125 0.203125 3.09375 -0.046875 3.484375 -0.625 L 3.484375 -0.390625 C 3.484375 0.84375 3.140625 1.296875 2.21875 1.296875 C 1.59375 1.296875 1.28125 1.0625 1.203125 0.53125 L 0.453125 0.53125 C 0.53125 1.375 1.203125 1.921875 2.203125 1.921875 C 2.890625 1.921875 3.453125 1.703125 3.75 1.328125 C 4.09375 0.890625 4.234375 0.328125 4.234375 -0.75 L 4.234375 -4.609375 Z M 2.265625 -4.0625 C 3.046875 -4.0625 3.484375 -3.40625 3.484375 -2.25 C 3.484375 -1.125 3.03125 -0.46875 2.265625 -0.46875 C 1.515625 -0.46875 1.078125 -1.140625 1.078125 -2.265625 C 1.078125 -3.390625 1.515625 -4.0625 2.265625 -4.0625 Z M 2.265625 -4.0625 "/>
</g>
<g id="glyph-0-4">
<path d="M 0.609375 -6.40625 L 0.609375 0 L 1.34375 0 L 1.34375 -2.546875 C 1.34375 -3.484375 1.84375 -4.09375 2.59375 -4.09375 C 2.84375 -4.09375 3.0625 -4.03125 3.25 -3.890625 C 3.453125 -3.734375 3.546875 -3.515625 3.546875 -3.1875 L 3.546875 0 L 4.28125 0 L 4.28125 -3.484375 C 4.28125 -4.25 3.71875 -4.734375 2.828125 -4.734375 C 2.171875 -4.734375 1.78125 -4.546875 1.34375 -3.96875 L 1.34375 -6.40625 Z M 0.609375 -6.40625 "/>
</g>
<g id="glyph-0-5">
<path d="M 2.234375 -4.609375 L 1.484375 -4.609375 L 1.484375 -5.875 L 0.75 -5.875 L 0.75 -4.609375 L 0.125 -4.609375 L 0.125 -4.015625 L 0.75 -4.015625 L 0.75 -0.53125 C 0.75 -0.046875 1.0625 0.203125 1.640625 0.203125 C 1.828125 0.203125 1.984375 0.1875 2.234375 0.140625 L 2.234375 -0.46875 C 2.125 -0.453125 2.03125 -0.4375 1.875 -0.4375 C 1.5625 -0.4375 1.484375 -0.53125 1.484375 -0.859375 L 1.484375 -4.015625 L 2.234375 -4.015625 Z M 2.234375 -4.609375 "/>
</g>
<g id="glyph-0-6">
<path d="M 0.765625 -0.921875 L 0.765625 0 L 1.296875 0 L 1.296875 0.15625 C 1.296875 0.765625 1.171875 0.9375 0.765625 0.953125 L 0.765625 1.296875 C 1.34375 1.3125 1.6875 0.890625 1.6875 0.140625 L 1.6875 -0.921875 Z M 0.765625 -0.921875 "/>
</g>
<g id="glyph-0-7">
</g>
<g id="glyph-0-8">
<path d="M 1.234375 -6.40625 L 0.515625 -6.40625 L 0.515625 0 L 1.234375 0 L 1.234375 -1.796875 L 1.953125 -2.5 L 3.515625 0 L 4.421875 0 L 2.53125 -3.015625 L 4.140625 -4.609375 L 3.1875 -4.609375 L 1.234375 -2.65625 Z M 1.234375 -6.40625 "/>
</g>
<g id="glyph-0-9">
<path d="M 1.75 -6.03125 C 0.921875 -6.03125 0.25 -5.34375 0.25 -4.515625 C 0.25 -3.6875 0.921875 -3.015625 1.765625 -3.015625 C 2.578125 -3.015625 3.25 -3.6875 3.25 -4.5 C 3.25 -5.359375 2.59375 -6.03125 1.75 -6.03125 Z M 1.75 -5.40625 C 2.25 -5.40625 2.640625 -5.015625 2.640625 -4.515625 C 2.640625 -4.03125 2.25 -3.640625 1.765625 -3.640625 C 1.265625 -3.640625 0.859375 -4.03125 0.859375 -4.515625 C 0.859375 -5.015625 1.265625 -5.40625 1.75 -5.40625 Z M 5.359375 -6.234375 L 1.875 0.171875 L 2.46875 0.171875 L 5.9375 -6.234375 Z M 6.046875 -2.828125 C 5.21875 -2.828125 4.5625 -2.15625 4.5625 -1.34375 C 4.5625 -0.5 5.21875 0.171875 6.0625 0.171875 C 6.875 0.171875 7.5625 -0.5 7.5625 -1.3125 C 7.5625 -2.15625 6.890625 -2.828125 6.046875 -2.828125 Z M 6.046875 -2.21875 C 6.546875 -2.21875 6.953125 -1.828125 6.953125 -1.3125 C 6.953125 -0.84375 6.546875 -0.453125 6.0625 -0.453125 C 5.5625 -0.453125 5.15625 -0.84375 5.15625 -1.34375 C 5.15625 -1.828125 5.5625 -2.21875 6.046875 -2.21875 Z M 6.046875 -2.21875 "/>
</g>
<g id="glyph-0-10">
<path d="M 4.140625 -3.0625 C 4.109375 -3.515625 4.015625 -3.796875 3.828125 -4.0625 C 3.515625 -4.484375 2.96875 -4.734375 2.328125 -4.734375 C 1.078125 -4.734375 0.265625 -3.75 0.265625 -2.21875 C 0.265625 -0.734375 1.0625 0.203125 2.3125 0.203125 C 3.40625 0.203125 4.109375 -0.453125 4.203125 -1.578125 L 3.453125 -1.578125 C 3.328125 -0.84375 2.953125 -0.46875 2.328125 -0.46875 C 1.515625 -0.46875 1.03125 -1.140625 1.03125 -2.21875 C 1.03125 -3.375 1.515625 -4.0625 2.3125 -4.0625 C 2.921875 -4.0625 3.3125 -3.703125 3.40625 -3.0625 Z M 4.140625 -3.0625 "/>
</g>
<g id="glyph-0-11">
<path d="M 4.703125 -0.4375 C 4.625 -0.40625 4.59375 -0.40625 4.546875 -0.40625 C 4.296875 -0.40625 4.15625 -0.546875 4.15625 -0.78125 L 4.15625 -3.484375 C 4.15625 -4.296875 3.546875 -4.734375 2.421875 -4.734375 C 1.734375 -4.734375 1.203125 -4.546875 0.890625 -4.203125 C 0.671875 -3.96875 0.59375 -3.703125 0.578125 -3.25 L 1.3125 -3.25 C 1.375 -3.8125 1.703125 -4.0625 2.390625 -4.0625 C 3.0625 -4.0625 3.421875 -3.8125 3.421875 -3.375 L 3.421875 -3.1875 C 3.40625 -2.875 3.25 -2.75 2.65625 -2.671875 C 1.625 -2.546875 1.453125 -2.5 1.171875 -2.390625 C 0.640625 -2.15625 0.375 -1.765625 0.375 -1.15625 C 0.375 -0.328125 0.953125 0.203125 1.875 0.203125 C 2.46875 0.203125 2.921875 0 3.453125 -0.46875 C 3.5 0 3.734375 0.203125 4.203125 0.203125 C 4.359375 0.203125 4.453125 0.1875 4.703125 0.125 Z M 3.421875 -1.453125 C 3.421875 -1.203125 3.359375 -1.0625 3.125 -0.859375 C 2.828125 -0.578125 2.46875 -0.4375 2.046875 -0.4375 C 1.46875 -0.4375 1.140625 -0.71875 1.140625 -1.171875 C 1.140625 -1.65625 1.453125 -1.90625 2.25 -2.015625 C 3.03125 -2.125 3.171875 -2.15625 3.421875 -2.28125 Z M 3.421875 -1.453125 "/>
</g>
<g id="glyph-0-12">
<path d="M 0.609375 -4.609375 L 0.609375 0 L 1.359375 0 L 1.359375 -2.546875 C 1.359375 -3.484375 1.84375 -4.09375 2.609375 -4.09375 C 3.1875 -4.09375 3.546875 -3.75 3.546875 -3.1875 L 3.546875 0 L 4.28125 0 L 4.28125 -3.484375 C 4.28125 -4.25 3.71875 -4.734375 2.828125 -4.734375 C 2.140625 -4.734375 1.703125 -4.484375 1.296875 -3.828125 L 1.296875 -4.609375 Z M 0.609375 -4.609375 "/>
</g>
<g id="glyph-0-13">
<path d="M 4.875 0 L 6.234375 -4.609375 L 5.40625 -4.609375 L 4.484375 -1.015625 L 3.578125 -4.609375 L 2.6875 -4.609375 L 1.796875 -1.015625 L 0.859375 -4.609375 L 0.046875 -4.609375 L 1.390625 0 L 2.21875 0 L 3.109375 -3.609375 L 4.03125 0 Z M 4.875 0 "/>
</g>
<g id="glyph-0-14">
<path d="M 3.859375 -3.328125 C 3.84375 -4.234375 3.25 -4.734375 2.1875 -4.734375 C 1.109375 -4.734375 0.40625 -4.1875 0.40625 -3.328125 C 0.40625 -2.609375 0.78125 -2.265625 1.875 -2 L 2.5625 -1.84375 C 3.0625 -1.71875 3.265625 -1.53125 3.265625 -1.203125 C 3.265625 -0.765625 2.84375 -0.46875 2.203125 -0.46875 C 1.796875 -0.46875 1.46875 -0.59375 1.28125 -0.78125 C 1.171875 -0.921875 1.125 -1.046875 1.078125 -1.375 L 0.296875 -1.375 C 0.328125 -0.3125 0.9375 0.203125 2.140625 0.203125 C 3.296875 0.203125 4.03125 -0.375 4.03125 -1.265625 C 4.03125 -1.9375 3.65625 -2.328125 2.734375 -2.546875 L 2.03125 -2.703125 C 1.4375 -2.84375 1.171875 -3.046875 1.171875 -3.375 C 1.171875 -3.796875 1.5625 -4.0625 2.15625 -4.0625 C 2.75 -4.0625 3.0625 -3.8125 3.078125 -3.328125 Z M 3.859375 -3.328125 "/>
</g>
<g id="glyph-0-15">
<path d="M 3.421875 -6.515625 C 1.578125 -6.515625 0.328125 -5.15625 0.328125 -3.15625 C 0.328125 -1.140625 1.578125 0.203125 3.4375 0.203125 C 4.21875 0.203125 4.90625 -0.03125 5.421875 -0.46875 C 6.109375 -1.0625 6.53125 -2.0625 6.53125 -3.109375 C 6.53125 -5.171875 5.296875 -6.515625 3.421875 -6.515625 Z M 3.421875 -5.796875 C 4.8125 -5.796875 5.703125 -4.75 5.703125 -3.125 C 5.703125 -1.578125 4.78125 -0.515625 3.4375 -0.515625 C 2.0625 -0.515625 1.15625 -1.578125 1.15625 -3.15625 C 1.15625 -4.734375 2.0625 -5.796875 3.421875 -5.796875 Z M 3.421875 -5.796875 "/>
</g>
<g id="glyph-0-16">
<path d="M 2.390625 -4.734375 C 1.09375 -4.734375 0.3125 -3.8125 0.3125 -2.265625 C 0.3125 -0.71875 1.09375 0.203125 2.40625 0.203125 C 3.703125 0.203125 4.484375 -0.71875 4.484375 -2.234375 C 4.484375 -3.828125 3.734375 -4.734375 2.390625 -4.734375 Z M 2.40625 -4.0625 C 3.234375 -4.0625 3.71875 -3.390625 3.71875 -2.25 C 3.71875 -1.15625 3.203125 -0.46875 2.40625 -0.46875 C 1.578125 -0.46875 1.078125 -1.15625 1.078125 -2.265625 C 1.078125 -3.390625 1.578125 -4.0625 2.40625 -4.0625 Z M 2.40625 -4.0625 "/>
</g>
<g id="glyph-0-17">
<path d="M 0.46875 -6.40625 L 0.46875 0 L 1.140625 0 L 1.140625 -0.59375 C 1.484375 -0.046875 1.953125 0.203125 2.59375 0.203125 C 3.8125 0.203125 4.59375 -0.796875 4.59375 -2.328125 C 4.59375 -3.8125 3.859375 -4.734375 2.625 -4.734375 C 2 -4.734375 1.546875 -4.5 1.203125 -3.984375 L 1.203125 -6.40625 Z M 2.484375 -4.0625 C 3.3125 -4.0625 3.828125 -3.34375 3.828125 -2.25 C 3.828125 -1.203125 3.296875 -0.484375 2.484375 -0.484375 C 1.703125 -0.484375 1.203125 -1.1875 1.203125 -2.265625 C 1.203125 -3.359375 1.703125 -4.0625 2.484375 -4.0625 Z M 2.484375 -4.0625 "/>
</g>
<g id="glyph-0-18">
<path d="M 0.609375 -4.609375 L 0.609375 0 L 1.34375 0 L 1.34375 -2.390625 C 1.359375 -3.5 1.8125 -4 2.828125 -3.96875 L 2.828125 -4.71875 C 2.703125 -4.734375 2.625 -4.734375 2.546875 -4.734375 C 2.0625 -4.734375 1.703125 -4.453125 1.28125 -3.78125 L 1.28125 -4.609375 Z M 0.609375 -4.609375 "/>
</g>
<g id="glyph-0-19">
<path d="M 4.453125 -0.765625 L 1.171875 -0.765625 C 1.25 -1.296875 1.53125 -1.625 2.296875 -2.09375 L 3.171875 -2.59375 C 4.046875 -3.0625 4.5 -3.71875 4.5 -4.5 C 4.5 -5.03125 4.28125 -5.53125 3.921875 -5.875 C 3.546875 -6.203125 3.09375 -6.359375 2.5 -6.359375 C 1.703125 -6.359375 1.125 -6.078125 0.78125 -5.53125 C 0.546875 -5.203125 0.453125 -4.796875 0.4375 -4.15625 L 1.21875 -4.15625 C 1.234375 -4.59375 1.296875 -4.84375 1.40625 -5.0625 C 1.59375 -5.4375 2 -5.6875 2.46875 -5.6875 C 3.171875 -5.6875 3.703125 -5.171875 3.703125 -4.484375 C 3.703125 -3.96875 3.40625 -3.53125 2.859375 -3.21875 L 2.046875 -2.75 C 0.75 -2 0.375 -1.40625 0.296875 -0.015625 L 4.453125 -0.015625 Z M 4.453125 -0.765625 "/>
</g>
<g id="glyph-0-20">
<path d="M 2.421875 -6.359375 C 1.84375 -6.359375 1.3125 -6.09375 0.984375 -5.671875 C 0.578125 -5.109375 0.375 -4.25 0.375 -3.078125 C 0.375 -0.9375 1.078125 0.203125 2.421875 0.203125 C 3.734375 0.203125 4.453125 -0.9375 4.453125 -3.03125 C 4.453125 -4.25 4.265625 -5.078125 3.859375 -5.671875 C 3.53125 -6.109375 3.015625 -6.359375 2.421875 -6.359375 Z M 2.421875 -5.671875 C 3.25 -5.671875 3.671875 -4.828125 3.671875 -3.09375 C 3.671875 -1.28125 3.265625 -0.4375 2.40625 -0.4375 C 1.578125 -0.4375 1.171875 -1.3125 1.171875 -3.0625 C 1.171875 -4.828125 1.578125 -5.671875 2.421875 -5.671875 Z M 2.421875 -5.671875 "/>
</g>
<g id="glyph-0-21">
<path d="M 1.9375 -2.921875 L 2.359375 -2.921875 C 3.203125 -2.921875 3.65625 -2.53125 3.65625 -1.765625 C 3.65625 -0.96875 3.171875 -0.484375 2.375 -0.484375 C 1.515625 -0.484375 1.109375 -0.921875 1.0625 -1.84375 L 0.28125 -1.84375 C 0.3125 -1.34375 0.40625 -1 0.546875 -0.71875 C 0.875 -0.109375 1.484375 0.203125 2.34375 0.203125 C 3.625 0.203125 4.453125 -0.578125 4.453125 -1.78125 C 4.453125 -2.59375 4.140625 -3.03125 3.390625 -3.296875 C 3.96875 -3.53125 4.265625 -3.96875 4.265625 -4.609375 C 4.265625 -5.703125 3.546875 -6.359375 2.359375 -6.359375 C 1.109375 -6.359375 0.4375 -5.65625 0.40625 -4.3125 L 1.1875 -4.3125 C 1.203125 -4.703125 1.234375 -4.921875 1.328125 -5.109375 C 1.5 -5.46875 1.890625 -5.6875 2.375 -5.6875 C 3.0625 -5.6875 3.46875 -5.265625 3.46875 -4.578125 C 3.46875 -4.140625 3.3125 -3.859375 2.96875 -3.71875 C 2.765625 -3.625 2.484375 -3.59375 1.9375 -3.578125 Z M 1.9375 -2.921875 "/>
</g>
<g id="glyph-0-22">
<path d="M 0.6875 0 L 3.59375 0 C 4.203125 0 4.640625 -0.171875 4.984375 -0.53125 C 5.296875 -0.875 5.484375 -1.328125 5.484375 -1.828125 C 5.484375 -2.609375 5.125 -3.0625 4.3125 -3.390625 C 4.90625 -3.65625 5.203125 -4.125 5.203125 -4.78125 C 5.203125 -5.265625 5.015625 -5.671875 4.6875 -5.96875 C 4.34375 -6.265625 3.921875 -6.40625 3.296875 -6.40625 L 0.6875 -6.40625 Z M 1.515625 -3.65625 L 1.515625 -5.6875 L 3.09375 -5.6875 C 3.546875 -5.6875 3.8125 -5.625 4.03125 -5.46875 C 4.25 -5.28125 4.375 -5.015625 4.375 -4.671875 C 4.375 -4.3125 4.25 -4.0625 4.03125 -3.875 C 3.8125 -3.71875 3.546875 -3.65625 3.09375 -3.65625 Z M 1.515625 -0.71875 L 1.515625 -2.921875 L 3.515625 -2.921875 C 4.234375 -2.921875 4.65625 -2.515625 4.65625 -1.828125 C 4.65625 -1.140625 4.234375 -0.71875 3.515625 -0.71875 Z M 1.515625 -0.71875 "/>
</g>
<g id="glyph-0-23">
<path d="M 4.109375 0 L 5.921875 -5.375 L 5.921875 0 L 6.6875 0 L 6.6875 -6.40625 L 5.5625 -6.40625 L 3.6875 -0.828125 L 1.796875 -6.40625 L 0.65625 -6.40625 L 0.65625 0 L 1.4375 0 L 1.4375 -5.375 L 3.25 0 Z M 4.109375 0 "/>
</g>
<g id="glyph-0-24">
<path d="M 1.703125 -6.40625 L 0.875 -6.40625 L 0.875 0 L 1.703125 0 Z M 1.703125 -6.40625 "/>
</g>
<g id="glyph-0-25">
<path d="M 4.703125 -3.109375 L 0.4375 -3.109375 L 0.4375 -2.484375 L 4.703125 -2.484375 Z M 4.703125 -1.59375 L 0.4375 -1.59375 L 0.4375 -0.96875 L 4.703125 -0.96875 Z M 4.703125 -1.59375 "/>
</g>
<g id="glyph-0-26">
<path d="M 0.609375 -4.609375 L 0.609375 0 L 1.359375 0 L 1.359375 -2.890625 C 1.359375 -3.5625 1.84375 -4.09375 2.4375 -4.09375 C 2.984375 -4.09375 3.296875 -3.765625 3.296875 -3.171875 L 3.296875 0 L 4.03125 0 L 4.03125 -2.890625 C 4.03125 -3.5625 4.515625 -4.09375 5.109375 -4.09375 C 5.640625 -4.09375 5.96875 -3.75 5.96875 -3.171875 L 5.96875 0 L 6.703125 0 L 6.703125 -3.453125 C 6.703125 -4.28125 6.234375 -4.734375 5.359375 -4.734375 C 4.75 -4.734375 4.375 -4.5625 3.953125 -4.03125 C 3.671875 -4.53125 3.3125 -4.734375 2.703125 -4.734375 C 2.09375 -4.734375 1.6875 -4.515625 1.296875 -3.953125 L 1.296875 -4.609375 Z M 0.609375 -4.609375 "/>
</g>
<g id="glyph-0-27">
<path d="M 4.359375 -6.40625 L 3.625 -6.40625 L 3.625 -4.03125 C 3.3125 -4.5 2.828125 -4.734375 2.203125 -4.734375 C 1.015625 -4.734375 0.234375 -3.78125 0.234375 -2.3125 C 0.234375 -0.75 0.984375 0.203125 2.234375 0.203125 C 2.875 0.203125 3.3125 -0.03125 3.703125 -0.609375 L 3.703125 0 L 4.359375 0 Z M 2.328125 -4.0625 C 3.125 -4.0625 3.625 -3.359375 3.625 -2.25 C 3.625 -1.1875 3.109375 -0.484375 2.34375 -0.484375 C 1.53125 -0.484375 1 -1.203125 1 -2.265625 C 1 -3.34375 1.53125 -4.0625 2.328125 -4.0625 Z M 2.328125 -4.0625 "/>
</g>
<g id="glyph-0-28">
<path d="M 1.890625 -4.609375 L 0.96875 -4.609375 L 0.96875 -3.6875 L 1.890625 -3.6875 Z M 0.96875 -0.921875 L 0.96875 0 L 1.5 0 L 1.5 0.15625 C 1.5 0.765625 1.375 0.9375 0.96875 0.953125 L 0.96875 1.296875 C 1.546875 1.3125 1.890625 0.890625 1.890625 0.140625 L 1.890625 -0.921875 Z M 0.96875 -0.921875 "/>
</g>
<g id="glyph-0-29">
<path d="M 3.4375 -3.296875 L 5.609375 -6.40625 L 4.625 -6.40625 L 2.96875 -3.890625 L 1.328125 -6.40625 L 0.328125 -6.40625 L 2.46875 -3.296875 L 0.1875 0 L 1.1875 0 L 2.953125 -2.671875 L 4.703125 0 L 5.703125 0 Z M 3.4375 -3.296875 "/>
</g>
<g id="glyph-0-30">
<path d="M 2.5 -2.75 L 0.40625 -2.75 L 0.40625 -2.109375 L 2.5 -2.109375 Z M 2.5 -2.75 "/>
</g>
<g id="glyph-0-31">
<path d="M 6.453125 0.015625 L 5.625 -0.671875 C 6.234375 -1.34375 6.53125 -2.15625 6.53125 -3.171875 C 6.53125 -5.171875 5.28125 -6.515625 3.4375 -6.515625 C 1.578125 -6.515625 0.328125 -5.171875 0.328125 -3.15625 C 0.328125 -1.15625 1.578125 0.203125 3.4375 0.203125 C 4.078125 0.203125 4.59375 0.0625 5.109375 -0.25 L 6.03125 0.515625 Z M 4.234375 -1.796875 L 3.828125 -1.3125 L 4.484375 -0.765625 C 4.09375 -0.578125 3.8125 -0.515625 3.421875 -0.515625 C 2.0625 -0.515625 1.15625 -1.578125 1.15625 -3.15625 C 1.15625 -4.734375 2.0625 -5.796875 3.4375 -5.796875 C 4.796875 -5.796875 5.703125 -4.734375 5.703125 -3.171875 C 5.703125 -2.328125 5.484375 -1.703125 5.015625 -1.15625 Z M 4.234375 -1.796875 "/>
</g>
<g id="glyph-0-32">
<path d="M 1.640625 -2.765625 L 3.75 -2.765625 C 4.484375 -2.765625 4.796875 -2.40625 4.796875 -1.625 L 4.796875 -1.046875 C 4.796875 -0.65625 4.859375 -0.265625 4.984375 0 L 5.96875 0 L 5.96875 -0.203125 C 5.671875 -0.40625 5.609375 -0.640625 5.59375 -1.5 C 5.578125 -2.546875 5.40625 -2.875 4.71875 -3.171875 C 5.4375 -3.53125 5.734375 -3.953125 5.734375 -4.703125 C 5.734375 -5.8125 5.046875 -6.40625 3.78125 -6.40625 L 0.8125 -6.40625 L 0.8125 0 L 1.640625 0 Z M 1.640625 -3.484375 L 1.640625 -5.6875 L 3.609375 -5.6875 C 4.078125 -5.6875 4.34375 -5.625 4.546875 -5.4375 C 4.765625 -5.265625 4.875 -4.96875 4.875 -4.59375 C 4.875 -3.828125 4.484375 -3.484375 3.609375 -3.484375 Z M 1.640625 -3.484375 "/>
</g>
<g id="glyph-1-0">
<path d="M 5.71875 -7.796875 L 0.5 -7.796875 L 0.5 -6.84375 L 4.71875 -6.84375 C 2.859375 -4.1875 2.09375 -2.5625 1.515625 0 L 2.546875 0 C 2.984375 -2.5 3.953125 -4.640625 5.71875 -6.984375 Z M 5.71875 -7.796875 "/>
</g>
<g id="glyph-1-1">
<path d="M 2.4375 -3.65625 L 2.953125 -3.65625 C 4.015625 -3.65625 4.578125 -3.171875 4.578125 -2.21875 C 4.578125 -1.203125 3.96875 -0.609375 2.96875 -0.609375 C 1.90625 -0.609375 1.390625 -1.140625 1.3125 -2.3125 L 0.359375 -2.3125 C 0.390625 -1.671875 0.5 -1.25 0.6875 -0.90625 C 1.09375 -0.125 1.859375 0.25 2.921875 0.25 C 4.53125 0.25 5.5625 -0.71875 5.5625 -2.21875 C 5.5625 -3.234375 5.1875 -3.78125 4.25 -4.109375 C 4.96875 -4.40625 5.328125 -4.96875 5.328125 -5.765625 C 5.328125 -7.125 4.4375 -7.953125 2.953125 -7.953125 C 1.390625 -7.953125 0.546875 -7.078125 0.515625 -5.390625 L 1.484375 -5.390625 C 1.5 -5.875 1.546875 -6.15625 1.65625 -6.390625 C 1.875 -6.84375 2.359375 -7.109375 2.96875 -7.109375 C 3.828125 -7.109375 4.34375 -6.59375 4.34375 -5.734375 C 4.34375 -5.171875 4.140625 -4.828125 3.71875 -4.640625 C 3.453125 -4.53125 3.109375 -4.484375 2.4375 -4.484375 Z M 2.4375 -3.65625 "/>
</g>
<g id="glyph-1-2">
<path d="M 2.09375 -1.140625 L 0.953125 -1.140625 L 0.953125 0 L 2.09375 0 Z M 2.09375 -1.140625 "/>
</g>
<g id="glyph-1-3">
<path d="M 3.03125 -7.953125 C 2.296875 -7.953125 1.640625 -7.625 1.234375 -7.078125 C 0.71875 -6.375 0.46875 -5.328125 0.46875 -3.84375 C 0.46875 -1.171875 1.359375 0.25 3.03125 0.25 C 4.671875 0.25 5.578125 -1.171875 5.578125 -3.78125 C 5.578125 -5.328125 5.328125 -6.359375 4.8125 -7.078125 C 4.40625 -7.640625 3.765625 -7.953125 3.03125 -7.953125 Z M 3.03125 -7.09375 C 4.0625 -7.09375 4.59375 -6.03125 4.59375 -3.875 C 4.59375 -1.609375 4.078125 -0.546875 3 -0.546875 C 1.984375 -0.546875 1.46875 -1.65625 1.46875 -3.84375 C 1.46875 -6.03125 1.984375 -7.09375 3.03125 -7.09375 Z M 3.03125 -7.09375 "/>
</g>
<g id="glyph-1-4">
<path d="M 5.234375 -7.796875 L 1.203125 -7.796875 L 0.625 -3.546875 L 1.515625 -3.546875 C 1.96875 -4.09375 2.34375 -4.28125 2.953125 -4.28125 C 4 -4.28125 4.65625 -3.5625 4.65625 -2.40625 C 4.65625 -1.28125 4 -0.609375 2.953125 -0.609375 C 2.09375 -0.609375 1.578125 -1.03125 1.359375 -1.90625 L 0.390625 -1.90625 C 0.515625 -1.28125 0.625 -0.96875 0.859375 -0.6875 C 1.296875 -0.09375 2.09375 0.25 2.96875 0.25 C 4.546875 0.25 5.640625 -0.890625 5.640625 -2.546875 C 5.640625 -4.078125 4.625 -5.140625 3.125 -5.140625 C 2.578125 -5.140625 2.140625 -5 1.6875 -4.65625 L 1.984375 -6.84375 L 5.234375 -6.84375 Z M 5.234375 -7.796875 "/>
</g>
<g id="glyph-1-5">
<path d="M 2.84375 -5.671875 L 2.84375 0 L 3.8125 0 L 3.8125 -7.953125 L 3.171875 -7.953125 C 2.84375 -6.734375 2.625 -6.5625 1.125 -6.375 L 1.125 -5.671875 Z M 2.84375 -5.671875 "/>
</g>
<g id="glyph-1-6">
<path d="M 5.5625 -0.953125 L 1.46875 -0.953125 C 1.5625 -1.609375 1.90625 -2.03125 2.875 -2.625 L 3.96875 -3.234375 C 5.0625 -3.84375 5.625 -4.65625 5.625 -5.625 C 5.625 -6.296875 5.359375 -6.90625 4.890625 -7.34375 C 4.4375 -7.75 3.859375 -7.953125 3.125 -7.953125 C 2.140625 -7.953125 1.390625 -7.59375 0.96875 -6.921875 C 0.6875 -6.5 0.578125 -6 0.546875 -5.203125 L 1.515625 -5.203125 C 1.546875 -5.734375 1.609375 -6.0625 1.75 -6.328125 C 2 -6.8125 2.515625 -7.109375 3.09375 -7.109375 C 3.96875 -7.109375 4.625 -6.46875 4.625 -5.609375 C 4.625 -4.96875 4.265625 -4.421875 3.578125 -4.03125 L 2.5625 -3.4375 C 0.9375 -2.5 0.46875 -1.75 0.375 -0.015625 L 5.5625 -0.015625 Z M 5.5625 -0.953125 "/>
</g>
<g id="glyph-1-7">
<path d="M 3.125 -3.4375 L 0.5 -3.4375 L 0.5 -2.640625 L 3.125 -2.640625 Z M 3.125 -3.4375 "/>
</g>
<g id="glyph-1-8">
<path d="M 3.59375 -1.921875 L 3.59375 0 L 4.5625 0 L 4.5625 -1.921875 L 5.71875 -1.921875 L 5.71875 -2.796875 L 4.5625 -2.796875 L 4.5625 -7.953125 L 3.84375 -7.953125 L 0.3125 -2.953125 L 0.3125 -1.921875 Z M 3.59375 -2.796875 L 1.15625 -2.796875 L 3.59375 -6.296875 Z M 3.59375 -2.796875 "/>
</g>
<g id="glyph-1-9">
<path d="M 0.765625 -5.765625 L 0.765625 0 L 1.6875 0 L 1.6875 -3.625 C 1.6875 -4.453125 2.296875 -5.125 3.046875 -5.125 C 3.734375 -5.125 4.109375 -4.703125 4.109375 -3.96875 L 4.109375 0 L 5.03125 0 L 5.03125 -3.625 C 5.03125 -4.453125 5.640625 -5.125 6.390625 -5.125 C 7.0625 -5.125 7.453125 -4.703125 7.453125 -3.96875 L 7.453125 0 L 8.375 0 L 8.375 -4.328125 C 8.375 -5.359375 7.78125 -5.921875 6.703125 -5.921875 C 5.9375 -5.921875 5.484375 -5.703125 4.9375 -5.046875 C 4.59375 -5.671875 4.140625 -5.921875 3.390625 -5.921875 C 2.625 -5.921875 2.09375 -5.640625 1.609375 -4.953125 L 1.609375 -5.765625 Z M 0.765625 -5.765625 "/>
</g>
<g id="glyph-1-10">
<path d="M 5.890625 -0.53125 C 5.78125 -0.515625 5.734375 -0.515625 5.6875 -0.515625 C 5.375 -0.515625 5.1875 -0.6875 5.1875 -0.96875 L 5.1875 -4.359375 C 5.1875 -5.375 4.4375 -5.921875 3.03125 -5.921875 C 2.171875 -5.921875 1.5 -5.6875 1.109375 -5.265625 C 0.84375 -4.96875 0.734375 -4.625 0.71875 -4.0625 L 1.640625 -4.0625 C 1.71875 -4.765625 2.140625 -5.078125 2.984375 -5.078125 C 3.828125 -5.078125 4.28125 -4.78125 4.28125 -4.21875 L 4.28125 -3.984375 C 4.265625 -3.59375 4.0625 -3.4375 3.328125 -3.34375 C 2.03125 -3.171875 1.828125 -3.140625 1.46875 -2.984375 C 0.796875 -2.703125 0.46875 -2.203125 0.46875 -1.453125 C 0.46875 -0.40625 1.1875 0.25 2.359375 0.25 C 3.078125 0.25 3.65625 0 4.3125 -0.59375 C 4.375 0 4.65625 0.25 5.265625 0.25 C 5.453125 0.25 5.578125 0.234375 5.890625 0.15625 Z M 4.28125 -1.8125 C 4.28125 -1.5 4.1875 -1.3125 3.921875 -1.0625 C 3.546875 -0.71875 3.09375 -0.546875 2.546875 -0.546875 C 1.84375 -0.546875 1.421875 -0.890625 1.421875 -1.46875 C 1.421875 -2.078125 1.8125 -2.390625 2.8125 -2.53125 C 3.78125 -2.65625 3.96875 -2.703125 4.28125 -2.84375 Z M 4.28125 -1.8125 "/>
</g>
<g id="glyph-1-11">
<path d="M 1.671875 -8.015625 L 0.75 -8.015625 L 0.75 0 L 1.671875 0 Z M 1.671875 -8.015625 "/>
</g>
<g id="glyph-1-12">
<path d="M 5.640625 -2.578125 C 5.640625 -3.453125 5.578125 -3.984375 5.40625 -4.40625 C 5.03125 -5.359375 4.15625 -5.921875 3.078125 -5.921875 C 1.46875 -5.921875 0.4375 -4.703125 0.4375 -2.8125 C 0.4375 -0.90625 1.4375 0.25 3.0625 0.25 C 4.375 0.25 5.296875 -0.5 5.515625 -1.75 L 4.59375 -1.75 C 4.34375 -0.984375 3.828125 -0.59375 3.09375 -0.59375 C 2.515625 -0.59375 2.015625 -0.859375 1.703125 -1.34375 C 1.484375 -1.671875 1.40625 -2 1.390625 -2.578125 Z M 1.421875 -3.328125 C 1.5 -4.390625 2.140625 -5.078125 3.0625 -5.078125 C 4 -5.078125 4.65625 -4.359375 4.65625 -3.328125 Z M 1.421875 -3.328125 "/>
</g>
<g id="glyph-1-13">
<path d="M 4.3125 0 L 7.09375 -8.015625 L 6 -8.015625 L 3.78125 -1.234375 L 1.4375 -8.015625 L 0.328125 -8.015625 L 3.21875 0 Z M 4.3125 0 "/>
</g>
<g id="glyph-1-14">
<path d="M 5.296875 0 L 5.296875 -5.765625 L 4.390625 -5.765625 L 4.390625 -2.5 C 4.390625 -1.3125 3.765625 -0.546875 2.8125 -0.546875 C 2.09375 -0.546875 1.625 -0.984375 1.625 -1.6875 L 1.625 -5.765625 L 0.71875 -5.765625 L 0.71875 -1.3125 C 0.71875 -0.359375 1.4375 0.25 2.546875 0.25 C 3.40625 0.25 3.9375 -0.046875 4.484375 -0.796875 L 4.484375 0 Z M 5.296875 0 "/>
</g>
</g>
<clipPath id="clip-0">
<path clip-rule="nonzero" d="M 33.410156 32.75 L 163.578125 32.75 L 163.578125 178.371094 L 33.410156 178.371094 Z M 33.410156 32.75 "/>
</clipPath>
<clipPath id="clip-1">
<path clip-rule="nonzero" d="M 49 32.75 L 50 32.75 L 50 178.371094 L 49 178.371094 Z M 49 32.75 "/>
</clipPath>
<clipPath id="clip-2">
<path clip-rule="nonzero" d="M 81 32.75 L 83 32.75 L 83 178.371094 L 81 178.371094 Z M 81 32.75 "/>
</clipPath>
<clipPath id="clip-3">
<path clip-rule="nonzero" d="M 114 32.75 L 116 32.75 L 116 178.371094 L 114 178.371094 Z M 114 32.75 "/>
</clipPath>
<clipPath id="clip-4">
<path clip-rule="nonzero" d="M 147 32.75 L 148 32.75 L 148 178.371094 L 147 178.371094 Z M 147 32.75 "/>
</clipPath>
<clipPath id="clip-5">
<path clip-rule="nonzero" d="M 33.410156 105 L 163.578125 105 L 163.578125 107 L 33.410156 107 Z M 33.410156 105 "/>
</clipPath>
<clipPath id="clip-6">
<path clip-rule="nonzero" d="M 33.410156 32.75 L 34 32.75 L 34 178.371094 L 33.410156 178.371094 Z M 33.410156 32.75 "/>
</clipPath>
<clipPath id="clip-7">
<path clip-rule="nonzero" d="M 65 32.75 L 67 32.75 L 67 178.371094 L 65 178.371094 Z M 65 32.75 "/>
</clipPath>
<clipPath id="clip-8">
<path clip-rule="nonzero" d="M 97 32.75 L 100 32.75 L 100 178.371094 L 97 178.371094 Z M 97 32.75 "/>
</clipPath>
<clipPath id="clip-9">
<path clip-rule="nonzero" d="M 130 32.75 L 132 32.75 L 132 178.371094 L 130 178.371094 Z M 130 32.75 "/>
</clipPath>
<clipPath id="clip-10">
<path clip-rule="nonzero" d="M 163 32.75 L 163.578125 32.75 L 163.578125 178.371094 L 163 178.371094 Z M 163 32.75 "/>
</clipPath>
<clipPath id="clip-11">
<path clip-rule="nonzero" d="M 33.410156 32.75 L 163.578125 32.75 L 163.578125 178.371094 L 33.410156 178.371094 Z M 33.410156 32.75 "/>
</clipPath>
<clipPath id="clip-12">
<path clip-rule="nonzero" d="M 169.058594 32.75 L 299.226562 32.75 L 299.226562 178.371094 L 169.058594 178.371094 Z M 169.058594 32.75 "/>
</clipPath>
<clipPath id="clip-13">
<path clip-rule="nonzero" d="M 192 32.75 L 193 32.75 L 193 178.371094 L 192 178.371094 Z M 192 32.75 "/>
</clipPath>
<clipPath id="clip-14">
<path clip-rule="nonzero" d="M 224 32.75 L 226 32.75 L 226 178.371094 L 224 178.371094 Z M 224 32.75 "/>
</clipPath>
<clipPath id="clip-15">
<path clip-rule="nonzero" d="M 257 32.75 L 258 32.75 L 258 178.371094 L 257 178.371094 Z M 257 32.75 "/>
</clipPath>
<clipPath id="clip-16">
<path clip-rule="nonzero" d="M 289 32.75 L 291 32.75 L 291 178.371094 L 289 178.371094 Z M 289 32.75 "/>
</clipPath>
<clipPath id="clip-17">
<path clip-rule="nonzero" d="M 169.058594 105 L 299.226562 105 L 299.226562 107 L 169.058594 107 Z M 169.058594 105 "/>
</clipPath>
<clipPath id="clip-18">
<path clip-rule="nonzero" d="M 175 32.75 L 177 32.75 L 177 178.371094 L 175 178.371094 Z M 175 32.75 "/>
</clipPath>
<clipPath id="clip-19">
<path clip-rule="nonzero" d="M 208 32.75 L 210 32.75 L 210 178.371094 L 208 178.371094 Z M 208 32.75 "/>
</clipPath>
<clipPath id="clip-20">
<path clip-rule="nonzero" d="M 240 32.75 L 242 32.75 L 242 178.371094 L 240 178.371094 Z M 240 32.75 "/>
</clipPath>
<clipPath id="clip-21">
<path clip-rule="nonzero" d="M 273 32.75 L 275 32.75 L 275 178.371094 L 273 178.371094 Z M 273 32.75 "/>
</clipPath>
<clipPath id="clip-22">
<path clip-rule="nonzero" d="M 169.058594 32.75 L 299.226562 32.75 L 299.226562 178.371094 L 169.058594 178.371094 Z M 169.058594 32.75 "/>
</clipPath>
<clipPath id="clip-23">
<path clip-rule="nonzero" d="M 304.707031 32.75 L 434.875 32.75 L 434.875 178.371094 L 304.707031 178.371094 Z M 304.707031 32.75 "/>
</clipPath>
<clipPath id="clip-24">
<path clip-rule="nonzero" d="M 309 32.75 L 310 32.75 L 310 178.371094 L 309 178.371094 Z M 309 32.75 "/>
</clipPath>
<clipPath id="clip-25">
<path clip-rule="nonzero" d="M 341 32.75 L 343 32.75 L 343 178.371094 L 341 178.371094 Z M 341 32.75 "/>
</clipPath>
<clipPath id="clip-26">
<path clip-rule="nonzero" d="M 374 32.75 L 376 32.75 L 376 178.371094 L 374 178.371094 Z M 374 32.75 "/>
</clipPath>
<clipPath id="clip-27">
<path clip-rule="nonzero" d="M 407 32.75 L 408 32.75 L 408 178.371094 L 407 178.371094 Z M 407 32.75 "/>
</clipPath>
<clipPath id="clip-28">
<path clip-rule="nonzero" d="M 304.707031 105 L 434.875 105 L 434.875 107 L 304.707031 107 Z M 304.707031 105 "/>
</clipPath>
<clipPath id="clip-29">
<path clip-rule="nonzero" d="M 325 32.75 L 327 32.75 L 327 178.371094 L 325 178.371094 Z M 325 32.75 "/>
</clipPath>
<clipPath id="clip-30">
<path clip-rule="nonzero" d="M 357 32.75 L 360 32.75 L 360 178.371094 L 357 178.371094 Z M 357 32.75 "/>
</clipPath>
<clipPath id="clip-31">
<path clip-rule="nonzero" d="M 390 32.75 L 392 32.75 L 392 178.371094 L 390 178.371094 Z M 390 32.75 "/>
</clipPath>
<clipPath id="clip-32">
<path clip-rule="nonzero" d="M 423 32.75 L 425 32.75 L 425 178.371094 L 423 178.371094 Z M 423 32.75 "/>
</clipPath>
<clipPath id="clip-33">
<path clip-rule="nonzero" d="M 304.707031 32.75 L 434.875 32.75 L 434.875 178.371094 L 304.707031 178.371094 Z M 304.707031 32.75 "/>
</clipPath>
<clipPath id="clip-34">
<path clip-rule="nonzero" d="M 440.351562 32.75 L 570.519531 32.75 L 570.519531 178.371094 L 440.351562 178.371094 Z M 440.351562 32.75 "/>
</clipPath>
<clipPath id="clip-35">
<path clip-rule="nonzero" d="M 463 32.75 L 465 32.75 L 465 178.371094 L 463 178.371094 Z M 463 32.75 "/>
</clipPath>
<clipPath id="clip-36">
<path clip-rule="nonzero" d="M 496 32.75 L 497 32.75 L 497 178.371094 L 496 178.371094 Z M 496 32.75 "/>
</clipPath>
<clipPath id="clip-37">
<path clip-rule="nonzero" d="M 528 32.75 L 530 32.75 L 530 178.371094 L 528 178.371094 Z M 528 32.75 "/>
</clipPath>
<clipPath id="clip-38">
<path clip-rule="nonzero" d="M 561 32.75 L 562 32.75 L 562 178.371094 L 561 178.371094 Z M 561 32.75 "/>
</clipPath>
<clipPath id="clip-39">
<path clip-rule="nonzero" d="M 440.351562 105 L 570.519531 105 L 570.519531 107 L 440.351562 107 Z M 440.351562 105 "/>
</clipPath>
<clipPath id="clip-40">
<path clip-rule="nonzero" d="M 446 32.75 L 449 32.75 L 449 178.371094 L 446 178.371094 Z M 446 32.75 "/>
</clipPath>
<clipPath id="clip-41">
<path clip-rule="nonzero" d="M 479 32.75 L 481 32.75 L 481 178.371094 L 479 178.371094 Z M 479 32.75 "/>
</clipPath>
<clipPath id="clip-42">
<path clip-rule="nonzero" d="M 512 32.75 L 514 32.75 L 514 178.371094 L 512 178.371094 Z M 512 32.75 "/>
</clipPath>
<clipPath id="clip-43">
<path clip-rule="nonzero" d="M 544 32.75 L 546 32.75 L 546 178.371094 L 544 178.371094 Z M 544 32.75 "/>
</clipPath>
<clipPath id="clip-44">
<path clip-rule="nonzero" d="M 440.351562 32.75 L 570.519531 32.75 L 570.519531 178.371094 L 440.351562 178.371094 Z M 440.351562 32.75 "/>
</clipPath>
<clipPath id="clip-45">
<path clip-rule="nonzero" d="M 33.410156 5.480469 L 163.578125 5.480469 L 163.578125 32.75 L 33.410156 32.75 Z M 33.410156 5.480469 "/>
</clipPath>
<clipPath id="clip-46">
<path clip-rule="nonzero" d="M 169.058594 5.480469 L 299.226562 5.480469 L 299.226562 32.75 L 169.058594 32.75 Z M 169.058594 5.480469 "/>
</clipPath>
<clipPath id="clip-47">
<path clip-rule="nonzero" d="M 304.707031 5.480469 L 434.875 5.480469 L 434.875 32.75 L 304.707031 32.75 Z M 304.707031 5.480469 "/>
</clipPath>
<clipPath id="clip-48">
<path clip-rule="nonzero" d="M 440.351562 5.480469 L 570.519531 5.480469 L 570.519531 32.75 L 440.351562 32.75 Z M 440.351562 5.480469 "/>
</clipPath>
</defs>
<rect x="-57.6" y="-23" width="691.2" height="276" fill="rgb(100%, 100%, 100%)" fill-opacity="1"/>
<rect x="-57.6" y="-23" width="691.2" height="276" fill="rgb(100%, 100%, 100%)" fill-opacity="1"/>
<path fill="none" stroke-width="1.066978" stroke-linecap="round" stroke-linejoin="round" stroke="rgb(100%, 100%, 100%)" stroke-opacity="1" stroke-miterlimit="10" d="M 0 230 L 576 230 L 576 0 L 0 0 Z M 0 230 "/>
<g clip-path="url(#clip-0)">
<path fill-rule="nonzero" fill="rgb(100%, 100%, 100%)" fill-opacity="1" stroke-width="1.066978" stroke-linecap="round" stroke-linejoin="round" stroke="rgb(0%, 0%, 0%)" stroke-opacity="1" stroke-miterlimit="10" d="M 33.410156 178.371094 L 163.578125 178.371094 L 163.578125 32.75 L 33.410156 32.75 Z M 33.410156 178.371094 "/>
</g>
<g clip-path="url(#clip-1)">
<path fill="none" stroke-width="0.533489" stroke-linecap="butt" stroke-linejoin="round" stroke="rgb(94.117647%, 97.254902%, 100%)" stroke-opacity="1" stroke-miterlimit="10" d="M 49.683594 178.371094 L 49.683594 32.75 "/>
</g>
<g clip-path="url(#clip-2)">
<path fill="none" stroke-width="0.533489" stroke-linecap="butt" stroke-linejoin="round" stroke="rgb(94.117647%, 97.254902%, 100%)" stroke-opacity="1" stroke-miterlimit="10" d="M 82.222656 178.371094 L 82.222656 32.75 "/>
</g>
<g clip-path="url(#clip-3)">
<path fill="none" stroke-width="0.533489" stroke-linecap="butt" stroke-linejoin="round" stroke="rgb(94.117647%, 97.254902%, 100%)" stroke-opacity="1" stroke-miterlimit="10" d="M 114.765625 178.371094 L 114.765625 32.75 "/>
</g>
<g clip-path="url(#clip-4)">
<path fill="none" stroke-width="0.533489" stroke-linecap="butt" stroke-linejoin="round" stroke="rgb(94.117647%, 97.254902%, 100%)" stroke-opacity="1" stroke-miterlimit="10" d="M 147.308594 178.371094 L 147.308594 32.75 "/>
</g>
<g clip-path="url(#clip-5)">
<path fill="none" stroke-width="1.066978" stroke-linecap="butt" stroke-linejoin="round" stroke="rgb(100%, 100%, 100%)" stroke-opacity="1" stroke-miterlimit="10" d="M 33.410156 105.558594 L 163.578125 105.558594 "/>
</g>
<g clip-path="url(#clip-6)">
<path fill="none" stroke-width="1.066978" stroke-linecap="butt" stroke-linejoin="round" stroke="rgb(100%, 100%, 100%)" stroke-opacity="1" stroke-miterlimit="10" d="M 33.410156 178.371094 L 33.410156 32.75 "/>
</g>
<g clip-path="url(#clip-7)">
<path fill="none" stroke-width="1.066978" stroke-linecap="butt" stroke-linejoin="round" stroke="rgb(100%, 100%, 100%)" stroke-opacity="1" stroke-miterlimit="10" d="M 65.953125 178.371094 L 65.953125 32.75 "/>
</g>
<g clip-path="url(#clip-8)">
<path fill="none" stroke-width="1.066978" stroke-linecap="butt" stroke-linejoin="round" stroke="rgb(100%, 100%, 100%)" stroke-opacity="1" stroke-miterlimit="10" d="M 98.496094 178.371094 L 98.496094 32.75 "/>
</g>
<g clip-path="url(#clip-9)">
<path fill="none" stroke-width="1.066978" stroke-linecap="butt" stroke-linejoin="round" stroke="rgb(100%, 100%, 100%)" stroke-opacity="1" stroke-miterlimit="10" d="M 131.035156 178.371094 L 131.035156 32.75 "/>
</g>
<g clip-path="url(#clip-10)">
<path fill="none" stroke-width="1.066978" stroke-linecap="butt" stroke-linejoin="round" stroke="rgb(100%, 100%, 100%)" stroke-opacity="1" stroke-miterlimit="10" d="M 163.578125 178.371094 L 163.578125 32.75 "/>
</g>
<path fill="none" stroke-width="1.066978" stroke-linecap="butt" stroke-linejoin="round" stroke="rgb(97.254902%, 46.27451%, 42.745098%)" stroke-opacity="1" stroke-miterlimit="10" d="M 98.496094 105.558594 L 98.496094 105.558594 "/>
<path fill="none" stroke-width="1.066978" stroke-linecap="butt" stroke-linejoin="round" stroke="rgb(97.254902%, 46.27451%, 42.745098%)" stroke-opacity="1" stroke-miterlimit="10" d="M 98.496094 105.558594 L 98.496094 105.558594 "/>
<path fill="none" stroke-width="1.066978" stroke-linecap="butt" stroke-linejoin="round" stroke="rgb(97.254902%, 46.27451%, 42.745098%)" stroke-opacity="1" stroke-miterlimit="10" d="M 98.496094 105.558594 L 98.496094 105.558594 "/>
<path fill-rule="nonzero" fill="rgb(97.254902%, 46.27451%, 42.745098%)" fill-opacity="1" stroke-width="0.708661" stroke-linecap="round" stroke-linejoin="round" stroke="rgb(97.254902%, 46.27451%, 42.745098%)" stroke-opacity="1" stroke-miterlimit="10" d="M 102.050781 105.558594 C 102.050781 110.300781 94.941406 110.300781 94.941406 105.558594 C 94.941406 100.820312 102.050781 100.820312 102.050781 105.558594 "/>
<path fill="none" stroke-width="1.417323" stroke-linecap="round" stroke-linejoin="round" stroke="rgb(97.254902%, 46.27451%, 42.745098%)" stroke-opacity="1" stroke-miterlimit="10" d="M 94.585938 109.46875 L 102.40625 101.652344 "/>
<path fill="none" stroke-width="1.417323" stroke-linecap="round" stroke-linejoin="round" stroke="rgb(97.254902%, 46.27451%, 42.745098%)" stroke-opacity="1" stroke-miterlimit="10" d="M 94.585938 101.652344 L 102.40625 109.46875 "/>
<g clip-path="url(#clip-11)">
<path fill="none" stroke-width="1.066978" stroke-linecap="round" stroke-linejoin="round" stroke="rgb(0.392157%, 27.058824%, 30.980392%)" stroke-opacity="1" stroke-miterlimit="10" d="M 33.410156 178.371094 L 163.578125 178.371094 L 163.578125 32.75 L 33.410156 32.75 Z M 33.410156 178.371094 "/>
</g>
<g clip-path="url(#clip-12)">
<path fill-rule="nonzero" fill="rgb(100%, 100%, 100%)" fill-opacity="1" stroke-width="1.066978" stroke-linecap="round" stroke-linejoin="round" stroke="rgb(0%, 0%, 0%)" stroke-opacity="1" stroke-miterlimit="10" d="M 169.058594 178.371094 L 299.226562 178.371094 L 299.226562 32.75 L 169.058594 32.75 Z M 169.058594 178.371094 "/>
</g>
<g clip-path="url(#clip-13)">
<path fill="none" stroke-width="0.533489" stroke-linecap="butt" stroke-linejoin="round" stroke="rgb(94.117647%, 97.254902%, 100%)" stroke-opacity="1" stroke-miterlimit="10" d="M 192.484375 178.371094 L 192.484375 32.75 "/>
</g>
<g clip-path="url(#clip-14)">
<path fill="none" stroke-width="0.533489" stroke-linecap="butt" stroke-linejoin="round" stroke="rgb(94.117647%, 97.254902%, 100%)" stroke-opacity="1" stroke-miterlimit="10" d="M 225.027344 178.371094 L 225.027344 32.75 "/>
</g>
<g clip-path="url(#clip-15)">
<path fill="none" stroke-width="0.533489" stroke-linecap="butt" stroke-linejoin="round" stroke="rgb(94.117647%, 97.254902%, 100%)" stroke-opacity="1" stroke-miterlimit="10" d="M 257.570312 178.371094 L 257.570312 32.75 "/>
</g>
<g clip-path="url(#clip-16)">
<path fill="none" stroke-width="0.533489" stroke-linecap="butt" stroke-linejoin="round" stroke="rgb(94.117647%, 97.254902%, 100%)" stroke-opacity="1" stroke-miterlimit="10" d="M 290.109375 178.371094 L 290.109375 32.75 "/>
</g>
<g clip-path="url(#clip-17)">
<path fill="none" stroke-width="1.066978" stroke-linecap="butt" stroke-linejoin="round" stroke="rgb(100%, 100%, 100%)" stroke-opacity="1" stroke-miterlimit="10" d="M 169.058594 105.558594 L 299.226562 105.558594 "/>
</g>
<g clip-path="url(#clip-18)">
<path fill="none" stroke-width="1.066978" stroke-linecap="butt" stroke-linejoin="round" stroke="rgb(100%, 100%, 100%)" stroke-opacity="1" stroke-miterlimit="10" d="M 176.214844 178.371094 L 176.214844 32.75 "/>
</g>
<g clip-path="url(#clip-19)">
<path fill="none" stroke-width="1.066978" stroke-linecap="butt" stroke-linejoin="round" stroke="rgb(100%, 100%, 100%)" stroke-opacity="1" stroke-miterlimit="10" d="M 208.757812 178.371094 L 208.757812 32.75 "/>
</g>
<g clip-path="url(#clip-20)">
<path fill="none" stroke-width="1.066978" stroke-linecap="butt" stroke-linejoin="round" stroke="rgb(100%, 100%, 100%)" stroke-opacity="1" stroke-miterlimit="10" d="M 241.296875 178.371094 L 241.296875 32.75 "/>
</g>
<g clip-path="url(#clip-21)">
<path fill="none" stroke-width="1.066978" stroke-linecap="butt" stroke-linejoin="round" stroke="rgb(100%, 100%, 100%)" stroke-opacity="1" stroke-miterlimit="10" d="M 273.839844 178.371094 L 273.839844 32.75 "/>
</g>
<path fill="none" stroke-width="1.066978" stroke-linecap="butt" stroke-linejoin="round" stroke="rgb(97.254902%, 46.27451%, 42.745098%)" stroke-opacity="1" stroke-miterlimit="10" d="M 234.140625 105.558594 L 234.140625 105.558594 "/>
<path fill="none" stroke-width="1.066978" stroke-linecap="butt" stroke-linejoin="round" stroke="rgb(97.254902%, 46.27451%, 42.745098%)" stroke-opacity="1" stroke-miterlimit="10" d="M 234.140625 105.558594 L 234.140625 105.558594 "/>
<path fill="none" stroke-width="1.066978" stroke-linecap="butt" stroke-linejoin="round" stroke="rgb(97.254902%, 46.27451%, 42.745098%)" stroke-opacity="1" stroke-miterlimit="10" d="M 234.140625 105.558594 L 234.140625 105.558594 "/>
<path fill-rule="nonzero" fill="rgb(97.254902%, 46.27451%, 42.745098%)" fill-opacity="1" stroke-width="0.708661" stroke-linecap="round" stroke-linejoin="round" stroke="rgb(97.254902%, 46.27451%, 42.745098%)" stroke-opacity="1" stroke-miterlimit="10" d="M 237.699219 105.558594 C 237.699219 110.300781 230.585938 110.300781 230.585938 105.558594 C 230.585938 100.820312 237.699219 100.820312 237.699219 105.558594 "/>
<path fill="none" stroke-width="1.417323" stroke-linecap="round" stroke-linejoin="round" stroke="rgb(97.254902%, 46.27451%, 42.745098%)" stroke-opacity="1" stroke-miterlimit="10" d="M 230.234375 109.46875 L 238.050781 101.652344 "/>
<path fill="none" stroke-width="1.417323" stroke-linecap="round" stroke-linejoin="round" stroke="rgb(97.254902%, 46.27451%, 42.745098%)" stroke-opacity="1" stroke-miterlimit="10" d="M 230.234375 101.652344 L 238.050781 109.46875 "/>
<g clip-path="url(#clip-22)">
<path fill="none" stroke-width="1.066978" stroke-linecap="round" stroke-linejoin="round" stroke="rgb(0.392157%, 27.058824%, 30.980392%)" stroke-opacity="1" stroke-miterlimit="10" d="M 169.058594 178.371094 L 299.226562 178.371094 L 299.226562 32.75 L 169.058594 32.75 Z M 169.058594 178.371094 "/>
</g>
<g clip-path="url(#clip-23)">
<path fill-rule="nonzero" fill="rgb(100%, 100%, 100%)" fill-opacity="1" stroke-width="1.066978" stroke-linecap="round" stroke-linejoin="round" stroke="rgb(0%, 0%, 0%)" stroke-opacity="1" stroke-miterlimit="10" d="M 304.707031 178.371094 L 434.875 178.371094 L 434.875 32.75 L 304.707031 32.75 Z M 304.707031 178.371094 "/>
</g>
<g clip-path="url(#clip-24)">
<path fill="none" stroke-width="0.533489" stroke-linecap="butt" stroke-linejoin="round" stroke="rgb(94.117647%, 97.254902%, 100%)" stroke-opacity="1" stroke-miterlimit="10" d="M 309.710938 178.371094 L 309.710938 32.75 "/>
</g>
<g clip-path="url(#clip-25)">
<path fill="none" stroke-width="0.533489" stroke-linecap="butt" stroke-linejoin="round" stroke="rgb(94.117647%, 97.254902%, 100%)" stroke-opacity="1" stroke-miterlimit="10" d="M 342.25 178.371094 L 342.25 32.75 "/>
</g>
<g clip-path="url(#clip-26)">
<path fill="none" stroke-width="0.533489" stroke-linecap="butt" stroke-linejoin="round" stroke="rgb(94.117647%, 97.254902%, 100%)" stroke-opacity="1" stroke-miterlimit="10" d="M 374.792969 178.371094 L 374.792969 32.75 "/>
</g>
<g clip-path="url(#clip-27)">
<path fill="none" stroke-width="0.533489" stroke-linecap="butt" stroke-linejoin="round" stroke="rgb(94.117647%, 97.254902%, 100%)" stroke-opacity="1" stroke-miterlimit="10" d="M 407.335938 178.371094 L 407.335938 32.75 "/>
</g>
<g clip-path="url(#clip-28)">
<path fill="none" stroke-width="1.066978" stroke-linecap="butt" stroke-linejoin="round" stroke="rgb(100%, 100%, 100%)" stroke-opacity="1" stroke-miterlimit="10" d="M 304.707031 105.558594 L 434.875 105.558594 "/>
</g>
<g clip-path="url(#clip-29)">
<path fill="none" stroke-width="1.066978" stroke-linecap="butt" stroke-linejoin="round" stroke="rgb(100%, 100%, 100%)" stroke-opacity="1" stroke-miterlimit="10" d="M 325.980469 178.371094 L 325.980469 32.75 "/>
</g>
<g clip-path="url(#clip-30)">
<path fill="none" stroke-width="1.066978" stroke-linecap="butt" stroke-linejoin="round" stroke="rgb(100%, 100%, 100%)" stroke-opacity="1" stroke-miterlimit="10" d="M 358.523438 178.371094 L 358.523438 32.75 "/>
</g>
<g clip-path="url(#clip-31)">
<path fill="none" stroke-width="1.066978" stroke-linecap="butt" stroke-linejoin="round" stroke="rgb(100%, 100%, 100%)" stroke-opacity="1" stroke-miterlimit="10" d="M 391.0625 178.371094 L 391.0625 32.75 "/>
</g>
<g clip-path="url(#clip-32)">
<path fill="none" stroke-width="1.066978" stroke-linecap="butt" stroke-linejoin="round" stroke="rgb(100%, 100%, 100%)" stroke-opacity="1" stroke-miterlimit="10" d="M 423.605469 178.371094 L 423.605469 32.75 "/>
</g>
<path fill="none" stroke-width="1.066978" stroke-linecap="butt" stroke-linejoin="round" stroke="rgb(97.254902%, 46.27451%, 42.745098%)" stroke-opacity="1" stroke-miterlimit="10" d="M 369.789062 105.558594 L 369.789062 105.558594 "/>
<path fill="none" stroke-width="1.066978" stroke-linecap="butt" stroke-linejoin="round" stroke="rgb(97.254902%, 46.27451%, 42.745098%)" stroke-opacity="1" stroke-miterlimit="10" d="M 369.789062 105.558594 L 369.789062 105.558594 "/>
<path fill="none" stroke-width="1.066978" stroke-linecap="butt" stroke-linejoin="round" stroke="rgb(97.254902%, 46.27451%, 42.745098%)" stroke-opacity="1" stroke-miterlimit="10" d="M 369.789062 105.558594 L 369.789062 105.558594 "/>
<path fill-rule="nonzero" fill="rgb(97.254902%, 46.27451%, 42.745098%)" fill-opacity="1" stroke-width="0.708661" stroke-linecap="round" stroke-linejoin="round" stroke="rgb(97.254902%, 46.27451%, 42.745098%)" stroke-opacity="1" stroke-miterlimit="10" d="M 373.34375 105.558594 C 373.34375 110.300781 366.234375 110.300781 366.234375 105.558594 C 366.234375 100.820312 373.34375 100.820312 373.34375 105.558594 "/>
<path fill="none" stroke-width="1.417323" stroke-linecap="round" stroke-linejoin="round" stroke="rgb(97.254902%, 46.27451%, 42.745098%)" stroke-opacity="1" stroke-miterlimit="10" d="M 365.878906 109.46875 L 373.699219 101.652344 "/>
<path fill="none" stroke-width="1.417323" stroke-linecap="round" stroke-linejoin="round" stroke="rgb(97.254902%, 46.27451%, 42.745098%)" stroke-opacity="1" stroke-miterlimit="10" d="M 365.878906 101.652344 L 373.699219 109.46875 "/>
<g clip-path="url(#clip-33)">
<path fill="none" stroke-width="1.066978" stroke-linecap="round" stroke-linejoin="round" stroke="rgb(0.392157%, 27.058824%, 30.980392%)" stroke-opacity="1" stroke-miterlimit="10" d="M 304.707031 178.371094 L 434.875 178.371094 L 434.875 32.75 L 304.707031 32.75 Z M 304.707031 178.371094 "/>
</g>
<g clip-path="url(#clip-34)">
<path fill-rule="nonzero" fill="rgb(100%, 100%, 100%)" fill-opacity="1" stroke-width="1.066978" stroke-linecap="round" stroke-linejoin="round" stroke="rgb(0%, 0%, 0%)" stroke-opacity="1" stroke-miterlimit="10" d="M 440.351562 178.371094 L 570.519531 178.371094 L 570.519531 32.75 L 440.351562 32.75 Z M 440.351562 178.371094 "/>
</g>
<g clip-path="url(#clip-35)">
<path fill="none" stroke-width="0.533489" stroke-linecap="butt" stroke-linejoin="round" stroke="rgb(94.117647%, 97.254902%, 100%)" stroke-opacity="1" stroke-miterlimit="10" d="M 463.78125 178.371094 L 463.78125 32.75 "/>
</g>
<g clip-path="url(#clip-36)">
<path fill="none" stroke-width="0.533489" stroke-linecap="butt" stroke-linejoin="round" stroke="rgb(94.117647%, 97.254902%, 100%)" stroke-opacity="1" stroke-miterlimit="10" d="M 496.320312 178.371094 L 496.320312 32.75 "/>
</g>
<g clip-path="url(#clip-37)">
<path fill="none" stroke-width="0.533489" stroke-linecap="butt" stroke-linejoin="round" stroke="rgb(94.117647%, 97.254902%, 100%)" stroke-opacity="1" stroke-miterlimit="10" d="M 528.863281 178.371094 L 528.863281 32.75 "/>
</g>
<g clip-path="url(#clip-38)">
<path fill="none" stroke-width="0.533489" stroke-linecap="butt" stroke-linejoin="round" stroke="rgb(94.117647%, 97.254902%, 100%)" stroke-opacity="1" stroke-miterlimit="10" d="M 561.40625 178.371094 L 561.40625 32.75 "/>
</g>
<g clip-path="url(#clip-39)">
<path fill="none" stroke-width="1.066978" stroke-linecap="butt" stroke-linejoin="round" stroke="rgb(100%, 100%, 100%)" stroke-opacity="1" stroke-miterlimit="10" d="M 440.351562 105.558594 L 570.519531 105.558594 "/>
</g>
<g clip-path="url(#clip-40)">
<path fill="none" stroke-width="1.066978" stroke-linecap="butt" stroke-linejoin="round" stroke="rgb(100%, 100%, 100%)" stroke-opacity="1" stroke-miterlimit="10" d="M 447.507812 178.371094 L 447.507812 32.75 "/>
</g>
<g clip-path="url(#clip-41)">
<path fill="none" stroke-width="1.066978" stroke-linecap="butt" stroke-linejoin="round" stroke="rgb(100%, 100%, 100%)" stroke-opacity="1" stroke-miterlimit="10" d="M 480.050781 178.371094 L 480.050781 32.75 "/>
</g>
<g clip-path="url(#clip-42)">
<path fill="none" stroke-width="1.066978" stroke-linecap="butt" stroke-linejoin="round" stroke="rgb(100%, 100%, 100%)" stroke-opacity="1" stroke-miterlimit="10" d="M 512.59375 178.371094 L 512.59375 32.75 "/>
</g>
<g clip-path="url(#clip-43)">
<path fill="none" stroke-width="1.066978" stroke-linecap="butt" stroke-linejoin="round" stroke="rgb(100%, 100%, 100%)" stroke-opacity="1" stroke-miterlimit="10" d="M 545.132812 178.371094 L 545.132812 32.75 "/>
</g>
<path fill="none" stroke-width="1.066978" stroke-linecap="butt" stroke-linejoin="round" stroke="rgb(97.254902%, 46.27451%, 42.745098%)" stroke-opacity="1" stroke-miterlimit="10" d="M 505.4375 105.558594 L 505.4375 105.558594 "/>
<path fill="none" stroke-width="1.066978" stroke-linecap="butt" stroke-linejoin="round" stroke="rgb(97.254902%, 46.27451%, 42.745098%)" stroke-opacity="1" stroke-miterlimit="10" d="M 505.4375 105.558594 L 505.4375 105.558594 "/>
<path fill="none" stroke-width="1.066978" stroke-linecap="butt" stroke-linejoin="round" stroke="rgb(97.254902%, 46.27451%, 42.745098%)" stroke-opacity="1" stroke-miterlimit="10" d="M 505.4375 105.558594 L 505.4375 105.558594 "/>
<path fill-rule="nonzero" fill="rgb(97.254902%, 46.27451%, 42.745098%)" fill-opacity="1" stroke-width="0.708661" stroke-linecap="round" stroke-linejoin="round" stroke="rgb(97.254902%, 46.27451%, 42.745098%)" stroke-opacity="1" stroke-miterlimit="10" d="M 508.992188 105.558594 C 508.992188 110.300781 501.882812 110.300781 501.882812 105.558594 C 501.882812 100.820312 508.992188 100.820312 508.992188 105.558594 "/>
<path fill="none" stroke-width="1.417323" stroke-linecap="round" stroke-linejoin="round" stroke="rgb(97.254902%, 46.27451%, 42.745098%)" stroke-opacity="1" stroke-miterlimit="10" d="M 501.527344 109.46875 L 509.347656 101.652344 "/>
<path fill="none" stroke-width="1.417323" stroke-linecap="round" stroke-linejoin="round" stroke="rgb(97.254902%, 46.27451%, 42.745098%)" stroke-opacity="1" stroke-miterlimit="10" d="M 501.527344 101.652344 L 509.347656 109.46875 "/>
<g clip-path="url(#clip-44)">
<path fill="none" stroke-width="1.066978" stroke-linecap="round" stroke-linejoin="round" stroke="rgb(0.392157%, 27.058824%, 30.980392%)" stroke-opacity="1" stroke-miterlimit="10" d="M 440.351562 178.371094 L 570.519531 178.371094 L 570.519531 32.75 L 440.351562 32.75 Z M 440.351562 178.371094 "/>
</g>
<g clip-path="url(#clip-45)">
<path fill-rule="nonzero" fill="rgb(0.392157%, 27.058824%, 30.980392%)" fill-opacity="1" stroke-width="3.200935" stroke-linecap="round" stroke-linejoin="round" stroke="rgb(0.392157%, 27.058824%, 30.980392%)" stroke-opacity="1" stroke-miterlimit="10" d="M 33.410156 32.75 L 163.578125 32.75 L 163.578125 5.480469 L 33.410156 5.480469 Z M 33.410156 32.75 "/>
</g>
<g fill="rgb(100%, 100%, 100%)" fill-opacity="1">
<use xlink:href="#glyph-0-0" x="78.496094" y="22.02832"/>
<use xlink:href="#glyph-0-1" x="86.496094" y="22.02832"/>
<use xlink:href="#glyph-0-2" x="91.496094" y="22.02832"/>
<use xlink:href="#glyph-0-3" x="93.496094" y="22.02832"/>
<use xlink:href="#glyph-0-4" x="98.496094" y="22.02832"/>
<use xlink:href="#glyph-0-5" x="103.496094" y="22.02832"/>
<use xlink:href="#glyph-0-6" x="105.496094" y="22.02832"/>
<use xlink:href="#glyph-0-7" x="107.496094" y="22.02832"/>
<use xlink:href="#glyph-0-8" x="109.496094" y="22.02832"/>
<use xlink:href="#glyph-0-3" x="113.496094" y="22.02832"/>
</g>
<g clip-path="url(#clip-46)">
<path fill-rule="nonzero" fill="rgb(0.392157%, 27.058824%, 30.980392%)" fill-opacity="1" stroke-width="3.200935" stroke-linecap="round" stroke-linejoin="round" stroke="rgb(0.392157%, 27.058824%, 30.980392%)" stroke-opacity="1" stroke-miterlimit="10" d="M 169.058594 32.75 L 299.226562 32.75 L 299.226562 5.480469 L 169.058594 5.480469 Z M 169.058594 32.75 "/>
</g>
<g fill="rgb(100%, 100%, 100%)" fill-opacity="1">
<use xlink:href="#glyph-0-9" x="185.640625" y="17.27832"/>
<use xlink:href="#glyph-0-7" x="193.640625" y="17.27832"/>
<use xlink:href="#glyph-0-10" x="195.640625" y="17.27832"/>
<use xlink:href="#glyph-0-4" x="199.640625" y="17.27832"/>
<use xlink:href="#glyph-0-11" x="204.640625" y="17.27832"/>
<use xlink:href="#glyph-0-12" x="209.640625" y="17.27832"/>
<use xlink:href="#glyph-0-3" x="214.640625" y="17.27832"/>
<use xlink:href="#glyph-0-1" x="219.640625" y="17.27832"/>
<use xlink:href="#glyph-0-7" x="224.640625" y="17.27832"/>
<use xlink:href="#glyph-0-2" x="226.640625" y="17.27832"/>
<use xlink:href="#glyph-0-12" x="228.640625" y="17.27832"/>
<use xlink:href="#glyph-0-7" x="233.640625" y="17.27832"/>
<use xlink:href="#glyph-0-13" x="235.640625" y="17.27832"/>
<use xlink:href="#glyph-0-1" x="241.640625" y="17.27832"/>
<use xlink:href="#glyph-0-2" x="246.640625" y="17.27832"/>
<use xlink:href="#glyph-0-3" x="248.640625" y="17.27832"/>
<use xlink:href="#glyph-0-4" x="253.640625" y="17.27832"/>
<use xlink:href="#glyph-0-5" x="258.640625" y="17.27832"/>
<use xlink:href="#glyph-0-7" x="260.640625" y="17.27832"/>
<use xlink:href="#glyph-0-14" x="262.640625" y="17.27832"/>
<use xlink:href="#glyph-0-2" x="266.640625" y="17.27832"/>
<use xlink:href="#glyph-0-12" x="268.640625" y="17.27832"/>
<use xlink:href="#glyph-0-10" x="273.640625" y="17.27832"/>
<use xlink:href="#glyph-0-1" x="277.640625" y="17.27832"/>
</g>
<g fill="rgb(100%, 100%, 100%)" fill-opacity="1">
<use xlink:href="#glyph-0-15" x="207.640625" y="26.782227"/>
<use xlink:href="#glyph-0-10" x="214.640625" y="26.782227"/>
<use xlink:href="#glyph-0-5" x="218.640625" y="26.782227"/>
<use xlink:href="#glyph-0-16" x="220.640625" y="26.782227"/>
<use xlink:href="#glyph-0-17" x="225.640625" y="26.782227"/>
<use xlink:href="#glyph-0-1" x="230.640625" y="26.782227"/>
<use xlink:href="#glyph-0-18" x="235.640625" y="26.782227"/>
<use xlink:href="#glyph-0-7" x="238.640625" y="26.782227"/>
<use xlink:href="#glyph-0-19" x="240.640625" y="26.782227"/>
<use xlink:href="#glyph-0-20" x="245.640625" y="26.782227"/>
<use xlink:href="#glyph-0-19" x="250.640625" y="26.782227"/>
<use xlink:href="#glyph-0-21" x="255.640625" y="26.782227"/>
</g>
<g clip-path="url(#clip-47)">
<path fill-rule="nonzero" fill="rgb(0.392157%, 27.058824%, 30.980392%)" fill-opacity="1" stroke-width="3.200935" stroke-linecap="round" stroke-linejoin="round" stroke="rgb(0.392157%, 27.058824%, 30.980392%)" stroke-opacity="1" stroke-miterlimit="10" d="M 304.707031 32.75 L 434.875 32.75 L 434.875 5.480469 L 304.707031 5.480469 Z M 304.707031 32.75 "/>
</g>
<g fill="rgb(100%, 100%, 100%)" fill-opacity="1">
<use xlink:href="#glyph-0-22" x="362.289062" y="22.02832"/>
<use xlink:href="#glyph-0-23" x="368.289062" y="22.02832"/>
<use xlink:href="#glyph-0-24" x="375.289062" y="22.02832"/>
</g>
<g clip-path="url(#clip-48)">
<path fill-rule="nonzero" fill="rgb(0.392157%, 27.058824%, 30.980392%)" fill-opacity="1" stroke-width="3.200935" stroke-linecap="round" stroke-linejoin="round" stroke="rgb(0.392157%, 27.058824%, 30.980392%)" stroke-opacity="1" stroke-miterlimit="10" d="M 440.351562 32.75 L 570.519531 32.75 L 570.519531 5.480469 L 440.351562 5.480469 Z M 440.351562 32.75 "/>
</g>
<g fill="rgb(100%, 100%, 100%)" fill-opacity="1">
<use xlink:href="#glyph-0-9" x="461.9375" y="17.27832"/>
<use xlink:href="#glyph-0-7" x="469.9375" y="17.27832"/>
<use xlink:href="#glyph-0-10" x="471.9375" y="17.27832"/>
<use xlink:href="#glyph-0-4" x="475.9375" y="17.27832"/>
<use xlink:href="#glyph-0-11" x="480.9375" y="17.27832"/>
<use xlink:href="#glyph-0-12" x="485.9375" y="17.27832"/>
<use xlink:href="#glyph-0-3" x="490.9375" y="17.27832"/>
<use xlink:href="#glyph-0-1" x="495.9375" y="17.27832"/>
<use xlink:href="#glyph-0-7" x="500.9375" y="17.27832"/>
<use xlink:href="#glyph-0-2" x="502.9375" y="17.27832"/>
<use xlink:href="#glyph-0-12" x="504.9375" y="17.27832"/>
<use xlink:href="#glyph-0-7" x="509.9375" y="17.27832"/>
<use xlink:href="#glyph-0-22" x="511.9375" y="17.27832"/>
<use xlink:href="#glyph-0-23" x="517.9375" y="17.27832"/>
<use xlink:href="#glyph-0-24" x="524.9375" y="17.27832"/>
<use xlink:href="#glyph-0-7" x="526.9375" y="17.27832"/>
<use xlink:href="#glyph-0-14" x="528.9375" y="17.27832"/>
<use xlink:href="#glyph-0-2" x="532.9375" y="17.27832"/>
<use xlink:href="#glyph-0-12" x="534.9375" y="17.27832"/>
<use xlink:href="#glyph-0-10" x="539.9375" y="17.27832"/>
<use xlink:href="#glyph-0-1" x="543.9375" y="17.27832"/>
</g>
<g fill="rgb(100%, 100%, 100%)" fill-opacity="1">
<use xlink:href="#glyph-0-15" x="478.9375" y="26.782227"/>
<use xlink:href="#glyph-0-10" x="485.9375" y="26.782227"/>
<use xlink:href="#glyph-0-5" x="489.9375" y="26.782227"/>
<use xlink:href="#glyph-0-16" x="491.9375" y="26.782227"/>
<use xlink:href="#glyph-0-17" x="496.9375" y="26.782227"/>
<use xlink:href="#glyph-0-1" x="501.9375" y="26.782227"/>
<use xlink:href="#glyph-0-18" x="506.9375" y="26.782227"/>
<use xlink:href="#glyph-0-7" x="509.9375" y="26.782227"/>
<use xlink:href="#glyph-0-19" x="511.9375" y="26.782227"/>
<use xlink:href="#glyph-0-20" x="516.9375" y="26.782227"/>
<use xlink:href="#glyph-0-19" x="521.9375" y="26.782227"/>
<use xlink:href="#glyph-0-21" x="526.9375" y="26.782227"/>
</g>
<path fill="none" stroke-width="1.066978" stroke-linecap="butt" stroke-linejoin="round" stroke="rgb(0.392157%, 27.058824%, 30.980392%)" stroke-opacity="1" stroke-miterlimit="10" d="M 33.410156 181.109375 L 33.410156 178.371094 "/>
<path fill="none" stroke-width="1.066978" stroke-linecap="butt" stroke-linejoin="round" stroke="rgb(0.392157%, 27.058824%, 30.980392%)" stroke-opacity="1" stroke-miterlimit="10" d="M 65.953125 181.109375 L 65.953125 178.371094 "/>
<path fill="none" stroke-width="1.066978" stroke-linecap="butt" stroke-linejoin="round" stroke="rgb(0.392157%, 27.058824%, 30.980392%)" stroke-opacity="1" stroke-miterlimit="10" d="M 98.496094 181.109375 L 98.496094 178.371094 "/>
<path fill="none" stroke-width="1.066978" stroke-linecap="butt" stroke-linejoin="round" stroke="rgb(0.392157%, 27.058824%, 30.980392%)" stroke-opacity="1" stroke-miterlimit="10" d="M 131.035156 181.109375 L 131.035156 178.371094 "/>
<path fill="none" stroke-width="1.066978" stroke-linecap="butt" stroke-linejoin="round" stroke="rgb(0.392157%, 27.058824%, 30.980392%)" stroke-opacity="1" stroke-miterlimit="10" d="M 163.578125 181.109375 L 163.578125 178.371094 "/>
<g fill="rgb(0.392157%, 27.058824%, 30.980392%)" fill-opacity="1">
<use xlink:href="#glyph-1-0" x="16.910156" y="191.319336"/>
<use xlink:href="#glyph-1-1" x="22.910156" y="191.319336"/>
<use xlink:href="#glyph-1-2" x="28.910156" y="191.319336"/>
<use xlink:href="#glyph-1-3" x="31.910156" y="191.319336"/>
<use xlink:href="#glyph-1-4" x="37.910156" y="191.319336"/>
<use xlink:href="#glyph-1-3" x="43.910156" y="191.319336"/>
</g>
<g fill="rgb(0.392157%, 27.058824%, 30.980392%)" fill-opacity="1">
<use xlink:href="#glyph-1-0" x="49.453125" y="191.319336"/>
<use xlink:href="#glyph-1-1" x="55.453125" y="191.319336"/>
<use xlink:href="#glyph-1-2" x="61.453125" y="191.319336"/>
<use xlink:href="#glyph-1-3" x="64.453125" y="191.319336"/>
<use xlink:href="#glyph-1-0" x="70.453125" y="191.319336"/>
<use xlink:href="#glyph-1-4" x="76.453125" y="191.319336"/>
</g>
<g fill="rgb(0.392157%, 27.058824%, 30.980392%)" fill-opacity="1">
<use xlink:href="#glyph-1-0" x="81.996094" y="191.319336"/>
<use xlink:href="#glyph-1-1" x="87.996094" y="191.319336"/>
<use xlink:href="#glyph-1-2" x="93.996094" y="191.319336"/>
<use xlink:href="#glyph-1-5" x="96.996094" y="191.319336"/>
<use xlink:href="#glyph-1-3" x="102.996094" y="191.319336"/>
<use xlink:href="#glyph-1-3" x="108.996094" y="191.319336"/>
</g>
<g fill="rgb(0.392157%, 27.058824%, 30.980392%)" fill-opacity="1">
<use xlink:href="#glyph-1-0" x="114.535156" y="191.319336"/>
<use xlink:href="#glyph-1-1" x="120.535156" y="191.319336"/>
<use xlink:href="#glyph-1-2" x="126.535156" y="191.319336"/>
<use xlink:href="#glyph-1-5" x="129.535156" y="191.319336"/>
<use xlink:href="#glyph-1-6" x="135.535156" y="191.319336"/>
<use xlink:href="#glyph-1-4" x="141.535156" y="191.319336"/>
</g>
<g fill="rgb(0.392157%, 27.058824%, 30.980392%)" fill-opacity="1">
<use xlink:href="#glyph-1-0" x="147.078125" y="191.319336"/>
<use xlink:href="#glyph-1-1" x="153.078125" y="191.319336"/>
<use xlink:href="#glyph-1-2" x="159.078125" y="191.319336"/>
<use xlink:href="#glyph-1-5" x="162.078125" y="191.319336"/>
<use xlink:href="#glyph-1-4" x="168.078125" y="191.319336"/>
<use xlink:href="#glyph-1-3" x="174.078125" y="191.319336"/>
</g>
<path fill="none" stroke-width="1.066978" stroke-linecap="butt" stroke-linejoin="round" stroke="rgb(0.392157%, 27.058824%, 30.980392%)" stroke-opacity="1" stroke-miterlimit="10" d="M 176.214844 181.109375 L 176.214844 178.371094 "/>
<path fill="none" stroke-width="1.066978" stroke-linecap="butt" stroke-linejoin="round" stroke="rgb(0.392157%, 27.058824%, 30.980392%)" stroke-opacity="1" stroke-miterlimit="10" d="M 208.757812 181.109375 L 208.757812 178.371094 "/>
<path fill="none" stroke-width="1.066978" stroke-linecap="butt" stroke-linejoin="round" stroke="rgb(0.392157%, 27.058824%, 30.980392%)" stroke-opacity="1" stroke-miterlimit="10" d="M 241.296875 181.109375 L 241.296875 178.371094 "/>
<path fill="none" stroke-width="1.066978" stroke-linecap="butt" stroke-linejoin="round" stroke="rgb(0.392157%, 27.058824%, 30.980392%)" stroke-opacity="1" stroke-miterlimit="10" d="M 273.839844 181.109375 L 273.839844 178.371094 "/>
<g fill="rgb(0.392157%, 27.058824%, 30.980392%)" fill-opacity="1">
<use xlink:href="#glyph-1-7" x="157.714844" y="191.319336"/>
<use xlink:href="#glyph-1-6" x="161.714844" y="191.319336"/>
<use xlink:href="#glyph-1-1" x="167.714844" y="191.319336"/>
<use xlink:href="#glyph-1-2" x="173.714844" y="191.319336"/>
<use xlink:href="#glyph-1-4" x="176.714844" y="191.319336"/>
<use xlink:href="#glyph-1-3" x="182.714844" y="191.319336"/>
<use xlink:href="#glyph-1-3" x="188.714844" y="191.319336"/>
</g>
<g fill="rgb(0.392157%, 27.058824%, 30.980392%)" fill-opacity="1">
<use xlink:href="#glyph-1-7" x="190.257812" y="191.319336"/>
<use xlink:href="#glyph-1-6" x="194.257812" y="191.319336"/>
<use xlink:href="#glyph-1-1" x="200.257812" y="191.319336"/>
<use xlink:href="#glyph-1-2" x="206.257812" y="191.319336"/>
<use xlink:href="#glyph-1-8" x="209.257812" y="191.319336"/>
<use xlink:href="#glyph-1-0" x="215.257812" y="191.319336"/>
<use xlink:href="#glyph-1-4" x="221.257812" y="191.319336"/>
</g>
<g fill="rgb(0.392157%, 27.058824%, 30.980392%)" fill-opacity="1">
<use xlink:href="#glyph-1-7" x="222.796875" y="191.319336"/>
<use xlink:href="#glyph-1-6" x="226.796875" y="191.319336"/>
<use xlink:href="#glyph-1-1" x="232.796875" y="191.319336"/>
<use xlink:href="#glyph-1-2" x="238.796875" y="191.319336"/>
<use xlink:href="#glyph-1-8" x="241.796875" y="191.319336"/>
<use xlink:href="#glyph-1-4" x="247.796875" y="191.319336"/>
<use xlink:href="#glyph-1-3" x="253.796875" y="191.319336"/>
</g>
<g fill="rgb(0.392157%, 27.058824%, 30.980392%)" fill-opacity="1">
<use xlink:href="#glyph-1-7" x="255.339844" y="191.319336"/>
<use xlink:href="#glyph-1-6" x="259.339844" y="191.319336"/>
<use xlink:href="#glyph-1-1" x="265.339844" y="191.319336"/>
<use xlink:href="#glyph-1-2" x="271.339844" y="191.319336"/>
<use xlink:href="#glyph-1-8" x="274.339844" y="191.319336"/>
<use xlink:href="#glyph-1-6" x="280.339844" y="191.319336"/>
<use xlink:href="#glyph-1-4" x="286.339844" y="191.319336"/>
</g>
<path fill="none" stroke-width="1.066978" stroke-linecap="butt" stroke-linejoin="round" stroke="rgb(0.392157%, 27.058824%, 30.980392%)" stroke-opacity="1" stroke-miterlimit="10" d="M 325.980469 181.109375 L 325.980469 178.371094 "/>
<path fill="none" stroke-width="1.066978" stroke-linecap="butt" stroke-linejoin="round" stroke="rgb(0.392157%, 27.058824%, 30.980392%)" stroke-opacity="1" stroke-miterlimit="10" d="M 358.523438 181.109375 L 358.523438 178.371094 "/>
<path fill="none" stroke-width="1.066978" stroke-linecap="butt" stroke-linejoin="round" stroke="rgb(0.392157%, 27.058824%, 30.980392%)" stroke-opacity="1" stroke-miterlimit="10" d="M 391.0625 181.109375 L 391.0625 178.371094 "/>
<path fill="none" stroke-width="1.066978" stroke-linecap="butt" stroke-linejoin="round" stroke="rgb(0.392157%, 27.058824%, 30.980392%)" stroke-opacity="1" stroke-miterlimit="10" d="M 423.605469 181.109375 L 423.605469 178.371094 "/>
<g fill="rgb(0.392157%, 27.058824%, 30.980392%)" fill-opacity="1">
<use xlink:href="#glyph-1-6" x="309.480469" y="191.319336"/>
<use xlink:href="#glyph-1-5" x="315.480469" y="191.319336"/>
<use xlink:href="#glyph-1-2" x="321.480469" y="191.319336"/>
<use xlink:href="#glyph-1-1" x="324.480469" y="191.319336"/>
<use xlink:href="#glyph-1-6" x="330.480469" y="191.319336"/>
<use xlink:href="#glyph-1-4" x="336.480469" y="191.319336"/>
</g>
<g fill="rgb(0.392157%, 27.058824%, 30.980392%)" fill-opacity="1">
<use xlink:href="#glyph-1-6" x="342.023438" y="191.319336"/>
<use xlink:href="#glyph-1-5" x="348.023438" y="191.319336"/>
<use xlink:href="#glyph-1-2" x="354.023438" y="191.319336"/>
<use xlink:href="#glyph-1-1" x="357.023438" y="191.319336"/>
<use xlink:href="#glyph-1-4" x="363.023438" y="191.319336"/>
<use xlink:href="#glyph-1-3" x="369.023438" y="191.319336"/>
</g>
<g fill="rgb(0.392157%, 27.058824%, 30.980392%)" fill-opacity="1">
<use xlink:href="#glyph-1-6" x="374.5625" y="191.319336"/>
<use xlink:href="#glyph-1-5" x="380.5625" y="191.319336"/>
<use xlink:href="#glyph-1-2" x="386.5625" y="191.319336"/>
<use xlink:href="#glyph-1-1" x="389.5625" y="191.319336"/>
<use xlink:href="#glyph-1-0" x="395.5625" y="191.319336"/>
<use xlink:href="#glyph-1-4" x="401.5625" y="191.319336"/>
</g>
<g fill="rgb(0.392157%, 27.058824%, 30.980392%)" fill-opacity="1">
<use xlink:href="#glyph-1-6" x="407.105469" y="191.319336"/>
<use xlink:href="#glyph-1-5" x="413.105469" y="191.319336"/>
<use xlink:href="#glyph-1-2" x="419.105469" y="191.319336"/>
<use xlink:href="#glyph-1-8" x="422.105469" y="191.319336"/>
<use xlink:href="#glyph-1-3" x="428.105469" y="191.319336"/>
<use xlink:href="#glyph-1-3" x="434.105469" y="191.319336"/>
</g>
<path fill="none" stroke-width="1.066978" stroke-linecap="butt" stroke-linejoin="round" stroke="rgb(0.392157%, 27.058824%, 30.980392%)" stroke-opacity="1" stroke-miterlimit="10" d="M 447.507812 181.109375 L 447.507812 178.371094 "/>
<path fill="none" stroke-width="1.066978" stroke-linecap="butt" stroke-linejoin="round" stroke="rgb(0.392157%, 27.058824%, 30.980392%)" stroke-opacity="1" stroke-miterlimit="10" d="M 480.050781 181.109375 L 480.050781 178.371094 "/>
<path fill="none" stroke-width="1.066978" stroke-linecap="butt" stroke-linejoin="round" stroke="rgb(0.392157%, 27.058824%, 30.980392%)" stroke-opacity="1" stroke-miterlimit="10" d="M 512.59375 181.109375 L 512.59375 178.371094 "/>
<path fill="none" stroke-width="1.066978" stroke-linecap="butt" stroke-linejoin="round" stroke="rgb(0.392157%, 27.058824%, 30.980392%)" stroke-opacity="1" stroke-miterlimit="10" d="M 545.132812 181.109375 L 545.132812 178.371094 "/>
<g fill="rgb(0.392157%, 27.058824%, 30.980392%)" fill-opacity="1">
<use xlink:href="#glyph-1-7" x="429.007812" y="191.319336"/>
<use xlink:href="#glyph-1-6" x="433.007812" y="191.319336"/>
<use xlink:href="#glyph-1-1" x="439.007812" y="191.319336"/>
<use xlink:href="#glyph-1-2" x="445.007812" y="191.319336"/>
<use xlink:href="#glyph-1-4" x="448.007812" y="191.319336"/>
<use xlink:href="#glyph-1-3" x="454.007812" y="191.319336"/>
<use xlink:href="#glyph-1-3" x="460.007812" y="191.319336"/>
</g>
<g fill="rgb(0.392157%, 27.058824%, 30.980392%)" fill-opacity="1">
<use xlink:href="#glyph-1-7" x="461.550781" y="191.319336"/>
<use xlink:href="#glyph-1-6" x="465.550781" y="191.319336"/>
<use xlink:href="#glyph-1-1" x="471.550781" y="191.319336"/>
<use xlink:href="#glyph-1-2" x="477.550781" y="191.319336"/>
<use xlink:href="#glyph-1-8" x="480.550781" y="191.319336"/>
<use xlink:href="#glyph-1-0" x="486.550781" y="191.319336"/>
<use xlink:href="#glyph-1-4" x="492.550781" y="191.319336"/>
</g>
<g fill="rgb(0.392157%, 27.058824%, 30.980392%)" fill-opacity="1">
<use xlink:href="#glyph-1-7" x="494.09375" y="191.319336"/>
<use xlink:href="#glyph-1-6" x="498.09375" y="191.319336"/>
<use xlink:href="#glyph-1-1" x="504.09375" y="191.319336"/>
<use xlink:href="#glyph-1-2" x="510.09375" y="191.319336"/>
<use xlink:href="#glyph-1-8" x="513.09375" y="191.319336"/>
<use xlink:href="#glyph-1-4" x="519.09375" y="191.319336"/>
<use xlink:href="#glyph-1-3" x="525.09375" y="191.319336"/>
</g>
<g fill="rgb(0.392157%, 27.058824%, 30.980392%)" fill-opacity="1">
<use xlink:href="#glyph-1-7" x="526.632812" y="191.319336"/>
<use xlink:href="#glyph-1-6" x="530.632812" y="191.319336"/>
<use xlink:href="#glyph-1-1" x="536.632812" y="191.319336"/>
<use xlink:href="#glyph-1-2" x="542.632812" y="191.319336"/>
<use xlink:href="#glyph-1-8" x="545.632812" y="191.319336"/>
<use xlink:href="#glyph-1-6" x="551.632812" y="191.319336"/>
<use xlink:href="#glyph-1-4" x="557.632812" y="191.319336"/>
</g>
<g fill="rgb(0.392157%, 27.058824%, 30.980392%)" fill-opacity="1">
<use xlink:href="#glyph-1-9" x="5.480469" y="109.077148"/>
<use xlink:href="#glyph-1-10" x="14.480469" y="109.077148"/>
<use xlink:href="#glyph-1-11" x="20.480469" y="109.077148"/>
<use xlink:href="#glyph-1-12" x="22.480469" y="109.077148"/>
</g>
<path fill="none" stroke-width="1.066978" stroke-linecap="butt" stroke-linejoin="round" stroke="rgb(0.392157%, 27.058824%, 30.980392%)" stroke-opacity="1" stroke-miterlimit="10" d="M 30.671875 105.558594 L 33.410156 105.558594 "/>
<g fill="rgb(0.392157%, 27.058824%, 30.980392%)" fill-opacity="1">
<use xlink:href="#glyph-1-13" x="288.464844" y="206.061523"/>
<use xlink:href="#glyph-1-10" x="295.464844" y="206.061523"/>
<use xlink:href="#glyph-1-11" x="301.464844" y="206.061523"/>
<use xlink:href="#glyph-1-14" x="303.464844" y="206.061523"/>
<use xlink:href="#glyph-1-12" x="309.464844" y="206.061523"/>
</g>
<g fill="rgb(0%, 0%, 0%)" fill-opacity="1">
<use xlink:href="#glyph-0-15" x="453.519531" y="221.93457"/>
<use xlink:href="#glyph-0-7" x="460.519531" y="221.93457"/>
<use xlink:href="#glyph-0-25" x="462.519531" y="221.93457"/>
<use xlink:href="#glyph-0-7" x="467.519531" y="221.93457"/>
<use xlink:href="#glyph-0-26" x="469.519531" y="221.93457"/>
<use xlink:href="#glyph-0-1" x="476.519531" y="221.93457"/>
<use xlink:href="#glyph-0-27" x="481.519531" y="221.93457"/>
<use xlink:href="#glyph-0-2" x="486.519531" y="221.93457"/>
<use xlink:href="#glyph-0-11" x="488.519531" y="221.93457"/>
<use xlink:href="#glyph-0-12" x="493.519531" y="221.93457"/>
<use xlink:href="#glyph-0-28" x="498.519531" y="221.93457"/>
<use xlink:href="#glyph-0-7" x="500.519531" y="221.93457"/>
<use xlink:href="#glyph-0-29" x="502.519531" y="221.93457"/>
<use xlink:href="#glyph-0-7" x="508.519531" y="221.93457"/>
<use xlink:href="#glyph-0-25" x="510.519531" y="221.93457"/>
<use xlink:href="#glyph-0-7" x="515.519531" y="221.93457"/>
<use xlink:href="#glyph-0-26" x="517.519531" y="221.93457"/>
<use xlink:href="#glyph-0-1" x="524.519531" y="221.93457"/>
<use xlink:href="#glyph-0-11" x="529.519531" y="221.93457"/>
<use xlink:href="#glyph-0-12" x="534.519531" y="221.93457"/>
<use xlink:href="#glyph-0-28" x="539.519531" y="221.93457"/>
<use xlink:href="#glyph-0-7" x="541.519531" y="221.93457"/>
<use xlink:href="#glyph-0-30" x="543.519531" y="221.93457"/>
<use xlink:href="#glyph-0-7" x="546.519531" y="221.93457"/>
<use xlink:href="#glyph-0-25" x="548.519531" y="221.93457"/>
<use xlink:href="#glyph-0-7" x="553.519531" y="221.93457"/>
<use xlink:href="#glyph-0-24" x="555.519531" y="221.93457"/>
<use xlink:href="#glyph-0-31" x="557.519531" y="221.93457"/>
<use xlink:href="#glyph-0-32" x="564.519531" y="221.93457"/>
</g>
</svg>
