<?xml version="1.0" encoding="UTF-8"?>
<svg xmlns="http://www.w3.org/2000/svg" xmlns:xlink="http://www.w3.org/1999/xlink" width="576" height="230" viewBox="0 0 576 230">
<defs>
<g>
<g id="glyph-0-0">
<path d="M 6.546875 0 L 8.171875 -6.40625 L 7.25 -6.40625 L 6.078125 -1.203125 L 4.625 -6.40625 L 3.734375 -6.40625 L 2.3125 -1.203125 L 1.109375 -6.40625 L 0.1875 -6.40625 L 1.84375 0 L 2.734375 0 L 4.171875 -5.265625 L 5.640625 0 Z M 6.546875 0 "/>
</g>
<g id="glyph-0-1">
<path d="M 4.515625 -2.0625 C 4.515625 -2.765625 4.453125 -3.1875 4.328125 -3.53125 C 4.03125 -4.28125 3.328125 -4.734375 2.46875 -4.734375 C 1.171875 -4.734375 0.359375 -3.765625 0.359375 -2.25 C 0.359375 -0.71875 1.140625 0.203125 2.453125 0.203125 C 3.5 0.203125 4.234375 -0.390625 4.421875 -1.40625 L 3.671875 -1.40625 C 3.46875 -0.796875 3.0625 -0.46875 2.46875 -0.46875 C 2 -0.46875 1.609375 -0.6875 1.359375 -1.078125 C 1.1875 -1.34375 1.125 -1.59375 1.125 -2.0625 Z M 1.140625 -2.65625 C 1.203125 -3.515625 1.71875 -4.0625 2.453125 -4.0625 C 3.203125 -4.0625 3.71875 -3.484375 3.71875 -2.65625 Z M 1.140625 -2.65625 "/>
</g>
<g id="glyph-0-2">
<path d="M 1.3125 -4.609375 L 0.59375 -4.609375 L 0.59375 0 L 1.3125 0 Z M 1.3125 -6.40625 L 0.578125 -6.40625 L 0.578125 -5.484375 L 1.3125 -5.484375 Z M 1.3125 -6.40625 "/>
</g>
<g id="glyph-0-3">
<path d="M 3.546875 -4.609375 L 3.546875 -3.9375 C 3.1875 -4.5 2.78125 -4.734375 2.203125 -4.734375 C 1.078125 -4.734375 0.3125 -3.703125 0.3125 -2.21875 C 0.3125 -1.453125 0.5 -0.890625 0.890625 -0.421875 C 1.234375 -0.015625 1.671875 0.203125 2.140625 0.203125 C 2.703125 0.203125 3.09375 -0.046875 3.484375 -0.625 L 3.484375 -0.390625 C 3.484375 0.84375 3.140625 1.296875 2.21875 1.296875 C 1.59375 1.296875 1.28125 1.0625 1.203125 0.53125 L 0.453125 0.53125 C 0.53125 1.375 1.203125 1.921875 2.203125 1.921875 C 2.890625 1.921875 3.453125 1.703125 3.75 1.328125 C 4.09375 0.890625 4.234375 0.328125 4.234375 -0.75 L 4.234375 -4.609375 Z M 2.265625 -4.0625 C 3.046875 -4.0625 3.484375 -3.40625 3.484375 -2.25 C 3.484375 -1.125 3.03125 -0.46875 2.265625 -0.46875 C 1.515625 -0.46875 1.078125 -1.140625 1.078125 -2.265625 C 1.078125 -3.390625 1.515625 -4.0625 2.265625 -4.0625 Z M 2.265625 -4.0625 "/>
</g>
<g id="glyph-0-4">
<path d="M 0.609375 -6.40625 L 0.609375 0 L 1.34375 0 L 1.34375 -2.546875 C 1.34375 -3.484375 1.84375 -4.09375 2.59375 -4.09375 C 2.84375 -4.09375 3.0625 -4.03125 3.25 -3.890625 C 3.453125 -3.734375 3.546875 -3.515625 3.546875 -3.1875 L 3.546875 0 L 4.28125 0 L 4.28125 -3.484375 C 4.28125 -4.25 3.71875 -4.734375 2.828125 -4.734375 C 2.171875 -4.734375 1.78125 -4.546875 1.34375 -3.96875 L 1.34375 -6.40625 Z M 0.609375 -6.40625 "/>
</g>
<g id="glyph-0-5">
<path d="M 2.234375 -4.609375 L 1.484375 -4.609375 L 1.484375 -5.875 L 0.75 -5.875 L 0.75 -4.609375 L 0.125 -4.609375 L 0.125 -4.015625 L 0.75 -4.015625 L 0.75 -0.53125 C 0.75 -0.046875 1.0625 0.203125 1.640625 0.203125 C 1.828125 0.203125 1.984375 0.1875 2.234375 0.140625 L 2.234375 -0.46875 C 2.125 -0.453125 2.03125 -0.4375 1.875 -0.4375 C 1.5625 -0.4375 1.484375 -0.53125 1.484375 -0.859375 L 1.484375 -4.015625 L 2.234375 -4.015625 Z M 2.234375 -4.609375 "/>
</g>
<g id="glyph-0-6">
<path d="M 0.765625 -0.921875 L 0.765625 0 L 1.296875 0 L 1.296875 0.15625 C 1.296875 0.765625 1.171875 0.9375 0.765625 0.953125 L 0.765625 1.296875 C 1.34375 1.3125 1.6875 0.890625 1.6875 0.140625 L 1.6875 -0.921875 Z M 0.765625 -0.921875 "/>
</g>
<g id="glyph-0-7">
</g>
<g id="glyph-0-8">
<path d="M 1.234375 -6.40625 L 0.515625 -6.40625 L 0.515625 0 L 1.234375 0 L 1.234375 -1.796875 L 1.953125 -2.5 L 3.515625 0 L 4.421875 0 L 2.53125 -3.015625 L 4.140625 -4.609375 L 3.1875 -4.609375 L 1.234375 -2.65625 Z M 1.234375 -6.40625 "/>
</g>
<g id="glyph-0-9">
<path d="M 1.75 -6.03125 C 0.921875 -6.03125 0.25 -5.34375 0.25 -4.515625 C 0.25 -3.6875 0.921875 -3.015625 1.765625 -3.015625 C 2.578125 -3.015625 3.25 -3.6875 3.25 -4.5 C 3.25 -5.359375 2.59375 -6.03125 1.75 -6.03125 Z M 1.75 -5.40625 C 2.25 -5.40625 2.640625 -5.015625 2.640625 -4.515625 C 2.640625 -4.03125 2.25 -3.640625 1.765625 -3.640625 C 1.265625 -3.640625 0.859375 -4.03125 0.859375 -4.515625 C 0.859375 -5.015625 1.265625 -5.40625 1.75 -5.40625 Z M 5.359375 -6.234375 L 1.875 0.171875 L 2.46875 0.171875 L 5.9375 -6.234375 Z M 6.046875 -2.828125 C 5.21875 -2.828125 4.5625 -2.15625 4.5625 -1.34375 C 4.5625 -0.5 5.21875 0.171875 6.0625 0.171875 C 6.875 0.171875 7.5625 -0.5 7.5625 -1.3125 C 7.5625 -2.15625 6.890625 -2.828125 6.046875 -2.828125 Z M 6.046875 -2.21875 C 6.546875 -2.21875 6.953125 -1.828125 6.953125 -1.3125 C 6.953125 -0.84375 6.546875 -0.453125 6.0625 -0.453125 C 5.5625 -0.453125 5.15625 -0.84375 5.15625 -1.34375 C 5.15625 -1.828125 5.5625 -2.21875 6.046875 -2.21875 Z M 6.046875 -2.21875 "/>
</g>
<g id="glyph-0-10">
<path d="M 4.140625 -3.0625 C 4.109375 -3.515625 4.015625 -3.796875 3.828125 -4.0625 C 3.515625 -4.484375 2.96875 -4.734375 2.328125 -4.734375 C 1.078125 -4.734375 0.265625 -3.75 0.265625 -2.21875 C 0.265625 -0.734375 1.0625 0.203125 2.3125 0.203125 C 3.40625 0.203125 4.109375 -0.453125 4.203125 -1.578125 L 3.453125 -1.578125 C 3.328125 -0.84375 2.953125 -0.46875 2.328125 -0.46875 C 1.515625 -0.46875 1.03125 -1.140625 1.03125 -2.21875 C 1.03125 -3.375 1.515625 -4.0625 2.3125 -4.0625 C 2.921875 -4.0625 3.3125 -3.703125 3.40625 -3.0625 Z M 4.140625 -3.0625 "/>
</g>
<g id="glyph-0-11">
<path d="M 4.703125 -0.4375 C 4.625 -0.40625 4.59375 -0.40625 4.546875 -0.40625 C 4.296875 -0.40625 4.15625 -0.546875 4.15625 -0.78125 L 4.15625 -3.484375 C 4.15625 -4.296875 3.546875 -4.734375 2.421875 -4.734375 C 1.734375 -4.734375 1.203125 -4.546875 0.890625 -4.203125 C 0.671875 -3.96875 0.59375 -3.703125 0.578125 -3.25 L 1.3125 -3.25 C 1.375 -3.8125 1.703125 -4.0625 2.390625 -4.0625 C 3.0625 -4.0625 3.421875 -3.8125 3.421875 -3.375 L 3.421875 -3.1875 C 3.40625 -2.875 3.25 -2.75 2.65625 -2.671875 C 1.625 -2.546875 1.453125 -2.5 1.171875 -2.390625 C 0.640625 -2.15625 0.375 -1.765625 0.375 -1.15625 C 0.375 -0.328125 0.953125 0.203125 1.875 0.203125 C 2.46875 0.203125 2.921875 0 3.453125 -0.46875 C 3.5 0 3.734375 0.203125 4.203125 0.203125 C 4.359375 0.203125 4.453125 0.1875 4.703125 0.125 Z M 3.421875 -1.453125 C 3.421875 -1.203125 3.359375 -1.0625 3.125 -0.859375 C 2.828125 -0.578125 2.46875 -0.4375 2.046875 -0.4375 C 1.46875 -0.4375 1.140625 -0.71875 1.140625 -1.171875 C 1.140625 -1.65625 1.453125 -1.90625 2.25 -2.015625 C 3.03125 -2.125 3.171875 -2.15625 3.421875 -2.28125 Z M 3.421875 -1.453125 "/>
</g>
<g id="glyph-0-12">
<path d="M 0.609375 -4.609375 L 0.609375 0 L 1.359375 0 L 1.359375 -2.546875 C 1.359375 -3.484375 1.84375 -4.09375 2.609375 -4.09375 C 3.1875 -4.09375 3.546875 -3.75 3.546875 -3.1875 L 3.546875 0 L 4.28125 0 L 4.28125 -3.484375 C 4.28125 -4.25 3.71875 -4.734375 2.828125 -4.734375 C 2.140625 -4.734375 1.703125 -4.484375 1.296875 -3.828125 L 1.296875 -4.609375 Z M 0.609375 -4.609375 "/>
</g>
<g id="glyph-0-13">
<path d="M 4.875 0 L 6.234375 -4.609375 L 5.40625 -4.609375 L 4.484375 -1.015625 L 3.578125 -4.609375 L 2.6875 -4.609375 L 1.796875 -1.015625 L 0.859375 -4.609375 L 0.046875 -4.609375 L 1.390625 0 L 2.21875 0 L 3.109375 -3.609375 L 4.03125 0 Z M 4.875 0 "/>
</g>
<g id="glyph-0-14">
<path d="M 3.859375 -3.328125 C 3.84375 -4.234375 3.25 -4.734375 2.1875 -4.734375 C 1.109375 -4.734375 0.40625 -4.1875 0.40625 -3.328125 C 0.40625 -2.609375 0.78125 -2.265625 1.875 -2 L 2.5625 -1.84375 C 3.0625 -1.71875 3.265625 -1.53125 3.265625 -1.203125 C 3.265625 -0.765625 2.84375 -0.46875 2.203125 -0.46875 C 1.796875 -0.46875 1.46875 -0.59375 1.28125 -0.78125 C 1.171875 -0.921875 1.125 -1.046875 1.078125 -1.375 L 0.296875 -1.375 C 0.328125 -0.3125 0.9375 0.203125 2.140625 0.203125 C 3.296875 0.203125 4.03125 -0.375 4.03125 -1.265625 C 4.03125 -1.9375 3.65625 -2.328125 2.734375 -2.546875 L 2.03125 -2.703125 C 1.4375 -2.84375 1.171875 -3.046875 1.171875 -3.375 C 1.171875 -3.796875 1.5625 -4.0625 2.15625 -4.0625 C 2.75 -4.0625 3.0625 -3.8125 3.078125 -3.328125 Z M 3.859375 -3.328125 "/>
</g>
<g id="glyph-0-15">
<path d="M 3.421875 -6.515625 C 1.578125 -6.515625 0.328125 -5.15625 0.328125 -3.15625 C 0.328125 -1.140625 1.578125 0.203125 3.4375 0.203125 C 4.21875 0.203125 4.90625 -0.03125 5.421875 -0.46875 C 6.109375 -1.0625 6.53125 -2.0625 6.53125 -3.109375 C 6.53125 -5.171875 5.296875 -6.515625 3.421875 -6.515625 Z M 3.421875 -5.796875 C 4.8125 -5.796875 5.703125 -4.75 5.703125 -3.125 C 5.703125 -1.578125 4.78125 -0.515625 3.4375 -0.515625 C 2.0625 -0.515625 1.15625 -1.578125 1.15625 -3.15625 C 1.15625 -4.734375 2.0625 -5.796875 3.421875 -5.796875 Z M 3.421875 -5.796875 "/>
</g>
<g id="glyph-0-16">
<path d="M 2.390625 -4.734375 C 1.09375 -4.734375 0.3125 -3.8125 0.3125 -2.265625 C 0.3125 -0.71875 1.09375 0.203125 2.40625 0.203125 C 3.703125 0.203125 4.484375 -0.71875 4.484375 -2.234375 C 4.484375 -3.828125 3.734375 -4.734375 2.390625 -4.734375 Z M 2.40625 -4.0625 C 3.234375 -4.0625 3.71875 -3.390625 3.71875 -2.25 C 3.71875 -1.15625 3.203125 -0.46875 2.40625 -0.46875 C 1.578125 -0.46875 1.078125 -1.15625 1.078125 -2.265625 C 1.078125 -3.390625 1.578125 -4.0625 2.40625 -4.0625 Z M 2.40625 -4.0625 "/>
</g>
<g id="glyph-0-17">
<path d="M 0.46875 -6.40625 L 0.46875 0 L 1.140625 0 L 1.140625 -0.59375 C 1.484375 -0.046875 1.953125 0.203125 2.59375 0.203125 C 3.8125 0.203125 4.59375 -0.796875 4.59375 -2.328125 C 4.59375 -3.8125 3.859375 -4.734375 2.625 -4.734375 C 2 -4.734375 1.546875 -4.5 1.203125 -3.984375 L 1.203125 -6.40625 Z M 2.484375 -4.0625 C 3.3125 -4.0625 3.828125 -3.34375 3.828125 -2.25 C 3.828125 -1.203125 3.296875 -0.484375 2.484375 -0.484375 C 1.703125 -0.484375 1.203125 -1.1875 1.203125 -2.265625 C 1.203125 -3.359375 1.703125 -4.0625 2.484375 -4.0625 Z M 2.484375 -4.0625 "/>
</g>
<g id="glyph-0-18">
<path d="M 0.609375 -4.609375 L 0.609375 0 L 1.34375 0 L 1.34375 -2.390625 C 1.359375 -3.5 1.8125 -4 2.828125 -3.96875 L 2.828125 -4.71875 C 2.703125 -4.734375 2.625 -4.734375 2.546875 -4.734375 C 2.0625 -4.734375 1.703125 -4.453125 1.28125 -3.78125 L 1.28125 -4.609375 Z M 0.609375 -4.609375 "/>
</g>
<g id="glyph-0-19">
<path d="M 4.453125 -0.765625 L 1.171875 -0.765625 C 1.25 -1.296875 1.53125 -1.625 2.296875 -2.09375 L 3.171875 -2.59375 C 4.046875 -3.0625 4.5 -3.71875 4.5 -4.5 C 4.5 -5.03125 4.28125 -5.53125 3.921875 -5.875 C 3.546875 -6.203125 3.09375 -6.359375 2.5 -6.359375 C 1.703125 -6.359375 1.125 -6.078125 0.78125 -5.53125 C 0.546875 -5.203125 0.453125 -4.796875 0.4375 -4.15625 L 1.21875 -4.15625 C 1.234375 -4.59375 1.296875 -4.84375 1.40625 -5.0625 C 1.59375 -5.4375 2 -5.6875 2.46875 -5.6875 C 3.171875 -5.6875 3.703125 -5.171875 3.703125 -4.484375 C 3.703125 -3.96875 3.40625 -3.53125 2.859375 -3.21875 L 2.046875 -2.75 C 0.75 -2 0.375 -1.40625 0.296875 -0.015625 L 4.453125 -0.015625 Z M 4.453125 -0.765625 "/>
</g>
<g id="glyph-0-20">
<path d="M 2.421875 -6.359375 C 1.84375 -6.359375 1.3125 -6.09375 0.984375 -5.671875 C 0.578125 -5.109375 0.375 -4.25 0.375 -3.078125 C 0.375 -0.9375 1.078125 0.203125 2.421875 0.203125 C 3.734375 0.203125 4.453125 -0.9375 4.453125 -3.03125 C 4.453125 -4.25 4.265625 -5.078125 3.859375 -5.671875 C 3.53125 -6.109375 3.015625 -6.359375 2.421875 -6.359375 Z M 2.421875 -5.671875 C 3.25 -5.671875 3.671875 -4.828125 3.671875 -3.09375 C 3.671875 -1.28125 3.265625 -0.4375 2.40625 -0.4375 C 1.578125 -0.4375 1.171875 -1.3125 1.171875 -3.0625 C 1.171875 -4.828125 1.578125 -5.671875 2.421875 -5.671875 Z M 2.421875 -5.671875 "/>
</g>
<g id="glyph-0-21">
<path d="M 1.9375 -2.921875 L 2.359375 -2.921875 C 3.203125 -2.921875 3.65625 -2.53125 3.65625 -1.765625 C 3.65625 -0.96875 3.171875 -0.484375 2.375 -0.484375 C 1.515625 -0.484375 1.109375 -0.921875 1.0625 -1.84375 L 0.28125 -1.84375 C 0.3125 -1.34375 0.40625 -1 0.546875 -0.71875 C 0.875 -0.109375 1.484375 0.203125 2.34375 0.203125 C 3.625 0.203125 4.453125 -0.578125 4.453125 -1.78125 C 4.453125 -2.59375 4.140625 -3.03125 3.390625 -3.296875 C 3.96875 -3.53125 4.265625 -3.96875 4.265625 -4.609375 C 4.265625 -5.703125 3.546875 -6.359375 2.359375 -6.359375 C 1.109375 -6.359375 0.4375 -5.65625 0.40625 -4.3125 L 1.1875 -4.3125 C 1.203125 -4.703125 1.234375 -4.921875 1.328125 -5.109375 C 1.5 -5.46875 1.890625 -5.6875 2.375 -5.6875 C 3.0625 -5.6875 3.46875 -5.265625 3.46875 -4.578125 C 3.46875 -4.140625 3.3125 -3.859375 2.96875 -3.71875 C 2.765625 -3.625 2.484375 -3.59375 1.9375 -3.578125 Z M 1.9375 -2.921875 "/>
</g>
<g id="glyph-0-22">
<path d="M 0.6875 0 L 3.59375 0 C 4.203125 0 4.640625 -0.171875 4.984375 -0.53125 C 5.296875 -0.875 5.484375 -1.328125 5.484375 -1.828125 C 5.484375 -2.609375 5.125 -3.0625 4.3125 -3.390625 C 4.90625 -3.65625 5.203125 -4.125 5.203125 -4.78125 C 5.203125 -5.265625 5.015625 -5.671875 4.6875 -5.96875 C 4.34375 -6.265625 3.921875 -6.40625 3.296875 -6.40625 L 0.6875 -6.40625 Z M 1.515625 -3.65625 L 1.515625 -5.6875 L 3.09375 -5.6875 C 3.546875 -5.6875 3.8125 -5.625 4.03125 -5.46875 C 4.25 -5.28125 4.375 -5.015625 4.375 -4.671875 C 4.375 -4.3125 4.25 -4.0625 4.03125 -3.875 C 3.8125 -3.71875 3.546875 -3.65625 3.09375 -3.65625 Z M 1.515625 -0.71875 L 1.515625 -2.921875 L 3.515625 -2.921875 C 4.234375 -2.921875 4.65625 -2.515625 4.65625 -1.828125 C 4.65625 -1.140625 4.234375 -0.71875 3.515625 -0.71875 Z M 1.515625 -0.71875 "/>
</g>
<g id="glyph-0-23">
<path d="M 4.109375 0 L 5.921875 -5.375 L 5.921875 0 L 6.6875 0 L 6.6875 -6.40625 L 5.5625 -6.40625 L 3.6875 -0.828125 L 1.796875 -6.40625 L 0.65625 -6.40625 L 0.65625 0 L 1.4375 0 L 1.4375 -5.375 L 3.25 0 Z M 4.109375 0 "/>
</g>
<g id="glyph-0-24">
<path d="M 1.703125 -6.40625 L 0.875 -6.40625 L 0.875 0 L 1.703125 0 Z M 1.703125 -6.40625 "/>
</g>
<g id="glyph-0-25">
<path d="M 4.703125 -3.109375 L 0.4375 -3.109375 L 0.4375 -2.484375 L 4.703125 -2.484375 Z M 4.703125 -1.59375 L 0.4375 -1.59375 L 0.4375 -0.96875 L 4.703125 -0.96875 Z M 4.703125 -1.59375 "/>
</g>
<g id="glyph-0-26">
<path d="M 0.609375 -4.609375 L 0.609375 0 L 1.359375 0 L 1.359375 -2.890625 C 1.359375 -3.5625 1.84375 -4.09375 2.4375 -4.09375 C 2.984375 -4.09375 3.296875 -3.765625 3.296875 -3.171875 L 3.296875 0 L 4.03125 0 L 4.03125 -2.890625 C 4.03125 -3.5625 4.515625 -4.09375 5.109375 -4.09375 C 5.640625 -4.09375 5.96875 -3.75 5.96875 -3.171875 L 5.96875 0 L 6.703125 0 L 6.703125 -3.453125 C 6.703125 -4.28125 6.234375 -4.734375 5.359375 -4.734375 C 4.75 -4.734375 4.375 -4.5625 3.953125 -4.03125 C 3.671875 -4.53125 3.3125 -4.734375 2.703125 -4.734375 C 2.09375 -4.734375 1.6875 -4.515625 1.296875 -3.953125 L 1.296875 -4.609375 Z M 0.609375 -4.609375 "/>
</g>
<g id="glyph-0-27">
<path d="M 4.359375 -6.40625 L 3.625 -6.40625 L 3.625 -4.03125 C 3.3125 -4.5 2.828125 -4.734375 2.203125 -4.734375 C 1.015625 -4.734375 0.234375 -3.78125 0.234375 -2.3125 C 0.234375 -0.75 0.984375 0.203125 2.234375 0.203125 C 2.875 0.203125 3.3125 -0.03125 3.703125 -0.609375 L 3.703125 0 L 4.359375 0 Z M 2.328125 -4.0625 C 3.125 -4.0625 3.625 -3.359375 3.625 -2.25 C 3.625 -1.1875 3.109375 -0.484375 2.34375 -0.484375 C 1.53125 -0.484375 1 -1.203125 1 -2.265625 C 1 -3.34375 1.53125 -4.0625 2.328125 -4.0625 Z M 2.328125 -4.0625 "/>
</g>
<g id="glyph-0-28">
<path d="M 1.890625 -4.609375 L 0.96875 -4.609375 L 0.96875 -3.6875 L 1.890625 -3.6875 Z M 0.96875 -0.921875 L 0.96875 0 L 1.5 0 L 1.5 0.15625 C 1.5 0.765625 1.375 0.9375 0.96875 0.953125 L 0.96875 1.296875 C 1.546875 1.3125 1.890625 0.890625 1.890625 0.140625 L 1.890625 -0.921875 Z M 0.96875 -0.921875 "/>
</g>
<g id="glyph-0-29">
<path d="M 3.4375 -3.296875 L 5.609375 -6.40625 L 4.625 -6.40625 L 2.96875 -3.890625 L 1.328125 -6.40625 L 0.328125 -6.40625 L 2.46875 -3.296875 L 0.1875 0 L 1.1875 0 L 2.953125 -2.671875 L 4.703125 0 L 5.703125 0 Z M 3.4375 -3.296875 "/>
</g>
<g id="glyph-0-30">
<path d="M 2.5 -2.75 L 0.40625 -2.75 L 0.40625 -2.109375 L 2.5 -2.109375 Z M 2.5 -2.75 "/>
</g>
<g id="glyph-0-31">
<path d="M 6.453125 0.015625 L 5.625 -0.671875 C 6.234375 -1.34375 6.53125 -2.15625 6.53125 -3.171875 C 6.53125 -5.171875 5.28125 -6.515625 3.4375 -6.515625 C 1.578125 -6.515625 0.328125 -5.171875 0.328125 -3.15625 C 0.328125 -1.15625 1.578125 0.203125 3.4375 0.203125 C 4.078125 0.203125 4.59375 0.0625 5.109375 -0.25 L 6.03125 0.515625 Z M 4.234375 -1.796875 L 3.828125 -1.3125 L 4.484375 -0.765625 C 4.09375 -0.578125 3.8125 -0.515625 3.421875 -0.515625 C 2.0625 -0.515625 1.15625 -1.578125 1.15625 -3.15625 C 1.15625 -4.734375 2.0625 -5.796875 3.4375 -5.796875 C 4.796875 -5.796875 5.703125 -4.734375 5.703125 -3.171875 C 5.703125 -2.328125 5.484375 -1.703125 5.015625 -1.15625 Z M 4.234375 -1.796875 "/>
</g>
<g id="glyph-0-32">
<path d="M 1.640625 -2.765625 L 3.75 -2.765625 C 4.484375 -2.765625 4.796875 -2.40625 4.796875 -1.625 L 4.796875 -1.046875 C 4.796875 -0.65625 4.859375 -0.265625 4.984375 0 L 5.96875 0 L 5.96875 -0.203125 C 5.671875 -0.40625 5.609375 -0.640625 5.59375 -1.5 C 5.578125 -2.546875 5.40625 -2.875 4.71875 -3.171875 C 5.4375 -3.53125 5.734375 -3.953125 5.734375 -4.703125 C 5.734375 -5.8125 5.046875 -6.40625 3.78125 -6.40625 L 0.8125 -6.40625 L 0.8125 0 L 1.640625 0 Z M 1.640625 -3.484375 L 1.640625 -5.6875 L 3.609375 -5.6875 C 4.078125 -5.6875 4.34375 -5.625 4.546875 -5.4375 C 4.765625 -5.265625 4.875 -4.96875 4.875 -4.59375 C 4.875 -3.828125 4.484375 -3.484375 3.609375 -3.484375 Z M 1.640625 -3.484375 "/>
</g>
<g id="glyph-1-0">
<path d="M 5.71875 -7.796875 L 0.5 -7.796875 L 0.5 -6.84375 L 4.71875 -6.84375 C 2.859375 -4.1875 2.09375 -2.5625 1.515625 0 L 2.546875 0 C 2.984375 -2.5 3.953125 -4.640625 5.71875 -6.984375 Z M 5.71875 -7.796875 "/>
</g>
<g id="glyph-1-1">
<path d="M 2.4375 -3.65625 L 2.953125 -3.65625 C 4.015625 -3.65625 4.578125 -3.171875 4.578125 -2.21875 C 4.578125 -1.203125 3.96875 -0.609375 2.96875 -0.609375 C 1.90625 -0.609375 1.390625 -1.140625 1.3125 -2.3125 L 0.359375 -2.3125 C 0.390625 -1.671875 0.5 -1.25 0.6875 -0.90625 C 1.09375 -0.125 1.859375 0.25 2.921875 0.25 C 4.53125 0.25 5.5625 -0.71875 5.5625 -2.21875 C 5.5625 -3.234375 5.1875 -3.78125 4.25 -4.109375 C 4.96875 -4.40625 5.328125 -4.96875 5.328125 -5.765625 C 5.328125 -7.125 4.4375 -7.953125 2.953125 -7.953125 C 1.390625 -7.953125 0.546875 -7.078125 0.515625 -5.390625 L 1.484375 -5.390625 C 1.5 -5.875 1.546875 -6.15625 1.65625 -6.390625 C 1.875 -6.84375 2.359375 -7.109375 2.96875 -7.109375 C 3.828125 -7.109375 4.34375 -6.59375 4.34375 -5.734375 C 4.34375 -5.171875 4.140625 -4.828125 3.71875 -4.640625 C 3.453125 -4.53125 3.109375 -4.484375 2.4375 -4.484375 Z M 2.4375 -3.65625 "/>
</g>
<g id="glyph-1-2">
<path d="M 2.09375 -1.140625 L 0.953125 -1.140625 L 0.953125 0 L 2.09375 0 Z M 2.09375 -1.140625 "/>
</g>
<g id="glyph-1-3">
<path d="M 3.03125 -7.953125 C 2.296875 -7.953125 1.640625 -7.625 1.234375 -7.078125 C 0.71875 -6.375 0.46875 -5.328125 0.46875 -3.84375 C 0.46875 -1.171875 1.359375 0.25 3.03125 0.25 C 4.671875 0.25 5.578125 -1.171875 5.578125 -3.78125 C 5.578125 -5.328125 5.328125 -6.359375 4.8125 -7.078125 C 4.40625 -7.640625 3.765625 -7.953125 3.03125 -7.953125 Z M 3.03125 -7.09375 C 4.0625 -7.09375 4.59375 -6.03125 4.59375 -3.875 C 4.59375 -1.609375 4.078125 -0.546875 3 -0.546875 C 1.984375 -0.546875 1.46875 -1.65625 1.46875 -3.84375 C 1.46875 -6.03125 1.984375 -7.09375 3.03125 -7.09375 Z M 3.03125 -7.09375 "/>
</g>
<g id="glyph-1-4">
<path d="M 5.234375 -7.796875 L 1.203125 -7.796875 L 0.625 -3.546875 L 1.515625 -3.546875 C 1.96875 -4.09375 2.34375 -4.28125 2.953125 -4.28125 C 4 -4.28125 4.65625 -3.5625 4.65625 -2.40625 C 4.65625 -1.28125 4 -0.609375 2.953125 -0.609375 C 2.09375 -0.609375 1.578125 -1.03125 1.359375 -1.90625 L 0.390625 -1.90625 C 0.515625 -1.28125 0.625 -0.96875 0.859375 -0.6875 C 1.296875 -0.09375 2.09375 0.25 2.96875 0.25 C 4.546875 0.25 5.640625 -0.890625 5.640625 -2.546875 C 5.640625 -4.078125 4.625 -5.140625 3.125 -5.140625 C 2.578125 -5.140625 2.140625 -5 1.6875 -4.65625 L 1.984375 -6.84375 L 5.234375 -6.84375 Z M 5.234375 -7.796875 "/>
</g>
<g id="glyph-1-5">
<path d="M 2.84375 -5.671875 L 2.84375 0 L 3.8125 0 L 3.8125 -7.953125 L 3.171875 -7.953125 C 2.84375 -6.734375 2.625 -6.5625 1.125 -6.375 L 1.125 -5.671875 Z M 2.84375 -5.671875 "/>
</g>
<g id="glyph-1-6">
<path d="M 5.5625 -0.953125 L 1.46875 -0.953125 C 1.5625 -1.609375 1.90625 -2.03125 2.875 -2.625 L 3.96875 -3.234375 C 5.0625 -3.84375 5.625 -4.65625 5.625 -5.625 C 5.625 -6.296875 5.359375 -6.90625 4.890625 -7.34375 C 4.4375 -7.75 3.859375 -7.953125 3.125 -7.953125 C 2.140625 -7.953125 1.390625 -7.59375 0.96875 -6.921875 C 0.6875 -6.5 0.578125 -6 0.546875 -5.203125 L 1.515625 -5.203125 C 1.546875 -5.734375 1.609375 -6.0625 1.75 -6.328125 C 2 -6.8125 2.515625 -7.109375 3.09375 -7.109375 C 3.96875 -7.109375 4.625 -6.46875 4.625 -5.609375 C 4.625 -4.96875 4.265625 -4.421875 3.578125 -4.03125 L 2.5625 -3.4375 C 0.9375 -2.5 0.46875 -1.75 0.375 -0.015625 L 5.5625 -0.015625 Z M 5.5625 -0.953125 "/>
</g>
<g id="glyph-1-7">
<path d="M 3.125 -3.4375 L 0.5 -3.4375 L 0.5 -2.640625 L 3.125 -2.640625 Z M 3.125 -3.4375 "/>
</g>
<g id="glyph-1-8">
<path d="M 3.59375 -1.921875 L 3.59375 0 L 4.5625 0 L 4.5625 -1.921875 L 5.71875 -1.921875 L 5.71875 -2.796875 L 4.5625 -2.796875 L 4.5625 -7.953125 L 3.84375 -7.953125 L 0.3125 -2.953125 L 0.3125 -1.921875 Z M 3.59375 -2.796875 L 1.15625 -2.796875 L 3.59375 -6.296875 Z M 3.59375 -2.796875 "/>
</g>
<g id="glyph-1-9">
<path d="M 7.109375 -8.015625 L 6.140625 -8.015625 L 6.140625 -1.46875 L 1.953125 -8.015625 L 0.84375 -8.015625 L 0.84375 0 L 1.796875 0 L 1.796875 -6.5 L 5.953125 0 L 7.109375 0 Z M 7.109375 -8.015625 "/>
</g>
<g id="glyph-1-10">
<path d="M 2.984375 -5.921875 C 1.359375 -5.921875 0.390625 -4.78125 0.390625 -2.84375 C 0.390625 -0.890625 1.359375 0.25 3 0.25 C 4.625 0.25 5.609375 -0.90625 5.609375 -2.796875 C 5.609375 -4.796875 4.65625 -5.921875 2.984375 -5.921875 Z M 3 -5.078125 C 4.03125 -5.078125 4.65625 -4.234375 4.65625 -2.8125 C 4.65625 -1.4375 4.015625 -0.59375 3 -0.59375 C 1.984375 -0.59375 1.359375 -1.4375 1.359375 -2.84375 C 1.359375 -4.234375 1.984375 -5.078125 3 -5.078125 Z M 3 -5.078125 "/>
</g>
<g id="glyph-1-11">
<path d="M 0.765625 -5.765625 L 0.765625 0 L 1.6875 0 L 1.6875 -2.984375 C 1.6875 -4.375 2.265625 -5 3.53125 -4.96875 L 3.53125 -5.890625 C 3.375 -5.921875 3.28125 -5.921875 3.171875 -5.921875 C 2.578125 -5.921875 2.140625 -5.578125 1.609375 -4.71875 L 1.609375 -5.765625 Z M 0.765625 -5.765625 "/>
</g>
<g id="glyph-1-12">
<path d="M 2.796875 -5.765625 L 1.84375 -5.765625 L 1.84375 -7.34375 L 0.9375 -7.34375 L 0.9375 -5.765625 L 0.15625 -5.765625 L 0.15625 -5.015625 L 0.9375 -5.015625 L 0.9375 -0.65625 C 0.9375 -0.0625 1.328125 0.25 2.046875 0.25 C 2.28125 0.25 2.484375 0.234375 2.796875 0.171875 L 2.796875 -0.59375 C 2.65625 -0.5625 2.546875 -0.546875 2.359375 -0.546875 C 1.953125 -0.546875 1.84375 -0.65625 1.84375 -1.0625 L 1.84375 -5.015625 L 2.796875 -5.015625 Z M 2.796875 -5.765625 "/>
</g>
<g id="glyph-1-13">
<path d="M 0.765625 -8.015625 L 0.765625 0 L 1.6875 0 L 1.6875 -3.171875 C 1.6875 -4.359375 2.296875 -5.125 3.25 -5.125 C 3.546875 -5.125 3.84375 -5.03125 4.0625 -4.875 C 4.328125 -4.671875 4.4375 -4.40625 4.4375 -4 L 4.4375 0 L 5.34375 0 L 5.34375 -4.359375 C 5.34375 -5.328125 4.65625 -5.921875 3.53125 -5.921875 C 2.71875 -5.921875 2.21875 -5.671875 1.6875 -4.96875 L 1.6875 -8.015625 Z M 0.765625 -8.015625 "/>
</g>
<g id="glyph-1-14">
</g>
<g id="glyph-1-15">
<path d="M 7.796875 -4.234375 L 4.453125 -4.234375 L 4.453125 -3.328125 L 6.890625 -3.328125 L 6.890625 -3.109375 C 6.890625 -1.6875 5.84375 -0.65625 4.375 -0.65625 C 3.5625 -0.65625 2.828125 -0.953125 2.359375 -1.46875 C 1.828125 -2.03125 1.5 -2.984375 1.5 -3.984375 C 1.5 -5.953125 2.625 -7.25 4.328125 -7.25 C 5.546875 -7.25 6.421875 -6.625 6.640625 -5.59375 L 7.6875 -5.59375 C 7.40625 -7.21875 6.171875 -8.15625 4.328125 -8.15625 C 3.359375 -8.15625 2.5625 -7.890625 1.9375 -7.375 C 1 -6.609375 0.484375 -5.375 0.484375 -3.921875 C 0.484375 -1.46875 1.984375 0.25 4.15625 0.25 C 5.25 0.25 6.109375 -0.15625 6.890625 -1.015625 L 7.15625 0.046875 L 7.796875 0.046875 Z M 7.796875 -4.234375 "/>
</g>
<g id="glyph-1-16">
<path d="M 5.890625 -0.53125 C 5.78125 -0.515625 5.734375 -0.515625 5.6875 -0.515625 C 5.375 -0.515625 5.1875 -0.6875 5.1875 -0.96875 L 5.1875 -4.359375 C 5.1875 -5.375 4.4375 -5.921875 3.03125 -5.921875 C 2.171875 -5.921875 1.5 -5.6875 1.109375 -5.265625 C 0.84375 -4.96875 0.734375 -4.625 0.71875 -4.0625 L 1.640625 -4.0625 C 1.71875 -4.765625 2.140625 -5.078125 2.984375 -5.078125 C 3.828125 -5.078125 4.28125 -4.78125 4.28125 -4.21875 L 4.28125 -3.984375 C 4.265625 -3.59375 4.0625 -3.4375 3.328125 -3.34375 C 2.03125 -3.171875 1.828125 -3.140625 1.46875 -2.984375 C 0.796875 -2.703125 0.46875 -2.203125 0.46875 -1.453125 C 0.46875 -0.40625 1.1875 0.25 2.359375 0.25 C 3.078125 0.25 3.65625 0 4.3125 -0.59375 C 4.375 0 4.65625 0.25 5.265625 0.25 C 5.453125 0.25 5.578125 0.234375 5.890625 0.15625 Z M 4.28125 -1.8125 C 4.28125 -1.5 4.1875 -1.3125 3.921875 -1.0625 C 3.546875 -0.71875 3.09375 -0.546875 2.546875 -0.546875 C 1.84375 -0.546875 1.421875 -0.890625 1.421875 -1.46875 C 1.421875 -2.078125 1.8125 -2.390625 2.8125 -2.53125 C 3.78125 -2.65625 3.96875 -2.703125 4.28125 -2.84375 Z M 4.28125 -1.8125 "/>
</g>
<g id="glyph-1-17">
<path d="M 4.875 -5.765625 L 0.578125 -5.765625 L 0.578125 -4.96875 L 3.78125 -4.96875 L 0.34375 -0.828125 L 0.34375 0 L 5.03125 0 L 5.03125 -0.796875 L 1.453125 -0.796875 L 4.875 -4.953125 Z M 4.875 -5.765625 "/>
</g>
<g id="glyph-1-18">
<path d="M 0.953125 -1.140625 L 0.953125 0 L 1.609375 0 L 1.609375 0.203125 C 1.609375 0.953125 1.46875 1.171875 0.953125 1.203125 L 0.953125 1.609375 C 1.6875 1.640625 2.109375 1.109375 2.109375 0.171875 L 2.109375 -1.140625 Z M 0.953125 -1.140625 "/>
</g>
<g id="glyph-1-19">
<path d="M 0.765625 -5.765625 L 0.765625 0 L 1.6875 0 L 1.6875 -3.625 C 1.6875 -4.453125 2.296875 -5.125 3.046875 -5.125 C 3.734375 -5.125 4.109375 -4.703125 4.109375 -3.96875 L 4.109375 0 L 5.03125 0 L 5.03125 -3.625 C 5.03125 -4.453125 5.640625 -5.125 6.390625 -5.125 C 7.0625 -5.125 7.453125 -4.703125 7.453125 -3.96875 L 7.453125 0 L 8.375 0 L 8.375 -4.328125 C 8.375 -5.359375 7.78125 -5.921875 6.703125 -5.921875 C 5.9375 -5.921875 5.484375 -5.703125 4.9375 -5.046875 C 4.59375 -5.671875 4.140625 -5.921875 3.390625 -5.921875 C 2.625 -5.921875 2.09375 -5.640625 1.609375 -4.953125 L 1.609375 -5.765625 Z M 0.765625 -5.765625 "/>
</g>
<g id="glyph-1-20">
<path d="M 1.671875 -8.015625 L 0.75 -8.015625 L 0.75 0 L 1.671875 0 Z M 1.671875 -8.015625 "/>
</g>
<g id="glyph-1-21">
<path d="M 5.640625 -2.578125 C 5.640625 -3.453125 5.578125 -3.984375 5.40625 -4.40625 C 5.03125 -5.359375 4.15625 -5.921875 3.078125 -5.921875 C 1.46875 -5.921875 0.4375 -4.703125 0.4375 -2.8125 C 0.4375 -0.90625 1.4375 0.25 3.0625 0.25 C 4.375 0.25 5.296875 -0.5 5.515625 -1.75 L 4.59375 -1.75 C 4.34375 -0.984375 3.828125 -0.59375 3.09375 -0.59375 C 2.515625 -0.59375 2.015625 -0.859375 1.703125 -1.34375 C 1.484375 -1.671875 1.40625 -2 1.390625 -2.578125 Z M 1.421875 -3.328125 C 1.5 -4.390625 2.140625 -5.078125 3.0625 -5.078125 C 4 -5.078125 4.65625 -4.359375 4.65625 -3.328125 Z M 1.421875 -3.328125 "/>
</g>
<g id="glyph-1-22">
<path d="M 4.3125 0 L 7.09375 -8.015625 L 6 -8.015625 L 3.78125 -1.234375 L 1.4375 -8.015625 L 0.328125 -8.015625 L 3.21875 0 Z M 4.3125 0 "/>
</g>
<g id="glyph-1-23">
<path d="M 5.296875 0 L 5.296875 -5.765625 L 4.390625 -5.765625 L 4.390625 -2.5 C 4.390625 -1.3125 3.765625 -0.546875 2.8125 -0.546875 C 2.09375 -0.546875 1.625 -0.984375 1.625 -1.6875 L 1.625 -5.765625 L 0.71875 -5.765625 L 0.71875 -1.3125 C 0.71875 -0.359375 1.4375 0.25 2.546875 0.25 C 3.40625 0.25 3.9375 -0.046875 4.484375 -0.796875 L 4.484375 0 Z M 5.296875 0 "/>
</g>
</g>
<clipPath id="clip-0">
<path clip-rule="nonzero" d="M 94.410156 32.75 L 209.328125 32.75 L 209.328125 178.371094 L 94.410156 178.371094 Z M 94.410156 32.75 "/>
</clipPath>
<clipPath id="clip-1">
<path clip-rule="nonzero" d="M 108 32.75 L 110 32.75 L 110 178.371094 L 108 178.371094 Z M 108 32.75 "/>
</clipPath>
<clipPath id="clip-2">
<path clip-rule="nonzero" d="M 137 32.75 L 138 32.75 L 138 178.371094 L 137 178.371094 Z M 137 32.75 "/>
</clipPath>
<clipPath id="clip-3">
<path clip-rule="nonzero" d="M 165 32.75 L 167 32.75 L 167 178.371094 L 165 178.371094 Z M 165 32.75 "/>
</clipPath>
<clipPath id="clip-4">
<path clip-rule="nonzero" d="M 194 32.75 L 196 32.75 L 196 178.371094 L 194 178.371094 Z M 194 32.75 "/>
</clipPath>
<clipPath id="clip-5">
<path clip-rule="nonzero" d="M 94.410156 105 L 209.328125 105 L 209.328125 107 L 94.410156 107 Z M 94.410156 105 "/>
</clipPath>
<clipPath id="clip-6">
<path clip-rule="nonzero" d="M 94.410156 32.75 L 95 32.75 L 95 178.371094 L 94.410156 178.371094 Z M 94.410156 32.75 "/>
</clipPath>
<clipPath id="clip-7">
<path clip-rule="nonzero" d="M 122 32.75 L 124 32.75 L 124 178.371094 L 122 178.371094 Z M 122 32.75 "/>
</clipPath>
<clipPath id="clip-8">
<path clip-rule="nonzero" d="M 151 32.75 L 153 32.75 L 153 178.371094 L 151 178.371094 Z M 151 32.75 "/>
</clipPath>
<clipPath id="clip-9">
<path clip-rule="nonzero" d="M 180 32.75 L 182 32.75 L 182 178.371094 L 180 178.371094 Z M 180 32.75 "/>
</clipPath>
<clipPath id="clip-10">
<path clip-rule="nonzero" d="M 208 32.75 L 209.328125 32.75 L 209.328125 178.371094 L 208 178.371094 Z M 208 32.75 "/>
</clipPath>
<clipPath id="clip-11">
<path clip-rule="nonzero" d="M 94.410156 32.75 L 209.328125 32.75 L 209.328125 178.371094 L 94.410156 178.371094 Z M 94.410156 32.75 "/>
</clipPath>
<clipPath id="clip-12">
<path clip-rule="nonzero" d="M 214.808594 32.75 L 329.726562 32.75 L 329.726562 178.371094 L 214.808594 178.371094 Z M 214.808594 32.75 "/>
</clipPath>
<clipPath id="clip-13">
<path clip-rule="nonzero" d="M 235 32.75 L 236 32.75 L 236 178.371094 L 235 178.371094 Z M 235 32.75 "/>
</clipPath>
<clipPath id="clip-14">
<path clip-rule="nonzero" d="M 263 32.75 L 265 32.75 L 265 178.371094 L 263 178.371094 Z M 263 32.75 "/>
</clipPath>
<clipPath id="clip-15">
<path clip-rule="nonzero" d="M 292 32.75 L 294 32.75 L 294 178.371094 L 292 178.371094 Z M 292 32.75 "/>
</clipPath>
<clipPath id="clip-16">
<path clip-rule="nonzero" d="M 321 32.75 L 322 32.75 L 322 178.371094 L 321 178.371094 Z M 321 32.75 "/>
</clipPath>
<clipPath id="clip-17">
<path clip-rule="nonzero" d="M 214.808594 105 L 329.726562 105 L 329.726562 107 L 214.808594 107 Z M 214.808594 105 "/>
</clipPath>
<clipPath id="clip-18">
<path clip-rule="nonzero" d="M 220 32.75 L 222 32.75 L 222 178.371094 L 220 178.371094 Z M 220 32.75 "/>
</clipPath>
<clipPath id="clip-19">
<path clip-rule="nonzero" d="M 249 32.75 L 251 32.75 L 251 178.371094 L 249 178.371094 Z M 249 32.75 "/>
</clipPath>
<clipPath id="clip-20">
<path clip-rule="nonzero" d="M 278 32.75 L 280 32.75 L 280 178.371094 L 278 178.371094 Z M 278 32.75 "/>
</clipPath>
<clipPath id="clip-21">
<path clip-rule="nonzero" d="M 306 32.75 L 308 32.75 L 308 178.371094 L 306 178.371094 Z M 306 32.75 "/>
</clipPath>
<clipPath id="clip-22">
<path clip-rule="nonzero" d="M 214.808594 32.75 L 329.726562 32.75 L 329.726562 178.371094 L 214.808594 178.371094 Z M 214.808594 32.75 "/>
</clipPath>
<clipPath id="clip-23">
<path clip-rule="nonzero" d="M 335.207031 32.75 L 450.125 32.75 L 450.125 178.371094 L 335.207031 178.371094 Z M 335.207031 32.75 "/>
</clipPath>
<clipPath id="clip-24">
<path clip-rule="nonzero" d="M 339 32.75 L 340 32.75 L 340 178.371094 L 339 178.371094 Z M 339 32.75 "/>
</clipPath>
<clipPath id="clip-25">
<path clip-rule="nonzero" d="M 368 32.75 L 369 32.75 L 369 178.371094 L 368 178.371094 Z M 368 32.75 "/>
</clipPath>
<clipPath id="clip-26">
<path clip-rule="nonzero" d="M 396 32.75 L 398 32.75 L 398 178.371094 L 396 178.371094 Z M 396 32.75 "/>
</clipPath>
<clipPath id="clip-27">
<path clip-rule="nonzero" d="M 425 32.75 L 427 32.75 L 427 178.371094 L 425 178.371094 Z M 425 32.75 "/>
</clipPath>
<clipPath id="clip-28">
<path clip-rule="nonzero" d="M 335.207031 105 L 450.125 105 L 450.125 107 L 335.207031 107 Z M 335.207031 105 "/>
</clipPath>
<clipPath id="clip-29">
<path clip-rule="nonzero" d="M 353 32.75 L 355 32.75 L 355 178.371094 L 353 178.371094 Z M 353 32.75 "/>
</clipPath>
<clipPath id="clip-30">
<path clip-rule="nonzero" d="M 382 32.75 L 384 32.75 L 384 178.371094 L 382 178.371094 Z M 382 32.75 "/>
</clipPath>
<clipPath id="clip-31">
<path clip-rule="nonzero" d="M 410 32.75 L 412 32.75 L 412 178.371094 L 410 178.371094 Z M 410 32.75 "/>
</clipPath>
<clipPath id="clip-32">
<path clip-rule="nonzero" d="M 439 32.75 L 441 32.75 L 441 178.371094 L 439 178.371094 Z M 439 32.75 "/>
</clipPath>
<clipPath id="clip-33">
<path clip-rule="nonzero" d="M 335.207031 32.75 L 450.125 32.75 L 450.125 178.371094 L 335.207031 178.371094 Z M 335.207031 32.75 "/>
</clipPath>
<clipPath id="clip-34">
<path clip-rule="nonzero" d="M 455.601562 32.75 L 570.519531 32.75 L 570.519531 178.371094 L 455.601562 178.371094 Z M 455.601562 32.75 "/>
</clipPath>
<clipPath id="clip-35">
<path clip-rule="nonzero" d="M 476 32.75 L 477 32.75 L 477 178.371094 L 476 178.371094 Z M 476 32.75 "/>
</clipPath>
<clipPath id="clip-36">
<path clip-rule="nonzero" d="M 504 32.75 L 506 32.75 L 506 178.371094 L 504 178.371094 Z M 504 32.75 "/>
</clipPath>
<clipPath id="clip-37">
<path clip-rule="nonzero" d="M 533 32.75 L 535 32.75 L 535 178.371094 L 533 178.371094 Z M 533 32.75 "/>
</clipPath>
<clipPath id="clip-38">
<path clip-rule="nonzero" d="M 562 32.75 L 563 32.75 L 563 178.371094 L 562 178.371094 Z M 562 32.75 "/>
</clipPath>
<clipPath id="clip-39">
<path clip-rule="nonzero" d="M 455.601562 105 L 570.519531 105 L 570.519531 107 L 455.601562 107 Z M 455.601562 105 "/>
</clipPath>
<clipPath id="clip-40">
<path clip-rule="nonzero" d="M 461 32.75 L 463 32.75 L 463 178.371094 L 461 178.371094 Z M 461 32.75 "/>
</clipPath>
<clipPath id="clip-41">
<path clip-rule="nonzero" d="M 490 32.75 L 492 32.75 L 492 178.371094 L 490 178.371094 Z M 490 32.75 "/>
</clipPath>
<clipPath id="clip-42">
<path clip-rule="nonzero" d="M 518 32.75 L 520 32.75 L 520 178.371094 L 518 178.371094 Z M 518 32.75 "/>
</clipPath>
<clipPath id="clip-43">
<path clip-rule="nonzero" d="M 547 32.75 L 549 32.75 L 549 178.371094 L 547 178.371094 Z M 547 32.75 "/>
</clipPath>
<clipPath id="clip-44">
<path clip-rule="nonzero" d="M 455.601562 32.75 L 570.519531 32.75 L 570.519531 178.371094 L 455.601562 178.371094 Z M 455.601562 32.75 "/>
</clipPath>
<clipPath id="clip-45">
<path clip-rule="nonzero" d="M 94.410156 5.480469 L 209.328125 5.480469 L 209.328125 32.75 L 94.410156 32.75 Z M 94.410156 5.480469 "/>
</clipPath>
<clipPath id="clip-46">
<path clip-rule="nonzero" d="M 214.808594 5.480469 L 329.726562 5.480469 L 329.726562 32.75 L 214.808594 32.75 Z M 214.808594 5.480469 "/>
</clipPath>
<clipPath id="clip-47">
<path clip-rule="nonzero" d="M 335.207031 5.480469 L 450.125 5.480469 L 450.125 32.75 L 335.207031 32.75 Z M 335.207031 5.480469 "/>
</clipPath>
<clipPath id="clip-48">
<path clip-rule="nonzero" d="M 455.601562 5.480469 L 570.519531 5.480469 L 570.519531 32.75 L 455.601562 32.75 Z M 455.601562 5.480469 "/>
</clipPath>
</defs>
<rect x="-57.6" y="-23" width="691.2" height="276" fill="rgb(100%, 100%, 100%)" fill-opacity="1"/>
<rect x="-57.6" y="-23" width="691.2" height="276" fill="rgb(100%, 100%, 100%)" fill-opacity="1"/>
<path fill="none" stroke-width="1.066978" stroke-linecap="round" stroke-linejoin="round" stroke="rgb(100%, 100%, 100%)" stroke-opacity="1" stroke-miterlimit="10" d="M 0 230 L 576 230 L 576 0 L 0 0 Z M 0 230 "/>
<g clip-path="url(#clip-0)">
<path fill-rule="nonzero" fill="rgb(100%, 100%, 100%)" fill-opacity="1" stroke-width="1.066978" stroke-linecap="round" stroke-linejoin="round" stroke="rgb(0%, 0%, 0%)" stroke-opacity="1" stroke-miterlimit="10" d="M 94.410156 178.371094 L 209.328125 178.371094 L 209.328125 32.75 L 94.410156 32.75 Z M 94.410156 178.371094 "/>
</g>
<g clip-path="url(#clip-1)">
<path fill="none" stroke-width="0.533489" stroke-linecap="butt" stroke-linejoin="round" stroke="rgb(94.117647%, 97.254902%, 100%)" stroke-opacity="1" stroke-miterlimit="10" d="M 108.777344 178.371094 L 108.777344 32.75 "/>
</g>
<g clip-path="url(#clip-2)">
<path fill="none" stroke-width="0.533489" stroke-linecap="butt" stroke-linejoin="round" stroke="rgb(94.117647%, 97.254902%, 100%)" stroke-opacity="1" stroke-miterlimit="10" d="M 137.503906 178.371094 L 137.503906 32.75 "/>
</g>
<g clip-path="url(#clip-3)">
<path fill="none" stroke-width="0.533489" stroke-linecap="butt" stroke-linejoin="round" stroke="rgb(94.117647%, 97.254902%, 100%)" stroke-opacity="1" stroke-miterlimit="10" d="M 166.234375 178.371094 L 166.234375 32.75 "/>
</g>
<g clip-path="url(#clip-4)">
<path fill="none" stroke-width="0.533489" stroke-linecap="butt" stroke-linejoin="round" stroke="rgb(94.117647%, 97.254902%, 100%)" stroke-opacity="1" stroke-miterlimit="10" d="M 194.964844 178.371094 L 194.964844 32.75 "/>
</g>
<g clip-path="url(#clip-5)">
<path fill="none" stroke-width="1.066978" stroke-linecap="butt" stroke-linejoin="round" stroke="rgb(100%, 100%, 100%)" stroke-opacity="1" stroke-miterlimit="10" d="M 94.410156 105.558594 L 209.328125 105.558594 "/>
</g>
<g clip-path="url(#clip-6)">
<path fill="none" stroke-width="1.066978" stroke-linecap="butt" stroke-linejoin="round" stroke="rgb(100%, 100%, 100%)" stroke-opacity="1" stroke-miterlimit="10" d="M 94.410156 178.371094 L 94.410156 32.75 "/>
</g>
<g clip-path="url(#clip-7)">
<path fill="none" stroke-width="1.066978" stroke-linecap="butt" stroke-linejoin="round" stroke="rgb(100%, 100%, 100%)" stroke-opacity="1" stroke-miterlimit="10" d="M 123.140625 178.371094 L 123.140625 32.75 "/>
</g>
<g clip-path="url(#clip-8)">
<path fill="none" stroke-width="1.066978" stroke-linecap="butt" stroke-linejoin="round" stroke="rgb(100%, 100%, 100%)" stroke-opacity="1" stroke-miterlimit="10" d="M 151.871094 178.371094 L 151.871094 32.75 "/>
</g>
<g clip-path="url(#clip-9)">
<path fill="none" stroke-width="1.066978" stroke-linecap="butt" stroke-linejoin="round" stroke="rgb(100%, 100%, 100%)" stroke-opacity="1" stroke-miterlimit="10" d="M 180.597656 178.371094 L 180.597656 32.75 "/>
</g>
<g clip-path="url(#clip-10)">
<path fill="none" stroke-width="1.066978" stroke-linecap="butt" stroke-linejoin="round" stroke="rgb(100%, 100%, 100%)" stroke-opacity="1" stroke-miterlimit="10" d="M 209.328125 178.371094 L 209.328125 32.75 "/>
</g>
<path fill="none" stroke-width="1.066978" stroke-linecap="butt" stroke-linejoin="round" stroke="rgb(97.254902%, 46.27451%, 42.745098%)" stroke-opacity="1" stroke-miterlimit="10" d="M 151.871094 105.558594 L 151.871094 105.558594 "/>
<path fill="none" stroke-width="1.066978" stroke-linecap="butt" stroke-linejoin="round" stroke="rgb(97.254902%, 46.27451%, 42.745098%)" stroke-opacity="1" stroke-miterlimit="10" d="M 151.871094 105.558594 L 151.871094 105.558594 "/>
<path fill="none" stroke-width="1.066978" stroke-linecap="butt" stroke-linejoin="round" stroke="rgb(97.254902%, 46.27451%, 42.745098%)" stroke-opacity="1" stroke-miterlimit="10" d="M 151.871094 105.558594 L 151.871094 105.558594 "/>
<path fill-rule="nonzero" fill="rgb(97.254902%, 46.27451%, 42.745098%)" fill-opacity="1" stroke-width="0.708661" stroke-linecap="round" stroke-linejoin="round" stroke="rgb(97.254902%, 46.27451%, 42.745098%)" stroke-opacity="1" stroke-miterlimit="10" d="M 155.425781 105.558594 C 155.425781 110.300781 148.316406 110.300781 148.316406 105.558594 C 148.316406 100.820312 155.425781 100.820312 155.425781 105.558594 "/>
<path fill="none" stroke-width="1.417323" stroke-linecap="round" stroke-linejoin="round" stroke="rgb(97.254902%, 46.27451%, 42.745098%)" stroke-opacity="1" stroke-miterlimit="10" d="M 147.960938 109.46875 L 155.78125 101.652344 "/>
<path fill="none" stroke-width="1.417323" stroke-linecap="round" stroke-linejoin="round" stroke="rgb(97.254902%, 46.27451%, 42.745098%)" stroke-opacity="1" stroke-miterlimit="10" d="M 147.960938 101.652344 L 155.78125 109.46875 "/>
<g clip-path="url(#clip-11)">
<path fill="none" stroke-width="1.066978" stroke-linecap="round" stroke-linejoin="round" stroke="rgb(0.392157%, 27.058824%, 30.980392%)" stroke-opacity="1" stroke-miterlimit="10" d="M 94.410156 178.371094 L 209.328125 178.371094 L 209.328125 32.75 L 94.410156 32.75 Z M 94.410156 178.371094 "/>
</g>
<g clip-path="url(#clip-12)">
<path fill-rule="nonzero" fill="rgb(100%, 100%, 100%)" fill-opacity="1" stroke-width="1.066978" stroke-linecap="round" stroke-linejoin="round" stroke="rgb(0%, 0%, 0%)" stroke-opacity="1" stroke-miterlimit="10" d="M 214.808594 178.371094 L 329.726562 178.371094 L 329.726562 32.75 L 214.808594 32.75 Z M 214.808594 178.371094 "/>
</g>
<g clip-path="url(#clip-13)">
<path fill="none" stroke-width="0.533489" stroke-linecap="butt" stroke-linejoin="round" stroke="rgb(94.117647%, 97.254902%, 100%)" stroke-opacity="1" stroke-miterlimit="10" d="M 235.492188 178.371094 L 235.492188 32.75 "/>
</g>
<g clip-path="url(#clip-14)">
<path fill="none" stroke-width="0.533489" stroke-linecap="butt" stroke-linejoin="round" stroke="rgb(94.117647%, 97.254902%, 100%)" stroke-opacity="1" stroke-miterlimit="10" d="M 264.21875 178.371094 L 264.21875 32.75 "/>
</g>
<g clip-path="url(#clip-15)">
<path fill="none" stroke-width="0.533489" stroke-linecap="butt" stroke-linejoin="round" stroke="rgb(94.117647%, 97.254902%, 100%)" stroke-opacity="1" stroke-miterlimit="10" d="M 292.949219 178.371094 L 292.949219 32.75 "/>
</g>
<g clip-path="url(#clip-16)">
<path fill="none" stroke-width="0.533489" stroke-linecap="butt" stroke-linejoin="round" stroke="rgb(94.117647%, 97.254902%, 100%)" stroke-opacity="1" stroke-miterlimit="10" d="M 321.679688 178.371094 L 321.679688 32.75 "/>
</g>
<g clip-path="url(#clip-17)">
<path fill="none" stroke-width="1.066978" stroke-linecap="butt" stroke-linejoin="round" stroke="rgb(100%, 100%, 100%)" stroke-opacity="1" stroke-miterlimit="10" d="M 214.808594 105.558594 L 329.726562 105.558594 "/>
</g>
<g clip-path="url(#clip-18)">
<path fill="none" stroke-width="1.066978" stroke-linecap="butt" stroke-linejoin="round" stroke="rgb(100%, 100%, 100%)" stroke-opacity="1" stroke-miterlimit="10" d="M 221.125 178.371094 L 221.125 32.75 "/>
</g>
<g clip-path="url(#clip-19)">
<path fill="none" stroke-width="1.066978" stroke-linecap="butt" stroke-linejoin="round" stroke="rgb(100%, 100%, 100%)" stroke-opacity="1" stroke-miterlimit="10" d="M 249.855469 178.371094 L 249.855469 32.75 "/>
</g>
<g clip-path="url(#clip-20)">
<path fill="none" stroke-width="1.066978" stroke-linecap="butt" stroke-linejoin="round" stroke="rgb(100%, 100%, 100%)" stroke-opacity="1" stroke-miterlimit="10" d="M 278.585938 178.371094 L 278.585938 32.75 "/>
</g>
<g clip-path="url(#clip-21)">
<path fill="none" stroke-width="1.066978" stroke-linecap="butt" stroke-linejoin="round" stroke="rgb(100%, 100%, 100%)" stroke-opacity="1" stroke-miterlimit="10" d="M 307.3125 178.371094 L 307.3125 32.75 "/>
</g>
<path fill="none" stroke-width="1.066978" stroke-linecap="butt" stroke-linejoin="round" stroke="rgb(97.254902%, 46.27451%, 42.745098%)" stroke-opacity="1" stroke-miterlimit="10" d="M 272.265625 105.558594 L 272.265625 105.558594 "/>
<path fill="none" stroke-width="1.066978" stroke-linecap="butt" stroke-linejoin="round" stroke="rgb(97.254902%, 46.27451%, 42.745098%)" stroke-opacity="1" stroke-miterlimit="10" d="M 272.265625 105.558594 L 272.265625 105.558594 "/>
<path fill="none" stroke-width="1.066978" stroke-linecap="butt" stroke-linejoin="round" stroke="rgb(97.254902%, 46.27451%, 42.745098%)" stroke-opacity="1" stroke-miterlimit="10" d="M 272.265625 105.558594 L 272.265625 105.558594 "/>
<path fill-rule="nonzero" fill="rgb(97.254902%, 46.27451%, 42.745098%)" fill-opacity="1" stroke-width="0.708661" stroke-linecap="round" stroke-linejoin="round" stroke="rgb(97.254902%, 46.27451%, 42.745098%)" stroke-opacity="1" stroke-miterlimit="10" d="M 275.824219 105.558594 C 275.824219 110.300781 268.710938 110.300781 268.710938 105.558594 C 268.710938 100.820312 275.824219 100.820312 275.824219 105.558594 "/>
<path fill="none" stroke-width="1.417323" stroke-linecap="round" stroke-linejoin="round" stroke="rgb(97.254902%, 46.27451%, 42.745098%)" stroke-opacity="1" stroke-miterlimit="10" d="M 268.359375 109.46875 L 276.175781 101.652344 "/>
<path fill="none" stroke-width="1.417323" stroke-linecap="round" stroke-linejoin="round" stroke="rgb(97.254902%, 46.27451%, 42.745098%)" stroke-opacity="1" stroke-miterlimit="10" d="M 268.359375 101.652344 L 276.175781 109.46875 "/>
<g clip-path="url(#clip-22)">
<path fill="none" stroke-width="1.066978" stroke-linecap="round" stroke-linejoin="round" stroke="rgb(0.392157%, 27.058824%, 30.980392%)" stroke-opacity="1" stroke-miterlimit="10" d="M 214.808594 178.371094 L 329.726562 178.371094 L 329.726562 32.75 L 214.808594 32.75 Z M 214.808594 178.371094 "/>
</g>
<g clip-path="url(#clip-23)">
<path fill-rule="nonzero" fill="rgb(100%, 100%, 100%)" fill-opacity="1" stroke-width="1.066978" stroke-linecap="round" stroke-linejoin="round" stroke="rgb(0%, 0%, 0%)" stroke-opacity="1" stroke-miterlimit="10" d="M 335.207031 178.371094 L 450.125 178.371094 L 450.125 32.75 L 335.207031 32.75 Z M 335.207031 178.371094 "/>
</g>
<g clip-path="url(#clip-24)">
<path fill="none" stroke-width="0.533489" stroke-linecap="butt" stroke-linejoin="round" stroke="rgb(94.117647%, 97.254902%, 100%)" stroke-opacity="1" stroke-miterlimit="10" d="M 339.621094 178.371094 L 339.621094 32.75 "/>
</g>
<g clip-path="url(#clip-25)">
<path fill="none" stroke-width="0.533489" stroke-linecap="butt" stroke-linejoin="round" stroke="rgb(94.117647%, 97.254902%, 100%)" stroke-opacity="1" stroke-miterlimit="10" d="M 368.351562 178.371094 L 368.351562 32.75 "/>
</g>
<g clip-path="url(#clip-26)">
<path fill="none" stroke-width="0.533489" stroke-linecap="butt" stroke-linejoin="round" stroke="rgb(94.117647%, 97.254902%, 100%)" stroke-opacity="1" stroke-miterlimit="10" d="M 397.082031 178.371094 L 397.082031 32.75 "/>
</g>
<g clip-path="url(#clip-27)">
<path fill="none" stroke-width="0.533489" stroke-linecap="butt" stroke-linejoin="round" stroke="rgb(94.117647%, 97.254902%, 100%)" stroke-opacity="1" stroke-miterlimit="10" d="M 425.8125 178.371094 L 425.8125 32.75 "/>
</g>
<g clip-path="url(#clip-28)">
<path fill="none" stroke-width="1.066978" stroke-linecap="butt" stroke-linejoin="round" stroke="rgb(100%, 100%, 100%)" stroke-opacity="1" stroke-miterlimit="10" d="M 335.207031 105.558594 L 450.125 105.558594 "/>
</g>
<g clip-path="url(#clip-29)">
<path fill="none" stroke-width="1.066978" stroke-linecap="butt" stroke-linejoin="round" stroke="rgb(100%, 100%, 100%)" stroke-opacity="1" stroke-miterlimit="10" d="M 353.988281 178.371094 L 353.988281 32.75 "/>
</g>
<g clip-path="url(#clip-30)">
<path fill="none" stroke-width="1.066978" stroke-linecap="butt" stroke-linejoin="round" stroke="rgb(100%, 100%, 100%)" stroke-opacity="1" stroke-miterlimit="10" d="M 382.71875 178.371094 L 382.71875 32.75 "/>
</g>
<g clip-path="url(#clip-31)">
<path fill="none" stroke-width="1.066978" stroke-linecap="butt" stroke-linejoin="round" stroke="rgb(100%, 100%, 100%)" stroke-opacity="1" stroke-miterlimit="10" d="M 411.445312 178.371094 L 411.445312 32.75 "/>
</g>
<g clip-path="url(#clip-32)">
<path fill="none" stroke-width="1.066978" stroke-linecap="butt" stroke-linejoin="round" stroke="rgb(100%, 100%, 100%)" stroke-opacity="1" stroke-miterlimit="10" d="M 440.175781 178.371094 L 440.175781 32.75 "/>
</g>
<path fill="none" stroke-width="1.066978" stroke-linecap="butt" stroke-linejoin="round" stroke="rgb(97.254902%, 46.27451%, 42.745098%)" stroke-opacity="1" stroke-miterlimit="10" d="M 392.664062 105.558594 L 392.664062 105.558594 "/>
<path fill="none" stroke-width="1.066978" stroke-linecap="butt" stroke-linejoin="round" stroke="rgb(97.254902%, 46.27451%, 42.745098%)" stroke-opacity="1" stroke-miterlimit="10" d="M 392.664062 105.558594 L 392.664062 105.558594 "/>
<path fill="none" stroke-width="1.066978" stroke-linecap="butt" stroke-linejoin="round" stroke="rgb(97.254902%, 46.27451%, 42.745098%)" stroke-opacity="1" stroke-miterlimit="10" d="M 392.664062 105.558594 L 392.664062 105.558594 "/>
<path fill-rule="nonzero" fill="rgb(97.254902%, 46.27451%, 42.745098%)" fill-opacity="1" stroke-width="0.708661" stroke-linecap="round" stroke-linejoin="round" stroke="rgb(97.254902%, 46.27451%, 42.745098%)" stroke-opacity="1" stroke-miterlimit="10" d="M 396.21875 105.558594 C 396.21875 110.300781 389.109375 110.300781 389.109375 105.558594 C 389.109375 100.820312 396.21875 100.820312 396.21875 105.558594 "/>
<path fill="none" stroke-width="1.417323" stroke-linecap="round" stroke-linejoin="round" stroke="rgb(97.254902%, 46.27451%, 42.745098%)" stroke-opacity="1" stroke-miterlimit="10" d="M 388.753906 109.46875 L 396.574219 101.652344 "/>
<path fill="none" stroke-width="1.417323" stroke-linecap="round" stroke-linejoin="round" stroke="rgb(97.254902%, 46.27451%, 42.745098%)" stroke-opacity="1" stroke-miterlimit="10" d="M 388.753906 101.652344 L 396.574219 109.46875 "/>
<g clip-path="url(#clip-33)">
<path fill="none" stroke-width="1.066978" stroke-linecap="round" stroke-linejoin="round" stroke="rgb(0.392157%, 27.058824%, 30.980392%)" stroke-opacity="1" stroke-miterlimit="10" d="M 335.207031 178.371094 L 450.125 178.371094 L 450.125 32.75 L 335.207031 32.75 Z M 335.207031 178.371094 "/>
</g>
<g clip-path="url(#clip-34)">
<path fill-rule="nonzero" fill="rgb(100%, 100%, 100%)" fill-opacity="1" stroke-width="1.066978" stroke-linecap="round" stroke-linejoin="round" stroke="rgb(0%, 0%, 0%)" stroke-opacity="1" stroke-miterlimit="10" d="M 455.601562 178.371094 L 570.519531 178.371094 L 570.519531 32.75 L 455.601562 32.75 Z M 455.601562 178.371094 "/>
</g>
<g clip-path="url(#clip-35)">
<path fill="none" stroke-width="0.533489" stroke-linecap="butt" stroke-linejoin="round" stroke="rgb(94.117647%, 97.254902%, 100%)" stroke-opacity="1" stroke-miterlimit="10" d="M 476.285156 178.371094 L 476.285156 32.75 "/>
</g>
<g clip-path="url(#clip-36)">
<path fill="none" stroke-width="0.533489" stroke-linecap="butt" stroke-linejoin="round" stroke="rgb(94.117647%, 97.254902%, 100%)" stroke-opacity="1" stroke-miterlimit="10" d="M 505.015625 178.371094 L 505.015625 32.75 "/>
</g>
<g clip-path="url(#clip-37)">
<path fill="none" stroke-width="0.533489" stroke-linecap="butt" stroke-linejoin="round" stroke="rgb(94.117647%, 97.254902%, 100%)" stroke-opacity="1" stroke-miterlimit="10" d="M 533.742188 178.371094 L 533.742188 32.75 "/>
</g>
<g clip-path="url(#clip-38)">
<path fill="none" stroke-width="0.533489" stroke-linecap="butt" stroke-linejoin="round" stroke="rgb(94.117647%, 97.254902%, 100%)" stroke-opacity="1" stroke-miterlimit="10" d="M 562.472656 178.371094 L 562.472656 32.75 "/>
</g>
<g clip-path="url(#clip-39)">
<path fill="none" stroke-width="1.066978" stroke-linecap="butt" stroke-linejoin="round" stroke="rgb(100%, 100%, 100%)" stroke-opacity="1" stroke-miterlimit="10" d="M 455.601562 105.558594 L 570.519531 105.558594 "/>
</g>
<g clip-path="url(#clip-40)">
<path fill="none" stroke-width="1.066978" stroke-linecap="butt" stroke-linejoin="round" stroke="rgb(100%, 100%, 100%)" stroke-opacity="1" stroke-miterlimit="10" d="M 461.921875 178.371094 L 461.921875 32.75 "/>
</g>
<g clip-path="url(#clip-41)">
<path fill="none" stroke-width="1.066978" stroke-linecap="butt" stroke-linejoin="round" stroke="rgb(100%, 100%, 100%)" stroke-opacity="1" stroke-miterlimit="10" d="M 490.648438 178.371094 L 490.648438 32.75 "/>
</g>
<g clip-path="url(#clip-42)">
<path fill="none" stroke-width="1.066978" stroke-linecap="butt" stroke-linejoin="round" stroke="rgb(100%, 100%, 100%)" stroke-opacity="1" stroke-miterlimit="10" d="M 519.378906 178.371094 L 519.378906 32.75 "/>
</g>
<g clip-path="url(#clip-43)">
<path fill="none" stroke-width="1.066978" stroke-linecap="butt" stroke-linejoin="round" stroke="rgb(100%, 100%, 100%)" stroke-opacity="1" stroke-miterlimit="10" d="M 548.109375 178.371094 L 548.109375 32.75 "/>
</g>
<path fill="none" stroke-width="1.066978" stroke-linecap="butt" stroke-linejoin="round" stroke="rgb(97.254902%, 46.27451%, 42.745098%)" stroke-opacity="1" stroke-miterlimit="10" d="M 513.0625 105.558594 L 513.0625 105.558594 "/>
<path fill="none" stroke-width="1.066978" stroke-linecap="butt" stroke-linejoin="round" stroke="rgb(97.254902%, 46.27451%, 42.745098%)" stroke-opacity="1" stroke-miterlimit="10" d="M 513.0625 105.558594 L 513.0625 105.558594 "/>
<path fill="none" stroke-width="1.066978" stroke-linecap="butt" stroke-linejoin="round" stroke="rgb(97.254902%, 46.27451%, 42.745098%)" stroke-opacity="1" stroke-miterlimit="10" d="M 513.0625 105.558594 L 513.0625 105.558594 "/>
<path fill-rule="nonzero" fill="rgb(97.254902%, 46.27451%, 42.745098%)" fill-opacity="1" stroke-width="0.708661" stroke-linecap="round" stroke-linejoin="round" stroke="rgb(97.254902%, 46.27451%, 42.745098%)" stroke-opacity="1" stroke-miterlimit="10" d="M 516.617188 105.558594 C 516.617188 110.300781 509.507812 110.300781 509.507812 105.558594 C 509.507812 100.820312 516.617188 100.820312 516.617188 105.558594 "/>
<path fill="none" stroke-width="1.417323" stroke-linecap="round" stroke-linejoin="round" stroke="rgb(97.254902%, 46.27451%, 42.745098%)" stroke-opacity="1" stroke-miterlimit="10" d="M 509.152344 109.46875 L 516.972656 101.652344 "/>
<path fill="none" stroke-width="1.417323" stroke-linecap="round" stroke-linejoin="round" stroke="rgb(97.254902%, 46.27451%, 42.745098%)" stroke-opacity="1" stroke-miterlimit="10" d="M 509.152344 101.652344 L 516.972656 109.46875 "/>
<g clip-path="url(#clip-44)">
<path fill="none" stroke-width="1.066978" stroke-linecap="round" stroke-linejoin="round" stroke="rgb(0.392157%, 27.058824%, 30.980392%)" stroke-opacity="1" stroke-miterlimit="10" d="M 455.601562 178.371094 L 570.519531 178.371094 L 570.519531 32.75 L 455.601562 32.75 Z M 455.601562 178.371094 "/>
</g>
<g clip-path="url(#clip-45)">
<path fill-rule="nonzero" fill="rgb(0.392157%, 27.058824%, 30.980392%)" fill-opacity="1" stroke-width="3.200935" stroke-linecap="round" stroke-linejoin="round" stroke="rgb(0.392157%, 27.058824%, 30.980392%)" stroke-opacity="1" stroke-miterlimit="10" d="M 94.410156 32.75 L 209.328125 32.75 L 209.328125 5.480469 L 94.410156 5.480469 Z M 94.410156 32.75 "/>
</g>
<g fill="rgb(100%, 100%, 100%)" fill-opacity="1">
<use xlink:href="#glyph-0-0" x="131.871094" y="22.02832"/>
<use xlink:href="#glyph-0-1" x="139.871094" y="22.02832"/>
<use xlink:href="#glyph-0-2" x="144.871094" y="22.02832"/>
<use xlink:href="#glyph-0-3" x="146.871094" y="22.02832"/>
<use xlink:href="#glyph-0-4" x="151.871094" y="22.02832"/>
<use xlink:href="#glyph-0-5" x="156.871094" y="22.02832"/>
<use xlink:href="#glyph-0-6" x="158.871094" y="22.02832"/>
<use xlink:href="#glyph-0-7" x="160.871094" y="22.02832"/>
<use xlink:href="#glyph-0-8" x="162.871094" y="22.02832"/>
<use xlink:href="#glyph-0-3" x="166.871094" y="22.02832"/>
</g>
<g clip-path="url(#clip-46)">
<path fill-rule="nonzero" fill="rgb(0.392157%, 27.058824%, 30.980392%)" fill-opacity="1" stroke-width="3.200935" stroke-linecap="round" stroke-linejoin="round" stroke="rgb(0.392157%, 27.058824%, 30.980392%)" stroke-opacity="1" stroke-miterlimit="10" d="M 214.808594 32.75 L 329.726562 32.75 L 329.726562 5.480469 L 214.808594 5.480469 Z M 214.808594 32.75 "/>
</g>
<g fill="rgb(100%, 100%, 100%)" fill-opacity="1">
<use xlink:href="#glyph-0-9" x="223.765625" y="17.27832"/>
<use xlink:href="#glyph-0-7" x="231.765625" y="17.27832"/>
<use xlink:href="#glyph-0-10" x="233.765625" y="17.27832"/>
<use xlink:href="#glyph-0-4" x="237.765625" y="17.27832"/>
<use xlink:href="#glyph-0-11" x="242.765625" y="17.27832"/>
<use xlink:href="#glyph-0-12" x="247.765625" y="17.27832"/>
<use xlink:href="#glyph-0-3" x="252.765625" y="17.27832"/>
<use xlink:href="#glyph-0-1" x="257.765625" y="17.27832"/>
<use xlink:href="#glyph-0-7" x="262.765625" y="17.27832"/>
<use xlink:href="#glyph-0-2" x="264.765625" y="17.27832"/>
<use xlink:href="#glyph-0-12" x="266.765625" y="17.27832"/>
<use xlink:href="#glyph-0-7" x="271.765625" y="17.27832"/>
<use xlink:href="#glyph-0-13" x="273.765625" y="17.27832"/>
<use xlink:href="#glyph-0-1" x="279.765625" y="17.27832"/>
<use xlink:href="#glyph-0-2" x="284.765625" y="17.27832"/>
<use xlink:href="#glyph-0-3" x="286.765625" y="17.27832"/>
<use xlink:href="#glyph-0-4" x="291.765625" y="17.27832"/>
<use xlink:href="#glyph-0-5" x="296.765625" y="17.27832"/>
<use xlink:href="#glyph-0-7" x="298.765625" y="17.27832"/>
<use xlink:href="#glyph-0-14" x="300.765625" y="17.27832"/>
<use xlink:href="#glyph-0-2" x="304.765625" y="17.27832"/>
<use xlink:href="#glyph-0-12" x="306.765625" y="17.27832"/>
<use xlink:href="#glyph-0-10" x="311.765625" y="17.27832"/>
<use xlink:href="#glyph-0-1" x="315.765625" y="17.27832"/>
</g>
<g fill="rgb(100%, 100%, 100%)" fill-opacity="1">
<use xlink:href="#glyph-0-15" x="245.765625" y="26.782227"/>
<use xlink:href="#glyph-0-10" x="252.765625" y="26.782227"/>
<use xlink:href="#glyph-0-5" x="256.765625" y="26.782227"/>
<use xlink:href="#glyph-0-16" x="258.765625" y="26.782227"/>
<use xlink:href="#glyph-0-17" x="263.765625" y="26.782227"/>
<use xlink:href="#glyph-0-1" x="268.765625" y="26.782227"/>
<use xlink:href="#glyph-0-18" x="273.765625" y="26.782227"/>
<use xlink:href="#glyph-0-7" x="276.765625" y="26.782227"/>
<use xlink:href="#glyph-0-19" x="278.765625" y="26.782227"/>
<use xlink:href="#glyph-0-20" x="283.765625" y="26.782227"/>
<use xlink:href="#glyph-0-19" x="288.765625" y="26.782227"/>
<use xlink:href="#glyph-0-21" x="293.765625" y="26.782227"/>
</g>
<g clip-path="url(#clip-47)">
<path fill-rule="nonzero" fill="rgb(0.392157%, 27.058824%, 30.980392%)" fill-opacity="1" stroke-width="3.200935" stroke-linecap="round" stroke-linejoin="round" stroke="rgb(0.392157%, 27.058824%, 30.980392%)" stroke-opacity="1" stroke-miterlimit="10" d="M 335.207031 32.75 L 450.125 32.75 L 450.125 5.480469 L 335.207031 5.480469 Z M 335.207031 32.75 "/>
</g>
<g fill="rgb(100%, 100%, 100%)" fill-opacity="1">
<use xlink:href="#glyph-0-22" x="385.164062" y="22.02832"/>
<use xlink:href="#glyph-0-23" x="391.164062" y="22.02832"/>
<use xlink:href="#glyph-0-24" x="398.164062" y="22.02832"/>
</g>
<g clip-path="url(#clip-48)">
<path fill-rule="nonzero" fill="rgb(0.392157%, 27.058824%, 30.980392%)" fill-opacity="1" stroke-width="3.200935" stroke-linecap="round" stroke-linejoin="round" stroke="rgb(0.392157%, 27.058824%, 30.980392%)" stroke-opacity="1" stroke-miterlimit="10" d="M 455.601562 32.75 L 570.519531 32.75 L 570.519531 5.480469 L 455.601562 5.480469 Z M 455.601562 32.75 "/>
</g>
<g fill="rgb(100%, 100%, 100%)" fill-opacity="1">
<use xlink:href="#glyph-0-9" x="469.5625" y="17.27832"/>
<use xlink:href="#glyph-0-7" x="477.5625" y="17.27832"/>
<use xlink:href="#glyph-0-10" x="479.5625" y="17.27832"/>
<use xlink:href="#glyph-0-4" x="483.5625" y="17.27832"/>
<use xlink:href="#glyph-0-11" x="488.5625" y="17.27832"/>
<use xlink:href="#glyph-0-12" x="493.5625" y="17.27832"/>
<use xlink:href="#glyph-0-3" x="498.5625" y="17.27832"/>
<use xlink:href="#glyph-0-1" x="503.5625" y="17.27832"/>
<use xlink:href="#glyph-0-7" x="508.5625" y="17.27832"/>
<use xlink:href="#glyph-0-2" x="510.5625" y="17.27832"/>
<use xlink:href="#glyph-0-12" x="512.5625" y="17.27832"/>
<use xlink:href="#glyph-0-7" x="517.5625" y="17.27832"/>
<use xlink:href="#glyph-0-22" x="519.5625" y="17.27832"/>
<use xlink:href="#glyph-0-23" x="525.5625" y="17.27832"/>
<use xlink:href="#glyph-0-24" x="532.5625" y="17.27832"/>
<use xlink:href="#glyph-0-7" x="534.5625" y="17.27832"/>
<use xlink:href="#glyph-0-14" x="536.5625" y="17.27832"/>
<use xlink:href="#glyph-0-2" x="540.5625" y="17.27832"/>
<use xlink:href="#glyph-0-12" x="542.5625" y="17.27832"/>
<use xlink:href="#glyph-0-10" x="547.5625" y="17.27832"/>
<use xlink:href="#glyph-0-1" x="551.5625" y="17.27832"/>
</g>
<g fill="rgb(100%, 100%, 100%)" fill-opacity="1">
<use xlink:href="#glyph-0-15" x="486.5625" y="26.782227"/>
<use xlink:href="#glyph-0-10" x="493.5625" y="26.782227"/>
<use xlink:href="#glyph-0-5" x="497.5625" y="26.782227"/>
<use xlink:href="#glyph-0-16" x="499.5625" y="26.782227"/>
<use xlink:href="#glyph-0-17" x="504.5625" y="26.782227"/>
<use xlink:href="#glyph-0-1" x="509.5625" y="26.782227"/>
<use xlink:href="#glyph-0-18" x="514.5625" y="26.782227"/>
<use xlink:href="#glyph-0-7" x="517.5625" y="26.782227"/>
<use xlink:href="#glyph-0-19" x="519.5625" y="26.782227"/>
<use xlink:href="#glyph-0-20" x="524.5625" y="26.782227"/>
<use xlink:href="#glyph-0-19" x="529.5625" y="26.782227"/>
<use xlink:href="#glyph-0-21" x="534.5625" y="26.782227"/>
</g>
<path fill="none" stroke-width="1.066978" stroke-linecap="butt" stroke-linejoin="round" stroke="rgb(0.392157%, 27.058824%, 30.980392%)" stroke-opacity="1" stroke-miterlimit="10" d="M 94.410156 181.109375 L 94.410156 178.371094 "/>
<path fill="none" stroke-width="1.066978" stroke-linecap="butt" stroke-linejoin="round" stroke="rgb(0.392157%, 27.058824%, 30.980392%)" stroke-opacity="1" stroke-miterlimit="10" d="M 123.140625 181.109375 L 123.140625 178.371094 "/>
<path fill="none" stroke-width="1.066978" stroke-linecap="butt" stroke-linejoin="round" stroke="rgb(0.392157%, 27.058824%, 30.980392%)" stroke-opacity="1" stroke-miterlimit="10" d="M 151.871094 181.109375 L 151.871094 178.371094 "/>
<path fill="none" stroke-width="1.066978" stroke-linecap="butt" stroke-linejoin="round" stroke="rgb(0.392157%, 27.058824%, 30.980392%)" stroke-opacity="1" stroke-miterlimit="10" d="M 180.597656 181.109375 L 180.597656 178.371094 "/>
<path fill="none" stroke-width="1.066978" stroke-linecap="butt" stroke-linejoin="round" stroke="rgb(0.392157%, 27.058824%, 30.980392%)" stroke-opacity="1" stroke-miterlimit="10" d="M 209.328125 181.109375 L 209.328125 178.371094 "/>
<g fill="rgb(0.392157%, 27.058824%, 30.980392%)" fill-opacity="1">
<use xlink:href="#glyph-1-0" x="77.910156" y="191.319336"/>
<use xlink:href="#glyph-1-1" x="83.910156" y="191.319336"/>
<use xlink:href="#glyph-1-2" x="89.910156" y="191.319336"/>
<use xlink:href="#glyph-1-3" x="92.910156" y="191.319336"/>
<use xlink:href="#glyph-1-4" x="98.910156" y="191.319336"/>
<use xlink:href="#glyph-1-3" x="104.910156" y="191.319336"/>
</g>
<g fill="rgb(0.392157%, 27.058824%, 30.980392%)" fill-opacity="1">
<use xlink:href="#glyph-1-0" x="106.640625" y="191.319336"/>
<use xlink:href="#glyph-1-1" x="112.640625" y="191.319336"/>
<use xlink:href="#glyph-1-2" x="118.640625" y="191.319336"/>
<use xlink:href="#glyph-1-3" x="121.640625" y="191.319336"/>
<use xlink:href="#glyph-1-0" x="127.640625" y="191.319336"/>
<use xlink:href="#glyph-1-4" x="133.640625" y="191.319336"/>
</g>
<g fill="rgb(0.392157%, 27.058824%, 30.980392%)" fill-opacity="1">
<use xlink:href="#glyph-1-0" x="135.371094" y="191.319336"/>
<use xlink:href="#glyph-1-1" x="141.371094" y="191.319336"/>
<use xlink:href="#glyph-1-2" x="147.371094" y="191.319336"/>
<use xlink:href="#glyph-1-5" x="150.371094" y="191.319336"/>
<use xlink:href="#glyph-1-3" x="156.371094" y="191.319336"/>
<use xlink:href="#glyph-1-3" x="162.371094" y="191.319336"/>
</g>
<g fill="rgb(0.392157%, 27.058824%, 30.980392%)" fill-opacity="1">
<use xlink:href="#glyph-1-0" x="164.097656" y="191.319336"/>
<use xlink:href="#glyph-1-1" x="170.097656" y="191.319336"/>
<use xlink:href="#glyph-1-2" x="176.097656" y="191.319336"/>
<use xlink:href="#glyph-1-5" x="179.097656" y="191.319336"/>
<use xlink:href="#glyph-1-6" x="185.097656" y="191.319336"/>
<use xlink:href="#glyph-1-4" x="191.097656" y="191.319336"/>
</g>
<g fill="rgb(0.392157%, 27.058824%, 30.980392%)" fill-opacity="1">
<use xlink:href="#glyph-1-0" x="192.828125" y="191.319336"/>
<use xlink:href="#glyph-1-1" x="198.828125" y="191.319336"/>
<use xlink:href="#glyph-1-2" x="204.828125" y="191.319336"/>
<use xlink:href="#glyph-1-5" x="207.828125" y="191.319336"/>
<use xlink:href="#glyph-1-4" x="213.828125" y="191.319336"/>
<use xlink:href="#glyph-1-3" x="219.828125" y="191.319336"/>
</g>
<path fill="none" stroke-width="1.066978" stroke-linecap="butt" stroke-linejoin="round" stroke="rgb(0.392157%, 27.058824%, 30.980392%)" stroke-opacity="1" stroke-miterlimit="10" d="M 221.125 181.109375 L 221.125 178.371094 "/>
<path fill="none" stroke-width="1.066978" stroke-linecap="butt" stroke-linejoin="round" stroke="rgb(0.392157%, 27.058824%, 30.980392%)" stroke-opacity="1" stroke-miterlimit="10" d="M 249.855469 181.109375 L 249.855469 178.371094 "/>
<path fill="none" stroke-width="1.066978" stroke-linecap="butt" stroke-linejoin="round" stroke="rgb(0.392157%, 27.058824%, 30.980392%)" stroke-opacity="1" stroke-miterlimit="10" d="M 278.585938 181.109375 L 278.585938 178.371094 "/>
<path fill="none" stroke-width="1.066978" stroke-linecap="butt" stroke-linejoin="round" stroke="rgb(0.392157%, 27.058824%, 30.980392%)" stroke-opacity="1" stroke-miterlimit="10" d="M 307.3125 181.109375 L 307.3125 178.371094 "/>
<g fill="rgb(0.392157%, 27.058824%, 30.980392%)" fill-opacity="1">
<use xlink:href="#glyph-1-7" x="202.625" y="191.319336"/>
<use xlink:href="#glyph-1-6" x="206.625" y="191.319336"/>
<use xlink:href="#glyph-1-1" x="212.625" y="191.319336"/>
<use xlink:href="#glyph-1-2" x="218.625" y="191.319336"/>
<use xlink:href="#glyph-1-4" x="221.625" y="191.319336"/>
<use xlink:href="#glyph-1-3" x="227.625" y="191.319336"/>
<use xlink:href="#glyph-1-3" x="233.625" y="191.319336"/>
</g>
<g fill="rgb(0.392157%, 27.058824%, 30.980392%)" fill-opacity="1">
<use xlink:href="#glyph-1-7" x="231.355469" y="191.319336"/>
<use xlink:href="#glyph-1-6" x="235.355469" y="191.319336"/>
<use xlink:href="#glyph-1-1" x="241.355469" y="191.319336"/>
<use xlink:href="#glyph-1-2" x="247.355469" y="191.319336"/>
<use xlink:href="#glyph-1-8" x="250.355469" y="191.319336"/>
<use xlink:href="#glyph-1-0" x="256.355469" y="191.319336"/>
<use xlink:href="#glyph-1-4" x="262.355469" y="191.319336"/>
</g>
<g fill="rgb(0.392157%, 27.058824%, 30.980392%)" fill-opacity="1">
<use xlink:href="#glyph-1-7" x="260.085938" y="191.319336"/>
<use xlink:href="#glyph-1-6" x="264.085938" y="191.319336"/>
<use xlink:href="#glyph-1-1" x="270.085938" y="191.319336"/>
<use xlink:href="#glyph-1-2" x="276.085938" y="191.319336"/>
<use xlink:href="#glyph-1-8" x="279.085938" y="191.319336"/>
<use xlink:href="#glyph-1-4" x="285.085938" y="191.319336"/>
<use xlink:href="#glyph-1-3" x="291.085938" y="191.319336"/>
</g>
<g fill="rgb(0.392157%, 27.058824%, 30.980392%)" fill-opacity="1">
<use xlink:href="#glyph-1-7" x="288.8125" y="191.319336"/>
<use xlink:href="#glyph-1-6" x="292.8125" y="191.319336"/>
<use xlink:href="#glyph-1-1" x="298.8125" y="191.319336"/>
<use xlink:href="#glyph-1-2" x="304.8125" y="191.319336"/>
<use xlink:href="#glyph-1-8" x="307.8125" y="191.319336"/>
<use xlink:href="#glyph-1-6" x="313.8125" y="191.319336"/>
<use xlink:href="#glyph-1-4" x="319.8125" y="191.319336"/>
</g>
<path fill="none" stroke-width="1.066978" stroke-linecap="butt" stroke-linejoin="round" stroke="rgb(0.392157%, 27.058824%, 30.980392%)" stroke-opacity="1" stroke-miterlimit="10" d="M 353.988281 181.109375 L 353.988281 178.371094 "/>
<path fill="none" stroke-width="1.066978" stroke-linecap="butt" stroke-linejoin="round" stroke="rgb(0.392157%, 27.058824%, 30.980392%)" stroke-opacity="1" stroke-miterlimit="10" d="M 382.71875 181.109375 L 382.71875 178.371094 "/>
<path fill="none" stroke-width="1.066978" stroke-linecap="butt" stroke-linejoin="round" stroke="rgb(0.392157%, 27.058824%, 30.980392%)" stroke-opacity="1" stroke-miterlimit="10" d="M 411.445312 181.109375 L 411.445312 178.371094 "/>
<path fill="none" stroke-width="1.066978" stroke-linecap="butt" stroke-linejoin="round" stroke="rgb(0.392157%, 27.058824%, 30.980392%)" stroke-opacity="1" stroke-miterlimit="10" d="M 440.175781 181.109375 L 440.175781 178.371094 "/>
<g fill="rgb(0.392157%, 27.058824%, 30.980392%)" fill-opacity="1">
<use xlink:href="#glyph-1-6" x="337.488281" y="191.319336"/>
<use xlink:href="#glyph-1-5" x="343.488281" y="191.319336"/>
<use xlink:href="#glyph-1-2" x="349.488281" y="191.319336"/>
<use xlink:href="#glyph-1-1" x="352.488281" y="191.319336"/>
<use xlink:href="#glyph-1-6" x="358.488281" y="191.319336"/>
<use xlink:href="#glyph-1-4" x="364.488281" y="191.319336"/>
</g>
<g fill="rgb(0.392157%, 27.058824%, 30.980392%)" fill-opacity="1">
<use xlink:href="#glyph-1-6" x="366.21875" y="191.319336"/>
<use xlink:href="#glyph-1-5" x="372.21875" y="191.319336"/>
<use xlink:href="#glyph-1-2" x="378.21875" y="191.319336"/>
<use xlink:href="#glyph-1-1" x="381.21875" y="191.319336"/>
<use xlink:href="#glyph-1-4" x="387.21875" y="191.319336"/>
<use xlink:href="#glyph-1-3" x="393.21875" y="191.319336"/>
</g>
<g fill="rgb(0.392157%, 27.058824%, 30.980392%)" fill-opacity="1">
<use xlink:href="#glyph-1-6" x="394.945312" y="191.319336"/>
<use xlink:href="#glyph-1-5" x="400.945312" y="191.319336"/>
<use xlink:href="#glyph-1-2" x="406.945312" y="191.319336"/>
<use xlink:href="#glyph-1-1" x="409.945312" y="191.319336"/>
<use xlink:href="#glyph-1-0" x="415.945312" y="191.319336"/>
<use xlink:href="#glyph-1-4" x="421.945312" y="191.319336"/>
</g>
<g fill="rgb(0.392157%, 27.058824%, 30.980392%)" fill-opacity="1">
<use xlink:href="#glyph-1-6" x="423.675781" y="191.319336"/>
<use xlink:href="#glyph-1-5" x="429.675781" y="191.319336"/>
<use xlink:href="#glyph-1-2" x="435.675781" y="191.319336"/>
<use xlink:href="#glyph-1-8" x="438.675781" y="191.319336"/>
<use xlink:href="#glyph-1-3" x="444.675781" y="191.319336"/>
<use xlink:href="#glyph-1-3" x="450.675781" y="191.319336"/>
</g>
<path fill="none" stroke-width="1.066978" stroke-linecap="butt" stroke-linejoin="round" stroke="rgb(0.392157%, 27.058824%, 30.980392%)" stroke-opacity="1" stroke-miterlimit="10" d="M 461.921875 181.109375 L 461.921875 178.371094 "/>
<path fill="none" stroke-width="1.066978" stroke-linecap="butt" stroke-linejoin="round" stroke="rgb(0.392157%, 27.058824%, 30.980392%)" stroke-opacity="1" stroke-miterlimit="10" d="M 490.648438 181.109375 L 490.648438 178.371094 "/>
<path fill="none" stroke-width="1.066978" stroke-linecap="butt" stroke-linejoin="round" stroke="rgb(0.392157%, 27.058824%, 30.980392%)" stroke-opacity="1" stroke-miterlimit="10" d="M 519.378906 181.109375 L 519.378906 178.371094 "/>
<path fill="none" stroke-width="1.066978" stroke-linecap="butt" stroke-linejoin="round" stroke="rgb(0.392157%, 27.058824%, 30.980392%)" stroke-opacity="1" stroke-miterlimit="10" d="M 548.109375 181.109375 L 548.109375 178.371094 "/>
<g fill="rgb(0.392157%, 27.058824%, 30.980392%)" fill-opacity="1">
<use xlink:href="#glyph-1-7" x="443.421875" y="191.319336"/>
<use xlink:href="#glyph-1-6" x="447.421875" y="191.319336"/>
<use xlink:href="#glyph-1-1" x="453.421875" y="191.319336"/>
<use xlink:href="#glyph-1-2" x="459.421875" y="191.319336"/>
<use xlink:href="#glyph-1-4" x="462.421875" y="191.319336"/>
<use xlink:href="#glyph-1-3" x="468.421875" y="191.319336"/>
<use xlink:href="#glyph-1-3" x="474.421875" y="191.319336"/>
</g>
<g fill="rgb(0.392157%, 27.058824%, 30.980392%)" fill-opacity="1">
<use xlink:href="#glyph-1-7" x="472.148438" y="191.319336"/>
<use xlink:href="#glyph-1-6" x="476.148438" y="191.319336"/>
<use xlink:href="#glyph-1-1" x="482.148438" y="191.319336"/>
<use xlink:href="#glyph-1-2" x="488.148438" y="191.319336"/>
<use xlink:href="#glyph-1-8" x="491.148438" y="191.319336"/>
<use xlink:href="#glyph-1-0" x="497.148438" y="191.319336"/>
<use xlink:href="#glyph-1-4" x="503.148438" y="191.319336"/>
</g>
<g fill="rgb(0.392157%, 27.058824%, 30.980392%)" fill-opacity="1">
<use xlink:href="#glyph-1-7" x="500.878906" y="191.319336"/>
<use xlink:href="#glyph-1-6" x="504.878906" y="191.319336"/>
<use xlink:href="#glyph-1-1" x="510.878906" y="191.319336"/>
<use xlink:href="#glyph-1-2" x="516.878906" y="191.319336"/>
<use xlink:href="#glyph-1-8" x="519.878906" y="191.319336"/>
<use xlink:href="#glyph-1-4" x="525.878906" y="191.319336"/>
<use xlink:href="#glyph-1-3" x="531.878906" y="191.319336"/>
</g>
<g fill="rgb(0.392157%, 27.058824%, 30.980392%)" fill-opacity="1">
<use xlink:href="#glyph-1-7" x="529.609375" y="191.319336"/>
<use xlink:href="#glyph-1-6" x="533.609375" y="191.319336"/>
<use xlink:href="#glyph-1-1" x="539.609375" y="191.319336"/>
<use xlink:href="#glyph-1-2" x="545.609375" y="191.319336"/>
<use xlink:href="#glyph-1-8" x="548.609375" y="191.319336"/>
<use xlink:href="#glyph-1-6" x="554.609375" y="191.319336"/>
<use xlink:href="#glyph-1-4" x="560.609375" y="191.319336"/>
</g>
<g fill="rgb(0.392157%, 27.058824%, 30.980392%)" fill-opacity="1">
<use xlink:href="#glyph-1-9" x="5.480469" y="109.077148"/>
<use xlink:href="#glyph-1-10" x="13.480469" y="109.077148"/>
<use xlink:href="#glyph-1-11" x="19.480469" y="109.077148"/>
<use xlink:href="#glyph-1-12" x="23.480469" y="109.077148"/>
<use xlink:href="#glyph-1-13" x="26.480469" y="109.077148"/>
<use xlink:href="#glyph-1-14" x="32.480469" y="109.077148"/>
<use xlink:href="#glyph-1-15" x="35.480469" y="109.077148"/>
<use xlink:href="#glyph-1-16" x="43.480469" y="109.077148"/>
<use xlink:href="#glyph-1-17" x="49.480469" y="109.077148"/>
<use xlink:href="#glyph-1-16" x="54.480469" y="109.077148"/>
<use xlink:href="#glyph-1-18" x="60.480469" y="109.077148"/>
<use xlink:href="#glyph-1-14" x="63.480469" y="109.077148"/>
<use xlink:href="#glyph-1-19" x="66.480469" y="109.077148"/>
<use xlink:href="#glyph-1-16" x="75.480469" y="109.077148"/>
<use xlink:href="#glyph-1-20" x="81.480469" y="109.077148"/>
<use xlink:href="#glyph-1-21" x="83.480469" y="109.077148"/>
</g>
<path fill="none" stroke-width="1.066978" stroke-linecap="butt" stroke-linejoin="round" stroke="rgb(0.392157%, 27.058824%, 30.980392%)" stroke-opacity="1" stroke-miterlimit="10" d="M 91.671875 105.558594 L 94.410156 105.558594 "/>
<g fill="rgb(0.392157%, 27.058824%, 30.980392%)" fill-opacity="1">
<use xlink:href="#glyph-1-22" x="318.964844" y="206.061523"/>
<use xlink:href="#glyph-1-16" x="325.964844" y="206.061523"/>
<use xlink:href="#glyph-1-20" x="331.964844" y="206.061523"/>
<use xlink:href="#glyph-1-23" x="333.964844" y="206.061523"/>
<use xlink:href="#glyph-1-21" x="339.964844" y="206.061523"/>
</g>
<g fill="rgb(0%, 0%, 0%)" fill-opacity="1">
<use xlink:href="#glyph-0-15" x="453.519531" y="221.93457"/>
<use xlink:href="#glyph-0-7" x="460.519531" y="221.93457"/>
<use xlink:href="#glyph-0-25" x="462.519531" y="221.93457"/>
<use xlink:href="#glyph-0-7" x="467.519531" y="221.93457"/>
<use xlink:href="#glyph-0-26" x="469.519531" y="221.93457"/>
<use xlink:href="#glyph-0-1" x="476.519531" y="221.93457"/>
<use xlink:href="#glyph-0-27" x="481.519531" y="221.93457"/>
<use xlink:href="#glyph-0-2" x="486.519531" y="221.93457"/>
<use xlink:href="#glyph-0-11" x="488.519531" y="221.93457"/>
<use xlink:href="#glyph-0-12" x="493.519531" y="221.93457"/>
<use xlink:href="#glyph-0-28" x="498.519531" y="221.93457"/>
<use xlink:href="#glyph-0-7" x="500.519531" y="221.93457"/>
<use xlink:href="#glyph-0-29" x="502.519531" y="221.93457"/>
<use xlink:href="#glyph-0-7" x="508.519531" y="221.93457"/>
<use xlink:href="#glyph-0-25" x="510.519531" y="221.93457"/>
<use xlink:href="#glyph-0-7" x="515.519531" y="221.93457"/>
<use xlink:href="#glyph-0-26" x="517.519531" y="221.93457"/>
<use xlink:href="#glyph-0-1" x="524.519531" y="221.93457"/>
<use xlink:href="#glyph-0-11" x="529.519531" y="221.93457"/>
<use xlink:href="#glyph-0-12" x="534.519531" y="221.93457"/>
<use xlink:href="#glyph-0-28" x="539.519531" y="221.93457"/>
<use xlink:href="#glyph-0-7" x="541.519531" y="221.93457"/>
<use xlink:href="#glyph-0-30" x="543.519531" y="221.93457"/>
<use xlink:href="#glyph-0-7" x="546.519531" y="221.93457"/>
<use xlink:href="#glyph-0-25" x="548.519531" y="221.93457"/>
<use xlink:href="#glyph-0-7" x="553.519531" y="221.93457"/>
<use xlink:href="#glyph-0-24" x="555.519531" y="221.93457"/>
<use xlink:href="#glyph-0-31" x="557.519531" y="221.93457"/>
<use xlink:href="#glyph-0-32" x="564.519531" y="221.93457"/>
</g>
</svg>
