<?xml version="1.0" encoding="UTF-8"?>
<svg xmlns="http://www.w3.org/2000/svg" xmlns:xlink="http://www.w3.org/1999/xlink" width="576" height="748" viewBox="0 0 576 748">
<defs>
<g>
<g id="glyph-0-0">
<path d="M 1.75 -6.03125 C 0.921875 -6.03125 0.25 -5.34375 0.25 -4.515625 C 0.25 -3.6875 0.921875 -3.015625 1.765625 -3.015625 C 2.578125 -3.015625 3.25 -3.6875 3.25 -4.5 C 3.25 -5.359375 2.59375 -6.03125 1.75 -6.03125 Z M 1.75 -5.40625 C 2.25 -5.40625 2.640625 -5.015625 2.640625 -4.515625 C 2.640625 -4.03125 2.25 -3.640625 1.765625 -3.640625 C 1.265625 -3.640625 0.859375 -4.03125 0.859375 -4.515625 C 0.859375 -5.015625 1.265625 -5.40625 1.75 -5.40625 Z M 5.359375 -6.234375 L 1.875 0.171875 L 2.46875 0.171875 L 5.9375 -6.234375 Z M 6.046875 -2.828125 C 5.21875 -2.828125 4.5625 -2.15625 4.5625 -1.34375 C 4.5625 -0.5 5.21875 0.171875 6.0625 0.171875 C 6.875 0.171875 7.5625 -0.5 7.5625 -1.3125 C 7.5625 -2.15625 6.890625 -2.828125 6.046875 -2.828125 Z M 6.046875 -2.21875 C 6.546875 -2.21875 6.953125 -1.828125 6.953125 -1.3125 C 6.953125 -0.84375 6.546875 -0.453125 6.0625 -0.453125 C 5.5625 -0.453125 5.15625 -0.84375 5.15625 -1.34375 C 5.15625 -1.828125 5.5625 -2.21875 6.046875 -2.21875 Z M 6.046875 -2.21875 "/>
</g>
<g id="glyph-0-1">
</g>
<g id="glyph-0-2">
<path d="M 4.140625 -3.0625 C 4.109375 -3.515625 4.015625 -3.796875 3.828125 -4.0625 C 3.515625 -4.484375 2.96875 -4.734375 2.328125 -4.734375 C 1.078125 -4.734375 0.265625 -3.75 0.265625 -2.21875 C 0.265625 -0.734375 1.0625 0.203125 2.3125 0.203125 C 3.40625 0.203125 4.109375 -0.453125 4.203125 -1.578125 L 3.453125 -1.578125 C 3.328125 -0.84375 2.953125 -0.46875 2.328125 -0.46875 C 1.515625 -0.46875 1.03125 -1.140625 1.03125 -2.21875 C 1.03125 -3.375 1.515625 -4.0625 2.3125 -4.0625 C 2.921875 -4.0625 3.3125 -3.703125 3.40625 -3.0625 Z M 4.140625 -3.0625 "/>
</g>
<g id="glyph-0-3">
<path d="M 0.609375 -6.40625 L 0.609375 0 L 1.34375 0 L 1.34375 -2.546875 C 1.34375 -3.484375 1.84375 -4.09375 2.59375 -4.09375 C 2.84375 -4.09375 3.0625 -4.03125 3.25 -3.890625 C 3.453125 -3.734375 3.546875 -3.515625 3.546875 -3.1875 L 3.546875 0 L 4.28125 0 L 4.28125 -3.484375 C 4.28125 -4.25 3.71875 -4.734375 2.828125 -4.734375 C 2.171875 -4.734375 1.78125 -4.546875 1.34375 -3.96875 L 1.34375 -6.40625 Z M 0.609375 -6.40625 "/>
</g>
<g id="glyph-0-4">
<path d="M 4.703125 -0.4375 C 4.625 -0.40625 4.59375 -0.40625 4.546875 -0.40625 C 4.296875 -0.40625 4.15625 -0.546875 4.15625 -0.78125 L 4.15625 -3.484375 C 4.15625 -4.296875 3.546875 -4.734375 2.421875 -4.734375 C 1.734375 -4.734375 1.203125 -4.546875 0.890625 -4.203125 C 0.671875 -3.96875 0.59375 -3.703125 0.578125 -3.25 L 1.3125 -3.25 C 1.375 -3.8125 1.703125 -4.0625 2.390625 -4.0625 C 3.0625 -4.0625 3.421875 -3.8125 3.421875 -3.375 L 3.421875 -3.1875 C 3.40625 -2.875 3.25 -2.75 2.65625 -2.671875 C 1.625 -2.546875 1.453125 -2.5 1.171875 -2.390625 C 0.640625 -2.15625 0.375 -1.765625 0.375 -1.15625 C 0.375 -0.328125 0.953125 0.203125 1.875 0.203125 C 2.46875 0.203125 2.921875 0 3.453125 -0.46875 C 3.5 0 3.734375 0.203125 4.203125 0.203125 C 4.359375 0.203125 4.453125 0.1875 4.703125 0.125 Z M 3.421875 -1.453125 C 3.421875 -1.203125 3.359375 -1.0625 3.125 -0.859375 C 2.828125 -0.578125 2.46875 -0.4375 2.046875 -0.4375 C 1.46875 -0.4375 1.140625 -0.71875 1.140625 -1.171875 C 1.140625 -1.65625 1.453125 -1.90625 2.25 -2.015625 C 3.03125 -2.125 3.171875 -2.15625 3.421875 -2.28125 Z M 3.421875 -1.453125 "/>
</g>
<g id="glyph-0-5">
<path d="M 0.609375 -4.609375 L 0.609375 0 L 1.359375 0 L 1.359375 -2.546875 C 1.359375 -3.484375 1.84375 -4.09375 2.609375 -4.09375 C 3.1875 -4.09375 3.546875 -3.75 3.546875 -3.1875 L 3.546875 0 L 4.28125 0 L 4.28125 -3.484375 C 4.28125 -4.25 3.71875 -4.734375 2.828125 -4.734375 C 2.140625 -4.734375 1.703125 -4.484375 1.296875 -3.828125 L 1.296875 -4.609375 Z M 0.609375 -4.609375 "/>
</g>
<g id="glyph-0-6">
<path d="M 3.546875 -4.609375 L 3.546875 -3.9375 C 3.1875 -4.5 2.78125 -4.734375 2.203125 -4.734375 C 1.078125 -4.734375 0.3125 -3.703125 0.3125 -2.21875 C 0.3125 -1.453125 0.5 -0.890625 0.890625 -0.421875 C 1.234375 -0.015625 1.671875 0.203125 2.140625 0.203125 C 2.703125 0.203125 3.09375 -0.046875 3.484375 -0.625 L 3.484375 -0.390625 C 3.484375 0.84375 3.140625 1.296875 2.21875 1.296875 C 1.59375 1.296875 1.28125 1.0625 1.203125 0.53125 L 0.453125 0.53125 C 0.53125 1.375 1.203125 1.921875 2.203125 1.921875 C 2.890625 1.921875 3.453125 1.703125 3.75 1.328125 C 4.09375 0.890625 4.234375 0.328125 4.234375 -0.75 L 4.234375 -4.609375 Z M 2.265625 -4.0625 C 3.046875 -4.0625 3.484375 -3.40625 3.484375 -2.25 C 3.484375 -1.125 3.03125 -0.46875 2.265625 -0.46875 C 1.515625 -0.46875 1.078125 -1.140625 1.078125 -2.265625 C 1.078125 -3.390625 1.515625 -4.0625 2.265625 -4.0625 Z M 2.265625 -4.0625 "/>
</g>
<g id="glyph-0-7">
<path d="M 4.515625 -2.0625 C 4.515625 -2.765625 4.453125 -3.1875 4.328125 -3.53125 C 4.03125 -4.28125 3.328125 -4.734375 2.46875 -4.734375 C 1.171875 -4.734375 0.359375 -3.765625 0.359375 -2.25 C 0.359375 -0.71875 1.140625 0.203125 2.453125 0.203125 C 3.5 0.203125 4.234375 -0.390625 4.421875 -1.40625 L 3.671875 -1.40625 C 3.46875 -0.796875 3.0625 -0.46875 2.46875 -0.46875 C 2 -0.46875 1.609375 -0.6875 1.359375 -1.078125 C 1.1875 -1.34375 1.125 -1.59375 1.125 -2.0625 Z M 1.140625 -2.65625 C 1.203125 -3.515625 1.71875 -4.0625 2.453125 -4.0625 C 3.203125 -4.0625 3.71875 -3.484375 3.71875 -2.65625 Z M 1.140625 -2.65625 "/>
</g>
<g id="glyph-0-8">
<path d="M 1.3125 -4.609375 L 0.59375 -4.609375 L 0.59375 0 L 1.3125 0 Z M 1.3125 -6.40625 L 0.578125 -6.40625 L 0.578125 -5.484375 L 1.3125 -5.484375 Z M 1.3125 -6.40625 "/>
</g>
<g id="glyph-0-9">
<path d="M 0.6875 0 L 3.59375 0 C 4.203125 0 4.640625 -0.171875 4.984375 -0.53125 C 5.296875 -0.875 5.484375 -1.328125 5.484375 -1.828125 C 5.484375 -2.609375 5.125 -3.0625 4.3125 -3.390625 C 4.90625 -3.65625 5.203125 -4.125 5.203125 -4.78125 C 5.203125 -5.265625 5.015625 -5.671875 4.6875 -5.96875 C 4.34375 -6.265625 3.921875 -6.40625 3.296875 -6.40625 L 0.6875 -6.40625 Z M 1.515625 -3.65625 L 1.515625 -5.6875 L 3.09375 -5.6875 C 3.546875 -5.6875 3.8125 -5.625 4.03125 -5.46875 C 4.25 -5.28125 4.375 -5.015625 4.375 -4.671875 C 4.375 -4.3125 4.25 -4.0625 4.03125 -3.875 C 3.8125 -3.71875 3.546875 -3.65625 3.09375 -3.65625 Z M 1.515625 -0.71875 L 1.515625 -2.921875 L 3.515625 -2.921875 C 4.234375 -2.921875 4.65625 -2.515625 4.65625 -1.828125 C 4.65625 -1.140625 4.234375 -0.71875 3.515625 -0.71875 Z M 1.515625 -0.71875 "/>
</g>
<g id="glyph-0-10">
<path d="M 4.109375 0 L 5.921875 -5.375 L 5.921875 0 L 6.6875 0 L 6.6875 -6.40625 L 5.5625 -6.40625 L 3.6875 -0.828125 L 1.796875 -6.40625 L 0.65625 -6.40625 L 0.65625 0 L 1.4375 0 L 1.4375 -5.375 L 3.25 0 Z M 4.109375 0 "/>
</g>
<g id="glyph-0-11">
<path d="M 1.703125 -6.40625 L 0.875 -6.40625 L 0.875 0 L 1.703125 0 Z M 1.703125 -6.40625 "/>
</g>
<g id="glyph-0-12">
<path d="M 3.859375 -3.328125 C 3.84375 -4.234375 3.25 -4.734375 2.1875 -4.734375 C 1.109375 -4.734375 0.40625 -4.1875 0.40625 -3.328125 C 0.40625 -2.609375 0.78125 -2.265625 1.875 -2 L 2.5625 -1.84375 C 3.0625 -1.71875 3.265625 -1.53125 3.265625 -1.203125 C 3.265625 -0.765625 2.84375 -0.46875 2.203125 -0.46875 C 1.796875 -0.46875 1.46875 -0.59375 1.28125 -0.78125 C 1.171875 -0.921875 1.125 -1.046875 1.078125 -1.375 L 0.296875 -1.375 C 0.328125 -0.3125 0.9375 0.203125 2.140625 0.203125 C 3.296875 0.203125 4.03125 -0.375 4.03125 -1.265625 C 4.03125 -1.9375 3.65625 -2.328125 2.734375 -2.546875 L 2.03125 -2.703125 C 1.4375 -2.84375 1.171875 -3.046875 1.171875 -3.375 C 1.171875 -3.796875 1.5625 -4.0625 2.15625 -4.0625 C 2.75 -4.0625 3.0625 -3.8125 3.078125 -3.328125 Z M 3.859375 -3.328125 "/>
</g>
<g id="glyph-0-13">
<path d="M 3.421875 -6.515625 C 1.578125 -6.515625 0.328125 -5.15625 0.328125 -3.15625 C 0.328125 -1.140625 1.578125 0.203125 3.4375 0.203125 C 4.21875 0.203125 4.90625 -0.03125 5.421875 -0.46875 C 6.109375 -1.0625 6.53125 -2.0625 6.53125 -3.109375 C 6.53125 -5.171875 5.296875 -6.515625 3.421875 -6.515625 Z M 3.421875 -5.796875 C 4.8125 -5.796875 5.703125 -4.75 5.703125 -3.125 C 5.703125 -1.578125 4.78125 -0.515625 3.4375 -0.515625 C 2.0625 -0.515625 1.15625 -1.578125 1.15625 -3.15625 C 1.15625 -4.734375 2.0625 -5.796875 3.421875 -5.796875 Z M 3.421875 -5.796875 "/>
</g>
<g id="glyph-0-14">
<path d="M 2.234375 -4.609375 L 1.484375 -4.609375 L 1.484375 -5.875 L 0.75 -5.875 L 0.75 -4.609375 L 0.125 -4.609375 L 0.125 -4.015625 L 0.75 -4.015625 L 0.75 -0.53125 C 0.75 -0.046875 1.0625 0.203125 1.640625 0.203125 C 1.828125 0.203125 1.984375 0.1875 2.234375 0.140625 L 2.234375 -0.46875 C 2.125 -0.453125 2.03125 -0.4375 1.875 -0.4375 C 1.5625 -0.4375 1.484375 -0.53125 1.484375 -0.859375 L 1.484375 -4.015625 L 2.234375 -4.015625 Z M 2.234375 -4.609375 "/>
</g>
<g id="glyph-0-15">
<path d="M 2.390625 -4.734375 C 1.09375 -4.734375 0.3125 -3.8125 0.3125 -2.265625 C 0.3125 -0.71875 1.09375 0.203125 2.40625 0.203125 C 3.703125 0.203125 4.484375 -0.71875 4.484375 -2.234375 C 4.484375 -3.828125 3.734375 -4.734375 2.390625 -4.734375 Z M 2.40625 -4.0625 C 3.234375 -4.0625 3.71875 -3.390625 3.71875 -2.25 C 3.71875 -1.15625 3.203125 -0.46875 2.40625 -0.46875 C 1.578125 -0.46875 1.078125 -1.15625 1.078125 -2.265625 C 1.078125 -3.390625 1.578125 -4.0625 2.40625 -4.0625 Z M 2.40625 -4.0625 "/>
</g>
<g id="glyph-0-16">
<path d="M 0.46875 -6.40625 L 0.46875 0 L 1.140625 0 L 1.140625 -0.59375 C 1.484375 -0.046875 1.953125 0.203125 2.59375 0.203125 C 3.8125 0.203125 4.59375 -0.796875 4.59375 -2.328125 C 4.59375 -3.8125 3.859375 -4.734375 2.625 -4.734375 C 2 -4.734375 1.546875 -4.5 1.203125 -3.984375 L 1.203125 -6.40625 Z M 2.484375 -4.0625 C 3.3125 -4.0625 3.828125 -3.34375 3.828125 -2.25 C 3.828125 -1.203125 3.296875 -0.484375 2.484375 -0.484375 C 1.703125 -0.484375 1.203125 -1.1875 1.203125 -2.265625 C 1.203125 -3.359375 1.703125 -4.0625 2.484375 -4.0625 Z M 2.484375 -4.0625 "/>
</g>
<g id="glyph-0-17">
<path d="M 0.609375 -4.609375 L 0.609375 0 L 1.34375 0 L 1.34375 -2.390625 C 1.359375 -3.5 1.8125 -4 2.828125 -3.96875 L 2.828125 -4.71875 C 2.703125 -4.734375 2.625 -4.734375 2.546875 -4.734375 C 2.0625 -4.734375 1.703125 -4.453125 1.28125 -3.78125 L 1.28125 -4.609375 Z M 0.609375 -4.609375 "/>
</g>
<g id="glyph-0-18">
<path d="M 4.453125 -0.765625 L 1.171875 -0.765625 C 1.25 -1.296875 1.53125 -1.625 2.296875 -2.09375 L 3.171875 -2.59375 C 4.046875 -3.0625 4.5 -3.71875 4.5 -4.5 C 4.5 -5.03125 4.28125 -5.53125 3.921875 -5.875 C 3.546875 -6.203125 3.09375 -6.359375 2.5 -6.359375 C 1.703125 -6.359375 1.125 -6.078125 0.78125 -5.53125 C 0.546875 -5.203125 0.453125 -4.796875 0.4375 -4.15625 L 1.21875 -4.15625 C 1.234375 -4.59375 1.296875 -4.84375 1.40625 -5.0625 C 1.59375 -5.4375 2 -5.6875 2.46875 -5.6875 C 3.171875 -5.6875 3.703125 -5.171875 3.703125 -4.484375 C 3.703125 -3.96875 3.40625 -3.53125 2.859375 -3.21875 L 2.046875 -2.75 C 0.75 -2 0.375 -1.40625 0.296875 -0.015625 L 4.453125 -0.015625 Z M 4.453125 -0.765625 "/>
</g>
<g id="glyph-0-19">
<path d="M 2.421875 -6.359375 C 1.84375 -6.359375 1.3125 -6.09375 0.984375 -5.671875 C 0.578125 -5.109375 0.375 -4.25 0.375 -3.078125 C 0.375 -0.9375 1.078125 0.203125 2.421875 0.203125 C 3.734375 0.203125 4.453125 -0.9375 4.453125 -3.03125 C 4.453125 -4.25 4.265625 -5.078125 3.859375 -5.671875 C 3.53125 -6.109375 3.015625 -6.359375 2.421875 -6.359375 Z M 2.421875 -5.671875 C 3.25 -5.671875 3.671875 -4.828125 3.671875 -3.09375 C 3.671875 -1.28125 3.265625 -0.4375 2.40625 -0.4375 C 1.578125 -0.4375 1.171875 -1.3125 1.171875 -3.0625 C 1.171875 -4.828125 1.578125 -5.671875 2.421875 -5.671875 Z M 2.421875 -5.671875 "/>
</g>
<g id="glyph-0-20">
<path d="M 1.9375 -2.921875 L 2.359375 -2.921875 C 3.203125 -2.921875 3.65625 -2.53125 3.65625 -1.765625 C 3.65625 -0.96875 3.171875 -0.484375 2.375 -0.484375 C 1.515625 -0.484375 1.109375 -0.921875 1.0625 -1.84375 L 0.28125 -1.84375 C 0.3125 -1.34375 0.40625 -1 0.546875 -0.71875 C 0.875 -0.109375 1.484375 0.203125 2.34375 0.203125 C 3.625 0.203125 4.453125 -0.578125 4.453125 -1.78125 C 4.453125 -2.59375 4.140625 -3.03125 3.390625 -3.296875 C 3.96875 -3.53125 4.265625 -3.96875 4.265625 -4.609375 C 4.265625 -5.703125 3.546875 -6.359375 2.359375 -6.359375 C 1.109375 -6.359375 0.4375 -5.65625 0.40625 -4.3125 L 1.1875 -4.3125 C 1.203125 -4.703125 1.234375 -4.921875 1.328125 -5.109375 C 1.5 -5.46875 1.890625 -5.6875 2.375 -5.6875 C 3.0625 -5.6875 3.46875 -5.265625 3.46875 -4.578125 C 3.46875 -4.140625 3.3125 -3.859375 2.96875 -3.71875 C 2.765625 -3.625 2.484375 -3.59375 1.9375 -3.578125 Z M 1.9375 -2.921875 "/>
</g>
<g id="glyph-0-21">
<path d="M 4.875 0 L 6.234375 -4.609375 L 5.40625 -4.609375 L 4.484375 -1.015625 L 3.578125 -4.609375 L 2.6875 -4.609375 L 1.796875 -1.015625 L 0.859375 -4.609375 L 0.046875 -4.609375 L 1.390625 0 L 2.21875 0 L 3.109375 -3.609375 L 4.03125 0 Z M 4.875 0 "/>
</g>
<g id="glyph-0-22">
<path d="M 6.546875 0 L 8.171875 -6.40625 L 7.25 -6.40625 L 6.078125 -1.203125 L 4.625 -6.40625 L 3.734375 -6.40625 L 2.3125 -1.203125 L 1.109375 -6.40625 L 0.1875 -6.40625 L 1.84375 0 L 2.734375 0 L 4.171875 -5.265625 L 5.640625 0 Z M 6.546875 0 "/>
</g>
<g id="glyph-0-23">
<path d="M 0.765625 -0.921875 L 0.765625 0 L 1.296875 0 L 1.296875 0.15625 C 1.296875 0.765625 1.171875 0.9375 0.765625 0.953125 L 0.765625 1.296875 C 1.34375 1.3125 1.6875 0.890625 1.6875 0.140625 L 1.6875 -0.921875 Z M 0.765625 -0.921875 "/>
</g>
<g id="glyph-0-24">
<path d="M 1.234375 -6.40625 L 0.515625 -6.40625 L 0.515625 0 L 1.234375 0 L 1.234375 -1.796875 L 1.953125 -2.5 L 3.515625 0 L 4.421875 0 L 2.53125 -3.015625 L 4.140625 -4.609375 L 3.1875 -4.609375 L 1.234375 -2.65625 Z M 1.234375 -6.40625 "/>
</g>
<g id="glyph-1-0">
<path d="M 1.984375 -5.390625 L 4.265625 -4.265625 L 5.078125 -5.078125 L -2.59375 -8.75 L -3.515625 -7.828125 L 0.125 -0.125 L 0.90625 -0.90625 L -0.203125 -3.203125 Z M 1.171875 -5.796875 L -0.640625 -3.984375 L -2.265625 -7.515625 Z M 1.171875 -5.796875 "/>
</g>
<g id="glyph-1-1">
<path d="M 3.75 -3.75 L -0.328125 -7.828125 L -0.96875 -7.1875 L 1.34375 -4.875 C 2.1875 -4.03125 2.265625 -3.046875 1.59375 -2.375 C 1.09375 -1.875 0.453125 -1.859375 -0.03125 -2.34375 L -2.921875 -5.234375 L -3.5625 -4.59375 L -0.40625 -1.4375 C 0.265625 -0.765625 1.1875 -0.84375 1.96875 -1.625 C 2.578125 -2.234375 2.75 -2.8125 2.609375 -3.734375 L 3.171875 -3.171875 Z M 3.75 -3.75 "/>
</g>
<g id="glyph-1-2">
<path d="M -0.9375 -7.21875 L -0.34375 -6.625 C -1.171875 -6.796875 -1.734375 -6.640625 -2.25 -6.125 C -3.21875 -5.15625 -2.984375 -3.546875 -1.6875 -2.25 C -1 -1.5625 -0.34375 -1.21875 0.40625 -1.15625 C 1.078125 -1.109375 1.65625 -1.3125 2.078125 -1.734375 C 2.5625 -2.21875 2.6875 -2.78125 2.53125 -3.625 L 2.734375 -3.421875 C 3.828125 -2.328125 3.921875 -1.609375 3.125 -0.8125 C 2.578125 -0.265625 2.046875 -0.203125 1.53125 -0.59375 L 0.875 0.0625 C 1.6875 0.75 2.75 0.625 3.640625 -0.265625 C 4.234375 -0.859375 4.546875 -1.546875 4.484375 -2.140625 C 4.421875 -2.828125 4.03125 -3.46875 3.078125 -4.421875 L -0.328125 -7.828125 Z M -1.578125 -5.609375 C -0.890625 -6.296875 0.0625 -6.09375 1.09375 -5.0625 C 2.078125 -4.078125 2.265625 -3.109375 1.59375 -2.4375 C 0.921875 -1.765625 -0.046875 -1.953125 -1.0625 -2.96875 C -2.046875 -3.953125 -2.25 -4.9375 -1.578125 -5.609375 Z M -1.578125 -5.609375 "/>
</g>
<g id="glyph-1-3">
</g>
<g id="glyph-1-4">
<path d="M -3.484375 -7.765625 C -4 -7.25 -4.234375 -6.546875 -4.125 -5.875 C -3.984375 -5.015625 -3.4375 -4.09375 -2.390625 -3.046875 C -0.5 -1.15625 1.140625 -0.796875 2.3125 -1.96875 C 3.46875 -3.125 3.109375 -4.765625 1.265625 -6.609375 C 0.171875 -7.703125 -0.734375 -8.265625 -1.59375 -8.40625 C -2.296875 -8.515625 -2.96875 -8.28125 -3.484375 -7.765625 Z M -2.875 -7.15625 C -2.140625 -7.890625 -1.015625 -7.515625 0.515625 -5.984375 C 2.109375 -4.390625 2.5 -3.28125 1.734375 -2.515625 C 1.015625 -1.796875 -0.140625 -2.203125 -1.6875 -3.75 C -3.234375 -5.296875 -3.609375 -6.421875 -2.875 -7.15625 Z M -2.875 -7.15625 "/>
</g>
<g id="glyph-1-5">
<path d="M 1.1875 -3.90625 L 2.546875 -2.546875 L 3.21875 -3.21875 L 1.859375 -4.578125 L 2.6875 -5.40625 L 2.0625 -6.03125 L 1.234375 -5.203125 L -2.40625 -8.84375 L -2.90625 -8.34375 L -1.875 -2.3125 L -1.140625 -1.578125 Z M 0.5625 -4.53125 L -1.171875 -2.796875 L -1.90625 -7 Z M 0.5625 -4.53125 "/>
</g>
<g id="glyph-1-6">
<path d="M -2 -6.03125 L 2.015625 -2.015625 L 2.703125 -2.703125 L -2.921875 -8.328125 L -3.375 -7.875 C -2.75 -6.78125 -2.78125 -6.5 -3.703125 -5.296875 L -3.21875 -4.8125 Z M -2 -6.03125 "/>
</g>
<g id="glyph-2-0">
<path d="M 5.484375 -5.890625 C 5.296875 -7.1875 4.453125 -7.953125 3.265625 -7.953125 C 2.40625 -7.953125 1.640625 -7.53125 1.171875 -6.8125 C 0.6875 -6.03125 0.46875 -5.078125 0.46875 -3.625 C 0.46875 -2.28125 0.65625 -1.4375 1.140625 -0.734375 C 1.546875 -0.09375 2.234375 0.25 3.09375 0.25 C 4.578125 0.25 5.640625 -0.859375 5.640625 -2.40625 C 5.640625 -3.875 4.65625 -4.90625 3.25 -4.90625 C 2.484375 -4.90625 1.875 -4.625 1.46875 -4.03125 C 1.46875 -6 2.09375 -7.09375 3.203125 -7.09375 C 3.890625 -7.09375 4.359375 -6.65625 4.515625 -5.890625 Z M 3.140625 -4.046875 C 4.0625 -4.046875 4.65625 -3.390625 4.65625 -2.328125 C 4.65625 -1.328125 4 -0.609375 3.109375 -0.609375 C 2.203125 -0.609375 1.515625 -1.359375 1.515625 -2.375 C 1.515625 -3.359375 2.171875 -4.046875 3.140625 -4.046875 Z M 3.140625 -4.046875 "/>
</g>
<g id="glyph-2-1">
<path d="M 3.03125 -7.953125 C 2.296875 -7.953125 1.640625 -7.625 1.234375 -7.078125 C 0.71875 -6.375 0.46875 -5.328125 0.46875 -3.84375 C 0.46875 -1.171875 1.359375 0.25 3.03125 0.25 C 4.671875 0.25 5.578125 -1.171875 5.578125 -3.78125 C 5.578125 -5.328125 5.328125 -6.359375 4.8125 -7.078125 C 4.40625 -7.640625 3.765625 -7.953125 3.03125 -7.953125 Z M 3.03125 -7.09375 C 4.0625 -7.09375 4.59375 -6.03125 4.59375 -3.875 C 4.59375 -1.609375 4.078125 -0.546875 3 -0.546875 C 1.984375 -0.546875 1.46875 -1.65625 1.46875 -3.84375 C 1.46875 -6.03125 1.984375 -7.09375 3.03125 -7.09375 Z M 3.03125 -7.09375 "/>
</g>
<g id="glyph-2-2">
<path d="M 5.234375 -7.796875 L 1.203125 -7.796875 L 0.625 -3.546875 L 1.515625 -3.546875 C 1.96875 -4.09375 2.34375 -4.28125 2.953125 -4.28125 C 4 -4.28125 4.65625 -3.5625 4.65625 -2.40625 C 4.65625 -1.28125 4 -0.609375 2.953125 -0.609375 C 2.09375 -0.609375 1.578125 -1.03125 1.359375 -1.90625 L 0.390625 -1.90625 C 0.515625 -1.28125 0.625 -0.96875 0.859375 -0.6875 C 1.296875 -0.09375 2.09375 0.25 2.96875 0.25 C 4.546875 0.25 5.640625 -0.890625 5.640625 -2.546875 C 5.640625 -4.078125 4.625 -5.140625 3.125 -5.140625 C 2.578125 -5.140625 2.140625 -5 1.6875 -4.65625 L 1.984375 -6.84375 L 5.234375 -6.84375 Z M 5.234375 -7.796875 "/>
</g>
<g id="glyph-2-3">
<path d="M 5.71875 -7.796875 L 0.5 -7.796875 L 0.5 -6.84375 L 4.71875 -6.84375 C 2.859375 -4.1875 2.09375 -2.5625 1.515625 0 L 2.546875 0 C 2.984375 -2.5 3.953125 -4.640625 5.71875 -6.984375 Z M 5.71875 -7.796875 "/>
</g>
<g id="glyph-2-4">
<path d="M 4.296875 -4.1875 C 5.109375 -4.6875 5.375 -5.078125 5.375 -5.828125 C 5.375 -7.078125 4.40625 -7.953125 3.03125 -7.953125 C 1.65625 -7.953125 0.6875 -7.078125 0.6875 -5.84375 C 0.6875 -5.078125 0.9375 -4.703125 1.734375 -4.1875 C 0.84375 -3.734375 0.40625 -3.09375 0.40625 -2.21875 C 0.40625 -0.765625 1.46875 0.25 3.03125 0.25 C 4.5625 0.25 5.640625 -0.765625 5.640625 -2.21875 C 5.640625 -3.09375 5.203125 -3.734375 4.296875 -4.1875 Z M 3.03125 -7.09375 C 3.84375 -7.09375 4.375 -6.59375 4.375 -5.8125 C 4.375 -5.0625 3.84375 -4.5625 3.03125 -4.5625 C 2.203125 -4.5625 1.671875 -5.0625 1.671875 -5.828125 C 1.671875 -6.59375 2.203125 -7.09375 3.03125 -7.09375 Z M 3.03125 -3.75 C 4 -3.75 4.65625 -3.109375 4.65625 -2.1875 C 4.65625 -1.234375 4 -0.609375 3 -0.609375 C 2.0625 -0.609375 1.390625 -1.25 1.390625 -2.171875 C 1.390625 -3.125 2.046875 -3.75 3.03125 -3.75 Z M 3.03125 -3.75 "/>
</g>
<g id="glyph-2-5">
<path d="M 3.125 -3.4375 L 0.5 -3.4375 L 0.5 -2.640625 L 3.125 -2.640625 Z M 3.125 -3.4375 "/>
</g>
<g id="glyph-2-6">
<path d="M 5.5625 -0.953125 L 1.46875 -0.953125 C 1.5625 -1.609375 1.90625 -2.03125 2.875 -2.625 L 3.96875 -3.234375 C 5.0625 -3.84375 5.625 -4.65625 5.625 -5.625 C 5.625 -6.296875 5.359375 -6.90625 4.890625 -7.34375 C 4.4375 -7.75 3.859375 -7.953125 3.125 -7.953125 C 2.140625 -7.953125 1.390625 -7.59375 0.96875 -6.921875 C 0.6875 -6.5 0.578125 -6 0.546875 -5.203125 L 1.515625 -5.203125 C 1.546875 -5.734375 1.609375 -6.0625 1.75 -6.328125 C 2 -6.8125 2.515625 -7.109375 3.09375 -7.109375 C 3.96875 -7.109375 4.625 -6.46875 4.625 -5.609375 C 4.625 -4.96875 4.265625 -4.421875 3.578125 -4.03125 L 2.5625 -3.4375 C 0.9375 -2.5 0.46875 -1.75 0.375 -0.015625 L 5.5625 -0.015625 Z M 5.5625 -0.953125 "/>
</g>
<g id="glyph-2-7">
<path d="M 2.09375 -1.140625 L 0.953125 -1.140625 L 0.953125 0 L 2.09375 0 Z M 2.09375 -1.140625 "/>
</g>
<g id="glyph-2-8">
<path d="M 2.84375 -5.671875 L 2.84375 0 L 3.8125 0 L 3.8125 -7.953125 L 3.171875 -7.953125 C 2.84375 -6.734375 2.625 -6.5625 1.125 -6.375 L 1.125 -5.671875 Z M 2.84375 -5.671875 "/>
</g>
<g id="glyph-2-9">
<path d="M 2.4375 -3.65625 L 2.953125 -3.65625 C 4.015625 -3.65625 4.578125 -3.171875 4.578125 -2.21875 C 4.578125 -1.203125 3.96875 -0.609375 2.96875 -0.609375 C 1.90625 -0.609375 1.390625 -1.140625 1.3125 -2.3125 L 0.359375 -2.3125 C 0.390625 -1.671875 0.5 -1.25 0.6875 -0.90625 C 1.09375 -0.125 1.859375 0.25 2.921875 0.25 C 4.53125 0.25 5.5625 -0.71875 5.5625 -2.21875 C 5.5625 -3.234375 5.1875 -3.78125 4.25 -4.109375 C 4.96875 -4.40625 5.328125 -4.96875 5.328125 -5.765625 C 5.328125 -7.125 4.4375 -7.953125 2.953125 -7.953125 C 1.390625 -7.953125 0.546875 -7.078125 0.515625 -5.390625 L 1.484375 -5.390625 C 1.5 -5.875 1.546875 -6.15625 1.65625 -6.390625 C 1.875 -6.84375 2.359375 -7.109375 2.96875 -7.109375 C 3.828125 -7.109375 4.34375 -6.59375 4.34375 -5.734375 C 4.34375 -5.171875 4.140625 -4.828125 3.71875 -4.640625 C 3.453125 -4.53125 3.109375 -4.484375 2.4375 -4.484375 Z M 2.4375 -3.65625 "/>
</g>
<g id="glyph-2-10">
<path d="M 3.59375 -1.921875 L 3.59375 0 L 4.5625 0 L 4.5625 -1.921875 L 5.71875 -1.921875 L 5.71875 -2.796875 L 4.5625 -2.796875 L 4.5625 -7.953125 L 3.84375 -7.953125 L 0.3125 -2.953125 L 0.3125 -1.921875 Z M 3.59375 -2.796875 L 1.15625 -2.796875 L 3.59375 -6.296875 Z M 3.59375 -2.796875 "/>
</g>
<g id="glyph-2-11">
<path d="M 0.984375 0 L 4.0625 0 C 6.09375 0 7.34375 -1.515625 7.34375 -4.015625 C 7.34375 -6.5 6.109375 -8.015625 4.0625 -8.015625 L 0.984375 -8.015625 Z M 2 -0.90625 L 2 -7.109375 L 3.890625 -7.109375 C 5.484375 -7.109375 6.3125 -6.046875 6.3125 -4 C 6.3125 -1.96875 5.484375 -0.90625 3.890625 -0.90625 Z M 2 -0.90625 "/>
</g>
<g id="glyph-2-12">
<path d="M 5.890625 -0.53125 C 5.78125 -0.515625 5.734375 -0.515625 5.6875 -0.515625 C 5.375 -0.515625 5.1875 -0.6875 5.1875 -0.96875 L 5.1875 -4.359375 C 5.1875 -5.375 4.4375 -5.921875 3.03125 -5.921875 C 2.171875 -5.921875 1.5 -5.6875 1.109375 -5.265625 C 0.84375 -4.96875 0.734375 -4.625 0.71875 -4.0625 L 1.640625 -4.0625 C 1.71875 -4.765625 2.140625 -5.078125 2.984375 -5.078125 C 3.828125 -5.078125 4.28125 -4.78125 4.28125 -4.21875 L 4.28125 -3.984375 C 4.265625 -3.59375 4.0625 -3.4375 3.328125 -3.34375 C 2.03125 -3.171875 1.828125 -3.140625 1.46875 -2.984375 C 0.796875 -2.703125 0.46875 -2.203125 0.46875 -1.453125 C 0.46875 -0.40625 1.1875 0.25 2.359375 0.25 C 3.078125 0.25 3.65625 0 4.3125 -0.59375 C 4.375 0 4.65625 0.25 5.265625 0.25 C 5.453125 0.25 5.578125 0.234375 5.890625 0.15625 Z M 4.28125 -1.8125 C 4.28125 -1.5 4.1875 -1.3125 3.921875 -1.0625 C 3.546875 -0.71875 3.09375 -0.546875 2.546875 -0.546875 C 1.84375 -0.546875 1.421875 -0.890625 1.421875 -1.46875 C 1.421875 -2.078125 1.8125 -2.390625 2.8125 -2.53125 C 3.78125 -2.65625 3.96875 -2.703125 4.28125 -2.84375 Z M 4.28125 -1.8125 "/>
</g>
<g id="glyph-2-13">
<path d="M 2.796875 -5.765625 L 1.84375 -5.765625 L 1.84375 -7.34375 L 0.9375 -7.34375 L 0.9375 -5.765625 L 0.15625 -5.765625 L 0.15625 -5.015625 L 0.9375 -5.015625 L 0.9375 -0.65625 C 0.9375 -0.0625 1.328125 0.25 2.046875 0.25 C 2.28125 0.25 2.484375 0.234375 2.796875 0.171875 L 2.796875 -0.59375 C 2.65625 -0.5625 2.546875 -0.546875 2.359375 -0.546875 C 1.953125 -0.546875 1.84375 -0.65625 1.84375 -1.0625 L 1.84375 -5.015625 L 2.796875 -5.015625 Z M 2.796875 -5.765625 "/>
</g>
<g id="glyph-2-14">
<path d="M 5.640625 -2.578125 C 5.640625 -3.453125 5.578125 -3.984375 5.40625 -4.40625 C 5.03125 -5.359375 4.15625 -5.921875 3.078125 -5.921875 C 1.46875 -5.921875 0.4375 -4.703125 0.4375 -2.8125 C 0.4375 -0.90625 1.4375 0.25 3.0625 0.25 C 4.375 0.25 5.296875 -0.5 5.515625 -1.75 L 4.59375 -1.75 C 4.34375 -0.984375 3.828125 -0.59375 3.09375 -0.59375 C 2.515625 -0.59375 2.015625 -0.859375 1.703125 -1.34375 C 1.484375 -1.671875 1.40625 -2 1.390625 -2.578125 Z M 1.421875 -3.328125 C 1.5 -4.390625 2.140625 -5.078125 3.0625 -5.078125 C 4 -5.078125 4.65625 -4.359375 4.65625 -3.328125 Z M 1.421875 -3.328125 "/>
</g>
<g id="glyph-2-15">
<path d="M 3.21875 -2.984375 L 5.140625 -5.765625 L 4.109375 -5.765625 L 2.734375 -3.671875 L 1.34375 -5.765625 L 0.296875 -5.765625 L 2.21875 -2.9375 L 0.1875 0 L 1.234375 0 L 2.6875 -2.21875 L 4.140625 0 L 5.203125 0 Z M 3.21875 -2.984375 "/>
</g>
<g id="glyph-2-16">
<path d="M 0.59375 2.390625 L 1.515625 2.390625 L 1.515625 -0.609375 C 2 -0.015625 2.546875 0.25 3.28125 0.25 C 4.78125 0.25 5.75 -0.953125 5.75 -2.78125 C 5.75 -4.71875 4.8125 -5.921875 3.28125 -5.921875 C 2.5 -5.921875 1.875 -5.578125 1.4375 -4.890625 L 1.4375 -5.765625 L 0.59375 -5.765625 Z M 3.125 -5.078125 C 4.140625 -5.078125 4.796875 -4.1875 4.796875 -2.8125 C 4.796875 -1.5 4.125 -0.609375 3.125 -0.609375 C 2.140625 -0.609375 1.515625 -1.484375 1.515625 -2.84375 C 1.515625 -4.1875 2.140625 -5.078125 3.125 -5.078125 Z M 3.125 -5.078125 "/>
</g>
<g id="glyph-2-17">
<path d="M 0.765625 -5.765625 L 0.765625 0 L 1.6875 0 L 1.6875 -2.984375 C 1.6875 -4.375 2.265625 -5 3.53125 -4.96875 L 3.53125 -5.890625 C 3.375 -5.921875 3.28125 -5.921875 3.171875 -5.921875 C 2.578125 -5.921875 2.140625 -5.578125 1.609375 -4.71875 L 1.609375 -5.765625 Z M 0.765625 -5.765625 "/>
</g>
<g id="glyph-2-18">
<path d="M 1.65625 -5.765625 L 0.734375 -5.765625 L 0.734375 0 L 1.65625 0 Z M 1.65625 -8.015625 L 0.71875 -8.015625 L 0.71875 -6.859375 L 1.65625 -6.859375 Z M 1.65625 -8.015625 "/>
</g>
<g id="glyph-2-19">
<path d="M 0.765625 -5.765625 L 0.765625 0 L 1.6875 0 L 1.6875 -3.171875 C 1.6875 -4.359375 2.3125 -5.125 3.25 -5.125 C 3.984375 -5.125 4.4375 -4.6875 4.4375 -4 L 4.4375 0 L 5.359375 0 L 5.359375 -4.359375 C 5.359375 -5.3125 4.640625 -5.921875 3.53125 -5.921875 C 2.671875 -5.921875 2.125 -5.59375 1.609375 -4.796875 L 1.609375 -5.765625 Z M 0.765625 -5.765625 "/>
</g>
<g id="glyph-2-20">
<path d="M 2.984375 -5.921875 C 1.359375 -5.921875 0.390625 -4.78125 0.390625 -2.84375 C 0.390625 -0.890625 1.359375 0.25 3 0.25 C 4.625 0.25 5.609375 -0.90625 5.609375 -2.796875 C 5.609375 -4.796875 4.65625 -5.921875 2.984375 -5.921875 Z M 3 -5.078125 C 4.03125 -5.078125 4.65625 -4.234375 4.65625 -2.8125 C 4.65625 -1.4375 4.015625 -0.59375 3 -0.59375 C 1.984375 -0.59375 1.359375 -1.4375 1.359375 -2.84375 C 1.359375 -4.234375 1.984375 -5.078125 3 -5.078125 Z M 3 -5.078125 "/>
</g>
<g id="glyph-2-21">
<path d="M 1.671875 -8.015625 L 0.75 -8.015625 L 0.75 0 L 1.671875 0 Z M 1.671875 -8.015625 "/>
</g>
<g id="glyph-2-22">
</g>
<g id="glyph-2-23">
<path d="M 4.8125 -4.15625 C 4.8125 -5.296875 4.0625 -5.921875 2.734375 -5.921875 C 1.390625 -5.921875 0.515625 -5.234375 0.515625 -4.171875 C 0.515625 -3.265625 0.984375 -2.84375 2.34375 -2.515625 L 3.203125 -2.296875 C 3.84375 -2.140625 4.09375 -1.90625 4.09375 -1.5 C 4.09375 -0.953125 3.546875 -0.59375 2.75 -0.59375 C 2.25 -0.59375 1.84375 -0.734375 1.609375 -0.984375 C 1.46875 -1.140625 1.390625 -1.3125 1.34375 -1.71875 L 0.375 -1.71875 C 0.421875 -0.390625 1.171875 0.25 2.671875 0.25 C 4.125 0.25 5.046875 -0.46875 5.046875 -1.578125 C 5.046875 -2.4375 4.5625 -2.90625 3.421875 -3.171875 L 2.546875 -3.390625 C 1.796875 -3.5625 1.46875 -3.8125 1.46875 -4.21875 C 1.46875 -4.75 1.953125 -5.078125 2.6875 -5.078125 C 3.4375 -5.078125 3.828125 -4.765625 3.84375 -4.15625 Z M 4.8125 -4.15625 "/>
</g>
<g id="glyph-2-24">
<path d="M 2.859375 -5.765625 L 1.90625 -5.765625 L 1.90625 -6.671875 C 1.90625 -7.046875 2.109375 -7.25 2.546875 -7.25 C 2.625 -7.25 2.65625 -7.25 2.859375 -7.234375 L 2.859375 -8 C 2.65625 -8.046875 2.53125 -8.046875 2.34375 -8.046875 C 1.5 -8.046875 0.984375 -7.5625 0.984375 -6.75 L 0.984375 -5.765625 L 0.21875 -5.765625 L 0.21875 -5.015625 L 0.984375 -5.015625 L 0.984375 0 L 1.90625 0 L 1.90625 -5.015625 L 2.859375 -5.015625 Z M 5.8125 -5.765625 L 4.859375 -5.765625 L 4.859375 -6.671875 C 4.859375 -7.046875 5.078125 -7.25 5.5 -7.25 C 5.578125 -7.25 5.609375 -7.25 5.8125 -7.234375 L 5.8125 -8 C 5.609375 -8.046875 5.484375 -8.046875 5.296875 -8.046875 C 4.453125 -8.046875 3.953125 -7.5625 3.953125 -6.75 L 3.953125 -5.765625 L 3.171875 -5.765625 L 3.171875 -5.015625 L 3.953125 -5.015625 L 3.953125 0 L 4.859375 0 L 4.859375 -5.015625 L 5.8125 -5.015625 Z M 5.8125 -5.765625 "/>
</g>
<g id="glyph-2-25">
<path d="M 0.765625 -5.765625 L 0.765625 0 L 1.6875 0 L 1.6875 -3.625 C 1.6875 -4.453125 2.296875 -5.125 3.046875 -5.125 C 3.734375 -5.125 4.109375 -4.703125 4.109375 -3.96875 L 4.109375 0 L 5.03125 0 L 5.03125 -3.625 C 5.03125 -4.453125 5.640625 -5.125 6.390625 -5.125 C 7.0625 -5.125 7.453125 -4.703125 7.453125 -3.96875 L 7.453125 0 L 8.375 0 L 8.375 -4.328125 C 8.375 -5.359375 7.78125 -5.921875 6.703125 -5.921875 C 5.9375 -5.921875 5.484375 -5.703125 4.9375 -5.046875 C 4.59375 -5.671875 4.140625 -5.921875 3.390625 -5.921875 C 2.625 -5.921875 2.09375 -5.640625 1.609375 -4.953125 L 1.609375 -5.765625 Z M 0.765625 -5.765625 "/>
</g>
<g id="glyph-2-26">
<path d="M 0.59375 -8.015625 L 0.59375 0 L 1.421875 0 L 1.421875 -0.734375 C 1.859375 -0.0625 2.4375 0.25 3.25 0.25 C 4.765625 0.25 5.75 -0.984375 5.75 -2.90625 C 5.75 -4.78125 4.8125 -5.921875 3.28125 -5.921875 C 2.5 -5.921875 1.9375 -5.625 1.5 -4.984375 L 1.5 -8.015625 Z M 3.109375 -5.078125 C 4.140625 -5.078125 4.796875 -4.1875 4.796875 -2.8125 C 4.796875 -1.5 4.109375 -0.609375 3.109375 -0.609375 C 2.140625 -0.609375 1.5 -1.484375 1.5 -2.84375 C 1.5 -4.1875 2.140625 -5.078125 3.109375 -5.078125 Z M 3.109375 -5.078125 "/>
</g>
<g id="glyph-2-27">
<path d="M 5.1875 -3.828125 C 5.140625 -4.390625 5.015625 -4.75 4.796875 -5.078125 C 4.40625 -5.609375 3.703125 -5.921875 2.90625 -5.921875 C 1.34375 -5.921875 0.34375 -4.703125 0.34375 -2.78125 C 0.34375 -0.921875 1.328125 0.25 2.890625 0.25 C 4.265625 0.25 5.140625 -0.578125 5.25 -1.984375 L 4.328125 -1.984375 C 4.171875 -1.0625 3.703125 -0.59375 2.921875 -0.59375 C 1.90625 -0.59375 1.296875 -1.421875 1.296875 -2.78125 C 1.296875 -4.21875 1.890625 -5.078125 2.890625 -5.078125 C 3.65625 -5.078125 4.140625 -4.625 4.25 -3.828125 Z M 5.1875 -3.828125 "/>
</g>
<g id="glyph-2-28">
<path d="M 5.296875 0 L 5.296875 -5.765625 L 4.390625 -5.765625 L 4.390625 -2.5 C 4.390625 -1.3125 3.765625 -0.546875 2.8125 -0.546875 C 2.09375 -0.546875 1.625 -0.984375 1.625 -1.6875 L 1.625 -5.765625 L 0.71875 -5.765625 L 0.71875 -1.3125 C 0.71875 -0.359375 1.4375 0.25 2.546875 0.25 C 3.40625 0.25 3.9375 -0.046875 4.484375 -0.796875 L 4.484375 0 Z M 5.296875 0 "/>
</g>
<g id="glyph-3-0">
<path d="M 0 -4.3125 L -8.015625 -7.09375 L -8.015625 -6 L -1.234375 -3.78125 L -8.015625 -1.4375 L -8.015625 -0.328125 L 0 -3.21875 Z M 0 -4.3125 "/>
</g>
<g id="glyph-3-1">
<path d="M -0.53125 -5.890625 C -0.515625 -5.78125 -0.515625 -5.734375 -0.515625 -5.6875 C -0.515625 -5.375 -0.6875 -5.1875 -0.96875 -5.1875 L -4.359375 -5.1875 C -5.375 -5.1875 -5.921875 -4.4375 -5.921875 -3.03125 C -5.921875 -2.171875 -5.6875 -1.5 -5.265625 -1.109375 C -4.96875 -0.84375 -4.625 -0.734375 -4.0625 -0.71875 L -4.0625 -1.640625 C -4.765625 -1.71875 -5.078125 -2.140625 -5.078125 -2.984375 C -5.078125 -3.828125 -4.78125 -4.28125 -4.21875 -4.28125 L -3.984375 -4.28125 C -3.59375 -4.265625 -3.4375 -4.0625 -3.34375 -3.328125 C -3.171875 -2.03125 -3.140625 -1.828125 -2.984375 -1.46875 C -2.703125 -0.796875 -2.203125 -0.46875 -1.453125 -0.46875 C -0.40625 -0.46875 0.25 -1.1875 0.25 -2.359375 C 0.25 -3.078125 0 -3.65625 -0.59375 -4.3125 C 0 -4.375 0.25 -4.65625 0.25 -5.265625 C 0.25 -5.453125 0.234375 -5.578125 0.15625 -5.890625 Z M -1.8125 -4.28125 C -1.5 -4.28125 -1.3125 -4.1875 -1.0625 -3.921875 C -0.71875 -3.546875 -0.546875 -3.09375 -0.546875 -2.546875 C -0.546875 -1.84375 -0.890625 -1.421875 -1.46875 -1.421875 C -2.078125 -1.421875 -2.390625 -1.8125 -2.53125 -2.8125 C -2.65625 -3.78125 -2.703125 -3.96875 -2.84375 -4.28125 Z M -1.8125 -4.28125 "/>
</g>
<g id="glyph-3-2">
<path d="M -8.015625 -1.671875 L -8.015625 -0.75 L 0 -0.75 L 0 -1.671875 Z M -8.015625 -1.671875 "/>
</g>
<g id="glyph-3-3">
<path d="M 0 -5.296875 L -5.765625 -5.296875 L -5.765625 -4.390625 L -2.5 -4.390625 C -1.3125 -4.390625 -0.546875 -3.765625 -0.546875 -2.8125 C -0.546875 -2.09375 -0.984375 -1.625 -1.6875 -1.625 L -5.765625 -1.625 L -5.765625 -0.71875 L -1.3125 -0.71875 C -0.359375 -0.71875 0.25 -1.4375 0.25 -2.546875 C 0.25 -3.40625 -0.046875 -3.9375 -0.796875 -4.484375 L 0 -4.484375 Z M 0 -5.296875 "/>
</g>
<g id="glyph-3-4">
<path d="M -2.578125 -5.640625 C -3.453125 -5.640625 -3.984375 -5.578125 -4.40625 -5.40625 C -5.359375 -5.03125 -5.921875 -4.15625 -5.921875 -3.078125 C -5.921875 -1.46875 -4.703125 -0.4375 -2.8125 -0.4375 C -0.90625 -0.4375 0.25 -1.4375 0.25 -3.0625 C 0.25 -4.375 -0.5 -5.296875 -1.75 -5.515625 L -1.75 -4.59375 C -0.984375 -4.34375 -0.59375 -3.828125 -0.59375 -3.09375 C -0.59375 -2.515625 -0.859375 -2.015625 -1.34375 -1.703125 C -1.671875 -1.484375 -2 -1.40625 -2.578125 -1.390625 Z M -3.328125 -1.421875 C -4.390625 -1.5 -5.078125 -2.140625 -5.078125 -3.0625 C -5.078125 -4 -4.359375 -4.65625 -3.328125 -4.65625 Z M -3.328125 -1.421875 "/>
</g>
<g id="glyph-4-0">
<path d="M 0.6875 -5.9375 L 0.6875 0 L 2.234375 0 L 2.234375 -3.15625 C 2.234375 -4.0625 2.6875 -4.515625 3.59375 -4.515625 C 3.75 -4.515625 3.859375 -4.5 4.0625 -4.46875 L 4.0625 -6.03125 C 3.984375 -6.03125 3.953125 -6.03125 3.890625 -6.03125 C 3.171875 -6.03125 2.578125 -5.578125 2.234375 -4.78125 L 2.234375 -5.9375 Z M 0.6875 -5.9375 "/>
</g>
<g id="glyph-4-1">
<path d="M 3.3125 -6.03125 C 1.5 -6.03125 0.390625 -4.84375 0.390625 -2.890625 C 0.390625 -0.9375 1.5 0.25 3.328125 0.25 C 5.140625 0.25 6.265625 -0.9375 6.265625 -2.84375 C 6.265625 -4.859375 5.171875 -6.03125 3.3125 -6.03125 Z M 3.328125 -4.796875 C 4.171875 -4.796875 4.71875 -4.03125 4.71875 -2.875 C 4.71875 -1.765625 4.140625 -0.984375 3.328125 -0.984375 C 2.484375 -0.984375 1.921875 -1.75 1.921875 -2.890625 C 1.921875 -4.03125 2.484375 -4.796875 3.328125 -4.796875 Z M 3.328125 -4.796875 "/>
</g>
<g id="glyph-4-2">
<path d="M 2.28125 -8.015625 L 0.734375 -8.015625 L 0.734375 0 L 2.28125 0 Z M 2.28125 -8.015625 "/>
</g>
<g id="glyph-4-3">
<path d="M 5.765625 -2.484375 C 5.78125 -2.625 5.78125 -2.671875 5.78125 -2.75 C 5.78125 -3.34375 5.6875 -3.890625 5.546875 -4.3125 C 5.140625 -5.390625 4.1875 -6.03125 2.984375 -6.03125 C 1.28125 -6.03125 0.234375 -4.8125 0.234375 -2.8125 C 0.234375 -0.90625 1.28125 0.25 2.953125 0.25 C 4.296875 0.25 5.375 -0.5 5.703125 -1.671875 L 4.1875 -1.671875 C 4 -1.203125 3.578125 -0.921875 3.015625 -0.921875 C 2.578125 -0.921875 2.21875 -1.109375 2 -1.4375 C 1.859375 -1.65625 1.796875 -1.921875 1.78125 -2.484375 Z M 1.796875 -3.515625 C 1.90625 -4.421875 2.28125 -4.859375 2.96875 -4.859375 C 3.671875 -4.859375 4.09375 -4.390625 4.171875 -3.515625 Z M 1.796875 -3.515625 "/>
</g>
</g>
<clipPath id="clip-0">
<path clip-rule="nonzero" d="M 50.152344 23.246094 L 570.523438 23.246094 L 570.523438 165.070312 L 50.152344 165.070312 Z M 50.152344 23.246094 "/>
</clipPath>
<clipPath id="clip-1">
<path clip-rule="nonzero" d="M 50.152344 141 L 570.523438 141 L 570.523438 142 L 50.152344 142 Z M 50.152344 141 "/>
</clipPath>
<clipPath id="clip-2">
<path clip-rule="nonzero" d="M 50.152344 111 L 570.523438 111 L 570.523438 113 L 50.152344 113 Z M 50.152344 111 "/>
</clipPath>
<clipPath id="clip-3">
<path clip-rule="nonzero" d="M 50.152344 82 L 570.523438 82 L 570.523438 83 L 50.152344 83 Z M 50.152344 82 "/>
</clipPath>
<clipPath id="clip-4">
<path clip-rule="nonzero" d="M 50.152344 52 L 570.523438 52 L 570.523438 54 L 50.152344 54 Z M 50.152344 52 "/>
</clipPath>
<clipPath id="clip-5">
<path clip-rule="nonzero" d="M 50.152344 23.246094 L 570.523438 23.246094 L 570.523438 25 L 50.152344 25 Z M 50.152344 23.246094 "/>
</clipPath>
<clipPath id="clip-6">
<path clip-rule="nonzero" d="M 115 23.246094 L 116 23.246094 L 116 165.070312 L 115 165.070312 Z M 115 23.246094 "/>
</clipPath>
<clipPath id="clip-7">
<path clip-rule="nonzero" d="M 310 23.246094 L 311 23.246094 L 311 165.070312 L 310 165.070312 Z M 310 23.246094 "/>
</clipPath>
<clipPath id="clip-8">
<path clip-rule="nonzero" d="M 504 23.246094 L 506 23.246094 L 506 165.070312 L 504 165.070312 Z M 504 23.246094 "/>
</clipPath>
<clipPath id="clip-9">
<path clip-rule="nonzero" d="M 50.152344 155 L 570.523438 155 L 570.523438 157 L 50.152344 157 Z M 50.152344 155 "/>
</clipPath>
<clipPath id="clip-10">
<path clip-rule="nonzero" d="M 50.152344 126 L 570.523438 126 L 570.523438 128 L 50.152344 128 Z M 50.152344 126 "/>
</clipPath>
<clipPath id="clip-11">
<path clip-rule="nonzero" d="M 50.152344 96 L 570.523438 96 L 570.523438 98 L 50.152344 98 Z M 50.152344 96 "/>
</clipPath>
<clipPath id="clip-12">
<path clip-rule="nonzero" d="M 50.152344 67 L 570.523438 67 L 570.523438 69 L 50.152344 69 Z M 50.152344 67 "/>
</clipPath>
<clipPath id="clip-13">
<path clip-rule="nonzero" d="M 50.152344 37 L 570.523438 37 L 570.523438 40 L 50.152344 40 Z M 50.152344 37 "/>
</clipPath>
<clipPath id="clip-14">
<path clip-rule="nonzero" d="M 212 23.246094 L 214 23.246094 L 214 165.070312 L 212 165.070312 Z M 212 23.246094 "/>
</clipPath>
<clipPath id="clip-15">
<path clip-rule="nonzero" d="M 407 23.246094 L 409 23.246094 L 409 165.070312 L 407 165.070312 Z M 407 23.246094 "/>
</clipPath>
<clipPath id="clip-16">
<path clip-rule="nonzero" d="M 50.152344 23.246094 L 570.523438 23.246094 L 570.523438 165.070312 L 50.152344 165.070312 Z M 50.152344 23.246094 "/>
</clipPath>
<clipPath id="clip-17">
<path clip-rule="nonzero" d="M 50.152344 188.320312 L 570.523438 188.320312 L 570.523438 330.144531 L 50.152344 330.144531 Z M 50.152344 188.320312 "/>
</clipPath>
<clipPath id="clip-18">
<path clip-rule="nonzero" d="M 50.152344 311 L 570.523438 311 L 570.523438 313 L 50.152344 313 Z M 50.152344 311 "/>
</clipPath>
<clipPath id="clip-19">
<path clip-rule="nonzero" d="M 50.152344 285 L 570.523438 285 L 570.523438 286 L 50.152344 286 Z M 50.152344 285 "/>
</clipPath>
<clipPath id="clip-20">
<path clip-rule="nonzero" d="M 50.152344 258 L 570.523438 258 L 570.523438 260 L 50.152344 260 Z M 50.152344 258 "/>
</clipPath>
<clipPath id="clip-21">
<path clip-rule="nonzero" d="M 50.152344 231 L 570.523438 231 L 570.523438 233 L 50.152344 233 Z M 50.152344 231 "/>
</clipPath>
<clipPath id="clip-22">
<path clip-rule="nonzero" d="M 50.152344 205 L 570.523438 205 L 570.523438 206 L 50.152344 206 Z M 50.152344 205 "/>
</clipPath>
<clipPath id="clip-23">
<path clip-rule="nonzero" d="M 115 188.320312 L 116 188.320312 L 116 330.144531 L 115 330.144531 Z M 115 188.320312 "/>
</clipPath>
<clipPath id="clip-24">
<path clip-rule="nonzero" d="M 310 188.320312 L 311 188.320312 L 311 330.144531 L 310 330.144531 Z M 310 188.320312 "/>
</clipPath>
<clipPath id="clip-25">
<path clip-rule="nonzero" d="M 504 188.320312 L 506 188.320312 L 506 330.144531 L 504 330.144531 Z M 504 188.320312 "/>
</clipPath>
<clipPath id="clip-26">
<path clip-rule="nonzero" d="M 50.152344 324 L 570.523438 324 L 570.523438 326 L 50.152344 326 Z M 50.152344 324 "/>
</clipPath>
<clipPath id="clip-27">
<path clip-rule="nonzero" d="M 50.152344 298 L 570.523438 298 L 570.523438 300 L 50.152344 300 Z M 50.152344 298 "/>
</clipPath>
<clipPath id="clip-28">
<path clip-rule="nonzero" d="M 50.152344 271 L 570.523438 271 L 570.523438 273 L 50.152344 273 Z M 50.152344 271 "/>
</clipPath>
<clipPath id="clip-29">
<path clip-rule="nonzero" d="M 50.152344 244 L 570.523438 244 L 570.523438 246 L 50.152344 246 Z M 50.152344 244 "/>
</clipPath>
<clipPath id="clip-30">
<path clip-rule="nonzero" d="M 50.152344 218 L 570.523438 218 L 570.523438 220 L 50.152344 220 Z M 50.152344 218 "/>
</clipPath>
<clipPath id="clip-31">
<path clip-rule="nonzero" d="M 50.152344 191 L 570.523438 191 L 570.523438 193 L 50.152344 193 Z M 50.152344 191 "/>
</clipPath>
<clipPath id="clip-32">
<path clip-rule="nonzero" d="M 212 188.320312 L 214 188.320312 L 214 330.144531 L 212 330.144531 Z M 212 188.320312 "/>
</clipPath>
<clipPath id="clip-33">
<path clip-rule="nonzero" d="M 407 188.320312 L 409 188.320312 L 409 330.144531 L 407 330.144531 Z M 407 188.320312 "/>
</clipPath>
<clipPath id="clip-34">
<path clip-rule="nonzero" d="M 50.152344 188.320312 L 570.523438 188.320312 L 570.523438 330.144531 L 50.152344 330.144531 Z M 50.152344 188.320312 "/>
</clipPath>
<clipPath id="clip-35">
<path clip-rule="nonzero" d="M 50.152344 353.390625 L 570.523438 353.390625 L 570.523438 495.214844 L 50.152344 495.214844 Z M 50.152344 353.390625 "/>
</clipPath>
<clipPath id="clip-36">
<path clip-rule="nonzero" d="M 50.152344 483 L 570.523438 483 L 570.523438 484 L 50.152344 484 Z M 50.152344 483 "/>
</clipPath>
<clipPath id="clip-37">
<path clip-rule="nonzero" d="M 50.152344 460 L 570.523438 460 L 570.523438 461 L 50.152344 461 Z M 50.152344 460 "/>
</clipPath>
<clipPath id="clip-38">
<path clip-rule="nonzero" d="M 50.152344 437 L 570.523438 437 L 570.523438 438 L 50.152344 438 Z M 50.152344 437 "/>
</clipPath>
<clipPath id="clip-39">
<path clip-rule="nonzero" d="M 50.152344 414 L 570.523438 414 L 570.523438 415 L 50.152344 415 Z M 50.152344 414 "/>
</clipPath>
<clipPath id="clip-40">
<path clip-rule="nonzero" d="M 50.152344 391 L 570.523438 391 L 570.523438 392 L 50.152344 392 Z M 50.152344 391 "/>
</clipPath>
<clipPath id="clip-41">
<path clip-rule="nonzero" d="M 50.152344 368 L 570.523438 368 L 570.523438 369 L 50.152344 369 Z M 50.152344 368 "/>
</clipPath>
<clipPath id="clip-42">
<path clip-rule="nonzero" d="M 115 353.390625 L 116 353.390625 L 116 495.214844 L 115 495.214844 Z M 115 353.390625 "/>
</clipPath>
<clipPath id="clip-43">
<path clip-rule="nonzero" d="M 310 353.390625 L 311 353.390625 L 311 495.214844 L 310 495.214844 Z M 310 353.390625 "/>
</clipPath>
<clipPath id="clip-44">
<path clip-rule="nonzero" d="M 504 353.390625 L 506 353.390625 L 506 495.214844 L 504 495.214844 Z M 504 353.390625 "/>
</clipPath>
<clipPath id="clip-45">
<path clip-rule="nonzero" d="M 50.152344 494 L 570.523438 494 L 570.523438 495.214844 L 50.152344 495.214844 Z M 50.152344 494 "/>
</clipPath>
<clipPath id="clip-46">
<path clip-rule="nonzero" d="M 50.152344 471 L 570.523438 471 L 570.523438 473 L 50.152344 473 Z M 50.152344 471 "/>
</clipPath>
<clipPath id="clip-47">
<path clip-rule="nonzero" d="M 50.152344 448 L 570.523438 448 L 570.523438 450 L 50.152344 450 Z M 50.152344 448 "/>
</clipPath>
<clipPath id="clip-48">
<path clip-rule="nonzero" d="M 50.152344 425 L 570.523438 425 L 570.523438 427 L 50.152344 427 Z M 50.152344 425 "/>
</clipPath>
<clipPath id="clip-49">
<path clip-rule="nonzero" d="M 50.152344 402 L 570.523438 402 L 570.523438 404 L 50.152344 404 Z M 50.152344 402 "/>
</clipPath>
<clipPath id="clip-50">
<path clip-rule="nonzero" d="M 50.152344 379 L 570.523438 379 L 570.523438 381 L 50.152344 381 Z M 50.152344 379 "/>
</clipPath>
<clipPath id="clip-51">
<path clip-rule="nonzero" d="M 50.152344 356 L 570.523438 356 L 570.523438 358 L 50.152344 358 Z M 50.152344 356 "/>
</clipPath>
<clipPath id="clip-52">
<path clip-rule="nonzero" d="M 212 353.390625 L 214 353.390625 L 214 495.214844 L 212 495.214844 Z M 212 353.390625 "/>
</clipPath>
<clipPath id="clip-53">
<path clip-rule="nonzero" d="M 407 353.390625 L 409 353.390625 L 409 495.214844 L 407 495.214844 Z M 407 353.390625 "/>
</clipPath>
<clipPath id="clip-54">
<path clip-rule="nonzero" d="M 50.152344 353.390625 L 570.523438 353.390625 L 570.523438 495.214844 L 50.152344 495.214844 Z M 50.152344 353.390625 "/>
</clipPath>
<clipPath id="clip-55">
<path clip-rule="nonzero" d="M 50.152344 518.464844 L 570.523438 518.464844 L 570.523438 660.289062 L 50.152344 660.289062 Z M 50.152344 518.464844 "/>
</clipPath>
<clipPath id="clip-56">
<path clip-rule="nonzero" d="M 50.152344 641 L 570.523438 641 L 570.523438 643 L 50.152344 643 Z M 50.152344 641 "/>
</clipPath>
<clipPath id="clip-57">
<path clip-rule="nonzero" d="M 50.152344 615 L 570.523438 615 L 570.523438 616 L 50.152344 616 Z M 50.152344 615 "/>
</clipPath>
<clipPath id="clip-58">
<path clip-rule="nonzero" d="M 50.152344 588 L 570.523438 588 L 570.523438 590 L 50.152344 590 Z M 50.152344 588 "/>
</clipPath>
<clipPath id="clip-59">
<path clip-rule="nonzero" d="M 50.152344 562 L 570.523438 562 L 570.523438 563 L 50.152344 563 Z M 50.152344 562 "/>
</clipPath>
<clipPath id="clip-60">
<path clip-rule="nonzero" d="M 50.152344 535 L 570.523438 535 L 570.523438 536 L 50.152344 536 Z M 50.152344 535 "/>
</clipPath>
<clipPath id="clip-61">
<path clip-rule="nonzero" d="M 115 518.464844 L 116 518.464844 L 116 660.289062 L 115 660.289062 Z M 115 518.464844 "/>
</clipPath>
<clipPath id="clip-62">
<path clip-rule="nonzero" d="M 310 518.464844 L 311 518.464844 L 311 660.289062 L 310 660.289062 Z M 310 518.464844 "/>
</clipPath>
<clipPath id="clip-63">
<path clip-rule="nonzero" d="M 504 518.464844 L 506 518.464844 L 506 660.289062 L 504 660.289062 Z M 504 518.464844 "/>
</clipPath>
<clipPath id="clip-64">
<path clip-rule="nonzero" d="M 50.152344 654 L 570.523438 654 L 570.523438 656 L 50.152344 656 Z M 50.152344 654 "/>
</clipPath>
<clipPath id="clip-65">
<path clip-rule="nonzero" d="M 50.152344 628 L 570.523438 628 L 570.523438 630 L 50.152344 630 Z M 50.152344 628 "/>
</clipPath>
<clipPath id="clip-66">
<path clip-rule="nonzero" d="M 50.152344 601 L 570.523438 601 L 570.523438 603 L 50.152344 603 Z M 50.152344 601 "/>
</clipPath>
<clipPath id="clip-67">
<path clip-rule="nonzero" d="M 50.152344 575 L 570.523438 575 L 570.523438 577 L 50.152344 577 Z M 50.152344 575 "/>
</clipPath>
<clipPath id="clip-68">
<path clip-rule="nonzero" d="M 50.152344 548 L 570.523438 548 L 570.523438 550 L 50.152344 550 Z M 50.152344 548 "/>
</clipPath>
<clipPath id="clip-69">
<path clip-rule="nonzero" d="M 50.152344 521 L 570.523438 521 L 570.523438 523 L 50.152344 523 Z M 50.152344 521 "/>
</clipPath>
<clipPath id="clip-70">
<path clip-rule="nonzero" d="M 212 518.464844 L 214 518.464844 L 214 660.289062 L 212 660.289062 Z M 212 518.464844 "/>
</clipPath>
<clipPath id="clip-71">
<path clip-rule="nonzero" d="M 407 518.464844 L 409 518.464844 L 409 660.289062 L 407 660.289062 Z M 407 518.464844 "/>
</clipPath>
<clipPath id="clip-72">
<path clip-rule="nonzero" d="M 50.152344 518.464844 L 570.523438 518.464844 L 570.523438 660.289062 L 50.152344 660.289062 Z M 50.152344 518.464844 "/>
</clipPath>
<clipPath id="clip-73">
<path clip-rule="nonzero" d="M 50.152344 500.695312 L 570.523438 500.695312 L 570.523438 518.460938 L 50.152344 518.460938 Z M 50.152344 500.695312 "/>
</clipPath>
<clipPath id="clip-74">
<path clip-rule="nonzero" d="M 50.152344 335.625 L 570.523438 335.625 L 570.523438 353.390625 L 50.152344 353.390625 Z M 50.152344 335.625 "/>
</clipPath>
<clipPath id="clip-75">
<path clip-rule="nonzero" d="M 50.152344 170.550781 L 570.523438 170.550781 L 570.523438 188.316406 L 50.152344 188.316406 Z M 50.152344 170.550781 "/>
</clipPath>
<clipPath id="clip-76">
<path clip-rule="nonzero" d="M 50.152344 5.480469 L 570.523438 5.480469 L 570.523438 23.246094 L 50.152344 23.246094 Z M 50.152344 5.480469 "/>
</clipPath>
</defs>
<rect x="-57.6" y="-74.8" width="691.2" height="897.6" fill="rgb(100%, 100%, 100%)" fill-opacity="1"/>
<rect x="-57.6" y="-74.8" width="691.2" height="897.6" fill="rgb(100%, 100%, 100%)" fill-opacity="1"/>
<path fill="none" stroke-width="1.066978" stroke-linecap="round" stroke-linejoin="round" stroke="rgb(100%, 100%, 100%)" stroke-opacity="1" stroke-miterlimit="10" d="M 0 748 L 576 748 L 576 0 L 0 0 Z M 0 748 "/>
<g clip-path="url(#clip-0)">
<path fill-rule="nonzero" fill="rgb(100%, 100%, 100%)" fill-opacity="1" stroke-width="1.066978" stroke-linecap="round" stroke-linejoin="round" stroke="rgb(0%, 0%, 0%)" stroke-opacity="1" stroke-miterlimit="10" d="M 50.152344 165.074219 L 570.523438 165.074219 L 570.523438 23.25 L 50.152344 23.25 Z M 50.152344 165.074219 "/>
</g>
<g clip-path="url(#clip-1)">
<path fill="none" stroke-width="0.533489" stroke-linecap="butt" stroke-linejoin="round" stroke="rgb(94.117647%, 97.254902%, 100%)" stroke-opacity="1" stroke-miterlimit="10" d="M 50.152344 141.550781 L 570.519531 141.550781 "/>
</g>
<g clip-path="url(#clip-2)">
<path fill="none" stroke-width="0.533489" stroke-linecap="butt" stroke-linejoin="round" stroke="rgb(94.117647%, 97.254902%, 100%)" stroke-opacity="1" stroke-miterlimit="10" d="M 50.152344 112.117188 L 570.519531 112.117188 "/>
</g>
<g clip-path="url(#clip-3)">
<path fill="none" stroke-width="0.533489" stroke-linecap="butt" stroke-linejoin="round" stroke="rgb(94.117647%, 97.254902%, 100%)" stroke-opacity="1" stroke-miterlimit="10" d="M 50.152344 82.679688 L 570.519531 82.679688 "/>
</g>
<g clip-path="url(#clip-4)">
<path fill="none" stroke-width="0.533489" stroke-linecap="butt" stroke-linejoin="round" stroke="rgb(94.117647%, 97.254902%, 100%)" stroke-opacity="1" stroke-miterlimit="10" d="M 50.152344 53.242188 L 570.519531 53.242188 "/>
</g>
<g clip-path="url(#clip-5)">
<path fill="none" stroke-width="0.533489" stroke-linecap="butt" stroke-linejoin="round" stroke="rgb(94.117647%, 97.254902%, 100%)" stroke-opacity="1" stroke-miterlimit="10" d="M 50.152344 23.804688 L 570.519531 23.804688 "/>
</g>
<g clip-path="url(#clip-6)">
<path fill="none" stroke-width="0.533489" stroke-linecap="butt" stroke-linejoin="round" stroke="rgb(94.117647%, 97.254902%, 100%)" stroke-opacity="1" stroke-miterlimit="10" d="M 115.542969 165.074219 L 115.542969 23.246094 "/>
</g>
<g clip-path="url(#clip-7)">
<path fill="none" stroke-width="0.533489" stroke-linecap="butt" stroke-linejoin="round" stroke="rgb(94.117647%, 97.254902%, 100%)" stroke-opacity="1" stroke-miterlimit="10" d="M 310.335938 165.074219 L 310.335938 23.246094 "/>
</g>
<g clip-path="url(#clip-8)">
<path fill="none" stroke-width="0.533489" stroke-linecap="butt" stroke-linejoin="round" stroke="rgb(94.117647%, 97.254902%, 100%)" stroke-opacity="1" stroke-miterlimit="10" d="M 505.125 165.074219 L 505.125 23.246094 "/>
</g>
<g clip-path="url(#clip-9)">
<path fill="none" stroke-width="1.066978" stroke-linecap="butt" stroke-linejoin="round" stroke="rgb(100%, 100%, 100%)" stroke-opacity="1" stroke-miterlimit="10" d="M 50.152344 156.269531 L 570.519531 156.269531 "/>
</g>
<g clip-path="url(#clip-10)">
<path fill="none" stroke-width="1.066978" stroke-linecap="butt" stroke-linejoin="round" stroke="rgb(100%, 100%, 100%)" stroke-opacity="1" stroke-miterlimit="10" d="M 50.152344 126.835938 L 570.519531 126.835938 "/>
</g>
<g clip-path="url(#clip-11)">
<path fill="none" stroke-width="1.066978" stroke-linecap="butt" stroke-linejoin="round" stroke="rgb(100%, 100%, 100%)" stroke-opacity="1" stroke-miterlimit="10" d="M 50.152344 97.398438 L 570.519531 97.398438 "/>
</g>
<g clip-path="url(#clip-12)">
<path fill="none" stroke-width="1.066978" stroke-linecap="butt" stroke-linejoin="round" stroke="rgb(100%, 100%, 100%)" stroke-opacity="1" stroke-miterlimit="10" d="M 50.152344 67.960938 L 570.519531 67.960938 "/>
</g>
<g clip-path="url(#clip-13)">
<path fill="none" stroke-width="1.066978" stroke-linecap="butt" stroke-linejoin="round" stroke="rgb(100%, 100%, 100%)" stroke-opacity="1" stroke-miterlimit="10" d="M 50.152344 38.523438 L 570.519531 38.523438 "/>
</g>
<g clip-path="url(#clip-14)">
<path fill="none" stroke-width="1.066978" stroke-linecap="butt" stroke-linejoin="round" stroke="rgb(100%, 100%, 100%)" stroke-opacity="1" stroke-miterlimit="10" d="M 212.941406 165.074219 L 212.941406 23.246094 "/>
</g>
<g clip-path="url(#clip-15)">
<path fill="none" stroke-width="1.066978" stroke-linecap="butt" stroke-linejoin="round" stroke="rgb(100%, 100%, 100%)" stroke-opacity="1" stroke-miterlimit="10" d="M 407.730469 165.074219 L 407.730469 23.246094 "/>
</g>
<path fill="none" stroke-width="1.066978" stroke-linecap="butt" stroke-linejoin="round" stroke="rgb(97.254902%, 46.27451%, 42.745098%)" stroke-opacity="1" stroke-miterlimit="10" d="M 73.804688 104.460938 L 185.113281 123.890625 "/>
<path fill="none" stroke-width="1.066978" stroke-linecap="butt" stroke-linejoin="round" stroke="rgb(0%, 72.941176%, 21.960784%)" stroke-opacity="1" stroke-miterlimit="10" d="M 73.804688 111.085938 L 101.632812 70.316406 L 157.285156 77.378906 L 185.113281 55.792969 L 268.59375 78.558594 L 296.421875 77.378906 L 324.25 80.914062 L 379.902344 79.148438 L 435.558594 79.148438 L 546.867188 80.914062 "/>
<path fill-rule="nonzero" fill="rgb(97.254902%, 46.27451%, 42.745098%)" fill-opacity="0.2" d="M 73.804688 104.460938 L 185.113281 123.890625 Z M 73.804688 104.460938 "/>
<path fill-rule="nonzero" fill="rgb(0%, 72.941176%, 21.960784%)" fill-opacity="0.2" d="M 73.804688 97.542969 L 101.632812 54.714844 L 157.285156 77.378906 L 185.113281 29.691406 L 268.59375 78.558594 L 296.421875 77.378906 L 324.25 80.914062 L 379.902344 79.148438 L 435.558594 79.148438 L 546.867188 80.914062 L 435.558594 79.148438 L 379.902344 79.148438 L 324.25 80.914062 L 296.421875 77.378906 L 268.59375 78.558594 L 185.113281 93.277344 L 157.285156 77.378906 L 101.632812 94.011719 L 73.804688 130.074219 Z M 73.804688 97.542969 "/>
<g clip-path="url(#clip-16)">
<path fill="none" stroke-width="1.066978" stroke-linecap="round" stroke-linejoin="round" stroke="rgb(0.392157%, 27.058824%, 30.980392%)" stroke-opacity="1" stroke-miterlimit="10" d="M 50.152344 165.074219 L 570.523438 165.074219 L 570.523438 23.25 L 50.152344 23.25 Z M 50.152344 165.074219 "/>
</g>
<g clip-path="url(#clip-17)">
<path fill-rule="nonzero" fill="rgb(100%, 100%, 100%)" fill-opacity="1" stroke-width="1.066978" stroke-linecap="round" stroke-linejoin="round" stroke="rgb(0%, 0%, 0%)" stroke-opacity="1" stroke-miterlimit="10" d="M 50.152344 330.144531 L 570.523438 330.144531 L 570.523438 188.320312 L 50.152344 188.320312 Z M 50.152344 330.144531 "/>
</g>
<g clip-path="url(#clip-18)">
<path fill="none" stroke-width="0.533489" stroke-linecap="butt" stroke-linejoin="round" stroke="rgb(94.117647%, 97.254902%, 100%)" stroke-opacity="1" stroke-miterlimit="10" d="M 50.152344 311.984375 L 570.519531 311.984375 "/>
</g>
<g clip-path="url(#clip-19)">
<path fill="none" stroke-width="0.533489" stroke-linecap="butt" stroke-linejoin="round" stroke="rgb(94.117647%, 97.254902%, 100%)" stroke-opacity="1" stroke-miterlimit="10" d="M 50.152344 285.375 L 570.519531 285.375 "/>
</g>
<g clip-path="url(#clip-20)">
<path fill="none" stroke-width="0.533489" stroke-linecap="butt" stroke-linejoin="round" stroke="rgb(94.117647%, 97.254902%, 100%)" stroke-opacity="1" stroke-miterlimit="10" d="M 50.152344 258.761719 L 570.519531 258.761719 "/>
</g>
<g clip-path="url(#clip-21)">
<path fill="none" stroke-width="0.533489" stroke-linecap="butt" stroke-linejoin="round" stroke="rgb(94.117647%, 97.254902%, 100%)" stroke-opacity="1" stroke-miterlimit="10" d="M 50.152344 232.152344 L 570.519531 232.152344 "/>
</g>
<g clip-path="url(#clip-22)">
<path fill="none" stroke-width="0.533489" stroke-linecap="butt" stroke-linejoin="round" stroke="rgb(94.117647%, 97.254902%, 100%)" stroke-opacity="1" stroke-miterlimit="10" d="M 50.152344 205.539062 L 570.519531 205.539062 "/>
</g>
<g clip-path="url(#clip-23)">
<path fill="none" stroke-width="0.533489" stroke-linecap="butt" stroke-linejoin="round" stroke="rgb(94.117647%, 97.254902%, 100%)" stroke-opacity="1" stroke-miterlimit="10" d="M 115.542969 330.144531 L 115.542969 188.320312 "/>
</g>
<g clip-path="url(#clip-24)">
<path fill="none" stroke-width="0.533489" stroke-linecap="butt" stroke-linejoin="round" stroke="rgb(94.117647%, 97.254902%, 100%)" stroke-opacity="1" stroke-miterlimit="10" d="M 310.335938 330.144531 L 310.335938 188.320312 "/>
</g>
<g clip-path="url(#clip-25)">
<path fill="none" stroke-width="0.533489" stroke-linecap="butt" stroke-linejoin="round" stroke="rgb(94.117647%, 97.254902%, 100%)" stroke-opacity="1" stroke-miterlimit="10" d="M 505.125 330.144531 L 505.125 188.320312 "/>
</g>
<g clip-path="url(#clip-26)">
<path fill="none" stroke-width="1.066978" stroke-linecap="butt" stroke-linejoin="round" stroke="rgb(100%, 100%, 100%)" stroke-opacity="1" stroke-miterlimit="10" d="M 50.152344 325.292969 L 570.519531 325.292969 "/>
</g>
<g clip-path="url(#clip-27)">
<path fill="none" stroke-width="1.066978" stroke-linecap="butt" stroke-linejoin="round" stroke="rgb(100%, 100%, 100%)" stroke-opacity="1" stroke-miterlimit="10" d="M 50.152344 298.679688 L 570.519531 298.679688 "/>
</g>
<g clip-path="url(#clip-28)">
<path fill="none" stroke-width="1.066978" stroke-linecap="butt" stroke-linejoin="round" stroke="rgb(100%, 100%, 100%)" stroke-opacity="1" stroke-miterlimit="10" d="M 50.152344 272.066406 L 570.519531 272.066406 "/>
</g>
<g clip-path="url(#clip-29)">
<path fill="none" stroke-width="1.066978" stroke-linecap="butt" stroke-linejoin="round" stroke="rgb(100%, 100%, 100%)" stroke-opacity="1" stroke-miterlimit="10" d="M 50.152344 245.457031 L 570.519531 245.457031 "/>
</g>
<g clip-path="url(#clip-30)">
<path fill="none" stroke-width="1.066978" stroke-linecap="butt" stroke-linejoin="round" stroke="rgb(100%, 100%, 100%)" stroke-opacity="1" stroke-miterlimit="10" d="M 50.152344 218.84375 L 570.519531 218.84375 "/>
</g>
<g clip-path="url(#clip-31)">
<path fill="none" stroke-width="1.066978" stroke-linecap="butt" stroke-linejoin="round" stroke="rgb(100%, 100%, 100%)" stroke-opacity="1" stroke-miterlimit="10" d="M 50.152344 192.234375 L 570.519531 192.234375 "/>
</g>
<g clip-path="url(#clip-32)">
<path fill="none" stroke-width="1.066978" stroke-linecap="butt" stroke-linejoin="round" stroke="rgb(100%, 100%, 100%)" stroke-opacity="1" stroke-miterlimit="10" d="M 212.941406 330.144531 L 212.941406 188.320312 "/>
</g>
<g clip-path="url(#clip-33)">
<path fill="none" stroke-width="1.066978" stroke-linecap="butt" stroke-linejoin="round" stroke="rgb(100%, 100%, 100%)" stroke-opacity="1" stroke-miterlimit="10" d="M 407.730469 330.144531 L 407.730469 188.320312 "/>
</g>
<path fill="none" stroke-width="1.066978" stroke-linecap="butt" stroke-linejoin="round" stroke="rgb(97.254902%, 46.27451%, 42.745098%)" stroke-opacity="1" stroke-miterlimit="10" d="M 73.804688 251.792969 L 185.113281 308.171875 "/>
<path fill="none" stroke-width="1.066978" stroke-linecap="butt" stroke-linejoin="round" stroke="rgb(0%, 72.941176%, 21.960784%)" stroke-opacity="1" stroke-miterlimit="10" d="M 73.804688 262.183594 L 101.632812 288.367188 L 157.285156 305.507812 L 185.113281 314.714844 L 268.59375 307.734375 L 296.421875 305.507812 L 324.25 312.195312 L 379.902344 308.851562 L 435.558594 308.851562 L 546.867188 312.195312 "/>
<path fill-rule="nonzero" fill="rgb(97.254902%, 46.27451%, 42.745098%)" fill-opacity="0.2" d="M 73.804688 251.792969 L 185.113281 308.171875 Z M 73.804688 251.792969 "/>
<path fill-rule="nonzero" fill="rgb(0%, 72.941176%, 21.960784%)" fill-opacity="0.2" d="M 73.804688 199.136719 L 101.632812 258.585938 L 157.285156 305.507812 L 185.113281 302.242188 L 268.59375 307.734375 L 296.421875 305.507812 L 324.25 312.195312 L 379.902344 308.851562 L 435.558594 308.851562 L 546.867188 312.195312 L 435.558594 308.851562 L 379.902344 308.851562 L 324.25 312.195312 L 296.421875 305.507812 L 268.59375 307.734375 L 185.113281 323.699219 L 157.285156 305.507812 L 101.632812 294.085938 L 73.804688 315.722656 Z M 73.804688 199.136719 "/>
<g clip-path="url(#clip-34)">
<path fill="none" stroke-width="1.066978" stroke-linecap="round" stroke-linejoin="round" stroke="rgb(0.392157%, 27.058824%, 30.980392%)" stroke-opacity="1" stroke-miterlimit="10" d="M 50.152344 330.144531 L 570.523438 330.144531 L 570.523438 188.320312 L 50.152344 188.320312 Z M 50.152344 330.144531 "/>
</g>
<g clip-path="url(#clip-35)">
<path fill-rule="nonzero" fill="rgb(100%, 100%, 100%)" fill-opacity="1" stroke-width="1.066978" stroke-linecap="round" stroke-linejoin="round" stroke="rgb(0%, 0%, 0%)" stroke-opacity="1" stroke-miterlimit="10" d="M 50.152344 495.21875 L 570.523438 495.21875 L 570.523438 353.394531 L 50.152344 353.394531 Z M 50.152344 495.21875 "/>
</g>
<g clip-path="url(#clip-36)">
<path fill="none" stroke-width="0.533489" stroke-linecap="butt" stroke-linejoin="round" stroke="rgb(94.117647%, 97.254902%, 100%)" stroke-opacity="1" stroke-miterlimit="10" d="M 50.152344 483.503906 L 570.519531 483.503906 "/>
</g>
<g clip-path="url(#clip-37)">
<path fill="none" stroke-width="0.533489" stroke-linecap="butt" stroke-linejoin="round" stroke="rgb(94.117647%, 97.254902%, 100%)" stroke-opacity="1" stroke-miterlimit="10" d="M 50.152344 460.496094 L 570.519531 460.496094 "/>
</g>
<g clip-path="url(#clip-38)">
<path fill="none" stroke-width="0.533489" stroke-linecap="butt" stroke-linejoin="round" stroke="rgb(94.117647%, 97.254902%, 100%)" stroke-opacity="1" stroke-miterlimit="10" d="M 50.152344 437.492188 L 570.519531 437.492188 "/>
</g>
<g clip-path="url(#clip-39)">
<path fill="none" stroke-width="0.533489" stroke-linecap="butt" stroke-linejoin="round" stroke="rgb(94.117647%, 97.254902%, 100%)" stroke-opacity="1" stroke-miterlimit="10" d="M 50.152344 414.488281 L 570.519531 414.488281 "/>
</g>
<g clip-path="url(#clip-40)">
<path fill="none" stroke-width="0.533489" stroke-linecap="butt" stroke-linejoin="round" stroke="rgb(94.117647%, 97.254902%, 100%)" stroke-opacity="1" stroke-miterlimit="10" d="M 50.152344 391.480469 L 570.519531 391.480469 "/>
</g>
<g clip-path="url(#clip-41)">
<path fill="none" stroke-width="0.533489" stroke-linecap="butt" stroke-linejoin="round" stroke="rgb(94.117647%, 97.254902%, 100%)" stroke-opacity="1" stroke-miterlimit="10" d="M 50.152344 368.476562 L 570.519531 368.476562 "/>
</g>
<g clip-path="url(#clip-42)">
<path fill="none" stroke-width="0.533489" stroke-linecap="butt" stroke-linejoin="round" stroke="rgb(94.117647%, 97.254902%, 100%)" stroke-opacity="1" stroke-miterlimit="10" d="M 115.542969 495.21875 L 115.542969 353.390625 "/>
</g>
<g clip-path="url(#clip-43)">
<path fill="none" stroke-width="0.533489" stroke-linecap="butt" stroke-linejoin="round" stroke="rgb(94.117647%, 97.254902%, 100%)" stroke-opacity="1" stroke-miterlimit="10" d="M 310.335938 495.21875 L 310.335938 353.390625 "/>
</g>
<g clip-path="url(#clip-44)">
<path fill="none" stroke-width="0.533489" stroke-linecap="butt" stroke-linejoin="round" stroke="rgb(94.117647%, 97.254902%, 100%)" stroke-opacity="1" stroke-miterlimit="10" d="M 505.125 495.21875 L 505.125 353.390625 "/>
</g>
<g clip-path="url(#clip-45)">
<path fill="none" stroke-width="1.066978" stroke-linecap="butt" stroke-linejoin="round" stroke="rgb(100%, 100%, 100%)" stroke-opacity="1" stroke-miterlimit="10" d="M 50.152344 495.003906 L 570.519531 495.003906 "/>
</g>
<g clip-path="url(#clip-46)">
<path fill="none" stroke-width="1.066978" stroke-linecap="butt" stroke-linejoin="round" stroke="rgb(100%, 100%, 100%)" stroke-opacity="1" stroke-miterlimit="10" d="M 50.152344 472 L 570.519531 472 "/>
</g>
<g clip-path="url(#clip-47)">
<path fill="none" stroke-width="1.066978" stroke-linecap="butt" stroke-linejoin="round" stroke="rgb(100%, 100%, 100%)" stroke-opacity="1" stroke-miterlimit="10" d="M 50.152344 448.996094 L 570.519531 448.996094 "/>
</g>
<g clip-path="url(#clip-48)">
<path fill="none" stroke-width="1.066978" stroke-linecap="butt" stroke-linejoin="round" stroke="rgb(100%, 100%, 100%)" stroke-opacity="1" stroke-miterlimit="10" d="M 50.152344 425.988281 L 570.519531 425.988281 "/>
</g>
<g clip-path="url(#clip-49)">
<path fill="none" stroke-width="1.066978" stroke-linecap="butt" stroke-linejoin="round" stroke="rgb(100%, 100%, 100%)" stroke-opacity="1" stroke-miterlimit="10" d="M 50.152344 402.984375 L 570.519531 402.984375 "/>
</g>
<g clip-path="url(#clip-50)">
<path fill="none" stroke-width="1.066978" stroke-linecap="butt" stroke-linejoin="round" stroke="rgb(100%, 100%, 100%)" stroke-opacity="1" stroke-miterlimit="10" d="M 50.152344 379.976562 L 570.519531 379.976562 "/>
</g>
<g clip-path="url(#clip-51)">
<path fill="none" stroke-width="1.066978" stroke-linecap="butt" stroke-linejoin="round" stroke="rgb(100%, 100%, 100%)" stroke-opacity="1" stroke-miterlimit="10" d="M 50.152344 356.972656 L 570.519531 356.972656 "/>
</g>
<g clip-path="url(#clip-52)">
<path fill="none" stroke-width="1.066978" stroke-linecap="butt" stroke-linejoin="round" stroke="rgb(100%, 100%, 100%)" stroke-opacity="1" stroke-miterlimit="10" d="M 212.941406 495.21875 L 212.941406 353.390625 "/>
</g>
<g clip-path="url(#clip-53)">
<path fill="none" stroke-width="1.066978" stroke-linecap="butt" stroke-linejoin="round" stroke="rgb(100%, 100%, 100%)" stroke-opacity="1" stroke-miterlimit="10" d="M 407.730469 495.21875 L 407.730469 353.390625 "/>
</g>
<path fill="none" stroke-width="1.066978" stroke-linecap="butt" stroke-linejoin="round" stroke="rgb(97.254902%, 46.27451%, 42.745098%)" stroke-opacity="1" stroke-miterlimit="10" d="M 73.804688 375.019531 L 185.113281 450.527344 "/>
<path fill="none" stroke-width="1.066978" stroke-linecap="butt" stroke-linejoin="round" stroke="rgb(0%, 72.941176%, 21.960784%)" stroke-opacity="1" stroke-miterlimit="10" d="M 73.804688 444.796875 L 101.632812 424.921875 L 157.285156 484.738281 L 185.113281 401.917969 L 268.59375 486.082031 L 296.421875 484.738281 L 324.25 488.769531 L 379.902344 486.753906 L 435.558594 486.753906 L 546.867188 488.769531 "/>
<path fill-rule="nonzero" fill="rgb(97.254902%, 46.27451%, 42.745098%)" fill-opacity="0.2" d="M 73.804688 375.019531 L 185.113281 450.527344 Z M 73.804688 375.019531 "/>
<path fill-rule="nonzero" fill="rgb(0%, 72.941176%, 21.960784%)" fill-opacity="0.2" d="M 73.804688 410.582031 L 101.632812 374.816406 L 157.285156 484.738281 L 185.113281 359.839844 L 268.59375 486.082031 L 296.421875 484.738281 L 324.25 488.769531 L 379.902344 486.753906 L 435.558594 486.753906 L 546.867188 488.769531 L 435.558594 486.753906 L 379.902344 486.753906 L 324.25 488.769531 L 296.421875 484.738281 L 268.59375 486.082031 L 185.113281 425.660156 L 157.285156 484.738281 L 101.632812 469.871094 L 73.804688 467.558594 Z M 73.804688 410.582031 "/>
<g clip-path="url(#clip-54)">
<path fill="none" stroke-width="1.066978" stroke-linecap="round" stroke-linejoin="round" stroke="rgb(0.392157%, 27.058824%, 30.980392%)" stroke-opacity="1" stroke-miterlimit="10" d="M 50.152344 495.21875 L 570.523438 495.21875 L 570.523438 353.394531 L 50.152344 353.394531 Z M 50.152344 495.21875 "/>
</g>
<g clip-path="url(#clip-55)">
<path fill-rule="nonzero" fill="rgb(100%, 100%, 100%)" fill-opacity="1" stroke-width="1.066978" stroke-linecap="round" stroke-linejoin="round" stroke="rgb(0%, 0%, 0%)" stroke-opacity="1" stroke-miterlimit="10" d="M 50.152344 660.289062 L 570.523438 660.289062 L 570.523438 518.464844 L 50.152344 518.464844 Z M 50.152344 660.289062 "/>
</g>
<g clip-path="url(#clip-56)">
<path fill="none" stroke-width="0.533489" stroke-linecap="butt" stroke-linejoin="round" stroke="rgb(94.117647%, 97.254902%, 100%)" stroke-opacity="1" stroke-miterlimit="10" d="M 50.152344 642.128906 L 570.519531 642.128906 "/>
</g>
<g clip-path="url(#clip-57)">
<path fill="none" stroke-width="0.533489" stroke-linecap="butt" stroke-linejoin="round" stroke="rgb(94.117647%, 97.254902%, 100%)" stroke-opacity="1" stroke-miterlimit="10" d="M 50.152344 615.519531 L 570.519531 615.519531 "/>
</g>
<g clip-path="url(#clip-58)">
<path fill="none" stroke-width="0.533489" stroke-linecap="butt" stroke-linejoin="round" stroke="rgb(94.117647%, 97.254902%, 100%)" stroke-opacity="1" stroke-miterlimit="10" d="M 50.152344 588.90625 L 570.519531 588.90625 "/>
</g>
<g clip-path="url(#clip-59)">
<path fill="none" stroke-width="0.533489" stroke-linecap="butt" stroke-linejoin="round" stroke="rgb(94.117647%, 97.254902%, 100%)" stroke-opacity="1" stroke-miterlimit="10" d="M 50.152344 562.296875 L 570.519531 562.296875 "/>
</g>
<g clip-path="url(#clip-60)">
<path fill="none" stroke-width="0.533489" stroke-linecap="butt" stroke-linejoin="round" stroke="rgb(94.117647%, 97.254902%, 100%)" stroke-opacity="1" stroke-miterlimit="10" d="M 50.152344 535.683594 L 570.519531 535.683594 "/>
</g>
<g clip-path="url(#clip-61)">
<path fill="none" stroke-width="0.533489" stroke-linecap="butt" stroke-linejoin="round" stroke="rgb(94.117647%, 97.254902%, 100%)" stroke-opacity="1" stroke-miterlimit="10" d="M 115.542969 660.289062 L 115.542969 518.464844 "/>
</g>
<g clip-path="url(#clip-62)">
<path fill="none" stroke-width="0.533489" stroke-linecap="butt" stroke-linejoin="round" stroke="rgb(94.117647%, 97.254902%, 100%)" stroke-opacity="1" stroke-miterlimit="10" d="M 310.335938 660.289062 L 310.335938 518.464844 "/>
</g>
<g clip-path="url(#clip-63)">
<path fill="none" stroke-width="0.533489" stroke-linecap="butt" stroke-linejoin="round" stroke="rgb(94.117647%, 97.254902%, 100%)" stroke-opacity="1" stroke-miterlimit="10" d="M 505.125 660.289062 L 505.125 518.464844 "/>
</g>
<g clip-path="url(#clip-64)">
<path fill="none" stroke-width="1.066978" stroke-linecap="butt" stroke-linejoin="round" stroke="rgb(100%, 100%, 100%)" stroke-opacity="1" stroke-miterlimit="10" d="M 50.152344 655.4375 L 570.519531 655.4375 "/>
</g>
<g clip-path="url(#clip-65)">
<path fill="none" stroke-width="1.066978" stroke-linecap="butt" stroke-linejoin="round" stroke="rgb(100%, 100%, 100%)" stroke-opacity="1" stroke-miterlimit="10" d="M 50.152344 628.824219 L 570.519531 628.824219 "/>
</g>
<g clip-path="url(#clip-66)">
<path fill="none" stroke-width="1.066978" stroke-linecap="butt" stroke-linejoin="round" stroke="rgb(100%, 100%, 100%)" stroke-opacity="1" stroke-miterlimit="10" d="M 50.152344 602.214844 L 570.519531 602.214844 "/>
</g>
<g clip-path="url(#clip-67)">
<path fill="none" stroke-width="1.066978" stroke-linecap="butt" stroke-linejoin="round" stroke="rgb(100%, 100%, 100%)" stroke-opacity="1" stroke-miterlimit="10" d="M 50.152344 575.601562 L 570.519531 575.601562 "/>
</g>
<g clip-path="url(#clip-68)">
<path fill="none" stroke-width="1.066978" stroke-linecap="butt" stroke-linejoin="round" stroke="rgb(100%, 100%, 100%)" stroke-opacity="1" stroke-miterlimit="10" d="M 50.152344 548.988281 L 570.519531 548.988281 "/>
</g>
<g clip-path="url(#clip-69)">
<path fill="none" stroke-width="1.066978" stroke-linecap="butt" stroke-linejoin="round" stroke="rgb(100%, 100%, 100%)" stroke-opacity="1" stroke-miterlimit="10" d="M 50.152344 522.378906 L 570.519531 522.378906 "/>
</g>
<g clip-path="url(#clip-70)">
<path fill="none" stroke-width="1.066978" stroke-linecap="butt" stroke-linejoin="round" stroke="rgb(100%, 100%, 100%)" stroke-opacity="1" stroke-miterlimit="10" d="M 212.941406 660.289062 L 212.941406 518.464844 "/>
</g>
<g clip-path="url(#clip-71)">
<path fill="none" stroke-width="1.066978" stroke-linecap="butt" stroke-linejoin="round" stroke="rgb(100%, 100%, 100%)" stroke-opacity="1" stroke-miterlimit="10" d="M 407.730469 660.289062 L 407.730469 518.464844 "/>
</g>
<path fill="none" stroke-width="1.066978" stroke-linecap="butt" stroke-linejoin="round" stroke="rgb(97.254902%, 46.27451%, 42.745098%)" stroke-opacity="1" stroke-miterlimit="10" d="M 73.804688 581.9375 L 185.113281 638.316406 "/>
<path fill="none" stroke-width="1.066978" stroke-linecap="butt" stroke-linejoin="round" stroke="rgb(0%, 72.941176%, 21.960784%)" stroke-opacity="1" stroke-miterlimit="10" d="M 73.804688 592.332031 L 101.632812 618.515625 L 157.285156 635.652344 L 185.113281 644.859375 L 268.59375 637.882812 L 296.421875 635.652344 L 324.25 642.339844 L 379.902344 638.996094 L 435.558594 638.996094 L 546.867188 642.339844 "/>
<path fill-rule="nonzero" fill="rgb(97.254902%, 46.27451%, 42.745098%)" fill-opacity="0.2" d="M 73.804688 581.9375 L 185.113281 638.316406 Z M 73.804688 581.9375 "/>
<path fill-rule="nonzero" fill="rgb(0%, 72.941176%, 21.960784%)" fill-opacity="0.2" d="M 73.804688 529.28125 L 101.632812 588.730469 L 157.285156 635.652344 L 185.113281 632.386719 L 268.59375 637.882812 L 296.421875 635.652344 L 324.25 642.339844 L 379.902344 638.996094 L 435.558594 638.996094 L 546.867188 642.339844 L 435.558594 638.996094 L 379.902344 638.996094 L 324.25 642.339844 L 296.421875 635.652344 L 268.59375 637.882812 L 185.113281 653.84375 L 157.285156 635.652344 L 101.632812 624.230469 L 73.804688 645.867188 Z M 73.804688 529.28125 "/>
<g clip-path="url(#clip-72)">
<path fill="none" stroke-width="1.066978" stroke-linecap="round" stroke-linejoin="round" stroke="rgb(0.392157%, 27.058824%, 30.980392%)" stroke-opacity="1" stroke-miterlimit="10" d="M 50.152344 660.289062 L 570.523438 660.289062 L 570.523438 518.464844 L 50.152344 518.464844 Z M 50.152344 660.289062 "/>
</g>
<g clip-path="url(#clip-73)">
<path fill-rule="nonzero" fill="rgb(0.392157%, 27.058824%, 30.980392%)" fill-opacity="1" stroke-width="3.200935" stroke-linecap="round" stroke-linejoin="round" stroke="rgb(0.392157%, 27.058824%, 30.980392%)" stroke-opacity="1" stroke-miterlimit="10" d="M 50.152344 518.464844 L 570.523438 518.464844 L 570.523438 500.699219 L 50.152344 500.699219 Z M 50.152344 518.464844 "/>
</g>
<g fill="rgb(100%, 100%, 100%)" fill-opacity="1">
<use xlink:href="#glyph-0-0" x="239.335938" y="512.49707"/>
<use xlink:href="#glyph-0-1" x="247.335938" y="512.49707"/>
<use xlink:href="#glyph-0-2" x="249.335938" y="512.49707"/>
<use xlink:href="#glyph-0-3" x="253.335938" y="512.49707"/>
<use xlink:href="#glyph-0-4" x="258.335938" y="512.49707"/>
<use xlink:href="#glyph-0-5" x="263.335938" y="512.49707"/>
<use xlink:href="#glyph-0-6" x="268.335938" y="512.49707"/>
<use xlink:href="#glyph-0-7" x="273.335938" y="512.49707"/>
<use xlink:href="#glyph-0-1" x="278.335938" y="512.49707"/>
<use xlink:href="#glyph-0-8" x="280.335938" y="512.49707"/>
<use xlink:href="#glyph-0-5" x="282.335938" y="512.49707"/>
<use xlink:href="#glyph-0-1" x="287.335938" y="512.49707"/>
<use xlink:href="#glyph-0-9" x="289.335938" y="512.49707"/>
<use xlink:href="#glyph-0-10" x="295.335938" y="512.49707"/>
<use xlink:href="#glyph-0-11" x="302.335938" y="512.49707"/>
<use xlink:href="#glyph-0-1" x="304.335938" y="512.49707"/>
<use xlink:href="#glyph-0-12" x="306.335938" y="512.49707"/>
<use xlink:href="#glyph-0-8" x="310.335938" y="512.49707"/>
<use xlink:href="#glyph-0-5" x="312.335938" y="512.49707"/>
<use xlink:href="#glyph-0-2" x="317.335938" y="512.49707"/>
<use xlink:href="#glyph-0-7" x="321.335938" y="512.49707"/>
<use xlink:href="#glyph-0-1" x="326.335938" y="512.49707"/>
<use xlink:href="#glyph-0-13" x="328.335938" y="512.49707"/>
<use xlink:href="#glyph-0-2" x="335.335938" y="512.49707"/>
<use xlink:href="#glyph-0-14" x="339.335938" y="512.49707"/>
<use xlink:href="#glyph-0-15" x="341.335938" y="512.49707"/>
<use xlink:href="#glyph-0-16" x="346.335938" y="512.49707"/>
<use xlink:href="#glyph-0-7" x="351.335938" y="512.49707"/>
<use xlink:href="#glyph-0-17" x="356.335938" y="512.49707"/>
<use xlink:href="#glyph-0-1" x="359.335938" y="512.49707"/>
<use xlink:href="#glyph-0-18" x="361.335938" y="512.49707"/>
<use xlink:href="#glyph-0-19" x="366.335938" y="512.49707"/>
<use xlink:href="#glyph-0-18" x="371.335938" y="512.49707"/>
<use xlink:href="#glyph-0-20" x="376.335938" y="512.49707"/>
</g>
<g clip-path="url(#clip-74)">
<path fill-rule="nonzero" fill="rgb(0.392157%, 27.058824%, 30.980392%)" fill-opacity="1" stroke-width="3.200935" stroke-linecap="round" stroke-linejoin="round" stroke="rgb(0.392157%, 27.058824%, 30.980392%)" stroke-opacity="1" stroke-miterlimit="10" d="M 50.152344 353.390625 L 570.523438 353.390625 L 570.523438 335.625 L 50.152344 335.625 Z M 50.152344 353.390625 "/>
</g>
<g fill="rgb(100%, 100%, 100%)" fill-opacity="1">
<use xlink:href="#glyph-0-9" x="302.835938" y="347.422852"/>
<use xlink:href="#glyph-0-10" x="308.835938" y="347.422852"/>
<use xlink:href="#glyph-0-11" x="315.835938" y="347.422852"/>
</g>
<g clip-path="url(#clip-75)">
<path fill-rule="nonzero" fill="rgb(0.392157%, 27.058824%, 30.980392%)" fill-opacity="1" stroke-width="3.200935" stroke-linecap="round" stroke-linejoin="round" stroke="rgb(0.392157%, 27.058824%, 30.980392%)" stroke-opacity="1" stroke-miterlimit="10" d="M 50.152344 188.320312 L 570.523438 188.320312 L 570.523438 170.554688 L 50.152344 170.554688 Z M 50.152344 188.320312 "/>
</g>
<g fill="rgb(100%, 100%, 100%)" fill-opacity="1">
<use xlink:href="#glyph-0-0" x="234.335938" y="182.352539"/>
<use xlink:href="#glyph-0-1" x="242.335938" y="182.352539"/>
<use xlink:href="#glyph-0-2" x="244.335938" y="182.352539"/>
<use xlink:href="#glyph-0-3" x="248.335938" y="182.352539"/>
<use xlink:href="#glyph-0-4" x="253.335938" y="182.352539"/>
<use xlink:href="#glyph-0-5" x="258.335938" y="182.352539"/>
<use xlink:href="#glyph-0-6" x="263.335938" y="182.352539"/>
<use xlink:href="#glyph-0-7" x="268.335938" y="182.352539"/>
<use xlink:href="#glyph-0-1" x="273.335938" y="182.352539"/>
<use xlink:href="#glyph-0-8" x="275.335938" y="182.352539"/>
<use xlink:href="#glyph-0-5" x="277.335938" y="182.352539"/>
<use xlink:href="#glyph-0-1" x="282.335938" y="182.352539"/>
<use xlink:href="#glyph-0-21" x="284.335938" y="182.352539"/>
<use xlink:href="#glyph-0-7" x="290.335938" y="182.352539"/>
<use xlink:href="#glyph-0-8" x="295.335938" y="182.352539"/>
<use xlink:href="#glyph-0-6" x="297.335938" y="182.352539"/>
<use xlink:href="#glyph-0-3" x="302.335938" y="182.352539"/>
<use xlink:href="#glyph-0-14" x="307.335938" y="182.352539"/>
<use xlink:href="#glyph-0-1" x="309.335938" y="182.352539"/>
<use xlink:href="#glyph-0-12" x="311.335938" y="182.352539"/>
<use xlink:href="#glyph-0-8" x="315.335938" y="182.352539"/>
<use xlink:href="#glyph-0-5" x="317.335938" y="182.352539"/>
<use xlink:href="#glyph-0-2" x="322.335938" y="182.352539"/>
<use xlink:href="#glyph-0-7" x="326.335938" y="182.352539"/>
<use xlink:href="#glyph-0-1" x="331.335938" y="182.352539"/>
<use xlink:href="#glyph-0-13" x="333.335938" y="182.352539"/>
<use xlink:href="#glyph-0-2" x="340.335938" y="182.352539"/>
<use xlink:href="#glyph-0-14" x="344.335938" y="182.352539"/>
<use xlink:href="#glyph-0-15" x="346.335938" y="182.352539"/>
<use xlink:href="#glyph-0-16" x="351.335938" y="182.352539"/>
<use xlink:href="#glyph-0-7" x="356.335938" y="182.352539"/>
<use xlink:href="#glyph-0-17" x="361.335938" y="182.352539"/>
<use xlink:href="#glyph-0-1" x="364.335938" y="182.352539"/>
<use xlink:href="#glyph-0-18" x="366.335938" y="182.352539"/>
<use xlink:href="#glyph-0-19" x="371.335938" y="182.352539"/>
<use xlink:href="#glyph-0-18" x="376.335938" y="182.352539"/>
<use xlink:href="#glyph-0-20" x="381.335938" y="182.352539"/>
</g>
<g clip-path="url(#clip-76)">
<path fill-rule="nonzero" fill="rgb(0.392157%, 27.058824%, 30.980392%)" fill-opacity="1" stroke-width="3.200935" stroke-linecap="round" stroke-linejoin="round" stroke="rgb(0.392157%, 27.058824%, 30.980392%)" stroke-opacity="1" stroke-miterlimit="10" d="M 50.152344 23.246094 L 570.523438 23.246094 L 570.523438 5.480469 L 50.152344 5.480469 Z M 50.152344 23.246094 "/>
</g>
<g fill="rgb(100%, 100%, 100%)" fill-opacity="1">
<use xlink:href="#glyph-0-22" x="290.335938" y="17.27832"/>
<use xlink:href="#glyph-0-7" x="298.335938" y="17.27832"/>
<use xlink:href="#glyph-0-8" x="303.335938" y="17.27832"/>
<use xlink:href="#glyph-0-6" x="305.335938" y="17.27832"/>
<use xlink:href="#glyph-0-3" x="310.335938" y="17.27832"/>
<use xlink:href="#glyph-0-14" x="315.335938" y="17.27832"/>
<use xlink:href="#glyph-0-23" x="317.335938" y="17.27832"/>
<use xlink:href="#glyph-0-1" x="319.335938" y="17.27832"/>
<use xlink:href="#glyph-0-24" x="321.335938" y="17.27832"/>
<use xlink:href="#glyph-0-6" x="325.335938" y="17.27832"/>
</g>
<path fill="none" stroke-width="1.066978" stroke-linecap="butt" stroke-linejoin="round" stroke="rgb(0.392157%, 27.058824%, 30.980392%)" stroke-opacity="1" stroke-miterlimit="10" d="M 212.941406 663.03125 L 212.941406 660.289062 "/>
<path fill="none" stroke-width="1.066978" stroke-linecap="butt" stroke-linejoin="round" stroke="rgb(0.392157%, 27.058824%, 30.980392%)" stroke-opacity="1" stroke-miterlimit="10" d="M 407.730469 663.03125 L 407.730469 660.289062 "/>
<g fill="rgb(0.392157%, 27.058824%, 30.980392%)" fill-opacity="1">
<use xlink:href="#glyph-1-0" x="194.568412" y="692.740287"/>
<use xlink:href="#glyph-1-1" x="199.518159" y="687.790539"/>
<use xlink:href="#glyph-1-2" x="203.7608" y="683.547899"/>
<use xlink:href="#glyph-1-3" x="208.003441" y="679.305258"/>
<use xlink:href="#glyph-1-4" x="210.124761" y="677.183938"/>
<use xlink:href="#glyph-1-5" x="214.367402" y="672.941297"/>
</g>
<g fill="rgb(0.392157%, 27.058824%, 30.980392%)" fill-opacity="1">
<use xlink:href="#glyph-1-0" x="389.357474" y="692.740287"/>
<use xlink:href="#glyph-1-1" x="394.307222" y="687.790539"/>
<use xlink:href="#glyph-1-2" x="398.549863" y="683.547899"/>
<use xlink:href="#glyph-1-3" x="402.792503" y="679.305258"/>
<use xlink:href="#glyph-1-6" x="404.913824" y="677.183938"/>
<use xlink:href="#glyph-1-6" x="409.156464" y="672.941297"/>
</g>
<g fill="rgb(0.392157%, 27.058824%, 30.980392%)" fill-opacity="1">
<use xlink:href="#glyph-2-0" x="33.21875" y="159.788086"/>
<use xlink:href="#glyph-2-1" x="39.21875" y="159.788086"/>
</g>
<g fill="rgb(0.392157%, 27.058824%, 30.980392%)" fill-opacity="1">
<use xlink:href="#glyph-2-0" x="33.21875" y="130.354492"/>
<use xlink:href="#glyph-2-2" x="39.21875" y="130.354492"/>
</g>
<g fill="rgb(0.392157%, 27.058824%, 30.980392%)" fill-opacity="1">
<use xlink:href="#glyph-2-3" x="33.21875" y="100.916992"/>
<use xlink:href="#glyph-2-1" x="39.21875" y="100.916992"/>
</g>
<g fill="rgb(0.392157%, 27.058824%, 30.980392%)" fill-opacity="1">
<use xlink:href="#glyph-2-3" x="33.21875" y="71.479492"/>
<use xlink:href="#glyph-2-2" x="39.21875" y="71.479492"/>
</g>
<g fill="rgb(0.392157%, 27.058824%, 30.980392%)" fill-opacity="1">
<use xlink:href="#glyph-2-4" x="33.21875" y="42.041992"/>
<use xlink:href="#glyph-2-1" x="39.21875" y="42.041992"/>
</g>
<path fill="none" stroke-width="1.066978" stroke-linecap="butt" stroke-linejoin="round" stroke="rgb(0.392157%, 27.058824%, 30.980392%)" stroke-opacity="1" stroke-miterlimit="10" d="M 47.410156 156.269531 L 50.152344 156.269531 "/>
<path fill="none" stroke-width="1.066978" stroke-linecap="butt" stroke-linejoin="round" stroke="rgb(0.392157%, 27.058824%, 30.980392%)" stroke-opacity="1" stroke-miterlimit="10" d="M 47.410156 126.835938 L 50.152344 126.835938 "/>
<path fill="none" stroke-width="1.066978" stroke-linecap="butt" stroke-linejoin="round" stroke="rgb(0.392157%, 27.058824%, 30.980392%)" stroke-opacity="1" stroke-miterlimit="10" d="M 47.410156 97.398438 L 50.152344 97.398438 "/>
<path fill="none" stroke-width="1.066978" stroke-linecap="butt" stroke-linejoin="round" stroke="rgb(0.392157%, 27.058824%, 30.980392%)" stroke-opacity="1" stroke-miterlimit="10" d="M 47.410156 67.960938 L 50.152344 67.960938 "/>
<path fill="none" stroke-width="1.066978" stroke-linecap="butt" stroke-linejoin="round" stroke="rgb(0.392157%, 27.058824%, 30.980392%)" stroke-opacity="1" stroke-miterlimit="10" d="M 47.410156 38.523438 L 50.152344 38.523438 "/>
<g fill="rgb(0.392157%, 27.058824%, 30.980392%)" fill-opacity="1">
<use xlink:href="#glyph-2-5" x="20.21875" y="328.811523"/>
<use xlink:href="#glyph-2-6" x="24.21875" y="328.811523"/>
<use xlink:href="#glyph-2-2" x="30.21875" y="328.811523"/>
<use xlink:href="#glyph-2-7" x="36.21875" y="328.811523"/>
<use xlink:href="#glyph-2-1" x="39.21875" y="328.811523"/>
</g>
<g fill="rgb(0.392157%, 27.058824%, 30.980392%)" fill-opacity="1">
<use xlink:href="#glyph-2-5" x="20.21875" y="302.198242"/>
<use xlink:href="#glyph-2-6" x="24.21875" y="302.198242"/>
<use xlink:href="#glyph-2-6" x="30.21875" y="302.198242"/>
<use xlink:href="#glyph-2-7" x="36.21875" y="302.198242"/>
<use xlink:href="#glyph-2-2" x="39.21875" y="302.198242"/>
</g>
<g fill="rgb(0.392157%, 27.058824%, 30.980392%)" fill-opacity="1">
<use xlink:href="#glyph-2-5" x="20.21875" y="275.584961"/>
<use xlink:href="#glyph-2-6" x="24.21875" y="275.584961"/>
<use xlink:href="#glyph-2-1" x="30.21875" y="275.584961"/>
<use xlink:href="#glyph-2-7" x="36.21875" y="275.584961"/>
<use xlink:href="#glyph-2-1" x="39.21875" y="275.584961"/>
</g>
<g fill="rgb(0.392157%, 27.058824%, 30.980392%)" fill-opacity="1">
<use xlink:href="#glyph-2-5" x="20.21875" y="248.975586"/>
<use xlink:href="#glyph-2-8" x="24.21875" y="248.975586"/>
<use xlink:href="#glyph-2-3" x="30.21875" y="248.975586"/>
<use xlink:href="#glyph-2-7" x="36.21875" y="248.975586"/>
<use xlink:href="#glyph-2-2" x="39.21875" y="248.975586"/>
</g>
<g fill="rgb(0.392157%, 27.058824%, 30.980392%)" fill-opacity="1">
<use xlink:href="#glyph-2-5" x="20.21875" y="222.362305"/>
<use xlink:href="#glyph-2-8" x="24.21875" y="222.362305"/>
<use xlink:href="#glyph-2-2" x="30.21875" y="222.362305"/>
<use xlink:href="#glyph-2-7" x="36.21875" y="222.362305"/>
<use xlink:href="#glyph-2-1" x="39.21875" y="222.362305"/>
</g>
<g fill="rgb(0.392157%, 27.058824%, 30.980392%)" fill-opacity="1">
<use xlink:href="#glyph-2-5" x="20.21875" y="195.75293"/>
<use xlink:href="#glyph-2-8" x="24.21875" y="195.75293"/>
<use xlink:href="#glyph-2-6" x="30.21875" y="195.75293"/>
<use xlink:href="#glyph-2-7" x="36.21875" y="195.75293"/>
<use xlink:href="#glyph-2-2" x="39.21875" y="195.75293"/>
</g>
<path fill="none" stroke-width="1.066978" stroke-linecap="butt" stroke-linejoin="round" stroke="rgb(0.392157%, 27.058824%, 30.980392%)" stroke-opacity="1" stroke-miterlimit="10" d="M 47.410156 325.292969 L 50.152344 325.292969 "/>
<path fill="none" stroke-width="1.066978" stroke-linecap="butt" stroke-linejoin="round" stroke="rgb(0.392157%, 27.058824%, 30.980392%)" stroke-opacity="1" stroke-miterlimit="10" d="M 47.410156 298.679688 L 50.152344 298.679688 "/>
<path fill="none" stroke-width="1.066978" stroke-linecap="butt" stroke-linejoin="round" stroke="rgb(0.392157%, 27.058824%, 30.980392%)" stroke-opacity="1" stroke-miterlimit="10" d="M 47.410156 272.066406 L 50.152344 272.066406 "/>
<path fill="none" stroke-width="1.066978" stroke-linecap="butt" stroke-linejoin="round" stroke="rgb(0.392157%, 27.058824%, 30.980392%)" stroke-opacity="1" stroke-miterlimit="10" d="M 47.410156 245.457031 L 50.152344 245.457031 "/>
<path fill="none" stroke-width="1.066978" stroke-linecap="butt" stroke-linejoin="round" stroke="rgb(0.392157%, 27.058824%, 30.980392%)" stroke-opacity="1" stroke-miterlimit="10" d="M 47.410156 218.84375 L 50.152344 218.84375 "/>
<path fill="none" stroke-width="1.066978" stroke-linecap="butt" stroke-linejoin="round" stroke="rgb(0.392157%, 27.058824%, 30.980392%)" stroke-opacity="1" stroke-miterlimit="10" d="M 47.410156 192.234375 L 50.152344 192.234375 "/>
<g fill="rgb(0.392157%, 27.058824%, 30.980392%)" fill-opacity="1">
<use xlink:href="#glyph-2-6" x="33.21875" y="498.522461"/>
<use xlink:href="#glyph-2-8" x="39.21875" y="498.522461"/>
</g>
<g fill="rgb(0.392157%, 27.058824%, 30.980392%)" fill-opacity="1">
<use xlink:href="#glyph-2-6" x="33.21875" y="475.518555"/>
<use xlink:href="#glyph-2-6" x="39.21875" y="475.518555"/>
</g>
<g fill="rgb(0.392157%, 27.058824%, 30.980392%)" fill-opacity="1">
<use xlink:href="#glyph-2-6" x="33.21875" y="452.514648"/>
<use xlink:href="#glyph-2-9" x="39.21875" y="452.514648"/>
</g>
<g fill="rgb(0.392157%, 27.058824%, 30.980392%)" fill-opacity="1">
<use xlink:href="#glyph-2-6" x="33.21875" y="429.506836"/>
<use xlink:href="#glyph-2-10" x="39.21875" y="429.506836"/>
</g>
<g fill="rgb(0.392157%, 27.058824%, 30.980392%)" fill-opacity="1">
<use xlink:href="#glyph-2-6" x="33.21875" y="406.50293"/>
<use xlink:href="#glyph-2-2" x="39.21875" y="406.50293"/>
</g>
<g fill="rgb(0.392157%, 27.058824%, 30.980392%)" fill-opacity="1">
<use xlink:href="#glyph-2-6" x="33.21875" y="383.495117"/>
<use xlink:href="#glyph-2-0" x="39.21875" y="383.495117"/>
</g>
<g fill="rgb(0.392157%, 27.058824%, 30.980392%)" fill-opacity="1">
<use xlink:href="#glyph-2-6" x="33.21875" y="360.491211"/>
<use xlink:href="#glyph-2-3" x="39.21875" y="360.491211"/>
</g>
<path fill="none" stroke-width="1.066978" stroke-linecap="butt" stroke-linejoin="round" stroke="rgb(0.392157%, 27.058824%, 30.980392%)" stroke-opacity="1" stroke-miterlimit="10" d="M 47.410156 495.003906 L 50.152344 495.003906 "/>
<path fill="none" stroke-width="1.066978" stroke-linecap="butt" stroke-linejoin="round" stroke="rgb(0.392157%, 27.058824%, 30.980392%)" stroke-opacity="1" stroke-miterlimit="10" d="M 47.410156 472 L 50.152344 472 "/>
<path fill="none" stroke-width="1.066978" stroke-linecap="butt" stroke-linejoin="round" stroke="rgb(0.392157%, 27.058824%, 30.980392%)" stroke-opacity="1" stroke-miterlimit="10" d="M 47.410156 448.996094 L 50.152344 448.996094 "/>
<path fill="none" stroke-width="1.066978" stroke-linecap="butt" stroke-linejoin="round" stroke="rgb(0.392157%, 27.058824%, 30.980392%)" stroke-opacity="1" stroke-miterlimit="10" d="M 47.410156 425.988281 L 50.152344 425.988281 "/>
<path fill="none" stroke-width="1.066978" stroke-linecap="butt" stroke-linejoin="round" stroke="rgb(0.392157%, 27.058824%, 30.980392%)" stroke-opacity="1" stroke-miterlimit="10" d="M 47.410156 402.984375 L 50.152344 402.984375 "/>
<path fill="none" stroke-width="1.066978" stroke-linecap="butt" stroke-linejoin="round" stroke="rgb(0.392157%, 27.058824%, 30.980392%)" stroke-opacity="1" stroke-miterlimit="10" d="M 47.410156 379.976562 L 50.152344 379.976562 "/>
<path fill="none" stroke-width="1.066978" stroke-linecap="butt" stroke-linejoin="round" stroke="rgb(0.392157%, 27.058824%, 30.980392%)" stroke-opacity="1" stroke-miterlimit="10" d="M 47.410156 356.972656 L 50.152344 356.972656 "/>
<g fill="rgb(0.392157%, 27.058824%, 30.980392%)" fill-opacity="1">
<use xlink:href="#glyph-2-5" x="20.21875" y="658.956055"/>
<use xlink:href="#glyph-2-6" x="24.21875" y="658.956055"/>
<use xlink:href="#glyph-2-2" x="30.21875" y="658.956055"/>
<use xlink:href="#glyph-2-7" x="36.21875" y="658.956055"/>
<use xlink:href="#glyph-2-1" x="39.21875" y="658.956055"/>
</g>
<g fill="rgb(0.392157%, 27.058824%, 30.980392%)" fill-opacity="1">
<use xlink:href="#glyph-2-5" x="20.21875" y="632.342773"/>
<use xlink:href="#glyph-2-6" x="24.21875" y="632.342773"/>
<use xlink:href="#glyph-2-6" x="30.21875" y="632.342773"/>
<use xlink:href="#glyph-2-7" x="36.21875" y="632.342773"/>
<use xlink:href="#glyph-2-2" x="39.21875" y="632.342773"/>
</g>
<g fill="rgb(0.392157%, 27.058824%, 30.980392%)" fill-opacity="1">
<use xlink:href="#glyph-2-5" x="20.21875" y="605.733398"/>
<use xlink:href="#glyph-2-6" x="24.21875" y="605.733398"/>
<use xlink:href="#glyph-2-1" x="30.21875" y="605.733398"/>
<use xlink:href="#glyph-2-7" x="36.21875" y="605.733398"/>
<use xlink:href="#glyph-2-1" x="39.21875" y="605.733398"/>
</g>
<g fill="rgb(0.392157%, 27.058824%, 30.980392%)" fill-opacity="1">
<use xlink:href="#glyph-2-5" x="20.21875" y="579.120117"/>
<use xlink:href="#glyph-2-8" x="24.21875" y="579.120117"/>
<use xlink:href="#glyph-2-3" x="30.21875" y="579.120117"/>
<use xlink:href="#glyph-2-7" x="36.21875" y="579.120117"/>
<use xlink:href="#glyph-2-2" x="39.21875" y="579.120117"/>
</g>
<g fill="rgb(0.392157%, 27.058824%, 30.980392%)" fill-opacity="1">
<use xlink:href="#glyph-2-5" x="20.21875" y="552.506836"/>
<use xlink:href="#glyph-2-8" x="24.21875" y="552.506836"/>
<use xlink:href="#glyph-2-2" x="30.21875" y="552.506836"/>
<use xlink:href="#glyph-2-7" x="36.21875" y="552.506836"/>
<use xlink:href="#glyph-2-1" x="39.21875" y="552.506836"/>
</g>
<g fill="rgb(0.392157%, 27.058824%, 30.980392%)" fill-opacity="1">
<use xlink:href="#glyph-2-5" x="20.21875" y="525.897461"/>
<use xlink:href="#glyph-2-8" x="24.21875" y="525.897461"/>
<use xlink:href="#glyph-2-6" x="30.21875" y="525.897461"/>
<use xlink:href="#glyph-2-7" x="36.21875" y="525.897461"/>
<use xlink:href="#glyph-2-2" x="39.21875" y="525.897461"/>
</g>
<path fill="none" stroke-width="1.066978" stroke-linecap="butt" stroke-linejoin="round" stroke="rgb(0.392157%, 27.058824%, 30.980392%)" stroke-opacity="1" stroke-miterlimit="10" d="M 47.410156 655.4375 L 50.152344 655.4375 "/>
<path fill="none" stroke-width="1.066978" stroke-linecap="butt" stroke-linejoin="round" stroke="rgb(0.392157%, 27.058824%, 30.980392%)" stroke-opacity="1" stroke-miterlimit="10" d="M 47.410156 628.824219 L 50.152344 628.824219 "/>
<path fill="none" stroke-width="1.066978" stroke-linecap="butt" stroke-linejoin="round" stroke="rgb(0.392157%, 27.058824%, 30.980392%)" stroke-opacity="1" stroke-miterlimit="10" d="M 47.410156 602.214844 L 50.152344 602.214844 "/>
<path fill="none" stroke-width="1.066978" stroke-linecap="butt" stroke-linejoin="round" stroke="rgb(0.392157%, 27.058824%, 30.980392%)" stroke-opacity="1" stroke-miterlimit="10" d="M 47.410156 575.601562 L 50.152344 575.601562 "/>
<path fill="none" stroke-width="1.066978" stroke-linecap="butt" stroke-linejoin="round" stroke="rgb(0.392157%, 27.058824%, 30.980392%)" stroke-opacity="1" stroke-miterlimit="10" d="M 47.410156 548.988281 L 50.152344 548.988281 "/>
<path fill="none" stroke-width="1.066978" stroke-linecap="butt" stroke-linejoin="round" stroke="rgb(0.392157%, 27.058824%, 30.980392%)" stroke-opacity="1" stroke-miterlimit="10" d="M 47.410156 522.378906 L 50.152344 522.378906 "/>
<g fill="rgb(0.392157%, 27.058824%, 30.980392%)" fill-opacity="1">
<use xlink:href="#glyph-2-11" x="298.835938" y="706.31543"/>
<use xlink:href="#glyph-2-12" x="306.835938" y="706.31543"/>
<use xlink:href="#glyph-2-13" x="312.835938" y="706.31543"/>
<use xlink:href="#glyph-2-14" x="315.835938" y="706.31543"/>
</g>
<g fill="rgb(0.392157%, 27.058824%, 30.980392%)" fill-opacity="1">
<use xlink:href="#glyph-3-0" x="13.499023" y="355.269531"/>
<use xlink:href="#glyph-3-1" x="13.499023" y="348.269531"/>
<use xlink:href="#glyph-3-2" x="13.499023" y="342.269531"/>
<use xlink:href="#glyph-3-3" x="13.499023" y="340.269531"/>
<use xlink:href="#glyph-3-4" x="13.499023" y="334.269531"/>
</g>
<path fill-rule="nonzero" fill="rgb(100%, 100%, 100%)" fill-opacity="1" d="M 122.484375 742.519531 L 498.1875 742.519531 L 498.1875 721.253906 L 122.484375 721.253906 Z M 122.484375 742.519531 "/>
<g fill="rgb(0.392157%, 27.058824%, 30.980392%)" fill-opacity="1">
<use xlink:href="#glyph-4-0" x="124.476562" y="735.405273"/>
<use xlink:href="#glyph-4-1" x="128.476562" y="735.405273"/>
<use xlink:href="#glyph-4-2" x="135.476562" y="735.405273"/>
<use xlink:href="#glyph-4-3" x="138.476562" y="735.405273"/>
</g>
<path fill-rule="nonzero" fill="rgb(100%, 100%, 100%)" fill-opacity="1" stroke-width="1.066978" stroke-linecap="round" stroke-linejoin="round" stroke="rgb(0%, 0%, 0%)" stroke-opacity="1" stroke-miterlimit="10" d="M 149.957031 740.527344 L 167.238281 740.527344 L 167.238281 723.246094 L 149.957031 723.246094 Z M 149.957031 740.527344 "/>
<path fill-rule="nonzero" fill="rgb(97.254902%, 46.27451%, 42.745098%)" fill-opacity="0.2" d="M 150.664062 739.820312 L 166.527344 739.820312 L 166.527344 723.957031 L 150.664062 723.957031 Z M 150.664062 739.820312 "/>
<path fill-rule="nonzero" fill="rgb(100%, 100%, 100%)" fill-opacity="1" stroke-width="1.066978" stroke-linecap="round" stroke-linejoin="round" stroke="rgb(0%, 0%, 0%)" stroke-opacity="1" stroke-miterlimit="10" d="M 226.195312 740.527344 L 243.476562 740.527344 L 243.476562 723.246094 L 226.195312 723.246094 Z M 226.195312 740.527344 "/>
<path fill-rule="nonzero" fill="rgb(0%, 72.941176%, 21.960784%)" fill-opacity="0.2" d="M 226.902344 739.820312 L 242.765625 739.820312 L 242.765625 723.957031 L 226.902344 723.957031 Z M 226.902344 739.820312 "/>
<path fill-rule="nonzero" fill="rgb(100%, 100%, 100%)" fill-opacity="1" stroke-width="1.066978" stroke-linecap="round" stroke-linejoin="round" stroke="rgb(0%, 0%, 0%)" stroke-opacity="1" stroke-miterlimit="10" d="M 357.433594 740.527344 L 374.714844 740.527344 L 374.714844 723.246094 L 357.433594 723.246094 Z M 357.433594 740.527344 "/>
<path fill-rule="nonzero" fill="rgb(38.039216%, 61.176471%, 100%)" fill-opacity="0.2" d="M 358.144531 739.820312 L 374.007812 739.820312 L 374.007812 723.957031 L 358.144531 723.957031 Z M 358.144531 739.820312 "/>
<g fill="rgb(0.392157%, 27.058824%, 30.980392%)" fill-opacity="1">
<use xlink:href="#glyph-2-14" x="172.714844" y="735.405273"/>
<use xlink:href="#glyph-2-15" x="178.714844" y="735.405273"/>
<use xlink:href="#glyph-2-16" x="184.714844" y="735.405273"/>
<use xlink:href="#glyph-2-12" x="190.714844" y="735.405273"/>
<use xlink:href="#glyph-2-13" x="196.714844" y="735.405273"/>
<use xlink:href="#glyph-2-17" x="199.714844" y="735.405273"/>
<use xlink:href="#glyph-2-18" x="203.714844" y="735.405273"/>
<use xlink:href="#glyph-2-12" x="205.714844" y="735.405273"/>
<use xlink:href="#glyph-2-13" x="211.714844" y="735.405273"/>
<use xlink:href="#glyph-2-14" x="214.714844" y="735.405273"/>
</g>
<g fill="rgb(0.392157%, 27.058824%, 30.980392%)" fill-opacity="1">
<use xlink:href="#glyph-2-19" x="248.953125" y="735.405273"/>
<use xlink:href="#glyph-2-12" x="254.953125" y="735.405273"/>
<use xlink:href="#glyph-2-13" x="260.953125" y="735.405273"/>
<use xlink:href="#glyph-2-18" x="263.953125" y="735.405273"/>
<use xlink:href="#glyph-2-20" x="265.953125" y="735.405273"/>
<use xlink:href="#glyph-2-19" x="271.953125" y="735.405273"/>
<use xlink:href="#glyph-2-12" x="277.953125" y="735.405273"/>
<use xlink:href="#glyph-2-21" x="283.953125" y="735.405273"/>
<use xlink:href="#glyph-2-22" x="285.953125" y="735.405273"/>
<use xlink:href="#glyph-2-23" x="288.953125" y="735.405273"/>
<use xlink:href="#glyph-2-13" x="293.953125" y="735.405273"/>
<use xlink:href="#glyph-2-12" x="296.953125" y="735.405273"/>
<use xlink:href="#glyph-2-24" x="302.953125" y="735.405273"/>
<use xlink:href="#glyph-2-22" x="308.953125" y="735.405273"/>
<use xlink:href="#glyph-2-25" x="311.953125" y="735.405273"/>
<use xlink:href="#glyph-2-14" x="320.953125" y="735.405273"/>
<use xlink:href="#glyph-2-25" x="326.953125" y="735.405273"/>
<use xlink:href="#glyph-2-26" x="335.953125" y="735.405273"/>
<use xlink:href="#glyph-2-14" x="341.953125" y="735.405273"/>
<use xlink:href="#glyph-2-17" x="347.953125" y="735.405273"/>
</g>
<g fill="rgb(0.392157%, 27.058824%, 30.980392%)" fill-opacity="1">
<use xlink:href="#glyph-2-27" x="380.195312" y="735.405273"/>
<use xlink:href="#glyph-2-20" x="386.195312" y="735.405273"/>
<use xlink:href="#glyph-2-19" x="392.195312" y="735.405273"/>
<use xlink:href="#glyph-2-23" x="398.195312" y="735.405273"/>
<use xlink:href="#glyph-2-28" x="404.195312" y="735.405273"/>
<use xlink:href="#glyph-2-21" x="410.195312" y="735.405273"/>
<use xlink:href="#glyph-2-13" x="412.195312" y="735.405273"/>
<use xlink:href="#glyph-2-12" x="415.195312" y="735.405273"/>
<use xlink:href="#glyph-2-19" x="421.195312" y="735.405273"/>
<use xlink:href="#glyph-2-13" x="427.195312" y="735.405273"/>
<use xlink:href="#glyph-2-22" x="430.195312" y="735.405273"/>
<use xlink:href="#glyph-2-20" x="433.195312" y="735.405273"/>
<use xlink:href="#glyph-2-17" x="439.195312" y="735.405273"/>
<use xlink:href="#glyph-2-22" x="443.195312" y="735.405273"/>
<use xlink:href="#glyph-2-27" x="446.195312" y="735.405273"/>
<use xlink:href="#glyph-2-20" x="452.195312" y="735.405273"/>
<use xlink:href="#glyph-2-19" x="458.195312" y="735.405273"/>
<use xlink:href="#glyph-2-13" x="464.195312" y="735.405273"/>
<use xlink:href="#glyph-2-17" x="467.195312" y="735.405273"/>
<use xlink:href="#glyph-2-12" x="471.195312" y="735.405273"/>
<use xlink:href="#glyph-2-27" x="477.195312" y="735.405273"/>
<use xlink:href="#glyph-2-13" x="483.195312" y="735.405273"/>
<use xlink:href="#glyph-2-20" x="486.195312" y="735.405273"/>
<use xlink:href="#glyph-2-17" x="492.195312" y="735.405273"/>
</g>
</svg>
