<?xml version="1.0" encoding="UTF-8"?>
<svg xmlns="http://www.w3.org/2000/svg" xmlns:xlink="http://www.w3.org/1999/xlink" width="504" height="252" viewBox="0 0 504 252">
<defs>
<g>
<g id="glyph-0-0">
<path d="M 3.03125 -7.953125 C 2.296875 -7.953125 1.640625 -7.625 1.234375 -7.078125 C 0.71875 -6.375 0.46875 -5.328125 0.46875 -3.84375 C 0.46875 -1.171875 1.359375 0.25 3.03125 0.25 C 4.671875 0.25 5.578125 -1.171875 5.578125 -3.78125 C 5.578125 -5.328125 5.328125 -6.359375 4.8125 -7.078125 C 4.40625 -7.640625 3.765625 -7.953125 3.03125 -7.953125 Z M 3.03125 -7.09375 C 4.0625 -7.09375 4.59375 -6.03125 4.59375 -3.875 C 4.59375 -1.609375 4.078125 -0.546875 3 -0.546875 C 1.984375 -0.546875 1.46875 -1.65625 1.46875 -3.84375 C 1.46875 -6.03125 1.984375 -7.09375 3.03125 -7.09375 Z M 3.03125 -7.09375 "/>
</g>
<g id="glyph-0-1">
<path d="M 5.234375 -7.796875 L 1.203125 -7.796875 L 0.625 -3.546875 L 1.515625 -3.546875 C 1.96875 -4.09375 2.34375 -4.28125 2.953125 -4.28125 C 4 -4.28125 4.65625 -3.5625 4.65625 -2.40625 C 4.65625 -1.28125 4 -0.609375 2.953125 -0.609375 C 2.09375 -0.609375 1.578125 -1.03125 1.359375 -1.90625 L 0.390625 -1.90625 C 0.515625 -1.28125 0.625 -0.96875 0.859375 -0.6875 C 1.296875 -0.09375 2.09375 0.25 2.96875 0.25 C 4.546875 0.25 5.640625 -0.890625 5.640625 -2.546875 C 5.640625 -4.078125 4.625 -5.140625 3.125 -5.140625 C 2.578125 -5.140625 2.140625 -5 1.6875 -4.65625 L 1.984375 -6.84375 L 5.234375 -6.84375 Z M 5.234375 -7.796875 "/>
</g>
<g id="glyph-0-2">
<path d="M 2.84375 -5.671875 L 2.84375 0 L 3.8125 0 L 3.8125 -7.953125 L 3.171875 -7.953125 C 2.84375 -6.734375 2.625 -6.5625 1.125 -6.375 L 1.125 -5.671875 Z M 2.84375 -5.671875 "/>
</g>
<g id="glyph-0-3">
<path d="M 5.5625 -0.953125 L 1.46875 -0.953125 C 1.5625 -1.609375 1.90625 -2.03125 2.875 -2.625 L 3.96875 -3.234375 C 5.0625 -3.84375 5.625 -4.65625 5.625 -5.625 C 5.625 -6.296875 5.359375 -6.90625 4.890625 -7.34375 C 4.4375 -7.75 3.859375 -7.953125 3.125 -7.953125 C 2.140625 -7.953125 1.390625 -7.59375 0.96875 -6.921875 C 0.6875 -6.5 0.578125 -6 0.546875 -5.203125 L 1.515625 -5.203125 C 1.546875 -5.734375 1.609375 -6.0625 1.75 -6.328125 C 2 -6.8125 2.515625 -7.109375 3.09375 -7.109375 C 3.96875 -7.109375 4.625 -6.46875 4.625 -5.609375 C 4.625 -4.96875 4.265625 -4.421875 3.578125 -4.03125 L 2.5625 -3.4375 C 0.9375 -2.5 0.46875 -1.75 0.375 -0.015625 L 5.5625 -0.015625 Z M 5.5625 -0.953125 "/>
</g>
<g id="glyph-0-4">
<path d="M 0.984375 0 L 4.0625 0 C 6.09375 0 7.34375 -1.515625 7.34375 -4.015625 C 7.34375 -6.5 6.109375 -8.015625 4.0625 -8.015625 L 0.984375 -8.015625 Z M 2 -0.90625 L 2 -7.109375 L 3.890625 -7.109375 C 5.484375 -7.109375 6.3125 -6.046875 6.3125 -4 C 6.3125 -1.96875 5.484375 -0.90625 3.890625 -0.90625 Z M 2 -0.90625 "/>
</g>
<g id="glyph-0-5">
<path d="M 5.890625 -0.53125 C 5.78125 -0.515625 5.734375 -0.515625 5.6875 -0.515625 C 5.375 -0.515625 5.1875 -0.6875 5.1875 -0.96875 L 5.1875 -4.359375 C 5.1875 -5.375 4.4375 -5.921875 3.03125 -5.921875 C 2.171875 -5.921875 1.5 -5.6875 1.109375 -5.265625 C 0.84375 -4.96875 0.734375 -4.625 0.71875 -4.0625 L 1.640625 -4.0625 C 1.71875 -4.765625 2.140625 -5.078125 2.984375 -5.078125 C 3.828125 -5.078125 4.28125 -4.78125 4.28125 -4.21875 L 4.28125 -3.984375 C 4.265625 -3.59375 4.0625 -3.4375 3.328125 -3.34375 C 2.03125 -3.171875 1.828125 -3.140625 1.46875 -2.984375 C 0.796875 -2.703125 0.46875 -2.203125 0.46875 -1.453125 C 0.46875 -0.40625 1.1875 0.25 2.359375 0.25 C 3.078125 0.25 3.65625 0 4.3125 -0.59375 C 4.375 0 4.65625 0.25 5.265625 0.25 C 5.453125 0.25 5.578125 0.234375 5.890625 0.15625 Z M 4.28125 -1.8125 C 4.28125 -1.5 4.1875 -1.3125 3.921875 -1.0625 C 3.546875 -0.71875 3.09375 -0.546875 2.546875 -0.546875 C 1.84375 -0.546875 1.421875 -0.890625 1.421875 -1.46875 C 1.421875 -2.078125 1.8125 -2.390625 2.8125 -2.53125 C 3.78125 -2.65625 3.96875 -2.703125 4.28125 -2.84375 Z M 4.28125 -1.8125 "/>
</g>
<g id="glyph-0-6">
<path d="M 2.796875 -5.765625 L 1.84375 -5.765625 L 1.84375 -7.34375 L 0.9375 -7.34375 L 0.9375 -5.765625 L 0.15625 -5.765625 L 0.15625 -5.015625 L 0.9375 -5.015625 L 0.9375 -0.65625 C 0.9375 -0.0625 1.328125 0.25 2.046875 0.25 C 2.28125 0.25 2.484375 0.234375 2.796875 0.171875 L 2.796875 -0.59375 C 2.65625 -0.5625 2.546875 -0.546875 2.359375 -0.546875 C 1.953125 -0.546875 1.84375 -0.65625 1.84375 -1.0625 L 1.84375 -5.015625 L 2.796875 -5.015625 Z M 2.796875 -5.765625 "/>
</g>
<g id="glyph-0-7">
<path d="M 5.640625 -2.578125 C 5.640625 -3.453125 5.578125 -3.984375 5.40625 -4.40625 C 5.03125 -5.359375 4.15625 -5.921875 3.078125 -5.921875 C 1.46875 -5.921875 0.4375 -4.703125 0.4375 -2.8125 C 0.4375 -0.90625 1.4375 0.25 3.0625 0.25 C 4.375 0.25 5.296875 -0.5 5.515625 -1.75 L 4.59375 -1.75 C 4.34375 -0.984375 3.828125 -0.59375 3.09375 -0.59375 C 2.515625 -0.59375 2.015625 -0.859375 1.703125 -1.34375 C 1.484375 -1.671875 1.40625 -2 1.390625 -2.578125 Z M 1.421875 -3.328125 C 1.5 -4.390625 2.140625 -5.078125 3.0625 -5.078125 C 4 -5.078125 4.65625 -4.359375 4.65625 -3.328125 Z M 1.421875 -3.328125 "/>
</g>
<g id="glyph-0-8">
<path d="M 2.4375 -3.65625 L 2.953125 -3.65625 C 4.015625 -3.65625 4.578125 -3.171875 4.578125 -2.21875 C 4.578125 -1.203125 3.96875 -0.609375 2.96875 -0.609375 C 1.90625 -0.609375 1.390625 -1.140625 1.3125 -2.3125 L 0.359375 -2.3125 C 0.390625 -1.671875 0.5 -1.25 0.6875 -0.90625 C 1.09375 -0.125 1.859375 0.25 2.921875 0.25 C 4.53125 0.25 5.5625 -0.71875 5.5625 -2.21875 C 5.5625 -3.234375 5.1875 -3.78125 4.25 -4.109375 C 4.96875 -4.40625 5.328125 -4.96875 5.328125 -5.765625 C 5.328125 -7.125 4.4375 -7.953125 2.953125 -7.953125 C 1.390625 -7.953125 0.546875 -7.078125 0.515625 -5.390625 L 1.484375 -5.390625 C 1.5 -5.875 1.546875 -6.15625 1.65625 -6.390625 C 1.875 -6.84375 2.359375 -7.109375 2.96875 -7.109375 C 3.828125 -7.109375 4.34375 -6.59375 4.34375 -5.734375 C 4.34375 -5.171875 4.140625 -4.828125 3.71875 -4.640625 C 3.453125 -4.53125 3.109375 -4.484375 2.4375 -4.484375 Z M 2.4375 -3.65625 "/>
</g>
<g id="glyph-0-9">
<path d="M 3.125 -3.4375 L 0.5 -3.4375 L 0.5 -2.640625 L 3.125 -2.640625 Z M 3.125 -3.4375 "/>
</g>
<g id="glyph-0-10">
<path d="M 3.59375 -1.921875 L 3.59375 0 L 4.5625 0 L 4.5625 -1.921875 L 5.71875 -1.921875 L 5.71875 -2.796875 L 4.5625 -2.796875 L 4.5625 -7.953125 L 3.84375 -7.953125 L 0.3125 -2.953125 L 0.3125 -1.921875 Z M 3.59375 -2.796875 L 1.15625 -2.796875 L 3.59375 -6.296875 Z M 3.59375 -2.796875 "/>
</g>
<g id="glyph-0-11">
</g>
<g id="glyph-0-12">
<path d="M 4.265625 -5.765625 L 2.671875 -1.28125 L 1.203125 -5.765625 L 0.21875 -5.765625 L 2.171875 0.015625 L 1.8125 0.9375 C 1.65625 1.34375 1.46875 1.5 1.078125 1.5 C 0.921875 1.5 0.796875 1.46875 0.59375 1.4375 L 0.59375 2.25 C 0.78125 2.359375 0.96875 2.390625 1.203125 2.390625 C 1.5 2.390625 1.828125 2.296875 2.0625 2.125 C 2.359375 1.90625 2.515625 1.671875 2.6875 1.203125 L 5.265625 -5.765625 Z M 4.265625 -5.765625 "/>
</g>
<g id="glyph-0-13">
<path d="M 0.765625 -5.765625 L 0.765625 0 L 1.6875 0 L 1.6875 -2.984375 C 1.6875 -4.375 2.265625 -5 3.53125 -4.96875 L 3.53125 -5.890625 C 3.375 -5.921875 3.28125 -5.921875 3.171875 -5.921875 C 2.578125 -5.921875 2.140625 -5.578125 1.609375 -4.71875 L 1.609375 -5.765625 Z M 0.765625 -5.765625 "/>
</g>
<g id="glyph-0-14">
<path d="M 4.8125 -4.15625 C 4.8125 -5.296875 4.0625 -5.921875 2.734375 -5.921875 C 1.390625 -5.921875 0.515625 -5.234375 0.515625 -4.171875 C 0.515625 -3.265625 0.984375 -2.84375 2.34375 -2.515625 L 3.203125 -2.296875 C 3.84375 -2.140625 4.09375 -1.90625 4.09375 -1.5 C 4.09375 -0.953125 3.546875 -0.59375 2.75 -0.59375 C 2.25 -0.59375 1.84375 -0.734375 1.609375 -0.984375 C 1.46875 -1.140625 1.390625 -1.3125 1.34375 -1.71875 L 0.375 -1.71875 C 0.421875 -0.390625 1.171875 0.25 2.671875 0.25 C 4.125 0.25 5.046875 -0.46875 5.046875 -1.578125 C 5.046875 -2.4375 4.5625 -2.90625 3.421875 -3.171875 L 2.546875 -3.390625 C 1.796875 -3.5625 1.46875 -3.8125 1.46875 -4.21875 C 1.46875 -4.75 1.953125 -5.078125 2.6875 -5.078125 C 3.4375 -5.078125 3.828125 -4.765625 3.84375 -4.15625 Z M 4.8125 -4.15625 "/>
</g>
<g id="glyph-0-15">
<path d="M 0.953125 -1.140625 L 0.953125 0 L 1.609375 0 L 1.609375 0.203125 C 1.609375 0.953125 1.46875 1.171875 0.953125 1.203125 L 0.953125 1.609375 C 1.6875 1.640625 2.109375 1.109375 2.109375 0.171875 L 2.109375 -1.140625 Z M 0.953125 -1.140625 "/>
</g>
<g id="glyph-0-16">
<path d="M 2.984375 -5.921875 C 1.359375 -5.921875 0.390625 -4.78125 0.390625 -2.84375 C 0.390625 -0.890625 1.359375 0.25 3 0.25 C 4.625 0.25 5.609375 -0.90625 5.609375 -2.796875 C 5.609375 -4.796875 4.65625 -5.921875 2.984375 -5.921875 Z M 3 -5.078125 C 4.03125 -5.078125 4.65625 -4.234375 4.65625 -2.8125 C 4.65625 -1.4375 4.015625 -0.59375 3 -0.59375 C 1.984375 -0.59375 1.359375 -1.4375 1.359375 -2.84375 C 1.359375 -4.234375 1.984375 -5.078125 3 -5.078125 Z M 3 -5.078125 "/>
</g>
<g id="glyph-0-17">
<path d="M 0.765625 -8.015625 L 0.765625 0 L 1.6875 0 L 1.6875 -3.171875 C 1.6875 -4.359375 2.296875 -5.125 3.25 -5.125 C 3.546875 -5.125 3.84375 -5.03125 4.0625 -4.875 C 4.328125 -4.671875 4.4375 -4.40625 4.4375 -4 L 4.4375 0 L 5.34375 0 L 5.34375 -4.359375 C 5.34375 -5.328125 4.65625 -5.921875 3.53125 -5.921875 C 2.71875 -5.921875 2.21875 -5.671875 1.6875 -4.96875 L 1.6875 -8.015625 Z M 0.765625 -8.015625 "/>
</g>
<g id="glyph-0-18">
<path d="M 4.28125 -8.15625 C 1.984375 -8.15625 0.421875 -6.453125 0.421875 -3.953125 C 0.421875 -1.4375 1.96875 0.25 4.296875 0.25 C 5.265625 0.25 6.125 -0.046875 6.78125 -0.59375 C 7.640625 -1.328125 8.15625 -2.578125 8.15625 -3.890625 C 8.15625 -6.46875 6.640625 -8.15625 4.28125 -8.15625 Z M 4.28125 -7.25 C 6.015625 -7.25 7.140625 -5.9375 7.140625 -3.90625 C 7.140625 -1.96875 5.984375 -0.65625 4.296875 -0.65625 C 2.578125 -0.65625 1.4375 -1.96875 1.4375 -3.953125 C 1.4375 -5.921875 2.578125 -7.25 4.28125 -7.25 Z M 4.28125 -7.25 "/>
</g>
<g id="glyph-0-19">
<path d="M 3.140625 0 L 5.34375 -5.765625 L 4.3125 -5.765625 L 2.6875 -1.09375 L 1.140625 -5.765625 L 0.109375 -5.765625 L 2.140625 0 Z M 3.140625 0 "/>
</g>
<g id="glyph-0-20">
<path d="M 5.1875 -3.828125 C 5.140625 -4.390625 5.015625 -4.75 4.796875 -5.078125 C 4.40625 -5.609375 3.703125 -5.921875 2.90625 -5.921875 C 1.34375 -5.921875 0.34375 -4.703125 0.34375 -2.78125 C 0.34375 -0.921875 1.328125 0.25 2.890625 0.25 C 4.265625 0.25 5.140625 -0.578125 5.25 -1.984375 L 4.328125 -1.984375 C 4.171875 -1.0625 3.703125 -0.59375 2.921875 -0.59375 C 1.90625 -0.59375 1.296875 -1.421875 1.296875 -2.78125 C 1.296875 -4.21875 1.890625 -5.078125 2.890625 -5.078125 C 3.65625 -5.078125 4.140625 -4.625 4.25 -3.828125 Z M 5.1875 -3.828125 "/>
</g>
<g id="glyph-0-21">
<path d="M 5.296875 0 L 5.296875 -5.765625 L 4.390625 -5.765625 L 4.390625 -2.5 C 4.390625 -1.3125 3.765625 -0.546875 2.8125 -0.546875 C 2.09375 -0.546875 1.625 -0.984375 1.625 -1.6875 L 1.625 -5.765625 L 0.71875 -5.765625 L 0.71875 -1.3125 C 0.71875 -0.359375 1.4375 0.25 2.546875 0.25 C 3.40625 0.25 3.9375 -0.046875 4.484375 -0.796875 L 4.484375 0 Z M 5.296875 0 "/>
</g>
<g id="glyph-0-22">
<path d="M 1.671875 -8.015625 L 0.75 -8.015625 L 0.75 0 L 1.671875 0 Z M 1.671875 -8.015625 "/>
</g>
<g id="glyph-0-23">
<path d="M 2.859375 -5.765625 L 1.90625 -5.765625 L 1.90625 -6.671875 C 1.90625 -7.046875 2.109375 -7.25 2.546875 -7.25 C 2.625 -7.25 2.65625 -7.25 2.859375 -7.234375 L 2.859375 -8 C 2.65625 -8.046875 2.53125 -8.046875 2.34375 -8.046875 C 1.5 -8.046875 0.984375 -7.5625 0.984375 -6.75 L 0.984375 -5.765625 L 0.21875 -5.765625 L 0.21875 -5.015625 L 0.984375 -5.015625 L 0.984375 0 L 1.90625 0 L 1.90625 -5.015625 L 2.859375 -5.015625 Z M 5.8125 -5.765625 L 4.859375 -5.765625 L 4.859375 -6.671875 C 4.859375 -7.046875 5.078125 -7.25 5.5 -7.25 C 5.578125 -7.25 5.609375 -7.25 5.8125 -7.234375 L 5.8125 -8 C 5.609375 -8.046875 5.484375 -8.046875 5.296875 -8.046875 C 4.453125 -8.046875 3.953125 -7.5625 3.953125 -6.75 L 3.953125 -5.765625 L 3.171875 -5.765625 L 3.171875 -5.015625 L 3.953125 -5.015625 L 3.953125 0 L 4.859375 0 L 4.859375 -5.015625 L 5.8125 -5.015625 Z M 5.8125 -5.765625 "/>
</g>
<g id="glyph-0-24">
<path d="M 2.515625 -8.015625 L -0.09375 0.21875 L 0.515625 0.21875 L 3.125 -8.015625 Z M 2.515625 -8.015625 "/>
</g>
<g id="glyph-0-25">
<path d="M 5.4375 -8.015625 L 4.53125 -8.015625 L 4.53125 -5.03125 C 4.140625 -5.625 3.53125 -5.921875 2.765625 -5.921875 C 1.265625 -5.921875 0.28125 -4.734375 0.28125 -2.890625 C 0.28125 -0.953125 1.234375 0.25 2.796875 0.25 C 3.59375 0.25 4.140625 -0.046875 4.625 -0.765625 L 4.625 0 L 5.4375 0 Z M 2.921875 -5.078125 C 3.90625 -5.078125 4.53125 -4.203125 4.53125 -2.8125 C 4.53125 -1.484375 3.890625 -0.609375 2.921875 -0.609375 C 1.90625 -0.609375 1.25 -1.5 1.25 -2.84375 C 1.25 -4.1875 1.90625 -5.078125 2.921875 -5.078125 Z M 2.921875 -5.078125 "/>
</g>
<g id="glyph-0-26">
<path d="M 1.65625 -5.765625 L 0.734375 -5.765625 L 0.734375 0 L 1.65625 0 Z M 1.65625 -8.015625 L 0.71875 -8.015625 L 0.71875 -6.859375 L 1.65625 -6.859375 Z M 1.65625 -8.015625 "/>
</g>
<g id="glyph-0-27">
<path d="M 6.09375 0 L 7.78125 -5.765625 L 6.75 -5.765625 L 5.609375 -1.28125 L 4.484375 -5.765625 L 3.359375 -5.765625 L 2.25 -1.28125 L 1.078125 -5.765625 L 0.0625 -5.765625 L 1.734375 0 L 2.765625 0 L 3.890625 -4.515625 L 5.046875 0 Z M 6.09375 0 "/>
</g>
<g id="glyph-0-28">
<path d="M 1.546875 -8.015625 L 0.640625 -8.015625 L 0.640625 0 L 1.546875 0 L 1.546875 -2.25 L 2.4375 -3.125 L 4.390625 0 L 5.515625 0 L 3.171875 -3.765625 L 5.171875 -5.765625 L 4 -5.765625 L 1.546875 -3.328125 Z M 1.546875 -8.015625 "/>
</g>
<g id="glyph-0-29">
<path d="M 3.21875 -2.984375 L 5.140625 -5.765625 L 4.109375 -5.765625 L 2.734375 -3.671875 L 1.34375 -5.765625 L 0.296875 -5.765625 L 2.21875 -2.9375 L 0.1875 0 L 1.234375 0 L 2.6875 -2.21875 L 4.140625 0 L 5.203125 0 Z M 3.21875 -2.984375 "/>
</g>
<g id="glyph-0-30">
<path d="M 0.59375 2.390625 L 1.515625 2.390625 L 1.515625 -0.609375 C 2 -0.015625 2.546875 0.25 3.28125 0.25 C 4.78125 0.25 5.75 -0.953125 5.75 -2.78125 C 5.75 -4.71875 4.8125 -5.921875 3.28125 -5.921875 C 2.5 -5.921875 1.875 -5.578125 1.4375 -4.890625 L 1.4375 -5.765625 L 0.59375 -5.765625 Z M 3.125 -5.078125 C 4.140625 -5.078125 4.796875 -4.1875 4.796875 -2.8125 C 4.796875 -1.5 4.125 -0.609375 3.125 -0.609375 C 2.140625 -0.609375 1.515625 -1.484375 1.515625 -2.84375 C 1.515625 -4.1875 2.140625 -5.078125 3.125 -5.078125 Z M 3.125 -5.078125 "/>
</g>
<g id="glyph-0-31">
<path d="M 0.765625 -5.765625 L 0.765625 0 L 1.6875 0 L 1.6875 -3.171875 C 1.6875 -4.359375 2.3125 -5.125 3.25 -5.125 C 3.984375 -5.125 4.4375 -4.6875 4.4375 -4 L 4.4375 0 L 5.359375 0 L 5.359375 -4.359375 C 5.359375 -5.3125 4.640625 -5.921875 3.53125 -5.921875 C 2.671875 -5.921875 2.125 -5.59375 1.609375 -4.796875 L 1.609375 -5.765625 Z M 0.765625 -5.765625 "/>
</g>
<g id="glyph-0-32">
<path d="M 0.765625 -5.765625 L 0.765625 0 L 1.6875 0 L 1.6875 -3.625 C 1.6875 -4.453125 2.296875 -5.125 3.046875 -5.125 C 3.734375 -5.125 4.109375 -4.703125 4.109375 -3.96875 L 4.109375 0 L 5.03125 0 L 5.03125 -3.625 C 5.03125 -4.453125 5.640625 -5.125 6.390625 -5.125 C 7.0625 -5.125 7.453125 -4.703125 7.453125 -3.96875 L 7.453125 0 L 8.375 0 L 8.375 -4.328125 C 8.375 -5.359375 7.78125 -5.921875 6.703125 -5.921875 C 5.9375 -5.921875 5.484375 -5.703125 4.9375 -5.046875 C 4.59375 -5.671875 4.140625 -5.921875 3.390625 -5.921875 C 2.625 -5.921875 2.09375 -5.640625 1.609375 -4.953125 L 1.609375 -5.765625 Z M 0.765625 -5.765625 "/>
</g>
<g id="glyph-0-33">
<path d="M 0.59375 -8.015625 L 0.59375 0 L 1.421875 0 L 1.421875 -0.734375 C 1.859375 -0.0625 2.4375 0.25 3.25 0.25 C 4.765625 0.25 5.75 -0.984375 5.75 -2.90625 C 5.75 -4.78125 4.8125 -5.921875 3.28125 -5.921875 C 2.5 -5.921875 1.9375 -5.625 1.5 -4.984375 L 1.5 -8.015625 Z M 3.109375 -5.078125 C 4.140625 -5.078125 4.796875 -4.1875 4.796875 -2.8125 C 4.796875 -1.5 4.109375 -0.609375 3.109375 -0.609375 C 2.140625 -0.609375 1.5 -1.484375 1.5 -2.84375 C 1.5 -4.1875 2.140625 -5.078125 3.109375 -5.078125 Z M 3.109375 -5.078125 "/>
</g>
<g id="glyph-0-34">
<path d="M 6.078125 -8.015625 L 6.078125 -2.390625 C 6.078125 -1.3125 5.296875 -0.65625 4 -0.65625 C 3.40625 -0.65625 2.921875 -0.796875 2.546875 -1.0625 C 2.140625 -1.375 1.953125 -1.78125 1.953125 -2.390625 L 1.953125 -8.015625 L 0.9375 -8.015625 L 0.9375 -2.390625 C 0.9375 -0.765625 2.09375 0.25 4 0.25 C 5.890625 0.25 7.09375 -0.78125 7.09375 -2.390625 L 7.09375 -8.015625 Z M 6.078125 -8.015625 "/>
</g>
<g id="glyph-1-0">
<path d="M 1.984375 -5.390625 L 4.265625 -4.265625 L 5.078125 -5.078125 L -2.59375 -8.75 L -3.515625 -7.828125 L 0.125 -0.125 L 0.90625 -0.90625 L -0.203125 -3.203125 Z M 1.171875 -5.796875 L -0.640625 -3.984375 L -2.265625 -7.515625 Z M 1.171875 -5.796875 "/>
</g>
<g id="glyph-1-1">
<path d="M 3.75 -3.75 L -0.328125 -7.828125 L -0.96875 -7.1875 L 1.34375 -4.875 C 2.1875 -4.03125 2.265625 -3.046875 1.59375 -2.375 C 1.09375 -1.875 0.453125 -1.859375 -0.03125 -2.34375 L -2.921875 -5.234375 L -3.5625 -4.59375 L -0.40625 -1.4375 C 0.265625 -0.765625 1.1875 -0.84375 1.96875 -1.625 C 2.578125 -2.234375 2.75 -2.8125 2.609375 -3.734375 L 3.171875 -3.171875 Z M 3.75 -3.75 "/>
</g>
<g id="glyph-1-2">
<path d="M -0.9375 -7.21875 L -0.34375 -6.625 C -1.171875 -6.796875 -1.734375 -6.640625 -2.25 -6.125 C -3.21875 -5.15625 -2.984375 -3.546875 -1.6875 -2.25 C -1 -1.5625 -0.34375 -1.21875 0.40625 -1.15625 C 1.078125 -1.109375 1.65625 -1.3125 2.078125 -1.734375 C 2.5625 -2.21875 2.6875 -2.78125 2.53125 -3.625 L 2.734375 -3.421875 C 3.828125 -2.328125 3.921875 -1.609375 3.125 -0.8125 C 2.578125 -0.265625 2.046875 -0.203125 1.53125 -0.59375 L 0.875 0.0625 C 1.6875 0.75 2.75 0.625 3.640625 -0.265625 C 4.234375 -0.859375 4.546875 -1.546875 4.484375 -2.140625 C 4.421875 -2.828125 4.03125 -3.46875 3.078125 -4.421875 L -0.328125 -7.828125 Z M -1.578125 -5.609375 C -0.890625 -6.296875 0.0625 -6.09375 1.09375 -5.0625 C 2.078125 -4.078125 2.265625 -3.109375 1.59375 -2.4375 C 0.921875 -1.765625 -0.046875 -1.953125 -1.0625 -2.96875 C -2.046875 -3.953125 -2.25 -4.9375 -1.578125 -5.609375 Z M -1.578125 -5.609375 "/>
</g>
<g id="glyph-1-3">
</g>
<g id="glyph-1-4">
<path d="M -3.484375 -7.765625 C -4 -7.25 -4.234375 -6.546875 -4.125 -5.875 C -3.984375 -5.015625 -3.4375 -4.09375 -2.390625 -3.046875 C -0.5 -1.15625 1.140625 -0.796875 2.3125 -1.96875 C 3.46875 -3.125 3.109375 -4.765625 1.265625 -6.609375 C 0.171875 -7.703125 -0.734375 -8.265625 -1.59375 -8.40625 C -2.296875 -8.515625 -2.96875 -8.28125 -3.484375 -7.765625 Z M -2.875 -7.15625 C -2.140625 -7.890625 -1.015625 -7.515625 0.515625 -5.984375 C 2.109375 -4.390625 2.5 -3.28125 1.734375 -2.515625 C 1.015625 -1.796875 -0.140625 -2.203125 -1.6875 -3.75 C -3.234375 -5.296875 -3.609375 -6.421875 -2.875 -7.15625 Z M -2.875 -7.15625 "/>
</g>
<g id="glyph-1-5">
<path d="M 1.1875 -3.90625 L 2.546875 -2.546875 L 3.21875 -3.21875 L 1.859375 -4.578125 L 2.6875 -5.40625 L 2.0625 -6.03125 L 1.234375 -5.203125 L -2.40625 -8.84375 L -2.90625 -8.34375 L -1.875 -2.3125 L -1.140625 -1.578125 Z M 0.5625 -4.53125 L -1.171875 -2.796875 L -1.90625 -7 Z M 0.5625 -4.53125 "/>
</g>
<g id="glyph-1-6">
<path d="M -2 -6.03125 L 2.015625 -2.015625 L 2.703125 -2.703125 L -2.921875 -8.328125 L -3.375 -7.875 C -2.75 -6.78125 -2.78125 -6.5 -3.703125 -5.296875 L -3.21875 -4.8125 Z M -2 -6.03125 "/>
</g>
<g id="glyph-1-7">
<path d="M 0.0625 -6 C 0.296875 -6.921875 0.203125 -7.390625 -0.328125 -7.921875 C -1.203125 -8.796875 -2.515625 -8.734375 -3.484375 -7.765625 C -4.453125 -6.796875 -4.515625 -5.484375 -3.640625 -4.609375 C -3.109375 -4.078125 -2.671875 -3.984375 -1.75 -4.1875 C -2.046875 -3.234375 -1.90625 -2.46875 -1.28125 -1.84375 C -0.265625 -0.828125 1.203125 -0.859375 2.3125 -1.96875 C 3.390625 -3.046875 3.4375 -4.53125 2.421875 -5.546875 C 1.796875 -6.171875 1.03125 -6.3125 0.0625 -6 Z M -2.875 -7.15625 C -2.296875 -7.734375 -1.5625 -7.75 -1.015625 -7.203125 C -0.484375 -6.671875 -0.5 -5.9375 -1.078125 -5.359375 C -1.65625 -4.78125 -2.390625 -4.765625 -2.9375 -5.3125 C -3.46875 -5.84375 -3.453125 -6.578125 -2.875 -7.15625 Z M -0.515625 -4.796875 C 0.171875 -5.484375 1.09375 -5.5 1.75 -4.84375 C 2.421875 -4.171875 2.390625 -3.265625 1.6875 -2.5625 C 1.015625 -1.890625 0.09375 -1.875 -0.546875 -2.515625 C -1.21875 -3.1875 -1.203125 -4.109375 -0.515625 -4.796875 Z M -0.515625 -4.796875 "/>
</g>
<g id="glyph-2-0">
<path d="M -3.40625 -2.03125 L -3.40625 -4.546875 C -3.40625 -5.171875 -3.59375 -5.671875 -3.96875 -6.09375 C -4.40625 -6.578125 -4.921875 -6.78125 -5.671875 -6.78125 C -7.171875 -6.78125 -8.015625 -5.890625 -8.015625 -4.3125 L -8.015625 -1 L 0 -1 L 0 -2.03125 Z M -4.296875 -2.03125 L -7.109375 -2.03125 L -7.109375 -4.15625 C -7.109375 -5.140625 -6.59375 -5.71875 -5.703125 -5.71875 C -4.828125 -5.71875 -4.296875 -5.140625 -4.296875 -4.15625 Z M -4.296875 -2.03125 "/>
</g>
<g id="glyph-2-1">
<path d="M -0.53125 -5.890625 C -0.515625 -5.78125 -0.515625 -5.734375 -0.515625 -5.6875 C -0.515625 -5.375 -0.6875 -5.1875 -0.96875 -5.1875 L -4.359375 -5.1875 C -5.375 -5.1875 -5.921875 -4.4375 -5.921875 -3.03125 C -5.921875 -2.171875 -5.6875 -1.5 -5.265625 -1.109375 C -4.96875 -0.84375 -4.625 -0.734375 -4.0625 -0.71875 L -4.0625 -1.640625 C -4.765625 -1.71875 -5.078125 -2.140625 -5.078125 -2.984375 C -5.078125 -3.828125 -4.78125 -4.28125 -4.21875 -4.28125 L -3.984375 -4.28125 C -3.59375 -4.265625 -3.4375 -4.0625 -3.34375 -3.328125 C -3.171875 -2.03125 -3.140625 -1.828125 -2.984375 -1.46875 C -2.703125 -0.796875 -2.203125 -0.46875 -1.453125 -0.46875 C -0.40625 -0.46875 0.25 -1.1875 0.25 -2.359375 C 0.25 -3.078125 0 -3.65625 -0.59375 -4.3125 C 0 -4.375 0.25 -4.65625 0.25 -5.265625 C 0.25 -5.453125 0.234375 -5.578125 0.15625 -5.890625 Z M -1.8125 -4.28125 C -1.5 -4.28125 -1.3125 -4.1875 -1.0625 -3.921875 C -0.71875 -3.546875 -0.546875 -3.09375 -0.546875 -2.546875 C -0.546875 -1.84375 -0.890625 -1.421875 -1.46875 -1.421875 C -2.078125 -1.421875 -2.390625 -1.8125 -2.53125 -2.8125 C -2.65625 -3.78125 -2.703125 -3.96875 -2.84375 -4.28125 Z M -1.8125 -4.28125 "/>
</g>
<g id="glyph-2-2">
<path d="M -5.765625 -0.765625 L 0 -0.765625 L 0 -1.6875 L -2.984375 -1.6875 C -4.375 -1.6875 -5 -2.265625 -4.96875 -3.53125 L -5.890625 -3.53125 C -5.921875 -3.375 -5.921875 -3.28125 -5.921875 -3.171875 C -5.921875 -2.578125 -5.578125 -2.140625 -4.71875 -1.609375 L -5.765625 -1.609375 Z M -5.765625 -0.765625 "/>
</g>
<g id="glyph-2-3">
<path d="M -5.765625 -2.796875 L -5.765625 -1.84375 L -7.34375 -1.84375 L -7.34375 -0.9375 L -5.765625 -0.9375 L -5.765625 -0.15625 L -5.015625 -0.15625 L -5.015625 -0.9375 L -0.65625 -0.9375 C -0.0625 -0.9375 0.25 -1.328125 0.25 -2.046875 C 0.25 -2.28125 0.234375 -2.484375 0.171875 -2.796875 L -0.59375 -2.796875 C -0.5625 -2.65625 -0.546875 -2.546875 -0.546875 -2.359375 C -0.546875 -1.953125 -0.65625 -1.84375 -1.0625 -1.84375 L -5.015625 -1.84375 L -5.015625 -2.796875 Z M -5.765625 -2.796875 "/>
</g>
<g id="glyph-2-4">
<path d="M -5.765625 -1.65625 L -5.765625 -0.734375 L 0 -0.734375 L 0 -1.65625 Z M -8.015625 -1.65625 L -8.015625 -0.71875 L -6.859375 -0.71875 L -6.859375 -1.65625 Z M -8.015625 -1.65625 "/>
</g>
<g id="glyph-2-5">
<path d="M -3.828125 -5.1875 C -4.390625 -5.140625 -4.75 -5.015625 -5.078125 -4.796875 C -5.609375 -4.40625 -5.921875 -3.703125 -5.921875 -2.90625 C -5.921875 -1.34375 -4.703125 -0.34375 -2.78125 -0.34375 C -0.921875 -0.34375 0.25 -1.328125 0.25 -2.890625 C 0.25 -4.265625 -0.578125 -5.140625 -1.984375 -5.25 L -1.984375 -4.328125 C -1.0625 -4.171875 -0.59375 -3.703125 -0.59375 -2.921875 C -0.59375 -1.90625 -1.421875 -1.296875 -2.78125 -1.296875 C -4.21875 -1.296875 -5.078125 -1.890625 -5.078125 -2.890625 C -5.078125 -3.65625 -4.625 -4.140625 -3.828125 -4.25 Z M -3.828125 -5.1875 "/>
</g>
<g id="glyph-2-6">
<path d="M 2.390625 -0.59375 L 2.390625 -1.515625 L -0.609375 -1.515625 C -0.015625 -2 0.25 -2.546875 0.25 -3.28125 C 0.25 -4.78125 -0.953125 -5.75 -2.78125 -5.75 C -4.71875 -5.75 -5.921875 -4.8125 -5.921875 -3.28125 C -5.921875 -2.5 -5.578125 -1.875 -4.890625 -1.4375 L -5.765625 -1.4375 L -5.765625 -0.59375 Z M -5.078125 -3.125 C -5.078125 -4.140625 -4.1875 -4.796875 -2.8125 -4.796875 C -1.5 -4.796875 -0.609375 -4.125 -0.609375 -3.125 C -0.609375 -2.140625 -1.484375 -1.515625 -2.84375 -1.515625 C -4.1875 -1.515625 -5.078125 -2.140625 -5.078125 -3.125 Z M -5.078125 -3.125 "/>
</g>
<g id="glyph-2-7">
<path d="M -5.765625 -0.765625 L 0 -0.765625 L 0 -1.6875 L -3.171875 -1.6875 C -4.359375 -1.6875 -5.125 -2.3125 -5.125 -3.25 C -5.125 -3.984375 -4.6875 -4.4375 -4 -4.4375 L 0 -4.4375 L 0 -5.359375 L -4.359375 -5.359375 C -5.3125 -5.359375 -5.921875 -4.640625 -5.921875 -3.53125 C -5.921875 -2.671875 -5.59375 -2.125 -4.796875 -1.609375 L -5.765625 -1.609375 Z M -5.765625 -0.765625 "/>
</g>
<g id="glyph-2-8">
<path d="M -4.15625 -4.8125 C -5.296875 -4.8125 -5.921875 -4.0625 -5.921875 -2.734375 C -5.921875 -1.390625 -5.234375 -0.515625 -4.171875 -0.515625 C -3.265625 -0.515625 -2.84375 -0.984375 -2.515625 -2.34375 L -2.296875 -3.203125 C -2.140625 -3.84375 -1.90625 -4.09375 -1.5 -4.09375 C -0.953125 -4.09375 -0.59375 -3.546875 -0.59375 -2.75 C -0.59375 -2.25 -0.734375 -1.84375 -0.984375 -1.609375 C -1.140625 -1.46875 -1.3125 -1.390625 -1.71875 -1.34375 L -1.71875 -0.375 C -0.390625 -0.421875 0.25 -1.171875 0.25 -2.671875 C 0.25 -4.125 -0.46875 -5.046875 -1.578125 -5.046875 C -2.4375 -5.046875 -2.90625 -4.5625 -3.171875 -3.421875 L -3.390625 -2.546875 C -3.5625 -1.796875 -3.8125 -1.46875 -4.21875 -1.46875 C -4.75 -1.46875 -5.078125 -1.953125 -5.078125 -2.6875 C -5.078125 -3.4375 -4.765625 -3.828125 -4.15625 -3.84375 Z M -4.15625 -4.8125 "/>
</g>
</g>
<clipPath id="clip-0">
<path clip-rule="nonzero" d="M 43.152344 5.480469 L 498.523438 5.480469 L 498.523438 134.558594 L 43.152344 134.558594 Z M 43.152344 5.480469 "/>
</clipPath>
<clipPath id="clip-1">
<path clip-rule="nonzero" d="M 43.152344 116 L 498.523438 116 L 498.523438 117 L 43.152344 117 Z M 43.152344 116 "/>
</clipPath>
<clipPath id="clip-2">
<path clip-rule="nonzero" d="M 43.152344 92 L 498.523438 92 L 498.523438 93 L 43.152344 93 Z M 43.152344 92 "/>
</clipPath>
<clipPath id="clip-3">
<path clip-rule="nonzero" d="M 43.152344 68 L 498.523438 68 L 498.523438 69 L 43.152344 69 Z M 43.152344 68 "/>
</clipPath>
<clipPath id="clip-4">
<path clip-rule="nonzero" d="M 43.152344 44 L 498.523438 44 L 498.523438 46 L 43.152344 46 Z M 43.152344 44 "/>
</clipPath>
<clipPath id="clip-5">
<path clip-rule="nonzero" d="M 43.152344 20 L 498.523438 20 L 498.523438 22 L 43.152344 22 Z M 43.152344 20 "/>
</clipPath>
<clipPath id="clip-6">
<path clip-rule="nonzero" d="M 92 5.480469 L 93 5.480469 L 93 134.558594 L 92 134.558594 Z M 92 5.480469 "/>
</clipPath>
<clipPath id="clip-7">
<path clip-rule="nonzero" d="M 223 5.480469 L 225 5.480469 L 225 134.558594 L 223 134.558594 Z M 223 5.480469 "/>
</clipPath>
<clipPath id="clip-8">
<path clip-rule="nonzero" d="M 355 5.480469 L 356 5.480469 L 356 134.558594 L 355 134.558594 Z M 355 5.480469 "/>
</clipPath>
<clipPath id="clip-9">
<path clip-rule="nonzero" d="M 486 5.480469 L 488 5.480469 L 488 134.558594 L 486 134.558594 Z M 486 5.480469 "/>
</clipPath>
<clipPath id="clip-10">
<path clip-rule="nonzero" d="M 43.152344 128 L 498.523438 128 L 498.523438 130 L 43.152344 130 Z M 43.152344 128 "/>
</clipPath>
<clipPath id="clip-11">
<path clip-rule="nonzero" d="M 43.152344 104 L 498.523438 104 L 498.523438 106 L 43.152344 106 Z M 43.152344 104 "/>
</clipPath>
<clipPath id="clip-12">
<path clip-rule="nonzero" d="M 43.152344 80 L 498.523438 80 L 498.523438 82 L 43.152344 82 Z M 43.152344 80 "/>
</clipPath>
<clipPath id="clip-13">
<path clip-rule="nonzero" d="M 43.152344 56 L 498.523438 56 L 498.523438 58 L 43.152344 58 Z M 43.152344 56 "/>
</clipPath>
<clipPath id="clip-14">
<path clip-rule="nonzero" d="M 43.152344 32 L 498.523438 32 L 498.523438 34 L 43.152344 34 Z M 43.152344 32 "/>
</clipPath>
<clipPath id="clip-15">
<path clip-rule="nonzero" d="M 43.152344 8 L 498.523438 8 L 498.523438 10 L 43.152344 10 Z M 43.152344 8 "/>
</clipPath>
<clipPath id="clip-16">
<path clip-rule="nonzero" d="M 157 5.480469 L 159 5.480469 L 159 134.558594 L 157 134.558594 Z M 157 5.480469 "/>
</clipPath>
<clipPath id="clip-17">
<path clip-rule="nonzero" d="M 289 5.480469 L 291 5.480469 L 291 134.558594 L 289 134.558594 Z M 289 5.480469 "/>
</clipPath>
<clipPath id="clip-18">
<path clip-rule="nonzero" d="M 420 5.480469 L 422 5.480469 L 422 134.558594 L 420 134.558594 Z M 420 5.480469 "/>
</clipPath>
<clipPath id="clip-19">
<path clip-rule="nonzero" d="M 43.152344 5.480469 L 498.523438 5.480469 L 498.523438 134.558594 L 43.152344 134.558594 Z M 43.152344 5.480469 "/>
</clipPath>
</defs>
<rect x="-50.4" y="-25.2" width="604.8" height="302.4" fill="rgb(100%, 100%, 100%)" fill-opacity="1"/>
<rect x="-50.4" y="-25.2" width="604.8" height="302.4" fill="rgb(100%, 100%, 100%)" fill-opacity="1"/>
<path fill="none" stroke-width="1.066978" stroke-linecap="round" stroke-linejoin="round" stroke="rgb(100%, 100%, 100%)" stroke-opacity="1" stroke-miterlimit="10" d="M 0 252 L 504 252 L 504 0 L 0 0 Z M 0 252 "/>
<g clip-path="url(#clip-0)">
<path fill-rule="nonzero" fill="rgb(100%, 100%, 100%)" fill-opacity="1" stroke-width="1.066978" stroke-linecap="round" stroke-linejoin="round" stroke="rgb(0%, 0%, 0%)" stroke-opacity="1" stroke-miterlimit="10" d="M 43.152344 134.558594 L 498.523438 134.558594 L 498.523438 5.480469 L 43.152344 5.480469 Z M 43.152344 134.558594 "/>
</g>
<g clip-path="url(#clip-1)">
<path fill="none" stroke-width="0.533489" stroke-linecap="butt" stroke-linejoin="round" stroke="rgb(94.117647%, 97.254902%, 100%)" stroke-opacity="1" stroke-miterlimit="10" d="M 43.152344 116.699219 L 498.519531 116.699219 "/>
</g>
<g clip-path="url(#clip-2)">
<path fill="none" stroke-width="0.533489" stroke-linecap="butt" stroke-linejoin="round" stroke="rgb(94.117647%, 97.254902%, 100%)" stroke-opacity="1" stroke-miterlimit="10" d="M 43.152344 92.714844 L 498.519531 92.714844 "/>
</g>
<g clip-path="url(#clip-3)">
<path fill="none" stroke-width="0.533489" stroke-linecap="butt" stroke-linejoin="round" stroke="rgb(94.117647%, 97.254902%, 100%)" stroke-opacity="1" stroke-miterlimit="10" d="M 43.152344 68.730469 L 498.519531 68.730469 "/>
</g>
<g clip-path="url(#clip-4)">
<path fill="none" stroke-width="0.533489" stroke-linecap="butt" stroke-linejoin="round" stroke="rgb(94.117647%, 97.254902%, 100%)" stroke-opacity="1" stroke-miterlimit="10" d="M 43.152344 44.75 L 498.519531 44.75 "/>
</g>
<g clip-path="url(#clip-5)">
<path fill="none" stroke-width="0.533489" stroke-linecap="butt" stroke-linejoin="round" stroke="rgb(94.117647%, 97.254902%, 100%)" stroke-opacity="1" stroke-miterlimit="10" d="M 43.152344 20.765625 L 498.519531 20.765625 "/>
</g>
<g clip-path="url(#clip-6)">
<path fill="none" stroke-width="0.533489" stroke-linecap="butt" stroke-linejoin="round" stroke="rgb(94.117647%, 97.254902%, 100%)" stroke-opacity="1" stroke-miterlimit="10" d="M 92.429688 134.558594 L 92.429688 5.480469 "/>
</g>
<g clip-path="url(#clip-7)">
<path fill="none" stroke-width="0.533489" stroke-linecap="butt" stroke-linejoin="round" stroke="rgb(94.117647%, 97.254902%, 100%)" stroke-opacity="1" stroke-miterlimit="10" d="M 223.886719 134.558594 L 223.886719 5.480469 "/>
</g>
<g clip-path="url(#clip-8)">
<path fill="none" stroke-width="0.533489" stroke-linecap="butt" stroke-linejoin="round" stroke="rgb(94.117647%, 97.254902%, 100%)" stroke-opacity="1" stroke-miterlimit="10" d="M 355.34375 134.558594 L 355.34375 5.480469 "/>
</g>
<g clip-path="url(#clip-9)">
<path fill="none" stroke-width="0.533489" stroke-linecap="butt" stroke-linejoin="round" stroke="rgb(94.117647%, 97.254902%, 100%)" stroke-opacity="1" stroke-miterlimit="10" d="M 486.796875 134.558594 L 486.796875 5.480469 "/>
</g>
<g clip-path="url(#clip-10)">
<path fill="none" stroke-width="1.066978" stroke-linecap="butt" stroke-linejoin="round" stroke="rgb(100%, 100%, 100%)" stroke-opacity="1" stroke-miterlimit="10" d="M 43.152344 128.691406 L 498.519531 128.691406 "/>
</g>
<g clip-path="url(#clip-11)">
<path fill="none" stroke-width="1.066978" stroke-linecap="butt" stroke-linejoin="round" stroke="rgb(100%, 100%, 100%)" stroke-opacity="1" stroke-miterlimit="10" d="M 43.152344 104.707031 L 498.519531 104.707031 "/>
</g>
<g clip-path="url(#clip-12)">
<path fill="none" stroke-width="1.066978" stroke-linecap="butt" stroke-linejoin="round" stroke="rgb(100%, 100%, 100%)" stroke-opacity="1" stroke-miterlimit="10" d="M 43.152344 80.722656 L 498.519531 80.722656 "/>
</g>
<g clip-path="url(#clip-13)">
<path fill="none" stroke-width="1.066978" stroke-linecap="butt" stroke-linejoin="round" stroke="rgb(100%, 100%, 100%)" stroke-opacity="1" stroke-miterlimit="10" d="M 43.152344 56.738281 L 498.519531 56.738281 "/>
</g>
<g clip-path="url(#clip-14)">
<path fill="none" stroke-width="1.066978" stroke-linecap="butt" stroke-linejoin="round" stroke="rgb(100%, 100%, 100%)" stroke-opacity="1" stroke-miterlimit="10" d="M 43.152344 32.757812 L 498.519531 32.757812 "/>
</g>
<g clip-path="url(#clip-15)">
<path fill="none" stroke-width="1.066978" stroke-linecap="butt" stroke-linejoin="round" stroke="rgb(100%, 100%, 100%)" stroke-opacity="1" stroke-miterlimit="10" d="M 43.152344 8.773438 L 498.519531 8.773438 "/>
</g>
<g clip-path="url(#clip-16)">
<path fill="none" stroke-width="1.066978" stroke-linecap="butt" stroke-linejoin="round" stroke="rgb(100%, 100%, 100%)" stroke-opacity="1" stroke-miterlimit="10" d="M 158.160156 134.558594 L 158.160156 5.480469 "/>
</g>
<g clip-path="url(#clip-17)">
<path fill="none" stroke-width="1.066978" stroke-linecap="butt" stroke-linejoin="round" stroke="rgb(100%, 100%, 100%)" stroke-opacity="1" stroke-miterlimit="10" d="M 289.613281 134.558594 L 289.613281 5.480469 "/>
</g>
<g clip-path="url(#clip-18)">
<path fill="none" stroke-width="1.066978" stroke-linecap="butt" stroke-linejoin="round" stroke="rgb(100%, 100%, 100%)" stroke-opacity="1" stroke-miterlimit="10" d="M 421.070312 134.558594 L 421.070312 5.480469 "/>
</g>
<path fill-rule="nonzero" fill="rgb(97.254902%, 46.27451%, 42.745098%)" fill-opacity="0.8" d="M 214.496094 106.625 L 214.910156 106.386719 L 232.863281 96.070312 L 233.277344 95.832031 L 233.691406 95.164062 L 251.644531 66.042969 L 252.054688 61.535156 L 252.46875 60.941406 L 270.421875 35.03125 L 270.835938 33.476562 L 271.25 33.152344 L 289.203125 19.125 L 289.613281 18.804688 L 290.027344 18.707031 L 307.980469 14.539062 L 308.394531 14.441406 L 308.808594 14.378906 L 326.761719 11.585938 L 327.171875 11.519531 L 327.585938 11.519531 L 345.539062 11.476562 L 346.367188 11.476562 L 383.097656 11.390625 L 383.925781 11.390625 L 401.878906 11.347656 L 402.292969 11.347656 L 402.703125 13.742188 L 439.4375 13.34375 L 439.851562 13.339844 L 440.261719 55.0625 L 458.214844 54.871094 L 458.628906 54.863281 L 459.042969 54.863281 L 476.996094 54.824219 L 477.410156 54.820312 L 477.820312 128.691406 L 477.410156 71.128906 L 476.996094 71.132812 L 459.042969 71.171875 L 458.628906 71.171875 L 458.214844 71.179688 L 440.261719 71.371094 L 439.851562 29.648438 L 439.4375 29.652344 L 402.703125 30.050781 L 402.292969 27.65625 L 401.878906 27.65625 L 383.925781 27.699219 L 383.097656 27.699219 L 346.367188 27.785156 L 345.539062 27.785156 L 327.585938 27.828125 L 327.171875 27.828125 L 326.761719 27.871094 L 308.808594 29.75 L 308.394531 29.792969 L 307.980469 29.886719 L 290.027344 34.054688 L 289.613281 34.152344 L 289.203125 34.402344 L 271.25 45.21875 L 270.835938 45.46875 L 270.421875 46.972656 L 252.46875 70.585938 L 252.054688 71.128906 L 251.644531 75.542969 L 233.691406 100.535156 L 233.277344 101.109375 L 232.863281 101.25 L 214.910156 107.441406 L 214.496094 107.585938 L 214.085938 107.636719 Z M 214.496094 106.625 "/>
<path fill-rule="nonzero" fill="rgb(84.705882%, 56.470588%, 0%)" fill-opacity="0.8" d="M 64.261719 126.292969 L 64.675781 126.246094 L 82.628906 124.296875 L 83.042969 124.253906 L 83.453125 124.234375 L 101.40625 123.433594 L 101.820312 122.933594 L 102.234375 122.863281 L 120.1875 119.765625 L 120.601562 119.695312 L 121.015625 119.609375 L 138.96875 115.824219 L 139.378906 115.738281 L 139.792969 116.65625 L 157.746094 114.820312 L 158.160156 114.78125 L 158.574219 114.730469 L 176.527344 112.667969 L 176.9375 112.621094 L 177.351562 112.5625 L 195.304688 110.039062 L 196.132812 109.929688 L 214.085938 107.636719 L 214.496094 107.585938 L 214.910156 107.441406 L 232.863281 101.25 L 233.277344 101.109375 L 233.691406 100.535156 L 251.644531 75.542969 L 252.054688 71.128906 L 252.46875 70.585938 L 270.421875 46.972656 L 270.835938 45.46875 L 271.25 45.21875 L 289.203125 34.402344 L 289.613281 34.152344 L 290.027344 34.054688 L 307.980469 29.886719 L 308.394531 29.792969 L 308.808594 29.75 L 326.761719 27.871094 L 327.171875 27.828125 L 327.585938 27.828125 L 345.539062 27.785156 L 346.367188 27.785156 L 383.097656 27.699219 L 383.925781 27.699219 L 401.878906 27.65625 L 402.292969 27.65625 L 402.703125 30.050781 L 439.4375 29.652344 L 439.851562 29.648438 L 440.261719 71.371094 L 439.851562 71.378906 L 439.4375 71.382812 L 402.703125 71.78125 L 402.292969 69.386719 L 401.878906 69.386719 L 383.925781 69.429688 L 383.097656 69.429688 L 346.367188 69.515625 L 345.953125 69.515625 L 345.539062 69.519531 L 327.585938 69.558594 L 327.171875 69.558594 L 326.761719 69.59375 L 308.808594 71.011719 L 308.394531 71.042969 L 307.980469 71.105469 L 290.027344 73.898438 L 289.613281 73.964844 L 289.203125 74.109375 L 271.25 80.339844 L 270.835938 80.484375 L 270.421875 81.808594 L 252.46875 97.628906 L 252.054688 97.992188 L 251.644531 102.117188 L 233.691406 114.730469 L 233.277344 115.019531 L 232.863281 115.140625 L 214.910156 120.414062 L 214.496094 120.535156 L 214.085938 120.554688 L 196.132812 121.472656 L 195.71875 121.496094 L 195.304688 121.511719 L 177.351562 122.199219 L 176.9375 122.214844 L 176.527344 122.230469 L 158.574219 122.917969 L 158.160156 122.933594 L 157.746094 122.953125 L 139.792969 123.871094 L 139.378906 122.933594 L 138.96875 122.957031 L 121.015625 123.988281 L 120.601562 124.011719 L 120.1875 124.074219 L 102.234375 126.710938 L 101.820312 126.769531 L 101.40625 127.257812 L 83.453125 127.601562 L 83.042969 127.609375 L 82.628906 127.613281 L 64.675781 127.726562 L 64.261719 127.730469 L 63.847656 128.691406 Z M 64.261719 126.292969 "/>
<path fill-rule="nonzero" fill="rgb(63.921569%, 64.705882%, 0%)" fill-opacity="0.8" d="M 252.054688 97.992188 L 252.46875 97.628906 L 270.421875 81.808594 L 270.835938 80.484375 L 271.25 80.339844 L 289.203125 74.109375 L 289.613281 73.964844 L 290.027344 73.898438 L 307.980469 71.105469 L 308.394531 71.042969 L 308.808594 71.011719 L 326.761719 69.59375 L 327.171875 69.558594 L 327.585938 69.558594 L 345.539062 69.519531 L 345.953125 69.515625 L 346.367188 69.515625 L 383.097656 69.429688 L 383.925781 69.429688 L 401.878906 69.386719 L 402.292969 69.386719 L 402.703125 71.78125 L 439.4375 71.382812 L 439.851562 71.378906 L 440.261719 71.371094 L 458.214844 71.179688 L 458.628906 71.171875 L 459.042969 71.171875 L 476.996094 71.132812 L 477.410156 71.128906 L 477.820312 128.691406 L 477.410156 73.046875 L 476.996094 73.050781 L 459.042969 73.089844 L 458.214844 73.097656 L 440.261719 73.292969 L 439.851562 73.296875 L 439.4375 73.300781 L 402.703125 73.699219 L 402.292969 71.304688 L 401.878906 71.304688 L 383.925781 71.347656 L 383.097656 71.347656 L 346.367188 71.433594 L 345.953125 71.433594 L 345.539062 71.4375 L 327.585938 71.476562 L 327.171875 71.480469 L 326.761719 71.511719 L 308.808594 72.929688 L 308.394531 72.960938 L 307.980469 73.027344 L 290.027344 75.820312 L 289.613281 75.882812 L 289.203125 76.015625 L 271.25 81.789062 L 270.835938 81.921875 L 270.421875 83.226562 L 252.46875 98.128906 L 252.054688 98.472656 L 251.644531 102.117188 Z M 252.054688 97.992188 "/>
<path fill-rule="nonzero" fill="rgb(22.352941%, 71.372549%, 0%)" fill-opacity="0.8" d="M 252.054688 98.472656 L 252.46875 98.128906 L 270.421875 83.226562 L 270.835938 81.921875 L 271.25 81.789062 L 289.203125 76.015625 L 289.613281 75.882812 L 290.027344 75.820312 L 307.980469 73.027344 L 308.394531 72.960938 L 308.808594 72.929688 L 326.761719 71.511719 L 327.171875 71.480469 L 327.585938 71.476562 L 345.539062 71.4375 L 345.953125 71.433594 L 346.367188 71.433594 L 383.097656 71.347656 L 383.925781 71.347656 L 401.878906 71.304688 L 402.292969 71.304688 L 402.703125 73.699219 L 402.292969 72.742188 L 401.878906 72.746094 L 383.925781 72.785156 L 383.511719 72.789062 L 383.097656 72.789062 L 346.367188 72.875 L 345.539062 72.875 L 327.585938 72.917969 L 327.171875 72.917969 L 326.761719 72.949219 L 308.808594 74.367188 L 308.394531 74.402344 L 307.980469 74.464844 L 290.027344 77.257812 L 289.613281 77.320312 L 289.203125 77.453125 L 271.25 83.230469 L 270.835938 83.363281 L 270.421875 84.652344 L 252.46875 99.097656 L 252.054688 99.429688 L 251.644531 102.117188 Z M 252.054688 98.472656 "/>
<path fill-rule="nonzero" fill="rgb(0%, 74.901961%, 49.019608%)" fill-opacity="0.8" d="M 64.261719 127.730469 L 64.675781 127.726562 L 82.628906 127.613281 L 83.042969 127.609375 L 83.453125 127.601562 L 101.40625 127.257812 L 101.820312 126.769531 L 102.234375 126.710938 L 120.1875 124.074219 L 120.601562 124.011719 L 121.015625 123.988281 L 138.96875 122.957031 L 139.378906 122.933594 L 139.792969 123.871094 L 139.378906 123.894531 L 138.96875 123.914062 L 121.015625 124.832031 L 120.601562 124.851562 L 120.1875 124.910156 L 102.234375 127.433594 L 101.820312 127.492188 L 101.40625 127.976562 L 83.453125 128.203125 L 83.042969 128.210938 L 64.261719 128.210938 L 63.847656 128.691406 Z M 64.261719 127.730469 "/>
<path fill-rule="nonzero" fill="rgb(0%, 74.901961%, 76.862745%)" fill-opacity="0.8" d="M 64.261719 128.210938 L 83.042969 128.210938 L 83.453125 128.203125 L 101.40625 127.976562 L 101.820312 127.492188 L 102.234375 127.433594 L 120.1875 124.910156 L 120.601562 124.851562 L 121.015625 124.832031 L 138.96875 123.914062 L 139.378906 123.894531 L 139.792969 123.871094 L 157.746094 122.953125 L 158.160156 122.933594 L 158.574219 122.917969 L 176.527344 122.230469 L 176.9375 122.214844 L 177.351562 122.199219 L 195.304688 121.511719 L 195.71875 121.496094 L 196.132812 121.472656 L 214.085938 120.554688 L 214.496094 120.535156 L 214.910156 120.414062 L 232.863281 115.140625 L 233.277344 115.019531 L 233.691406 114.730469 L 251.644531 102.117188 L 252.054688 99.429688 L 252.46875 99.097656 L 270.421875 84.652344 L 270.835938 83.363281 L 271.25 83.230469 L 289.203125 77.453125 L 289.613281 77.320312 L 290.027344 77.257812 L 307.980469 74.464844 L 308.394531 74.402344 L 308.808594 74.367188 L 326.761719 72.949219 L 327.171875 72.917969 L 327.585938 72.917969 L 345.539062 72.875 L 346.367188 72.875 L 383.097656 72.789062 L 383.511719 72.789062 L 383.925781 72.785156 L 401.878906 72.746094 L 402.292969 72.742188 L 402.703125 73.699219 L 439.4375 73.300781 L 439.851562 73.296875 L 440.261719 73.292969 L 458.214844 73.097656 L 459.042969 73.089844 L 476.996094 73.050781 L 477.410156 73.046875 L 477.820312 128.691406 L 477.410156 102.308594 L 476.996094 102.308594 L 459.042969 102.351562 L 458.628906 102.351562 L 458.214844 102.355469 L 440.261719 102.550781 L 439.851562 102.554688 L 439.4375 102.558594 L 402.703125 102.957031 L 402.292969 102.003906 L 401.878906 102.003906 L 383.925781 102.046875 L 383.097656 102.046875 L 346.367188 102.132812 L 345.953125 102.132812 L 345.539062 102.136719 L 327.585938 102.175781 L 327.171875 102.175781 L 326.761719 102.199219 L 308.808594 103.160156 L 308.394531 103.179688 L 307.980469 103.234375 L 290.027344 105.570312 L 289.613281 105.621094 L 289.203125 105.691406 L 271.25 108.714844 L 270.835938 108.785156 L 270.421875 109.8125 L 252.46875 112.792969 L 252.054688 112.859375 L 251.644531 115.4375 L 233.691406 123.234375 L 233.277344 123.414062 L 232.863281 123.425781 L 214.910156 123.882812 L 214.496094 123.894531 L 214.085938 123.902344 L 196.132812 124.363281 L 195.304688 124.378906 L 177.351562 124.605469 L 176.9375 124.613281 L 176.527344 124.617188 L 158.574219 124.847656 L 158.160156 124.851562 L 157.746094 124.863281 L 139.792969 125.320312 L 139.378906 125.332031 L 138.96875 125.34375 L 121.015625 125.800781 L 120.601562 125.8125 L 120.1875 125.863281 L 102.234375 128.15625 L 101.820312 128.210938 L 101.40625 128.691406 L 63.847656 128.691406 Z M 64.261719 128.210938 "/>
<path fill-rule="nonzero" fill="rgb(0%, 69.019608%, 96.470588%)" fill-opacity="0.8" d="M 270.835938 108.785156 L 271.25 108.714844 L 289.203125 105.691406 L 289.613281 105.621094 L 290.027344 105.570312 L 307.980469 103.234375 L 308.394531 103.179688 L 308.808594 103.160156 L 326.761719 102.199219 L 327.171875 102.175781 L 327.585938 102.175781 L 345.539062 102.136719 L 345.953125 102.132812 L 346.367188 102.132812 L 383.097656 102.046875 L 383.925781 102.046875 L 401.878906 102.003906 L 402.292969 102.003906 L 402.703125 102.957031 L 402.292969 102.960938 L 401.878906 102.964844 L 383.925781 103.003906 L 383.511719 103.007812 L 383.097656 103.007812 L 346.367188 103.09375 L 345.539062 103.09375 L 327.585938 103.136719 L 327.171875 103.136719 L 326.761719 103.160156 L 308.808594 104.117188 L 308.394531 104.140625 L 307.980469 104.195312 L 290.027344 106.527344 L 289.613281 106.582031 L 289.203125 106.652344 L 271.25 109.671875 L 270.421875 109.8125 Z M 270.835938 108.785156 "/>
<path fill-rule="nonzero" fill="rgb(58.431373%, 56.470588%, 100%)" fill-opacity="0.8" d="M 101.820312 128.210938 L 102.234375 128.15625 L 120.1875 125.863281 L 120.601562 125.8125 L 121.015625 125.800781 L 138.96875 125.34375 L 139.378906 125.332031 L 139.792969 125.320312 L 157.746094 124.863281 L 158.160156 124.851562 L 158.574219 124.847656 L 176.527344 124.617188 L 176.9375 124.613281 L 177.351562 124.605469 L 195.304688 124.378906 L 196.132812 124.363281 L 214.085938 123.902344 L 214.496094 123.894531 L 214.910156 123.882812 L 232.863281 123.425781 L 233.277344 123.414062 L 233.691406 123.234375 L 251.644531 115.4375 L 252.054688 112.859375 L 252.46875 112.792969 L 270.421875 109.8125 L 271.25 109.671875 L 289.203125 106.652344 L 289.613281 106.582031 L 290.027344 106.527344 L 307.980469 104.195312 L 308.394531 104.140625 L 308.808594 104.117188 L 326.761719 103.160156 L 327.171875 103.136719 L 327.585938 103.136719 L 345.539062 103.09375 L 346.367188 103.09375 L 383.097656 103.007812 L 383.511719 103.007812 L 383.925781 103.003906 L 401.878906 102.964844 L 402.292969 102.960938 L 402.703125 102.957031 L 439.4375 102.558594 L 439.851562 102.554688 L 440.261719 102.550781 L 458.214844 102.355469 L 458.628906 102.351562 L 459.042969 102.351562 L 476.996094 102.308594 L 477.410156 102.308594 L 477.820312 128.691406 L 477.410156 124.851562 L 476.996094 124.851562 L 459.042969 124.894531 L 458.628906 124.894531 L 458.214844 124.898438 L 440.261719 124.9375 L 439.851562 124.941406 L 439.4375 124.941406 L 402.703125 125.027344 L 401.878906 125.027344 L 383.925781 125.070312 L 383.097656 125.070312 L 346.367188 125.15625 L 345.953125 125.15625 L 345.539062 125.160156 L 327.585938 125.199219 L 327.171875 125.203125 L 326.761719 125.203125 L 308.808594 125.242188 L 308.394531 125.246094 L 307.980469 125.246094 L 290.027344 125.289062 L 289.613281 125.289062 L 289.203125 125.292969 L 271.25 125.566406 L 270.835938 125.570312 L 270.421875 125.585938 L 252.46875 126.277344 L 252.054688 126.292969 L 251.644531 128.691406 L 101.40625 128.691406 Z M 101.820312 128.210938 "/>
<path fill-rule="nonzero" fill="rgb(90.588235%, 41.960784%, 95.294118%)" fill-opacity="0.8" d="M 252.054688 126.292969 L 252.46875 126.277344 L 270.421875 125.585938 L 270.835938 125.570312 L 271.25 125.566406 L 289.203125 125.292969 L 289.613281 125.289062 L 290.027344 125.289062 L 307.980469 125.246094 L 308.394531 125.246094 L 308.808594 125.242188 L 326.761719 125.203125 L 327.171875 125.203125 L 327.585938 125.199219 L 345.539062 125.160156 L 345.953125 125.15625 L 346.367188 125.15625 L 383.097656 125.070312 L 383.925781 125.070312 L 401.878906 125.027344 L 402.703125 125.027344 L 439.4375 124.941406 L 439.851562 124.941406 L 440.261719 124.9375 L 458.214844 124.898438 L 458.628906 124.894531 L 459.042969 124.894531 L 476.996094 124.851562 L 477.410156 124.851562 L 477.820312 128.691406 L 477.410156 127.730469 L 289.613281 127.730469 L 289.203125 127.734375 L 271.25 127.964844 L 270.835938 127.96875 L 270.421875 127.976562 L 252.46875 128.203125 L 252.054688 128.210938 L 251.644531 128.691406 Z M 252.054688 126.292969 "/>
<path fill-rule="nonzero" fill="rgb(100%, 38.431373%, 73.72549%)" fill-opacity="0.8" d="M 252.054688 128.210938 L 252.46875 128.203125 L 270.421875 127.976562 L 270.835938 127.96875 L 271.25 127.964844 L 289.203125 127.734375 L 289.613281 127.730469 L 477.410156 127.730469 L 477.820312 128.691406 L 251.644531 128.691406 Z M 252.054688 128.210938 "/>
<g clip-path="url(#clip-19)">
<path fill="none" stroke-width="1.066978" stroke-linecap="round" stroke-linejoin="round" stroke="rgb(0.392157%, 27.058824%, 30.980392%)" stroke-opacity="1" stroke-miterlimit="10" d="M 43.152344 134.558594 L 498.523438 134.558594 L 498.523438 5.480469 L 43.152344 5.480469 Z M 43.152344 134.558594 "/>
</g>
<g fill="rgb(0.392157%, 27.058824%, 30.980392%)" fill-opacity="1">
<use xlink:href="#glyph-0-0" x="32.21875" y="132.209961"/>
</g>
<g fill="rgb(0.392157%, 27.058824%, 30.980392%)" fill-opacity="1">
<use xlink:href="#glyph-0-1" x="26.21875" y="108.225586"/>
<use xlink:href="#glyph-0-0" x="32.21875" y="108.225586"/>
</g>
<g fill="rgb(0.392157%, 27.058824%, 30.980392%)" fill-opacity="1">
<use xlink:href="#glyph-0-2" x="20.21875" y="84.241211"/>
<use xlink:href="#glyph-0-0" x="26.21875" y="84.241211"/>
<use xlink:href="#glyph-0-0" x="32.21875" y="84.241211"/>
</g>
<g fill="rgb(0.392157%, 27.058824%, 30.980392%)" fill-opacity="1">
<use xlink:href="#glyph-0-2" x="20.21875" y="60.256836"/>
<use xlink:href="#glyph-0-1" x="26.21875" y="60.256836"/>
<use xlink:href="#glyph-0-0" x="32.21875" y="60.256836"/>
</g>
<g fill="rgb(0.392157%, 27.058824%, 30.980392%)" fill-opacity="1">
<use xlink:href="#glyph-0-3" x="20.21875" y="36.276367"/>
<use xlink:href="#glyph-0-0" x="26.21875" y="36.276367"/>
<use xlink:href="#glyph-0-0" x="32.21875" y="36.276367"/>
</g>
<g fill="rgb(0.392157%, 27.058824%, 30.980392%)" fill-opacity="1">
<use xlink:href="#glyph-0-3" x="20.21875" y="12.291992"/>
<use xlink:href="#glyph-0-1" x="26.21875" y="12.291992"/>
<use xlink:href="#glyph-0-0" x="32.21875" y="12.291992"/>
</g>
<path fill="none" stroke-width="1.066978" stroke-linecap="butt" stroke-linejoin="round" stroke="rgb(0.392157%, 27.058824%, 30.980392%)" stroke-opacity="1" stroke-miterlimit="10" d="M 40.410156 128.691406 L 43.152344 128.691406 "/>
<path fill="none" stroke-width="1.066978" stroke-linecap="butt" stroke-linejoin="round" stroke="rgb(0.392157%, 27.058824%, 30.980392%)" stroke-opacity="1" stroke-miterlimit="10" d="M 40.410156 104.707031 L 43.152344 104.707031 "/>
<path fill="none" stroke-width="1.066978" stroke-linecap="butt" stroke-linejoin="round" stroke="rgb(0.392157%, 27.058824%, 30.980392%)" stroke-opacity="1" stroke-miterlimit="10" d="M 40.410156 80.722656 L 43.152344 80.722656 "/>
<path fill="none" stroke-width="1.066978" stroke-linecap="butt" stroke-linejoin="round" stroke="rgb(0.392157%, 27.058824%, 30.980392%)" stroke-opacity="1" stroke-miterlimit="10" d="M 40.410156 56.738281 L 43.152344 56.738281 "/>
<path fill="none" stroke-width="1.066978" stroke-linecap="butt" stroke-linejoin="round" stroke="rgb(0.392157%, 27.058824%, 30.980392%)" stroke-opacity="1" stroke-miterlimit="10" d="M 40.410156 32.757812 L 43.152344 32.757812 "/>
<path fill="none" stroke-width="1.066978" stroke-linecap="butt" stroke-linejoin="round" stroke="rgb(0.392157%, 27.058824%, 30.980392%)" stroke-opacity="1" stroke-miterlimit="10" d="M 40.410156 8.773438 L 43.152344 8.773438 "/>
<path fill="none" stroke-width="1.066978" stroke-linecap="butt" stroke-linejoin="round" stroke="rgb(0.392157%, 27.058824%, 30.980392%)" stroke-opacity="1" stroke-miterlimit="10" d="M 158.160156 137.296875 L 158.160156 134.558594 "/>
<path fill="none" stroke-width="1.066978" stroke-linecap="butt" stroke-linejoin="round" stroke="rgb(0.392157%, 27.058824%, 30.980392%)" stroke-opacity="1" stroke-miterlimit="10" d="M 289.613281 137.296875 L 289.613281 134.558594 "/>
<path fill="none" stroke-width="1.066978" stroke-linecap="butt" stroke-linejoin="round" stroke="rgb(0.392157%, 27.058824%, 30.980392%)" stroke-opacity="1" stroke-miterlimit="10" d="M 421.070312 137.296875 L 421.070312 134.558594 "/>
<g fill="rgb(0.392157%, 27.058824%, 30.980392%)" fill-opacity="1">
<use xlink:href="#glyph-1-0" x="139.787162" y="167.005912"/>
<use xlink:href="#glyph-1-1" x="144.736909" y="162.056164"/>
<use xlink:href="#glyph-1-2" x="148.97955" y="157.813524"/>
<use xlink:href="#glyph-1-3" x="153.222191" y="153.570883"/>
<use xlink:href="#glyph-1-4" x="155.343511" y="151.449563"/>
<use xlink:href="#glyph-1-5" x="159.586152" y="147.206922"/>
</g>
<g fill="rgb(0.392157%, 27.058824%, 30.980392%)" fill-opacity="1">
<use xlink:href="#glyph-1-0" x="271.244193" y="167.005912"/>
<use xlink:href="#glyph-1-1" x="276.193941" y="162.056164"/>
<use xlink:href="#glyph-1-2" x="280.436581" y="157.813524"/>
<use xlink:href="#glyph-1-3" x="284.679222" y="153.570883"/>
<use xlink:href="#glyph-1-6" x="286.800542" y="151.449563"/>
<use xlink:href="#glyph-1-6" x="291.043183" y="147.206922"/>
</g>
<g fill="rgb(0.392157%, 27.058824%, 30.980392%)" fill-opacity="1">
<use xlink:href="#glyph-1-0" x="402.697318" y="167.005912"/>
<use xlink:href="#glyph-1-1" x="407.647066" y="162.056164"/>
<use xlink:href="#glyph-1-2" x="411.889706" y="157.813524"/>
<use xlink:href="#glyph-1-3" x="416.132347" y="153.570883"/>
<use xlink:href="#glyph-1-6" x="418.253667" y="151.449563"/>
<use xlink:href="#glyph-1-7" x="422.496308" y="147.206922"/>
</g>
<g fill="rgb(0.392157%, 27.058824%, 30.980392%)" fill-opacity="1">
<use xlink:href="#glyph-0-4" x="259.335938" y="180.581055"/>
<use xlink:href="#glyph-0-5" x="267.335938" y="180.581055"/>
<use xlink:href="#glyph-0-6" x="273.335938" y="180.581055"/>
<use xlink:href="#glyph-0-7" x="276.335938" y="180.581055"/>
</g>
<g fill="rgb(0.392157%, 27.058824%, 30.980392%)" fill-opacity="1">
<use xlink:href="#glyph-2-0" x="13.499023" y="98.519531"/>
<use xlink:href="#glyph-2-1" x="13.499023" y="91.519531"/>
<use xlink:href="#glyph-2-2" x="13.499023" y="85.519531"/>
<use xlink:href="#glyph-2-3" x="13.499023" y="81.519531"/>
<use xlink:href="#glyph-2-4" x="13.499023" y="78.519531"/>
<use xlink:href="#glyph-2-5" x="13.499023" y="76.519531"/>
<use xlink:href="#glyph-2-4" x="13.499023" y="70.519531"/>
<use xlink:href="#glyph-2-6" x="13.499023" y="68.519531"/>
<use xlink:href="#glyph-2-1" x="13.499023" y="62.519531"/>
<use xlink:href="#glyph-2-7" x="13.499023" y="56.519531"/>
<use xlink:href="#glyph-2-3" x="13.499023" y="50.519531"/>
<use xlink:href="#glyph-2-8" x="13.499023" y="47.519531"/>
</g>
<path fill-rule="nonzero" fill="rgb(100%, 100%, 100%)" fill-opacity="1" d="M -306.242188 246.519531 L 847.910156 246.519531 L 847.910156 195.519531 L -306.242188 195.519531 Z M -306.242188 246.519531 "/>
<path fill-rule="nonzero" fill="rgb(100%, 100%, 100%)" fill-opacity="1" stroke-width="1.066978" stroke-linecap="round" stroke-linejoin="round" stroke="rgb(0%, 0%, 0%)" stroke-opacity="1" stroke-miterlimit="10" d="M -11.042969 218.28125 L 6.238281 218.28125 L 6.238281 201 L -11.042969 201 Z M -11.042969 218.28125 "/>
<path fill-rule="nonzero" fill="rgb(63.921569%, 64.705882%, 0%)" fill-opacity="0.8" d="M -10.335938 217.574219 L 5.527344 217.574219 L 5.527344 201.710938 L -10.335938 201.710938 Z M -10.335938 217.574219 "/>
<path fill-rule="nonzero" fill="rgb(100%, 100%, 100%)" fill-opacity="1" stroke-width="1.066978" stroke-linecap="round" stroke-linejoin="round" stroke="rgb(0%, 0%, 0%)" stroke-opacity="1" stroke-miterlimit="10" d="M -11.042969 241.042969 L 6.238281 241.042969 L 6.238281 223.761719 L -11.042969 223.761719 Z M -11.042969 241.042969 "/>
<path fill-rule="nonzero" fill="rgb(22.352941%, 71.372549%, 0%)" fill-opacity="0.8" d="M -10.335938 240.332031 L 5.527344 240.332031 L 5.527344 224.46875 L -10.335938 224.46875 Z M -10.335938 240.332031 "/>
<path fill-rule="nonzero" fill="rgb(100%, 100%, 100%)" fill-opacity="1" stroke-width="1.066978" stroke-linecap="round" stroke-linejoin="round" stroke="rgb(0%, 0%, 0%)" stroke-opacity="1" stroke-miterlimit="10" d="M 207.195312 218.28125 L 224.476562 218.28125 L 224.476562 201 L 207.195312 201 Z M 207.195312 218.28125 "/>
<path fill-rule="nonzero" fill="rgb(0%, 74.901961%, 49.019608%)" fill-opacity="0.8" d="M 207.902344 217.574219 L 223.765625 217.574219 L 223.765625 201.710938 L 207.902344 201.710938 Z M 207.902344 217.574219 "/>
<path fill-rule="nonzero" fill="rgb(100%, 100%, 100%)" fill-opacity="1" stroke-width="1.066978" stroke-linecap="round" stroke-linejoin="round" stroke="rgb(0%, 0%, 0%)" stroke-opacity="1" stroke-miterlimit="10" d="M 207.195312 241.042969 L 224.476562 241.042969 L 224.476562 223.761719 L 207.195312 223.761719 Z M 207.195312 241.042969 "/>
<path fill-rule="nonzero" fill="rgb(0%, 74.901961%, 76.862745%)" fill-opacity="0.8" d="M 207.902344 240.332031 L 223.765625 240.332031 L 223.765625 224.46875 L 207.902344 224.46875 Z M 207.902344 240.332031 "/>
<path fill-rule="nonzero" fill="rgb(100%, 100%, 100%)" fill-opacity="1" stroke-width="1.066978" stroke-linecap="round" stroke-linejoin="round" stroke="rgb(0%, 0%, 0%)" stroke-opacity="1" stroke-miterlimit="10" d="M 412.433594 218.28125 L 429.714844 218.28125 L 429.714844 201 L 412.433594 201 Z M 412.433594 218.28125 "/>
<path fill-rule="nonzero" fill="rgb(0%, 69.019608%, 96.470588%)" fill-opacity="0.8" d="M 413.144531 217.574219 L 429.007812 217.574219 L 429.007812 201.710938 L 413.144531 201.710938 Z M 413.144531 217.574219 "/>
<path fill-rule="nonzero" fill="rgb(100%, 100%, 100%)" fill-opacity="1" stroke-width="1.066978" stroke-linecap="round" stroke-linejoin="round" stroke="rgb(0%, 0%, 0%)" stroke-opacity="1" stroke-miterlimit="10" d="M 412.433594 241.042969 L 429.714844 241.042969 L 429.714844 223.761719 L 412.433594 223.761719 Z M 412.433594 241.042969 "/>
<path fill-rule="nonzero" fill="rgb(58.431373%, 56.470588%, 100%)" fill-opacity="0.8" d="M 413.144531 240.332031 L 429.007812 240.332031 L 429.007812 224.46875 L 413.144531 224.46875 Z M 413.144531 240.332031 "/>
<g fill="rgb(0.392157%, 27.058824%, 30.980392%)" fill-opacity="1">
<use xlink:href="#glyph-0-8" x="11.714844" y="213.15918"/>
<use xlink:href="#glyph-0-0" x="17.714844" y="213.15918"/>
<use xlink:href="#glyph-0-9" x="23.714844" y="213.15918"/>
<use xlink:href="#glyph-0-10" x="27.714844" y="213.15918"/>
<use xlink:href="#glyph-0-10" x="33.714844" y="213.15918"/>
<use xlink:href="#glyph-0-11" x="39.714844" y="213.15918"/>
<use xlink:href="#glyph-0-12" x="42.714844" y="213.15918"/>
<use xlink:href="#glyph-0-7" x="47.714844" y="213.15918"/>
<use xlink:href="#glyph-0-5" x="53.714844" y="213.15918"/>
<use xlink:href="#glyph-0-13" x="59.714844" y="213.15918"/>
<use xlink:href="#glyph-0-14" x="63.714844" y="213.15918"/>
<use xlink:href="#glyph-0-15" x="68.714844" y="213.15918"/>
<use xlink:href="#glyph-0-11" x="71.714844" y="213.15918"/>
<use xlink:href="#glyph-0-16" x="74.714844" y="213.15918"/>
<use xlink:href="#glyph-0-6" x="80.714844" y="213.15918"/>
<use xlink:href="#glyph-0-17" x="83.714844" y="213.15918"/>
<use xlink:href="#glyph-0-7" x="89.714844" y="213.15918"/>
<use xlink:href="#glyph-0-13" x="95.714844" y="213.15918"/>
</g>
<g fill="rgb(0.392157%, 27.058824%, 30.980392%)" fill-opacity="1">
<use xlink:href="#glyph-0-18" x="11.714844" y="235.920898"/>
<use xlink:href="#glyph-0-19" x="20.714844" y="235.920898"/>
<use xlink:href="#glyph-0-7" x="25.714844" y="235.920898"/>
<use xlink:href="#glyph-0-13" x="31.714844" y="235.920898"/>
<use xlink:href="#glyph-0-11" x="35.714844" y="235.920898"/>
<use xlink:href="#glyph-0-10" x="38.714844" y="235.920898"/>
<use xlink:href="#glyph-0-1" x="44.714844" y="235.920898"/>
<use xlink:href="#glyph-0-11" x="50.714844" y="235.920898"/>
<use xlink:href="#glyph-0-12" x="53.714844" y="235.920898"/>
<use xlink:href="#glyph-0-7" x="58.714844" y="235.920898"/>
<use xlink:href="#glyph-0-5" x="64.714844" y="235.920898"/>
<use xlink:href="#glyph-0-13" x="70.714844" y="235.920898"/>
<use xlink:href="#glyph-0-14" x="74.714844" y="235.920898"/>
<use xlink:href="#glyph-0-15" x="79.714844" y="235.920898"/>
<use xlink:href="#glyph-0-11" x="82.714844" y="235.920898"/>
<use xlink:href="#glyph-0-20" x="85.714844" y="235.920898"/>
<use xlink:href="#glyph-0-5" x="91.714844" y="235.920898"/>
<use xlink:href="#glyph-0-14" x="97.714844" y="235.920898"/>
<use xlink:href="#glyph-0-21" x="103.714844" y="235.920898"/>
<use xlink:href="#glyph-0-5" x="109.714844" y="235.920898"/>
<use xlink:href="#glyph-0-22" x="115.714844" y="235.920898"/>
<use xlink:href="#glyph-0-11" x="117.714844" y="235.920898"/>
<use xlink:href="#glyph-0-14" x="120.714844" y="235.920898"/>
<use xlink:href="#glyph-0-6" x="125.714844" y="235.920898"/>
<use xlink:href="#glyph-0-5" x="128.714844" y="235.920898"/>
<use xlink:href="#glyph-0-23" x="134.714844" y="235.920898"/>
<use xlink:href="#glyph-0-24" x="140.714844" y="235.920898"/>
<use xlink:href="#glyph-0-25" x="143.714844" y="235.920898"/>
<use xlink:href="#glyph-0-5" x="149.714844" y="235.920898"/>
<use xlink:href="#glyph-0-26" x="155.714844" y="235.920898"/>
<use xlink:href="#glyph-0-22" x="157.714844" y="235.920898"/>
<use xlink:href="#glyph-0-12" x="159.714844" y="235.920898"/>
<use xlink:href="#glyph-0-11" x="165.714844" y="235.920898"/>
<use xlink:href="#glyph-0-27" x="168.714844" y="235.920898"/>
<use xlink:href="#glyph-0-16" x="176.714844" y="235.920898"/>
<use xlink:href="#glyph-0-13" x="182.714844" y="235.920898"/>
<use xlink:href="#glyph-0-28" x="186.714844" y="235.920898"/>
<use xlink:href="#glyph-0-7" x="191.714844" y="235.920898"/>
<use xlink:href="#glyph-0-13" x="197.714844" y="235.920898"/>
</g>
<g fill="rgb(0.392157%, 27.058824%, 30.980392%)" fill-opacity="1">
<use xlink:href="#glyph-0-18" x="229.953125" y="213.15918"/>
<use xlink:href="#glyph-0-19" x="238.953125" y="213.15918"/>
<use xlink:href="#glyph-0-7" x="243.953125" y="213.15918"/>
<use xlink:href="#glyph-0-13" x="249.953125" y="213.15918"/>
<use xlink:href="#glyph-0-11" x="253.953125" y="213.15918"/>
<use xlink:href="#glyph-0-10" x="256.953125" y="213.15918"/>
<use xlink:href="#glyph-0-1" x="262.953125" y="213.15918"/>
<use xlink:href="#glyph-0-11" x="268.953125" y="213.15918"/>
<use xlink:href="#glyph-0-12" x="271.953125" y="213.15918"/>
<use xlink:href="#glyph-0-7" x="276.953125" y="213.15918"/>
<use xlink:href="#glyph-0-5" x="282.953125" y="213.15918"/>
<use xlink:href="#glyph-0-13" x="288.953125" y="213.15918"/>
<use xlink:href="#glyph-0-14" x="292.953125" y="213.15918"/>
<use xlink:href="#glyph-0-15" x="297.953125" y="213.15918"/>
<use xlink:href="#glyph-0-11" x="300.953125" y="213.15918"/>
<use xlink:href="#glyph-0-7" x="303.953125" y="213.15918"/>
<use xlink:href="#glyph-0-29" x="309.953125" y="213.15918"/>
<use xlink:href="#glyph-0-30" x="315.953125" y="213.15918"/>
<use xlink:href="#glyph-0-5" x="321.953125" y="213.15918"/>
<use xlink:href="#glyph-0-6" x="327.953125" y="213.15918"/>
<use xlink:href="#glyph-0-13" x="330.953125" y="213.15918"/>
<use xlink:href="#glyph-0-26" x="334.953125" y="213.15918"/>
<use xlink:href="#glyph-0-5" x="336.953125" y="213.15918"/>
<use xlink:href="#glyph-0-6" x="342.953125" y="213.15918"/>
<use xlink:href="#glyph-0-7" x="345.953125" y="213.15918"/>
</g>
<g fill="rgb(0.392157%, 27.058824%, 30.980392%)" fill-opacity="1">
<use xlink:href="#glyph-0-18" x="229.953125" y="235.920898"/>
<use xlink:href="#glyph-0-19" x="238.953125" y="235.920898"/>
<use xlink:href="#glyph-0-7" x="243.953125" y="235.920898"/>
<use xlink:href="#glyph-0-13" x="249.953125" y="235.920898"/>
<use xlink:href="#glyph-0-11" x="253.953125" y="235.920898"/>
<use xlink:href="#glyph-0-10" x="256.953125" y="235.920898"/>
<use xlink:href="#glyph-0-1" x="262.953125" y="235.920898"/>
<use xlink:href="#glyph-0-11" x="268.953125" y="235.920898"/>
<use xlink:href="#glyph-0-12" x="271.953125" y="235.920898"/>
<use xlink:href="#glyph-0-7" x="276.953125" y="235.920898"/>
<use xlink:href="#glyph-0-5" x="282.953125" y="235.920898"/>
<use xlink:href="#glyph-0-13" x="288.953125" y="235.920898"/>
<use xlink:href="#glyph-0-14" x="292.953125" y="235.920898"/>
<use xlink:href="#glyph-0-15" x="297.953125" y="235.920898"/>
<use xlink:href="#glyph-0-11" x="300.953125" y="235.920898"/>
<use xlink:href="#glyph-0-31" x="303.953125" y="235.920898"/>
<use xlink:href="#glyph-0-5" x="309.953125" y="235.920898"/>
<use xlink:href="#glyph-0-6" x="315.953125" y="235.920898"/>
<use xlink:href="#glyph-0-26" x="318.953125" y="235.920898"/>
<use xlink:href="#glyph-0-16" x="320.953125" y="235.920898"/>
<use xlink:href="#glyph-0-31" x="326.953125" y="235.920898"/>
<use xlink:href="#glyph-0-5" x="332.953125" y="235.920898"/>
<use xlink:href="#glyph-0-22" x="338.953125" y="235.920898"/>
<use xlink:href="#glyph-0-11" x="340.953125" y="235.920898"/>
<use xlink:href="#glyph-0-14" x="343.953125" y="235.920898"/>
<use xlink:href="#glyph-0-6" x="348.953125" y="235.920898"/>
<use xlink:href="#glyph-0-5" x="351.953125" y="235.920898"/>
<use xlink:href="#glyph-0-23" x="357.953125" y="235.920898"/>
<use xlink:href="#glyph-0-11" x="363.953125" y="235.920898"/>
<use xlink:href="#glyph-0-32" x="366.953125" y="235.920898"/>
<use xlink:href="#glyph-0-7" x="375.953125" y="235.920898"/>
<use xlink:href="#glyph-0-32" x="381.953125" y="235.920898"/>
<use xlink:href="#glyph-0-33" x="390.953125" y="235.920898"/>
<use xlink:href="#glyph-0-7" x="396.953125" y="235.920898"/>
<use xlink:href="#glyph-0-13" x="402.953125" y="235.920898"/>
</g>
<g fill="rgb(0.392157%, 27.058824%, 30.980392%)" fill-opacity="1">
<use xlink:href="#glyph-0-18" x="435.195312" y="213.15918"/>
<use xlink:href="#glyph-0-19" x="444.195312" y="213.15918"/>
<use xlink:href="#glyph-0-7" x="449.195312" y="213.15918"/>
<use xlink:href="#glyph-0-13" x="455.195312" y="213.15918"/>
<use xlink:href="#glyph-0-11" x="459.195312" y="213.15918"/>
<use xlink:href="#glyph-0-10" x="462.195312" y="213.15918"/>
<use xlink:href="#glyph-0-1" x="468.195312" y="213.15918"/>
<use xlink:href="#glyph-0-11" x="474.195312" y="213.15918"/>
<use xlink:href="#glyph-0-12" x="477.195312" y="213.15918"/>
<use xlink:href="#glyph-0-7" x="482.195312" y="213.15918"/>
<use xlink:href="#glyph-0-5" x="488.195312" y="213.15918"/>
<use xlink:href="#glyph-0-13" x="494.195312" y="213.15918"/>
<use xlink:href="#glyph-0-14" x="498.195312" y="213.15918"/>
<use xlink:href="#glyph-0-15" x="503.195312" y="213.15918"/>
<use xlink:href="#glyph-0-11" x="506.195312" y="213.15918"/>
<use xlink:href="#glyph-0-16" x="509.195312" y="213.15918"/>
<use xlink:href="#glyph-0-6" x="515.195312" y="213.15918"/>
<use xlink:href="#glyph-0-17" x="518.195312" y="213.15918"/>
<use xlink:href="#glyph-0-7" x="524.195312" y="213.15918"/>
<use xlink:href="#glyph-0-13" x="530.195312" y="213.15918"/>
</g>
<g fill="rgb(0.392157%, 27.058824%, 30.980392%)" fill-opacity="1">
<use xlink:href="#glyph-0-34" x="435.195312" y="235.920898"/>
<use xlink:href="#glyph-0-31" x="443.195312" y="235.920898"/>
<use xlink:href="#glyph-0-25" x="449.195312" y="235.920898"/>
<use xlink:href="#glyph-0-7" x="455.195312" y="235.920898"/>
<use xlink:href="#glyph-0-13" x="461.195312" y="235.920898"/>
<use xlink:href="#glyph-0-11" x="465.195312" y="235.920898"/>
<use xlink:href="#glyph-0-8" x="468.195312" y="235.920898"/>
<use xlink:href="#glyph-0-0" x="474.195312" y="235.920898"/>
<use xlink:href="#glyph-0-11" x="480.195312" y="235.920898"/>
<use xlink:href="#glyph-0-12" x="483.195312" y="235.920898"/>
<use xlink:href="#glyph-0-7" x="488.195312" y="235.920898"/>
<use xlink:href="#glyph-0-5" x="494.195312" y="235.920898"/>
<use xlink:href="#glyph-0-13" x="500.195312" y="235.920898"/>
<use xlink:href="#glyph-0-14" x="504.195312" y="235.920898"/>
<use xlink:href="#glyph-0-15" x="509.195312" y="235.920898"/>
<use xlink:href="#glyph-0-11" x="512.195312" y="235.920898"/>
<use xlink:href="#glyph-0-20" x="515.195312" y="235.920898"/>
<use xlink:href="#glyph-0-5" x="521.195312" y="235.920898"/>
<use xlink:href="#glyph-0-14" x="527.195312" y="235.920898"/>
<use xlink:href="#glyph-0-21" x="533.195312" y="235.920898"/>
<use xlink:href="#glyph-0-5" x="539.195312" y="235.920898"/>
<use xlink:href="#glyph-0-22" x="545.195312" y="235.920898"/>
<use xlink:href="#glyph-0-11" x="547.195312" y="235.920898"/>
<use xlink:href="#glyph-0-14" x="550.195312" y="235.920898"/>
<use xlink:href="#glyph-0-6" x="555.195312" y="235.920898"/>
<use xlink:href="#glyph-0-5" x="558.195312" y="235.920898"/>
<use xlink:href="#glyph-0-23" x="564.195312" y="235.920898"/>
<use xlink:href="#glyph-0-24" x="570.195312" y="235.920898"/>
<use xlink:href="#glyph-0-25" x="573.195312" y="235.920898"/>
<use xlink:href="#glyph-0-5" x="579.195312" y="235.920898"/>
<use xlink:href="#glyph-0-26" x="585.195312" y="235.920898"/>
<use xlink:href="#glyph-0-22" x="587.195312" y="235.920898"/>
<use xlink:href="#glyph-0-12" x="589.195312" y="235.920898"/>
<use xlink:href="#glyph-0-11" x="595.195312" y="235.920898"/>
<use xlink:href="#glyph-0-27" x="598.195312" y="235.920898"/>
<use xlink:href="#glyph-0-16" x="606.195312" y="235.920898"/>
<use xlink:href="#glyph-0-13" x="612.195312" y="235.920898"/>
</g>
</svg>
