<?xml version="1.0" encoding="UTF-8"?>
<svg xmlns="http://www.w3.org/2000/svg" xmlns:xlink="http://www.w3.org/1999/xlink" width="504" height="252" viewBox="0 0 504 252">
<defs>
<g>
<g id="glyph-0-0">
<path d="M 3.03125 -7.953125 C 2.296875 -7.953125 1.640625 -7.625 1.234375 -7.078125 C 0.71875 -6.375 0.46875 -5.328125 0.46875 -3.84375 C 0.46875 -1.171875 1.359375 0.25 3.03125 0.25 C 4.671875 0.25 5.578125 -1.171875 5.578125 -3.78125 C 5.578125 -5.328125 5.328125 -6.359375 4.8125 -7.078125 C 4.40625 -7.640625 3.765625 -7.953125 3.03125 -7.953125 Z M 3.03125 -7.09375 C 4.0625 -7.09375 4.59375 -6.03125 4.59375 -3.875 C 4.59375 -1.609375 4.078125 -0.546875 3 -0.546875 C 1.984375 -0.546875 1.46875 -1.65625 1.46875 -3.84375 C 1.46875 -6.03125 1.984375 -7.09375 3.03125 -7.09375 Z M 3.03125 -7.09375 "/>
</g>
<g id="glyph-0-1">
<path d="M 5.234375 -7.796875 L 1.203125 -7.796875 L 0.625 -3.546875 L 1.515625 -3.546875 C 1.96875 -4.09375 2.34375 -4.28125 2.953125 -4.28125 C 4 -4.28125 4.65625 -3.5625 4.65625 -2.40625 C 4.65625 -1.28125 4 -0.609375 2.953125 -0.609375 C 2.09375 -0.609375 1.578125 -1.03125 1.359375 -1.90625 L 0.390625 -1.90625 C 0.515625 -1.28125 0.625 -0.96875 0.859375 -0.6875 C 1.296875 -0.09375 2.09375 0.25 2.96875 0.25 C 4.546875 0.25 5.640625 -0.890625 5.640625 -2.546875 C 5.640625 -4.078125 4.625 -5.140625 3.125 -5.140625 C 2.578125 -5.140625 2.140625 -5 1.6875 -4.65625 L 1.984375 -6.84375 L 5.234375 -6.84375 Z M 5.234375 -7.796875 "/>
</g>
<g id="glyph-0-2">
<path d="M 2.84375 -5.671875 L 2.84375 0 L 3.8125 0 L 3.8125 -7.953125 L 3.171875 -7.953125 C 2.84375 -6.734375 2.625 -6.5625 1.125 -6.375 L 1.125 -5.671875 Z M 2.84375 -5.671875 "/>
</g>
<g id="glyph-0-3">
<path d="M 5.5625 -0.953125 L 1.46875 -0.953125 C 1.5625 -1.609375 1.90625 -2.03125 2.875 -2.625 L 3.96875 -3.234375 C 5.0625 -3.84375 5.625 -4.65625 5.625 -5.625 C 5.625 -6.296875 5.359375 -6.90625 4.890625 -7.34375 C 4.4375 -7.75 3.859375 -7.953125 3.125 -7.953125 C 2.140625 -7.953125 1.390625 -7.59375 0.96875 -6.921875 C 0.6875 -6.5 0.578125 -6 0.546875 -5.203125 L 1.515625 -5.203125 C 1.546875 -5.734375 1.609375 -6.0625 1.75 -6.328125 C 2 -6.8125 2.515625 -7.109375 3.09375 -7.109375 C 3.96875 -7.109375 4.625 -6.46875 4.625 -5.609375 C 4.625 -4.96875 4.265625 -4.421875 3.578125 -4.03125 L 2.5625 -3.4375 C 0.9375 -2.5 0.46875 -1.75 0.375 -0.015625 L 5.5625 -0.015625 Z M 5.5625 -0.953125 "/>
</g>
<g id="glyph-0-4">
<path d="M 0.984375 0 L 4.0625 0 C 6.09375 0 7.34375 -1.515625 7.34375 -4.015625 C 7.34375 -6.5 6.109375 -8.015625 4.0625 -8.015625 L 0.984375 -8.015625 Z M 2 -0.90625 L 2 -7.109375 L 3.890625 -7.109375 C 5.484375 -7.109375 6.3125 -6.046875 6.3125 -4 C 6.3125 -1.96875 5.484375 -0.90625 3.890625 -0.90625 Z M 2 -0.90625 "/>
</g>
<g id="glyph-0-5">
<path d="M 5.890625 -0.53125 C 5.78125 -0.515625 5.734375 -0.515625 5.6875 -0.515625 C 5.375 -0.515625 5.1875 -0.6875 5.1875 -0.96875 L 5.1875 -4.359375 C 5.1875 -5.375 4.4375 -5.921875 3.03125 -5.921875 C 2.171875 -5.921875 1.5 -5.6875 1.109375 -5.265625 C 0.84375 -4.96875 0.734375 -4.625 0.71875 -4.0625 L 1.640625 -4.0625 C 1.71875 -4.765625 2.140625 -5.078125 2.984375 -5.078125 C 3.828125 -5.078125 4.28125 -4.78125 4.28125 -4.21875 L 4.28125 -3.984375 C 4.265625 -3.59375 4.0625 -3.4375 3.328125 -3.34375 C 2.03125 -3.171875 1.828125 -3.140625 1.46875 -2.984375 C 0.796875 -2.703125 0.46875 -2.203125 0.46875 -1.453125 C 0.46875 -0.40625 1.1875 0.25 2.359375 0.25 C 3.078125 0.25 3.65625 0 4.3125 -0.59375 C 4.375 0 4.65625 0.25 5.265625 0.25 C 5.453125 0.25 5.578125 0.234375 5.890625 0.15625 Z M 4.28125 -1.8125 C 4.28125 -1.5 4.1875 -1.3125 3.921875 -1.0625 C 3.546875 -0.71875 3.09375 -0.546875 2.546875 -0.546875 C 1.84375 -0.546875 1.421875 -0.890625 1.421875 -1.46875 C 1.421875 -2.078125 1.8125 -2.390625 2.8125 -2.53125 C 3.78125 -2.65625 3.96875 -2.703125 4.28125 -2.84375 Z M 4.28125 -1.8125 "/>
</g>
<g id="glyph-0-6">
<path d="M 2.796875 -5.765625 L 1.84375 -5.765625 L 1.84375 -7.34375 L 0.9375 -7.34375 L 0.9375 -5.765625 L 0.15625 -5.765625 L 0.15625 -5.015625 L 0.9375 -5.015625 L 0.9375 -0.65625 C 0.9375 -0.0625 1.328125 0.25 2.046875 0.25 C 2.28125 0.25 2.484375 0.234375 2.796875 0.171875 L 2.796875 -0.59375 C 2.65625 -0.5625 2.546875 -0.546875 2.359375 -0.546875 C 1.953125 -0.546875 1.84375 -0.65625 1.84375 -1.0625 L 1.84375 -5.015625 L 2.796875 -5.015625 Z M 2.796875 -5.765625 "/>
</g>
<g id="glyph-0-7">
<path d="M 5.640625 -2.578125 C 5.640625 -3.453125 5.578125 -3.984375 5.40625 -4.40625 C 5.03125 -5.359375 4.15625 -5.921875 3.078125 -5.921875 C 1.46875 -5.921875 0.4375 -4.703125 0.4375 -2.8125 C 0.4375 -0.90625 1.4375 0.25 3.0625 0.25 C 4.375 0.25 5.296875 -0.5 5.515625 -1.75 L 4.59375 -1.75 C 4.34375 -0.984375 3.828125 -0.59375 3.09375 -0.59375 C 2.515625 -0.59375 2.015625 -0.859375 1.703125 -1.34375 C 1.484375 -1.671875 1.40625 -2 1.390625 -2.578125 Z M 1.421875 -3.328125 C 1.5 -4.390625 2.140625 -5.078125 3.0625 -5.078125 C 4 -5.078125 4.65625 -4.359375 4.65625 -3.328125 Z M 1.421875 -3.328125 "/>
</g>
<g id="glyph-0-8">
<path d="M 0.765625 -8.015625 L 0.765625 0 L 1.6875 0 L 1.6875 -3.171875 C 1.6875 -4.359375 2.296875 -5.125 3.25 -5.125 C 3.546875 -5.125 3.84375 -5.03125 4.0625 -4.875 C 4.328125 -4.671875 4.4375 -4.40625 4.4375 -4 L 4.4375 0 L 5.34375 0 L 5.34375 -4.359375 C 5.34375 -5.328125 4.65625 -5.921875 3.53125 -5.921875 C 2.71875 -5.921875 2.21875 -5.671875 1.6875 -4.96875 L 1.6875 -8.015625 Z M 0.765625 -8.015625 "/>
</g>
<g id="glyph-0-9">
<path d="M 0.953125 -1.140625 L 0.953125 0 L 1.609375 0 L 1.609375 0.203125 C 1.609375 0.953125 1.46875 1.171875 0.953125 1.203125 L 0.953125 1.609375 C 1.6875 1.640625 2.109375 1.109375 2.109375 0.171875 L 2.109375 -1.140625 Z M 0.953125 -1.140625 "/>
</g>
<g id="glyph-0-10">
</g>
<g id="glyph-0-11">
<path d="M 5.1875 -3.828125 C 5.140625 -4.390625 5.015625 -4.75 4.796875 -5.078125 C 4.40625 -5.609375 3.703125 -5.921875 2.90625 -5.921875 C 1.34375 -5.921875 0.34375 -4.703125 0.34375 -2.78125 C 0.34375 -0.921875 1.328125 0.25 2.890625 0.25 C 4.265625 0.25 5.140625 -0.578125 5.25 -1.984375 L 4.328125 -1.984375 C 4.171875 -1.0625 3.703125 -0.59375 2.921875 -0.59375 C 1.90625 -0.59375 1.296875 -1.421875 1.296875 -2.78125 C 1.296875 -4.21875 1.890625 -5.078125 2.890625 -5.078125 C 3.65625 -5.078125 4.140625 -4.625 4.25 -3.828125 Z M 5.1875 -3.828125 "/>
</g>
<g id="glyph-0-12">
<path d="M 4.8125 -4.15625 C 4.8125 -5.296875 4.0625 -5.921875 2.734375 -5.921875 C 1.390625 -5.921875 0.515625 -5.234375 0.515625 -4.171875 C 0.515625 -3.265625 0.984375 -2.84375 2.34375 -2.515625 L 3.203125 -2.296875 C 3.84375 -2.140625 4.09375 -1.90625 4.09375 -1.5 C 4.09375 -0.953125 3.546875 -0.59375 2.75 -0.59375 C 2.25 -0.59375 1.84375 -0.734375 1.609375 -0.984375 C 1.46875 -1.140625 1.390625 -1.3125 1.34375 -1.71875 L 0.375 -1.71875 C 0.421875 -0.390625 1.171875 0.25 2.671875 0.25 C 4.125 0.25 5.046875 -0.46875 5.046875 -1.578125 C 5.046875 -2.4375 4.5625 -2.90625 3.421875 -3.171875 L 2.546875 -3.390625 C 1.796875 -3.5625 1.46875 -3.8125 1.46875 -4.21875 C 1.46875 -4.75 1.953125 -5.078125 2.6875 -5.078125 C 3.4375 -5.078125 3.828125 -4.765625 3.84375 -4.15625 Z M 4.8125 -4.15625 "/>
</g>
<g id="glyph-0-13">
<path d="M 5.296875 0 L 5.296875 -5.765625 L 4.390625 -5.765625 L 4.390625 -2.5 C 4.390625 -1.3125 3.765625 -0.546875 2.8125 -0.546875 C 2.09375 -0.546875 1.625 -0.984375 1.625 -1.6875 L 1.625 -5.765625 L 0.71875 -5.765625 L 0.71875 -1.3125 C 0.71875 -0.359375 1.4375 0.25 2.546875 0.25 C 3.40625 0.25 3.9375 -0.046875 4.484375 -0.796875 L 4.484375 0 Z M 5.296875 0 "/>
</g>
<g id="glyph-0-14">
<path d="M 1.671875 -8.015625 L 0.75 -8.015625 L 0.75 0 L 1.671875 0 Z M 1.671875 -8.015625 "/>
</g>
<g id="glyph-0-15">
<path d="M 2.859375 -5.765625 L 1.90625 -5.765625 L 1.90625 -6.671875 C 1.90625 -7.046875 2.109375 -7.25 2.546875 -7.25 C 2.625 -7.25 2.65625 -7.25 2.859375 -7.234375 L 2.859375 -8 C 2.65625 -8.046875 2.53125 -8.046875 2.34375 -8.046875 C 1.5 -8.046875 0.984375 -7.5625 0.984375 -6.75 L 0.984375 -5.765625 L 0.21875 -5.765625 L 0.21875 -5.015625 L 0.984375 -5.015625 L 0.984375 0 L 1.90625 0 L 1.90625 -5.015625 L 2.859375 -5.015625 Z M 5.8125 -5.765625 L 4.859375 -5.765625 L 4.859375 -6.671875 C 4.859375 -7.046875 5.078125 -7.25 5.5 -7.25 C 5.578125 -7.25 5.609375 -7.25 5.8125 -7.234375 L 5.8125 -8 C 5.609375 -8.046875 5.484375 -8.046875 5.296875 -8.046875 C 4.453125 -8.046875 3.953125 -7.5625 3.953125 -6.75 L 3.953125 -5.765625 L 3.171875 -5.765625 L 3.171875 -5.015625 L 3.953125 -5.015625 L 3.953125 0 L 4.859375 0 L 4.859375 -5.015625 L 5.8125 -5.015625 Z M 5.8125 -5.765625 "/>
</g>
<g id="glyph-0-16">
<path d="M 2.515625 -8.015625 L -0.09375 0.21875 L 0.515625 0.21875 L 3.125 -8.015625 Z M 2.515625 -8.015625 "/>
</g>
<g id="glyph-0-17">
<path d="M 5.4375 -8.015625 L 4.53125 -8.015625 L 4.53125 -5.03125 C 4.140625 -5.625 3.53125 -5.921875 2.765625 -5.921875 C 1.265625 -5.921875 0.28125 -4.734375 0.28125 -2.890625 C 0.28125 -0.953125 1.234375 0.25 2.796875 0.25 C 3.59375 0.25 4.140625 -0.046875 4.625 -0.765625 L 4.625 0 L 5.4375 0 Z M 2.921875 -5.078125 C 3.90625 -5.078125 4.53125 -4.203125 4.53125 -2.8125 C 4.53125 -1.484375 3.890625 -0.609375 2.921875 -0.609375 C 1.90625 -0.609375 1.25 -1.5 1.25 -2.84375 C 1.25 -4.1875 1.90625 -5.078125 2.921875 -5.078125 Z M 2.921875 -5.078125 "/>
</g>
<g id="glyph-0-18">
<path d="M 1.65625 -5.765625 L 0.734375 -5.765625 L 0.734375 0 L 1.65625 0 Z M 1.65625 -8.015625 L 0.71875 -8.015625 L 0.71875 -6.859375 L 1.65625 -6.859375 Z M 1.65625 -8.015625 "/>
</g>
<g id="glyph-0-19">
<path d="M 4.265625 -5.765625 L 2.671875 -1.28125 L 1.203125 -5.765625 L 0.21875 -5.765625 L 2.171875 0.015625 L 1.8125 0.9375 C 1.65625 1.34375 1.46875 1.5 1.078125 1.5 C 0.921875 1.5 0.796875 1.46875 0.59375 1.4375 L 0.59375 2.25 C 0.78125 2.359375 0.96875 2.390625 1.203125 2.390625 C 1.5 2.390625 1.828125 2.296875 2.0625 2.125 C 2.359375 1.90625 2.515625 1.671875 2.6875 1.203125 L 5.265625 -5.765625 Z M 4.265625 -5.765625 "/>
</g>
<g id="glyph-0-20">
<path d="M 6.09375 0 L 7.78125 -5.765625 L 6.75 -5.765625 L 5.609375 -1.28125 L 4.484375 -5.765625 L 3.359375 -5.765625 L 2.25 -1.28125 L 1.078125 -5.765625 L 0.0625 -5.765625 L 1.734375 0 L 2.765625 0 L 3.890625 -4.515625 L 5.046875 0 Z M 6.09375 0 "/>
</g>
<g id="glyph-0-21">
<path d="M 2.984375 -5.921875 C 1.359375 -5.921875 0.390625 -4.78125 0.390625 -2.84375 C 0.390625 -0.890625 1.359375 0.25 3 0.25 C 4.625 0.25 5.609375 -0.90625 5.609375 -2.796875 C 5.609375 -4.796875 4.65625 -5.921875 2.984375 -5.921875 Z M 3 -5.078125 C 4.03125 -5.078125 4.65625 -4.234375 4.65625 -2.8125 C 4.65625 -1.4375 4.015625 -0.59375 3 -0.59375 C 1.984375 -0.59375 1.359375 -1.4375 1.359375 -2.84375 C 1.359375 -4.234375 1.984375 -5.078125 3 -5.078125 Z M 3 -5.078125 "/>
</g>
<g id="glyph-0-22">
<path d="M 0.765625 -5.765625 L 0.765625 0 L 1.6875 0 L 1.6875 -2.984375 C 1.6875 -4.375 2.265625 -5 3.53125 -4.96875 L 3.53125 -5.890625 C 3.375 -5.921875 3.28125 -5.921875 3.171875 -5.921875 C 2.578125 -5.921875 2.140625 -5.578125 1.609375 -4.71875 L 1.609375 -5.765625 Z M 0.765625 -5.765625 "/>
</g>
<g id="glyph-0-23">
<path d="M 1.546875 -8.015625 L 0.640625 -8.015625 L 0.640625 0 L 1.546875 0 L 1.546875 -2.25 L 2.4375 -3.125 L 4.390625 0 L 5.515625 0 L 3.171875 -3.765625 L 5.171875 -5.765625 L 4 -5.765625 L 1.546875 -3.328125 Z M 1.546875 -8.015625 "/>
</g>
<g id="glyph-0-24">
<path d="M 0.765625 -5.765625 L 0.765625 0 L 1.6875 0 L 1.6875 -3.171875 C 1.6875 -4.359375 2.3125 -5.125 3.25 -5.125 C 3.984375 -5.125 4.4375 -4.6875 4.4375 -4 L 4.4375 0 L 5.359375 0 L 5.359375 -4.359375 C 5.359375 -5.3125 4.640625 -5.921875 3.53125 -5.921875 C 2.671875 -5.921875 2.125 -5.59375 1.609375 -4.796875 L 1.609375 -5.765625 Z M 0.765625 -5.765625 "/>
</g>
<g id="glyph-0-25">
<path d="M 0.765625 -5.765625 L 0.765625 0 L 1.6875 0 L 1.6875 -3.625 C 1.6875 -4.453125 2.296875 -5.125 3.046875 -5.125 C 3.734375 -5.125 4.109375 -4.703125 4.109375 -3.96875 L 4.109375 0 L 5.03125 0 L 5.03125 -3.625 C 5.03125 -4.453125 5.640625 -5.125 6.390625 -5.125 C 7.0625 -5.125 7.453125 -4.703125 7.453125 -3.96875 L 7.453125 0 L 8.375 0 L 8.375 -4.328125 C 8.375 -5.359375 7.78125 -5.921875 6.703125 -5.921875 C 5.9375 -5.921875 5.484375 -5.703125 4.9375 -5.046875 C 4.59375 -5.671875 4.140625 -5.921875 3.390625 -5.921875 C 2.625 -5.921875 2.09375 -5.640625 1.609375 -4.953125 L 1.609375 -5.765625 Z M 0.765625 -5.765625 "/>
</g>
<g id="glyph-0-26">
<path d="M 0.59375 -8.015625 L 0.59375 0 L 1.421875 0 L 1.421875 -0.734375 C 1.859375 -0.0625 2.4375 0.25 3.25 0.25 C 4.765625 0.25 5.75 -0.984375 5.75 -2.90625 C 5.75 -4.78125 4.8125 -5.921875 3.28125 -5.921875 C 2.5 -5.921875 1.9375 -5.625 1.5 -4.984375 L 1.5 -8.015625 Z M 3.109375 -5.078125 C 4.140625 -5.078125 4.796875 -4.1875 4.796875 -2.8125 C 4.796875 -1.5 4.109375 -0.609375 3.109375 -0.609375 C 2.140625 -0.609375 1.5 -1.484375 1.5 -2.84375 C 1.5 -4.1875 2.140625 -5.078125 3.109375 -5.078125 Z M 3.109375 -5.078125 "/>
</g>
<g id="glyph-0-27">
<path d="M 5.21875 -2.40625 L 6.03125 0 L 7.1875 0 L 4.359375 -8.015625 L 3.046875 -8.015625 L 0.1875 0 L 1.28125 0 L 2.125 -2.40625 Z M 4.921875 -3.265625 L 2.375 -3.265625 L 3.703125 -6.921875 Z M 4.921875 -3.265625 "/>
</g>
<g id="glyph-0-28">
<path d="M 0.875 0 L 4.484375 0 C 5.25 0 5.8125 -0.203125 6.234375 -0.671875 C 6.640625 -1.09375 6.859375 -1.65625 6.859375 -2.28125 C 6.859375 -3.25 6.40625 -3.84375 5.390625 -4.234375 C 6.125 -4.578125 6.5 -5.15625 6.5 -5.984375 C 6.5 -6.578125 6.28125 -7.078125 5.859375 -7.453125 C 5.4375 -7.84375 4.890625 -8.015625 4.125 -8.015625 L 0.875 -8.015625 Z M 1.890625 -4.5625 L 1.890625 -7.109375 L 3.875 -7.109375 C 4.4375 -7.109375 4.765625 -7.046875 5.03125 -6.828125 C 5.328125 -6.609375 5.484375 -6.28125 5.484375 -5.84375 C 5.484375 -5.40625 5.328125 -5.078125 5.03125 -4.84375 C 4.765625 -4.640625 4.4375 -4.5625 3.875 -4.5625 Z M 1.890625 -0.90625 L 1.890625 -3.65625 L 4.390625 -3.65625 C 5.296875 -3.65625 5.828125 -3.140625 5.828125 -2.28125 C 5.828125 -1.421875 5.296875 -0.90625 4.390625 -0.90625 Z M 1.890625 -0.90625 "/>
</g>
<g id="glyph-0-29">
<path d="M 7.796875 -4.234375 L 4.453125 -4.234375 L 4.453125 -3.328125 L 6.890625 -3.328125 L 6.890625 -3.109375 C 6.890625 -1.6875 5.84375 -0.65625 4.375 -0.65625 C 3.5625 -0.65625 2.828125 -0.953125 2.359375 -1.46875 C 1.828125 -2.03125 1.5 -2.984375 1.5 -3.984375 C 1.5 -5.953125 2.625 -7.25 4.328125 -7.25 C 5.546875 -7.25 6.421875 -6.625 6.640625 -5.59375 L 7.6875 -5.59375 C 7.40625 -7.21875 6.171875 -8.15625 4.328125 -8.15625 C 3.359375 -8.15625 2.5625 -7.890625 1.9375 -7.375 C 1 -6.609375 0.484375 -5.375 0.484375 -3.921875 C 0.484375 -1.46875 1.984375 0.25 4.15625 0.25 C 5.25 0.25 6.109375 -0.15625 6.890625 -1.015625 L 7.15625 0.046875 L 7.796875 0.046875 Z M 7.796875 -4.234375 "/>
</g>
<g id="glyph-0-30">
<path d="M 4.875 -5.765625 L 0.578125 -5.765625 L 0.578125 -4.96875 L 3.78125 -4.96875 L 0.34375 -0.828125 L 0.34375 0 L 5.03125 0 L 5.03125 -0.796875 L 1.453125 -0.796875 L 4.875 -4.953125 Z M 4.875 -5.765625 "/>
</g>
<g id="glyph-0-31">
<path d="M 7.28125 -5.53125 C 6.96875 -7.296875 5.953125 -8.15625 4.1875 -8.15625 C 3.109375 -8.15625 2.25 -7.8125 1.65625 -7.15625 C 0.921875 -6.359375 0.53125 -5.21875 0.53125 -3.921875 C 0.53125 -2.59375 0.9375 -1.46875 1.6875 -0.6875 C 2.3125 -0.046875 3.109375 0.25 4.140625 0.25 C 6.109375 0.25 7.203125 -0.796875 7.453125 -2.921875 L 6.390625 -2.921875 C 6.296875 -2.375 6.1875 -2 6.03125 -1.6875 C 5.703125 -1.015625 5.015625 -0.65625 4.15625 -0.65625 C 2.5625 -0.65625 1.546875 -1.921875 1.546875 -3.921875 C 1.546875 -5.984375 2.515625 -7.25 4.0625 -7.25 C 4.71875 -7.25 5.328125 -7.0625 5.65625 -6.75 C 5.953125 -6.46875 6.109375 -6.140625 6.234375 -5.53125 Z M 7.28125 -5.53125 "/>
</g>
<g id="glyph-0-32">
<path d="M 1.890625 -2.8125 L 3.203125 -4.109375 L 6.03125 0 L 7.234375 0 L 3.9375 -4.75 L 7.203125 -8.015625 L 5.890625 -8.015625 L 1.890625 -3.953125 L 1.890625 -8.015625 L 0.875 -8.015625 L 0.875 0 L 1.890625 0 Z M 1.890625 -2.8125 "/>
</g>
<g id="glyph-0-33">
<path d="M 4.25 -3.140625 L 7.265625 -8.015625 L 6.046875 -8.015625 L 3.765625 -4.109375 L 1.40625 -8.015625 L 0.140625 -8.015625 L 3.234375 -3.140625 L 3.234375 0 L 4.25 0 Z M 4.25 -3.140625 "/>
</g>
<g id="glyph-1-0">
<path d="M 1.984375 -5.390625 L 4.265625 -4.265625 L 5.078125 -5.078125 L -2.59375 -8.75 L -3.515625 -7.828125 L 0.125 -0.125 L 0.90625 -0.90625 L -0.203125 -3.203125 Z M 1.171875 -5.796875 L -0.640625 -3.984375 L -2.265625 -7.515625 Z M 1.171875 -5.796875 "/>
</g>
<g id="glyph-1-1">
<path d="M 3.75 -3.75 L -0.328125 -7.828125 L -0.96875 -7.1875 L 1.34375 -4.875 C 2.1875 -4.03125 2.265625 -3.046875 1.59375 -2.375 C 1.09375 -1.875 0.453125 -1.859375 -0.03125 -2.34375 L -2.921875 -5.234375 L -3.5625 -4.59375 L -0.40625 -1.4375 C 0.265625 -0.765625 1.1875 -0.84375 1.96875 -1.625 C 2.578125 -2.234375 2.75 -2.8125 2.609375 -3.734375 L 3.171875 -3.171875 Z M 3.75 -3.75 "/>
</g>
<g id="glyph-1-2">
<path d="M -0.9375 -7.21875 L -0.34375 -6.625 C -1.171875 -6.796875 -1.734375 -6.640625 -2.25 -6.125 C -3.21875 -5.15625 -2.984375 -3.546875 -1.6875 -2.25 C -1 -1.5625 -0.34375 -1.21875 0.40625 -1.15625 C 1.078125 -1.109375 1.65625 -1.3125 2.078125 -1.734375 C 2.5625 -2.21875 2.6875 -2.78125 2.53125 -3.625 L 2.734375 -3.421875 C 3.828125 -2.328125 3.921875 -1.609375 3.125 -0.8125 C 2.578125 -0.265625 2.046875 -0.203125 1.53125 -0.59375 L 0.875 0.0625 C 1.6875 0.75 2.75 0.625 3.640625 -0.265625 C 4.234375 -0.859375 4.546875 -1.546875 4.484375 -2.140625 C 4.421875 -2.828125 4.03125 -3.46875 3.078125 -4.421875 L -0.328125 -7.828125 Z M -1.578125 -5.609375 C -0.890625 -6.296875 0.0625 -6.09375 1.09375 -5.0625 C 2.078125 -4.078125 2.265625 -3.109375 1.59375 -2.4375 C 0.921875 -1.765625 -0.046875 -1.953125 -1.0625 -2.96875 C -2.046875 -3.953125 -2.25 -4.9375 -1.578125 -5.609375 Z M -1.578125 -5.609375 "/>
</g>
<g id="glyph-1-3">
</g>
<g id="glyph-1-4">
<path d="M -3.484375 -7.765625 C -4 -7.25 -4.234375 -6.546875 -4.125 -5.875 C -3.984375 -5.015625 -3.4375 -4.09375 -2.390625 -3.046875 C -0.5 -1.15625 1.140625 -0.796875 2.3125 -1.96875 C 3.46875 -3.125 3.109375 -4.765625 1.265625 -6.609375 C 0.171875 -7.703125 -0.734375 -8.265625 -1.59375 -8.40625 C -2.296875 -8.515625 -2.96875 -8.28125 -3.484375 -7.765625 Z M -2.875 -7.15625 C -2.140625 -7.890625 -1.015625 -7.515625 0.515625 -5.984375 C 2.109375 -4.390625 2.5 -3.28125 1.734375 -2.515625 C 1.015625 -1.796875 -0.140625 -2.203125 -1.6875 -3.75 C -3.234375 -5.296875 -3.609375 -6.421875 -2.875 -7.15625 Z M -2.875 -7.15625 "/>
</g>
<g id="glyph-1-5">
<path d="M 1.1875 -3.90625 L 2.546875 -2.546875 L 3.21875 -3.21875 L 1.859375 -4.578125 L 2.6875 -5.40625 L 2.0625 -6.03125 L 1.234375 -5.203125 L -2.40625 -8.84375 L -2.90625 -8.34375 L -1.875 -2.3125 L -1.140625 -1.578125 Z M 0.5625 -4.53125 L -1.171875 -2.796875 L -1.90625 -7 Z M 0.5625 -4.53125 "/>
</g>
<g id="glyph-1-6">
<path d="M -2 -6.03125 L 2.015625 -2.015625 L 2.703125 -2.703125 L -2.921875 -8.328125 L -3.375 -7.875 C -2.75 -6.78125 -2.78125 -6.5 -3.703125 -5.296875 L -3.21875 -4.8125 Z M -2 -6.03125 "/>
</g>
<g id="glyph-1-7">
<path d="M 0.0625 -6 C 0.296875 -6.921875 0.203125 -7.390625 -0.328125 -7.921875 C -1.203125 -8.796875 -2.515625 -8.734375 -3.484375 -7.765625 C -4.453125 -6.796875 -4.515625 -5.484375 -3.640625 -4.609375 C -3.109375 -4.078125 -2.671875 -3.984375 -1.75 -4.1875 C -2.046875 -3.234375 -1.90625 -2.46875 -1.28125 -1.84375 C -0.265625 -0.828125 1.203125 -0.859375 2.3125 -1.96875 C 3.390625 -3.046875 3.4375 -4.53125 2.421875 -5.546875 C 1.796875 -6.171875 1.03125 -6.3125 0.0625 -6 Z M -2.875 -7.15625 C -2.296875 -7.734375 -1.5625 -7.75 -1.015625 -7.203125 C -0.484375 -6.671875 -0.5 -5.9375 -1.078125 -5.359375 C -1.65625 -4.78125 -2.390625 -4.765625 -2.9375 -5.3125 C -3.46875 -5.84375 -3.453125 -6.578125 -2.875 -7.15625 Z M -0.515625 -4.796875 C 0.171875 -5.484375 1.09375 -5.5 1.75 -4.84375 C 2.421875 -4.171875 2.390625 -3.265625 1.6875 -2.5625 C 1.015625 -1.890625 0.09375 -1.875 -0.546875 -2.515625 C -1.21875 -3.1875 -1.203125 -4.109375 -0.515625 -4.796875 Z M -0.515625 -4.796875 "/>
</g>
<g id="glyph-2-0">
<path d="M -3.40625 -2.03125 L -3.40625 -4.546875 C -3.40625 -5.171875 -3.59375 -5.671875 -3.96875 -6.09375 C -4.40625 -6.578125 -4.921875 -6.78125 -5.671875 -6.78125 C -7.171875 -6.78125 -8.015625 -5.890625 -8.015625 -4.3125 L -8.015625 -1 L 0 -1 L 0 -2.03125 Z M -4.296875 -2.03125 L -7.109375 -2.03125 L -7.109375 -4.15625 C -7.109375 -5.140625 -6.59375 -5.71875 -5.703125 -5.71875 C -4.828125 -5.71875 -4.296875 -5.140625 -4.296875 -4.15625 Z M -4.296875 -2.03125 "/>
</g>
<g id="glyph-2-1">
<path d="M -0.53125 -5.890625 C -0.515625 -5.78125 -0.515625 -5.734375 -0.515625 -5.6875 C -0.515625 -5.375 -0.6875 -5.1875 -0.96875 -5.1875 L -4.359375 -5.1875 C -5.375 -5.1875 -5.921875 -4.4375 -5.921875 -3.03125 C -5.921875 -2.171875 -5.6875 -1.5 -5.265625 -1.109375 C -4.96875 -0.84375 -4.625 -0.734375 -4.0625 -0.71875 L -4.0625 -1.640625 C -4.765625 -1.71875 -5.078125 -2.140625 -5.078125 -2.984375 C -5.078125 -3.828125 -4.78125 -4.28125 -4.21875 -4.28125 L -3.984375 -4.28125 C -3.59375 -4.265625 -3.4375 -4.0625 -3.34375 -3.328125 C -3.171875 -2.03125 -3.140625 -1.828125 -2.984375 -1.46875 C -2.703125 -0.796875 -2.203125 -0.46875 -1.453125 -0.46875 C -0.40625 -0.46875 0.25 -1.1875 0.25 -2.359375 C 0.25 -3.078125 0 -3.65625 -0.59375 -4.3125 C 0 -4.375 0.25 -4.65625 0.25 -5.265625 C 0.25 -5.453125 0.234375 -5.578125 0.15625 -5.890625 Z M -1.8125 -4.28125 C -1.5 -4.28125 -1.3125 -4.1875 -1.0625 -3.921875 C -0.71875 -3.546875 -0.546875 -3.09375 -0.546875 -2.546875 C -0.546875 -1.84375 -0.890625 -1.421875 -1.46875 -1.421875 C -2.078125 -1.421875 -2.390625 -1.8125 -2.53125 -2.8125 C -2.65625 -3.78125 -2.703125 -3.96875 -2.84375 -4.28125 Z M -1.8125 -4.28125 "/>
</g>
<g id="glyph-2-2">
<path d="M -5.765625 -0.765625 L 0 -0.765625 L 0 -1.6875 L -2.984375 -1.6875 C -4.375 -1.6875 -5 -2.265625 -4.96875 -3.53125 L -5.890625 -3.53125 C -5.921875 -3.375 -5.921875 -3.28125 -5.921875 -3.171875 C -5.921875 -2.578125 -5.578125 -2.140625 -4.71875 -1.609375 L -5.765625 -1.609375 Z M -5.765625 -0.765625 "/>
</g>
<g id="glyph-2-3">
<path d="M -5.765625 -2.796875 L -5.765625 -1.84375 L -7.34375 -1.84375 L -7.34375 -0.9375 L -5.765625 -0.9375 L -5.765625 -0.15625 L -5.015625 -0.15625 L -5.015625 -0.9375 L -0.65625 -0.9375 C -0.0625 -0.9375 0.25 -1.328125 0.25 -2.046875 C 0.25 -2.28125 0.234375 -2.484375 0.171875 -2.796875 L -0.59375 -2.796875 C -0.5625 -2.65625 -0.546875 -2.546875 -0.546875 -2.359375 C -0.546875 -1.953125 -0.65625 -1.84375 -1.0625 -1.84375 L -5.015625 -1.84375 L -5.015625 -2.796875 Z M -5.765625 -2.796875 "/>
</g>
<g id="glyph-2-4">
<path d="M -5.765625 -1.65625 L -5.765625 -0.734375 L 0 -0.734375 L 0 -1.65625 Z M -8.015625 -1.65625 L -8.015625 -0.71875 L -6.859375 -0.71875 L -6.859375 -1.65625 Z M -8.015625 -1.65625 "/>
</g>
<g id="glyph-2-5">
<path d="M -3.828125 -5.1875 C -4.390625 -5.140625 -4.75 -5.015625 -5.078125 -4.796875 C -5.609375 -4.40625 -5.921875 -3.703125 -5.921875 -2.90625 C -5.921875 -1.34375 -4.703125 -0.34375 -2.78125 -0.34375 C -0.921875 -0.34375 0.25 -1.328125 0.25 -2.890625 C 0.25 -4.265625 -0.578125 -5.140625 -1.984375 -5.25 L -1.984375 -4.328125 C -1.0625 -4.171875 -0.59375 -3.703125 -0.59375 -2.921875 C -0.59375 -1.90625 -1.421875 -1.296875 -2.78125 -1.296875 C -4.21875 -1.296875 -5.078125 -1.890625 -5.078125 -2.890625 C -5.078125 -3.65625 -4.625 -4.140625 -3.828125 -4.25 Z M -3.828125 -5.1875 "/>
</g>
<g id="glyph-2-6">
<path d="M 2.390625 -0.59375 L 2.390625 -1.515625 L -0.609375 -1.515625 C -0.015625 -2 0.25 -2.546875 0.25 -3.28125 C 0.25 -4.78125 -0.953125 -5.75 -2.78125 -5.75 C -4.71875 -5.75 -5.921875 -4.8125 -5.921875 -3.28125 C -5.921875 -2.5 -5.578125 -1.875 -4.890625 -1.4375 L -5.765625 -1.4375 L -5.765625 -0.59375 Z M -5.078125 -3.125 C -5.078125 -4.140625 -4.1875 -4.796875 -2.8125 -4.796875 C -1.5 -4.796875 -0.609375 -4.125 -0.609375 -3.125 C -0.609375 -2.140625 -1.484375 -1.515625 -2.84375 -1.515625 C -4.1875 -1.515625 -5.078125 -2.140625 -5.078125 -3.125 Z M -5.078125 -3.125 "/>
</g>
<g id="glyph-2-7">
<path d="M -5.765625 -0.765625 L 0 -0.765625 L 0 -1.6875 L -3.171875 -1.6875 C -4.359375 -1.6875 -5.125 -2.3125 -5.125 -3.25 C -5.125 -3.984375 -4.6875 -4.4375 -4 -4.4375 L 0 -4.4375 L 0 -5.359375 L -4.359375 -5.359375 C -5.3125 -5.359375 -5.921875 -4.640625 -5.921875 -3.53125 C -5.921875 -2.671875 -5.59375 -2.125 -4.796875 -1.609375 L -5.765625 -1.609375 Z M -5.765625 -0.765625 "/>
</g>
<g id="glyph-2-8">
<path d="M -4.15625 -4.8125 C -5.296875 -4.8125 -5.921875 -4.0625 -5.921875 -2.734375 C -5.921875 -1.390625 -5.234375 -0.515625 -4.171875 -0.515625 C -3.265625 -0.515625 -2.84375 -0.984375 -2.515625 -2.34375 L -2.296875 -3.203125 C -2.140625 -3.84375 -1.90625 -4.09375 -1.5 -4.09375 C -0.953125 -4.09375 -0.59375 -3.546875 -0.59375 -2.75 C -0.59375 -2.25 -0.734375 -1.84375 -0.984375 -1.609375 C -1.140625 -1.46875 -1.3125 -1.390625 -1.71875 -1.34375 L -1.71875 -0.375 C -0.390625 -0.421875 0.25 -1.171875 0.25 -2.671875 C 0.25 -4.125 -0.46875 -5.046875 -1.578125 -5.046875 C -2.4375 -5.046875 -2.90625 -4.5625 -3.171875 -3.421875 L -3.390625 -2.546875 C -3.5625 -1.796875 -3.8125 -1.46875 -4.21875 -1.46875 C -4.75 -1.46875 -5.078125 -1.953125 -5.078125 -2.6875 C -5.078125 -3.4375 -4.765625 -3.828125 -4.15625 -3.84375 Z M -4.15625 -4.8125 "/>
</g>
</g>
<clipPath id="clip-0">
<path clip-rule="nonzero" d="M 43.152344 5.480469 L 498.523438 5.480469 L 498.523438 134.558594 L 43.152344 134.558594 Z M 43.152344 5.480469 "/>
</clipPath>
<clipPath id="clip-1">
<path clip-rule="nonzero" d="M 43.152344 115 L 498.523438 115 L 498.523438 116 L 43.152344 116 Z M 43.152344 115 "/>
</clipPath>
<clipPath id="clip-2">
<path clip-rule="nonzero" d="M 43.152344 89 L 498.523438 89 L 498.523438 90 L 43.152344 90 Z M 43.152344 89 "/>
</clipPath>
<clipPath id="clip-3">
<path clip-rule="nonzero" d="M 43.152344 62 L 498.523438 62 L 498.523438 64 L 43.152344 64 Z M 43.152344 62 "/>
</clipPath>
<clipPath id="clip-4">
<path clip-rule="nonzero" d="M 43.152344 36 L 498.523438 36 L 498.523438 38 L 43.152344 38 Z M 43.152344 36 "/>
</clipPath>
<clipPath id="clip-5">
<path clip-rule="nonzero" d="M 43.152344 10 L 498.523438 10 L 498.523438 12 L 43.152344 12 Z M 43.152344 10 "/>
</clipPath>
<clipPath id="clip-6">
<path clip-rule="nonzero" d="M 53 5.480469 L 55 5.480469 L 55 134.558594 L 53 134.558594 Z M 53 5.480469 "/>
</clipPath>
<clipPath id="clip-7">
<path clip-rule="nonzero" d="M 198 5.480469 L 199 5.480469 L 199 134.558594 L 198 134.558594 Z M 198 5.480469 "/>
</clipPath>
<clipPath id="clip-8">
<path clip-rule="nonzero" d="M 342 5.480469 L 344 5.480469 L 344 134.558594 L 342 134.558594 Z M 342 5.480469 "/>
</clipPath>
<clipPath id="clip-9">
<path clip-rule="nonzero" d="M 487 5.480469 L 489 5.480469 L 489 134.558594 L 487 134.558594 Z M 487 5.480469 "/>
</clipPath>
<clipPath id="clip-10">
<path clip-rule="nonzero" d="M 43.152344 128 L 498.523438 128 L 498.523438 130 L 43.152344 130 Z M 43.152344 128 "/>
</clipPath>
<clipPath id="clip-11">
<path clip-rule="nonzero" d="M 43.152344 101 L 498.523438 101 L 498.523438 104 L 43.152344 104 Z M 43.152344 101 "/>
</clipPath>
<clipPath id="clip-12">
<path clip-rule="nonzero" d="M 43.152344 75 L 498.523438 75 L 498.523438 77 L 43.152344 77 Z M 43.152344 75 "/>
</clipPath>
<clipPath id="clip-13">
<path clip-rule="nonzero" d="M 43.152344 49 L 498.523438 49 L 498.523438 51 L 43.152344 51 Z M 43.152344 49 "/>
</clipPath>
<clipPath id="clip-14">
<path clip-rule="nonzero" d="M 43.152344 23 L 498.523438 23 L 498.523438 25 L 43.152344 25 Z M 43.152344 23 "/>
</clipPath>
<clipPath id="clip-15">
<path clip-rule="nonzero" d="M 125 5.480469 L 127 5.480469 L 127 134.558594 L 125 134.558594 Z M 125 5.480469 "/>
</clipPath>
<clipPath id="clip-16">
<path clip-rule="nonzero" d="M 270 5.480469 L 272 5.480469 L 272 134.558594 L 270 134.558594 Z M 270 5.480469 "/>
</clipPath>
<clipPath id="clip-17">
<path clip-rule="nonzero" d="M 414 5.480469 L 416 5.480469 L 416 134.558594 L 414 134.558594 Z M 414 5.480469 "/>
</clipPath>
<clipPath id="clip-18">
<path clip-rule="nonzero" d="M 43.152344 5.480469 L 498.523438 5.480469 L 498.523438 134.558594 L 43.152344 134.558594 Z M 43.152344 5.480469 "/>
</clipPath>
</defs>
<rect x="-50.4" y="-25.2" width="604.8" height="302.4" fill="rgb(100%, 100%, 100%)" fill-opacity="1"/>
<rect x="-50.4" y="-25.2" width="604.8" height="302.4" fill="rgb(100%, 100%, 100%)" fill-opacity="1"/>
<path fill="none" stroke-width="1.066978" stroke-linecap="round" stroke-linejoin="round" stroke="rgb(100%, 100%, 100%)" stroke-opacity="1" stroke-miterlimit="10" d="M 0 252 L 504 252 L 504 0 L 0 0 Z M 0 252 "/>
<g clip-path="url(#clip-0)">
<path fill-rule="nonzero" fill="rgb(100%, 100%, 100%)" fill-opacity="1" stroke-width="1.066978" stroke-linecap="round" stroke-linejoin="round" stroke="rgb(0%, 0%, 0%)" stroke-opacity="1" stroke-miterlimit="10" d="M 43.152344 134.558594 L 498.523438 134.558594 L 498.523438 5.480469 L 43.152344 5.480469 Z M 43.152344 134.558594 "/>
</g>
<g clip-path="url(#clip-1)">
<path fill="none" stroke-width="0.533489" stroke-linecap="butt" stroke-linejoin="round" stroke="rgb(94.117647%, 97.254902%, 100%)" stroke-opacity="1" stroke-miterlimit="10" d="M 43.152344 115.59375 L 498.519531 115.59375 "/>
</g>
<g clip-path="url(#clip-2)">
<path fill="none" stroke-width="0.533489" stroke-linecap="butt" stroke-linejoin="round" stroke="rgb(94.117647%, 97.254902%, 100%)" stroke-opacity="1" stroke-miterlimit="10" d="M 43.152344 89.402344 L 498.519531 89.402344 "/>
</g>
<g clip-path="url(#clip-3)">
<path fill="none" stroke-width="0.533489" stroke-linecap="butt" stroke-linejoin="round" stroke="rgb(94.117647%, 97.254902%, 100%)" stroke-opacity="1" stroke-miterlimit="10" d="M 43.152344 63.207031 L 498.519531 63.207031 "/>
</g>
<g clip-path="url(#clip-4)">
<path fill="none" stroke-width="0.533489" stroke-linecap="butt" stroke-linejoin="round" stroke="rgb(94.117647%, 97.254902%, 100%)" stroke-opacity="1" stroke-miterlimit="10" d="M 43.152344 37.015625 L 498.519531 37.015625 "/>
</g>
<g clip-path="url(#clip-5)">
<path fill="none" stroke-width="0.533489" stroke-linecap="butt" stroke-linejoin="round" stroke="rgb(94.117647%, 97.254902%, 100%)" stroke-opacity="1" stroke-miterlimit="10" d="M 43.152344 10.824219 L 498.519531 10.824219 "/>
</g>
<g clip-path="url(#clip-6)">
<path fill="none" stroke-width="0.533489" stroke-linecap="butt" stroke-linejoin="round" stroke="rgb(94.117647%, 97.254902%, 100%)" stroke-opacity="1" stroke-miterlimit="10" d="M 53.933594 134.558594 L 53.933594 5.480469 "/>
</g>
<g clip-path="url(#clip-7)">
<path fill="none" stroke-width="0.533489" stroke-linecap="butt" stroke-linejoin="round" stroke="rgb(94.117647%, 97.254902%, 100%)" stroke-opacity="1" stroke-miterlimit="10" d="M 198.535156 134.558594 L 198.535156 5.480469 "/>
</g>
<g clip-path="url(#clip-8)">
<path fill="none" stroke-width="0.533489" stroke-linecap="butt" stroke-linejoin="round" stroke="rgb(94.117647%, 97.254902%, 100%)" stroke-opacity="1" stroke-miterlimit="10" d="M 343.136719 134.558594 L 343.136719 5.480469 "/>
</g>
<g clip-path="url(#clip-9)">
<path fill="none" stroke-width="0.533489" stroke-linecap="butt" stroke-linejoin="round" stroke="rgb(94.117647%, 97.254902%, 100%)" stroke-opacity="1" stroke-miterlimit="10" d="M 487.738281 134.558594 L 487.738281 5.480469 "/>
</g>
<g clip-path="url(#clip-10)">
<path fill="none" stroke-width="1.066978" stroke-linecap="butt" stroke-linejoin="round" stroke="rgb(100%, 100%, 100%)" stroke-opacity="1" stroke-miterlimit="10" d="M 43.152344 128.691406 L 498.519531 128.691406 "/>
</g>
<g clip-path="url(#clip-11)">
<path fill="none" stroke-width="1.066978" stroke-linecap="butt" stroke-linejoin="round" stroke="rgb(100%, 100%, 100%)" stroke-opacity="1" stroke-miterlimit="10" d="M 43.152344 102.496094 L 498.519531 102.496094 "/>
</g>
<g clip-path="url(#clip-12)">
<path fill="none" stroke-width="1.066978" stroke-linecap="butt" stroke-linejoin="round" stroke="rgb(100%, 100%, 100%)" stroke-opacity="1" stroke-miterlimit="10" d="M 43.152344 76.304688 L 498.519531 76.304688 "/>
</g>
<g clip-path="url(#clip-13)">
<path fill="none" stroke-width="1.066978" stroke-linecap="butt" stroke-linejoin="round" stroke="rgb(100%, 100%, 100%)" stroke-opacity="1" stroke-miterlimit="10" d="M 43.152344 50.113281 L 498.519531 50.113281 "/>
</g>
<g clip-path="url(#clip-14)">
<path fill="none" stroke-width="1.066978" stroke-linecap="butt" stroke-linejoin="round" stroke="rgb(100%, 100%, 100%)" stroke-opacity="1" stroke-miterlimit="10" d="M 43.152344 23.917969 L 498.519531 23.917969 "/>
</g>
<g clip-path="url(#clip-15)">
<path fill="none" stroke-width="1.066978" stroke-linecap="butt" stroke-linejoin="round" stroke="rgb(100%, 100%, 100%)" stroke-opacity="1" stroke-miterlimit="10" d="M 126.234375 134.558594 L 126.234375 5.480469 "/>
</g>
<g clip-path="url(#clip-16)">
<path fill="none" stroke-width="1.066978" stroke-linecap="butt" stroke-linejoin="round" stroke="rgb(100%, 100%, 100%)" stroke-opacity="1" stroke-miterlimit="10" d="M 270.835938 134.558594 L 270.835938 5.480469 "/>
</g>
<g clip-path="url(#clip-17)">
<path fill="none" stroke-width="1.066978" stroke-linecap="butt" stroke-linejoin="round" stroke="rgb(100%, 100%, 100%)" stroke-opacity="1" stroke-miterlimit="10" d="M 415.4375 134.558594 L 415.4375 5.480469 "/>
</g>
<path fill-rule="nonzero" fill="rgb(97.254902%, 46.27451%, 42.745098%)" fill-opacity="0.8" d="M 167.550781 111.613281 L 167.960938 111.53125 L 187.792969 107.660156 L 188.207031 107.578125 L 188.621094 107.382812 L 208.449219 97.976562 L 208.863281 97.78125 L 209.277344 97.054688 L 229.109375 62.101562 L 229.519531 60.851562 L 229.933594 60.285156 L 249.765625 33.128906 L 250.179688 30.46875 L 250.589844 30.167969 L 270.421875 15.835938 L 270.835938 15.539062 L 271.25 15.453125 L 291.078125 11.429688 L 291.492188 11.347656 L 291.90625 18.09375 L 311.738281 15.011719 L 312.148438 14.949219 L 312.5625 14.945312 L 332.394531 14.882812 L 333.222656 14.882812 L 373.710938 14.753906 L 374.121094 14.75 L 374.535156 14.75 L 394.367188 14.6875 L 394.78125 14.6875 L 395.191406 16.257812 L 394.367188 16.257812 L 374.535156 16.320312 L 374.121094 16.324219 L 373.710938 16.324219 L 333.222656 16.453125 L 332.808594 16.453125 L 332.394531 16.457031 L 312.5625 16.519531 L 312.148438 16.519531 L 311.738281 16.582031 L 291.90625 19.664062 L 291.492188 12.917969 L 291.078125 13.003906 L 271.25 17.023438 L 270.835938 17.109375 L 270.421875 17.40625 L 250.589844 31.738281 L 250.179688 32.039062 L 249.765625 34.695312 L 229.933594 61.601562 L 229.519531 62.160156 L 229.109375 63.40625 L 209.277344 98.105469 L 208.863281 98.832031 L 208.449219 99.019531 L 188.621094 108.171875 L 188.207031 108.363281 L 187.792969 108.441406 L 167.960938 112.0625 L 167.550781 112.136719 L 167.136719 113.257812 Z M 167.550781 111.613281 "/>
<path fill-rule="nonzero" fill="rgb(82.745098%, 57.254902%, 0%)" fill-opacity="0.8" d="M 167.550781 112.136719 L 167.960938 112.0625 L 187.792969 108.441406 L 188.207031 108.363281 L 188.621094 108.171875 L 208.449219 99.019531 L 208.863281 98.832031 L 209.277344 98.105469 L 229.109375 63.40625 L 229.519531 62.160156 L 229.933594 61.601562 L 249.765625 34.695312 L 250.179688 32.039062 L 250.589844 31.738281 L 270.421875 17.40625 L 270.835938 17.109375 L 271.25 17.023438 L 291.078125 13.003906 L 291.492188 12.917969 L 291.90625 19.664062 L 311.738281 16.582031 L 312.148438 16.519531 L 312.5625 16.519531 L 332.394531 16.457031 L 332.808594 16.453125 L 333.222656 16.453125 L 373.710938 16.324219 L 374.121094 16.324219 L 374.535156 16.320312 L 394.367188 16.257812 L 395.191406 16.257812 L 435.679688 16.128906 L 436.09375 16.125 L 436.507812 30.265625 L 436.09375 28.175781 L 435.679688 28.175781 L 395.191406 28.304688 L 394.78125 28.304688 L 394.367188 28.308594 L 374.535156 28.371094 L 374.121094 28.371094 L 373.710938 28.375 L 333.222656 28.5 L 332.808594 28.503906 L 332.394531 28.503906 L 312.5625 28.566406 L 312.148438 28.566406 L 311.738281 28.632812 L 291.90625 31.710938 L 291.492188 24.96875 L 291.078125 25.039062 L 271.25 28.558594 L 270.835938 28.632812 L 270.421875 28.921875 L 250.589844 42.75 L 250.179688 43.039062 L 249.765625 45.558594 L 229.933594 65.925781 L 229.519531 66.351562 L 229.109375 67.578125 L 209.277344 101.269531 L 208.863281 101.972656 L 208.449219 102.144531 L 188.621094 110.289062 L 188.207031 110.460938 L 187.792969 110.515625 L 167.960938 113.128906 L 167.550781 113.183594 L 167.136719 113.257812 Z M 167.550781 112.136719 "/>
<path fill-rule="nonzero" fill="rgb(57.647059%, 66.666667%, 0%)" fill-opacity="0.8" d="M 250.179688 43.039062 L 250.589844 42.75 L 270.421875 28.921875 L 270.835938 28.632812 L 271.25 28.558594 L 291.078125 25.039062 L 291.492188 24.96875 L 291.90625 31.710938 L 311.738281 28.632812 L 312.148438 28.566406 L 312.5625 28.566406 L 332.394531 28.503906 L 332.808594 28.503906 L 333.222656 28.5 L 373.710938 28.375 L 374.121094 28.371094 L 374.535156 28.371094 L 394.367188 28.308594 L 394.78125 28.304688 L 395.191406 28.304688 L 435.679688 28.175781 L 436.09375 28.175781 L 436.507812 30.265625 L 435.679688 30.273438 L 395.191406 30.402344 L 394.367188 30.402344 L 374.535156 30.464844 L 374.121094 30.46875 L 373.710938 30.46875 L 333.222656 30.597656 L 332.394531 30.597656 L 312.5625 30.664062 L 312.148438 30.664062 L 311.738281 30.726562 L 291.90625 33.808594 L 291.492188 27.0625 L 291.078125 27.136719 L 271.25 30.65625 L 270.835938 30.730469 L 270.421875 31.015625 L 250.589844 44.847656 L 250.179688 45.136719 L 249.765625 45.558594 Z M 250.179688 43.039062 "/>
<path fill-rule="nonzero" fill="rgb(0%, 72.941176%, 21.960784%)" fill-opacity="0.8" d="M 84.917969 124.5 L 85.332031 124.441406 L 105.164062 121.675781 L 105.578125 121.09375 L 105.992188 121.058594 L 125.820312 119.449219 L 126.234375 119.417969 L 126.648438 119.367188 L 146.480469 117.003906 L 146.890625 116.957031 L 147.304688 116.878906 L 167.136719 113.257812 L 167.550781 113.183594 L 167.960938 113.128906 L 187.792969 110.515625 L 188.207031 110.460938 L 188.621094 110.289062 L 208.449219 102.144531 L 208.863281 101.972656 L 209.277344 101.269531 L 229.109375 67.578125 L 229.519531 66.351562 L 229.933594 65.925781 L 249.765625 45.558594 L 250.179688 45.136719 L 250.589844 44.847656 L 270.421875 31.015625 L 270.835938 30.730469 L 271.25 30.65625 L 291.078125 27.136719 L 291.492188 27.0625 L 291.90625 33.808594 L 311.738281 30.726562 L 312.148438 30.664062 L 312.5625 30.664062 L 332.394531 30.597656 L 333.222656 30.597656 L 373.710938 30.46875 L 374.121094 30.46875 L 374.535156 30.464844 L 394.367188 30.402344 L 395.191406 30.402344 L 435.679688 30.273438 L 436.507812 30.265625 L 456.339844 29.949219 L 456.75 29.945312 L 457.164062 81.277344 L 456.75 44.085938 L 456.339844 44.09375 L 436.507812 44.34375 L 436.09375 44.347656 L 312.148438 44.347656 L 311.738281 44.414062 L 291.90625 47.429688 L 291.492188 40.683594 L 291.078125 40.734375 L 271.25 43.25 L 270.835938 43.300781 L 270.421875 43.546875 L 250.589844 55.367188 L 250.179688 55.613281 L 249.765625 55.972656 L 229.933594 73.324219 L 229.519531 73.683594 L 229.109375 74.804688 L 209.277344 103.472656 L 208.863281 104.070312 L 208.449219 104.234375 L 188.621094 112.28125 L 188.207031 112.449219 L 187.792969 112.503906 L 167.960938 115.015625 L 167.550781 115.070312 L 167.136719 115.144531 L 147.304688 118.664062 L 146.890625 118.738281 L 146.480469 118.785156 L 126.648438 121.046875 L 126.234375 121.09375 L 125.820312 121.125 L 105.992188 122.632812 L 105.578125 122.664062 L 105.164062 123.238281 L 85.332031 125.5 L 84.917969 125.546875 L 84.507812 127.140625 Z M 84.917969 124.5 "/>
<path fill-rule="nonzero" fill="rgb(0%, 75.686275%, 62.352941%)" fill-opacity="0.8" d="M 84.917969 125.546875 L 85.332031 125.5 L 105.164062 123.238281 L 105.578125 122.664062 L 105.992188 122.632812 L 125.820312 121.125 L 126.234375 121.09375 L 126.648438 121.046875 L 146.480469 118.785156 L 146.890625 118.738281 L 147.304688 118.664062 L 167.136719 115.144531 L 167.550781 115.070312 L 167.960938 115.015625 L 187.792969 112.503906 L 188.207031 112.449219 L 188.621094 112.28125 L 208.449219 104.234375 L 208.863281 104.070312 L 209.277344 103.472656 L 229.109375 74.804688 L 229.519531 73.683594 L 229.933594 73.324219 L 249.765625 55.972656 L 250.179688 55.613281 L 250.589844 55.367188 L 270.421875 43.546875 L 270.835938 43.300781 L 271.25 43.25 L 291.078125 40.734375 L 291.492188 40.683594 L 291.90625 47.429688 L 311.738281 44.414062 L 312.148438 44.347656 L 436.09375 44.347656 L 436.507812 44.34375 L 456.339844 44.09375 L 456.75 44.085938 L 457.164062 81.277344 L 456.75 81.28125 L 456.339844 81.285156 L 436.507812 81.539062 L 436.09375 81.542969 L 312.148438 81.542969 L 311.738281 81.605469 L 291.90625 84.625 L 291.492188 77.875 L 291.078125 77.929688 L 271.25 80.441406 L 270.835938 80.496094 L 270.421875 80.636719 L 250.589844 87.425781 L 250.179688 87.566406 L 249.765625 87.675781 L 229.933594 92.957031 L 229.519531 93.066406 L 229.109375 93.96875 L 209.277344 112.074219 L 208.863281 112.449219 L 208.449219 112.609375 L 188.621094 120.152344 L 188.207031 120.308594 L 187.792969 120.328125 L 167.960938 121.335938 L 167.550781 121.355469 L 167.136719 121.375 L 147.304688 122.382812 L 146.890625 122.402344 L 146.480469 122.429688 L 126.648438 123.6875 L 126.234375 123.714844 L 125.820312 123.734375 L 105.992188 124.738281 L 105.578125 124.761719 L 105.164062 125.300781 L 85.332031 126.054688 L 84.917969 126.070312 L 84.507812 127.140625 Z M 84.917969 125.546875 "/>
<path fill-rule="nonzero" fill="rgb(0%, 72.54902%, 89.019608%)" fill-opacity="0.8" d="M 64.261719 128.164062 L 64.675781 128.144531 L 84.507812 127.140625 L 84.917969 126.070312 L 85.332031 126.054688 L 105.164062 125.300781 L 105.578125 124.761719 L 105.992188 124.738281 L 125.820312 123.734375 L 126.234375 123.714844 L 126.648438 123.6875 L 146.480469 122.429688 L 146.890625 122.402344 L 147.304688 122.382812 L 167.136719 121.375 L 167.550781 121.355469 L 167.960938 121.335938 L 187.792969 120.328125 L 188.207031 120.308594 L 188.621094 120.152344 L 208.449219 112.609375 L 208.863281 112.449219 L 209.277344 112.074219 L 229.109375 93.96875 L 229.519531 93.066406 L 229.933594 92.957031 L 249.765625 87.675781 L 250.179688 87.566406 L 250.589844 87.425781 L 270.421875 80.636719 L 270.835938 80.496094 L 271.25 80.441406 L 291.078125 77.929688 L 291.492188 77.875 L 291.90625 84.625 L 311.738281 81.605469 L 312.148438 81.542969 L 436.09375 81.542969 L 436.507812 81.539062 L 456.339844 81.285156 L 456.75 81.28125 L 457.164062 81.277344 L 476.996094 81.023438 L 477.410156 81.019531 L 477.820312 128.691406 L 477.410156 107.734375 L 476.996094 107.742188 L 457.164062 107.992188 L 456.75 107.996094 L 456.339844 108.003906 L 436.507812 108.253906 L 436.09375 108.257812 L 312.148438 108.257812 L 311.738281 108.28125 L 291.90625 109.285156 L 291.492188 102.496094 L 291.078125 102.519531 L 271.25 103.523438 L 270.835938 103.542969 L 270.421875 103.59375 L 250.589844 105.855469 L 250.179688 105.902344 L 249.765625 106 L 229.933594 110.777344 L 229.519531 110.878906 L 229.109375 111.636719 L 209.277344 122.953125 L 208.863281 123.1875 L 208.449219 123.203125 L 188.621094 123.960938 L 188.207031 123.976562 L 187.792969 123.984375 L 167.960938 124.488281 L 167.550781 124.5 L 167.136719 124.507812 L 147.304688 125.011719 L 146.890625 125.023438 L 146.480469 125.039062 L 126.648438 125.792969 L 125.820312 125.824219 L 105.992188 126.578125 L 105.578125 126.59375 L 105.164062 127.128906 L 85.332031 127.632812 L 84.917969 127.640625 L 84.507812 128.691406 L 63.847656 128.691406 Z M 64.261719 128.164062 "/>
<path fill-rule="nonzero" fill="rgb(38.039216%, 61.176471%, 100%)" fill-opacity="0.8" d="M 84.917969 127.640625 L 85.332031 127.632812 L 105.164062 127.128906 L 105.578125 126.59375 L 105.992188 126.578125 L 125.820312 125.824219 L 126.648438 125.792969 L 146.480469 125.039062 L 146.890625 125.023438 L 147.304688 125.011719 L 167.136719 124.507812 L 167.550781 124.5 L 167.960938 124.488281 L 187.792969 123.984375 L 188.207031 123.976562 L 188.621094 123.960938 L 208.449219 123.203125 L 208.863281 123.1875 L 209.277344 122.953125 L 229.109375 111.636719 L 229.519531 110.878906 L 229.933594 110.777344 L 249.765625 106 L 250.179688 105.902344 L 250.589844 105.855469 L 270.421875 103.59375 L 270.835938 103.542969 L 271.25 103.523438 L 291.078125 102.519531 L 291.492188 102.496094 L 291.90625 109.285156 L 311.738281 108.28125 L 312.148438 108.257812 L 436.09375 108.257812 L 436.507812 108.253906 L 456.339844 108.003906 L 456.75 107.996094 L 457.164062 107.992188 L 476.996094 107.742188 L 477.410156 107.734375 L 477.820312 128.691406 L 477.410156 127.117188 L 291.90625 127.117188 L 291.492188 120.308594 L 291.078125 120.328125 L 271.25 121.335938 L 270.421875 121.375 L 250.589844 122.382812 L 250.179688 122.402344 L 249.765625 122.476562 L 229.933594 125.996094 L 229.519531 126.070312 L 229.109375 126.597656 L 209.277344 126.851562 L 208.863281 126.855469 L 208.449219 126.863281 L 188.621094 127.113281 L 188.207031 127.117188 L 187.792969 127.125 L 167.960938 127.375 L 167.550781 127.378906 L 167.136719 127.386719 L 147.304688 127.636719 L 146.890625 127.640625 L 146.480469 127.648438 L 126.648438 127.898438 L 126.234375 127.902344 L 125.820312 127.910156 L 105.992188 128.160156 L 105.578125 128.164062 L 105.164062 128.691406 L 84.507812 128.691406 Z M 84.917969 127.640625 "/>
<path fill-rule="nonzero" fill="rgb(85.882353%, 44.705882%, 98.431373%)" fill-opacity="0.8" d="M 229.519531 126.070312 L 229.933594 125.996094 L 249.765625 122.476562 L 250.179688 122.402344 L 250.589844 122.382812 L 270.421875 121.375 L 271.25 121.335938 L 291.078125 120.328125 L 291.492188 120.308594 L 291.90625 127.117188 L 477.410156 127.117188 L 477.820312 128.691406 L 291.90625 128.691406 L 291.492188 121.878906 L 291.078125 121.902344 L 271.25 122.90625 L 270.835938 122.925781 L 270.421875 122.9375 L 250.589844 123.441406 L 250.179688 123.453125 L 249.765625 123.515625 L 229.933594 126.53125 L 229.519531 126.59375 L 229.109375 126.597656 Z M 229.519531 126.070312 "/>
<path fill-rule="nonzero" fill="rgb(100%, 38.039216%, 76.470588%)" fill-opacity="0.8" d="M 105.578125 128.164062 L 105.992188 128.160156 L 125.820312 127.910156 L 126.234375 127.902344 L 126.648438 127.898438 L 146.480469 127.648438 L 146.890625 127.640625 L 147.304688 127.636719 L 167.136719 127.386719 L 167.550781 127.378906 L 167.960938 127.375 L 187.792969 127.125 L 188.207031 127.117188 L 188.621094 127.113281 L 208.449219 126.863281 L 208.863281 126.855469 L 209.277344 126.851562 L 229.109375 126.597656 L 229.519531 126.59375 L 229.933594 126.53125 L 249.765625 123.515625 L 250.179688 123.453125 L 250.589844 123.441406 L 270.421875 122.9375 L 270.835938 122.925781 L 271.25 122.90625 L 291.078125 121.902344 L 291.492188 121.878906 L 291.90625 128.691406 L 105.164062 128.691406 Z M 105.578125 128.164062 "/>
<g clip-path="url(#clip-18)">
<path fill="none" stroke-width="1.066978" stroke-linecap="round" stroke-linejoin="round" stroke="rgb(0.392157%, 27.058824%, 30.980392%)" stroke-opacity="1" stroke-miterlimit="10" d="M 43.152344 134.558594 L 498.523438 134.558594 L 498.523438 5.480469 L 43.152344 5.480469 Z M 43.152344 134.558594 "/>
</g>
<g fill="rgb(0.392157%, 27.058824%, 30.980392%)" fill-opacity="1">
<use xlink:href="#glyph-0-0" x="32.21875" y="132.209961"/>
</g>
<g fill="rgb(0.392157%, 27.058824%, 30.980392%)" fill-opacity="1">
<use xlink:href="#glyph-0-1" x="26.21875" y="106.014648"/>
<use xlink:href="#glyph-0-0" x="32.21875" y="106.014648"/>
</g>
<g fill="rgb(0.392157%, 27.058824%, 30.980392%)" fill-opacity="1">
<use xlink:href="#glyph-0-2" x="20.21875" y="79.823242"/>
<use xlink:href="#glyph-0-0" x="26.21875" y="79.823242"/>
<use xlink:href="#glyph-0-0" x="32.21875" y="79.823242"/>
</g>
<g fill="rgb(0.392157%, 27.058824%, 30.980392%)" fill-opacity="1">
<use xlink:href="#glyph-0-2" x="20.21875" y="53.631836"/>
<use xlink:href="#glyph-0-1" x="26.21875" y="53.631836"/>
<use xlink:href="#glyph-0-0" x="32.21875" y="53.631836"/>
</g>
<g fill="rgb(0.392157%, 27.058824%, 30.980392%)" fill-opacity="1">
<use xlink:href="#glyph-0-3" x="20.21875" y="27.436523"/>
<use xlink:href="#glyph-0-0" x="26.21875" y="27.436523"/>
<use xlink:href="#glyph-0-0" x="32.21875" y="27.436523"/>
</g>
<path fill="none" stroke-width="1.066978" stroke-linecap="butt" stroke-linejoin="round" stroke="rgb(0.392157%, 27.058824%, 30.980392%)" stroke-opacity="1" stroke-miterlimit="10" d="M 40.410156 128.691406 L 43.152344 128.691406 "/>
<path fill="none" stroke-width="1.066978" stroke-linecap="butt" stroke-linejoin="round" stroke="rgb(0.392157%, 27.058824%, 30.980392%)" stroke-opacity="1" stroke-miterlimit="10" d="M 40.410156 102.496094 L 43.152344 102.496094 "/>
<path fill="none" stroke-width="1.066978" stroke-linecap="butt" stroke-linejoin="round" stroke="rgb(0.392157%, 27.058824%, 30.980392%)" stroke-opacity="1" stroke-miterlimit="10" d="M 40.410156 76.304688 L 43.152344 76.304688 "/>
<path fill="none" stroke-width="1.066978" stroke-linecap="butt" stroke-linejoin="round" stroke="rgb(0.392157%, 27.058824%, 30.980392%)" stroke-opacity="1" stroke-miterlimit="10" d="M 40.410156 50.113281 L 43.152344 50.113281 "/>
<path fill="none" stroke-width="1.066978" stroke-linecap="butt" stroke-linejoin="round" stroke="rgb(0.392157%, 27.058824%, 30.980392%)" stroke-opacity="1" stroke-miterlimit="10" d="M 40.410156 23.917969 L 43.152344 23.917969 "/>
<path fill="none" stroke-width="1.066978" stroke-linecap="butt" stroke-linejoin="round" stroke="rgb(0.392157%, 27.058824%, 30.980392%)" stroke-opacity="1" stroke-miterlimit="10" d="M 126.234375 137.296875 L 126.234375 134.558594 "/>
<path fill="none" stroke-width="1.066978" stroke-linecap="butt" stroke-linejoin="round" stroke="rgb(0.392157%, 27.058824%, 30.980392%)" stroke-opacity="1" stroke-miterlimit="10" d="M 270.835938 137.296875 L 270.835938 134.558594 "/>
<path fill="none" stroke-width="1.066978" stroke-linecap="butt" stroke-linejoin="round" stroke="rgb(0.392157%, 27.058824%, 30.980392%)" stroke-opacity="1" stroke-miterlimit="10" d="M 415.4375 137.296875 L 415.4375 134.558594 "/>
<g fill="rgb(0.392157%, 27.058824%, 30.980392%)" fill-opacity="1">
<use xlink:href="#glyph-1-0" x="107.861381" y="167.005912"/>
<use xlink:href="#glyph-1-1" x="112.811128" y="162.056164"/>
<use xlink:href="#glyph-1-2" x="117.053769" y="157.813524"/>
<use xlink:href="#glyph-1-3" x="121.296409" y="153.570883"/>
<use xlink:href="#glyph-1-4" x="123.41773" y="151.449563"/>
<use xlink:href="#glyph-1-5" x="127.660371" y="147.206922"/>
</g>
<g fill="rgb(0.392157%, 27.058824%, 30.980392%)" fill-opacity="1">
<use xlink:href="#glyph-1-0" x="252.462943" y="167.005912"/>
<use xlink:href="#glyph-1-1" x="257.412691" y="162.056164"/>
<use xlink:href="#glyph-1-2" x="261.655331" y="157.813524"/>
<use xlink:href="#glyph-1-3" x="265.897972" y="153.570883"/>
<use xlink:href="#glyph-1-6" x="268.019292" y="151.449563"/>
<use xlink:href="#glyph-1-6" x="272.261933" y="147.206922"/>
</g>
<g fill="rgb(0.392157%, 27.058824%, 30.980392%)" fill-opacity="1">
<use xlink:href="#glyph-1-0" x="397.064506" y="167.005912"/>
<use xlink:href="#glyph-1-1" x="402.014253" y="162.056164"/>
<use xlink:href="#glyph-1-2" x="406.256894" y="157.813524"/>
<use xlink:href="#glyph-1-3" x="410.499534" y="153.570883"/>
<use xlink:href="#glyph-1-6" x="412.620855" y="151.449563"/>
<use xlink:href="#glyph-1-7" x="416.863496" y="147.206922"/>
</g>
<g fill="rgb(0.392157%, 27.058824%, 30.980392%)" fill-opacity="1">
<use xlink:href="#glyph-0-4" x="259.335938" y="180.581055"/>
<use xlink:href="#glyph-0-5" x="267.335938" y="180.581055"/>
<use xlink:href="#glyph-0-6" x="273.335938" y="180.581055"/>
<use xlink:href="#glyph-0-7" x="276.335938" y="180.581055"/>
</g>
<g fill="rgb(0.392157%, 27.058824%, 30.980392%)" fill-opacity="1">
<use xlink:href="#glyph-2-0" x="13.499023" y="98.519531"/>
<use xlink:href="#glyph-2-1" x="13.499023" y="91.519531"/>
<use xlink:href="#glyph-2-2" x="13.499023" y="85.519531"/>
<use xlink:href="#glyph-2-3" x="13.499023" y="81.519531"/>
<use xlink:href="#glyph-2-4" x="13.499023" y="78.519531"/>
<use xlink:href="#glyph-2-5" x="13.499023" y="76.519531"/>
<use xlink:href="#glyph-2-4" x="13.499023" y="70.519531"/>
<use xlink:href="#glyph-2-6" x="13.499023" y="68.519531"/>
<use xlink:href="#glyph-2-1" x="13.499023" y="62.519531"/>
<use xlink:href="#glyph-2-7" x="13.499023" y="56.519531"/>
<use xlink:href="#glyph-2-3" x="13.499023" y="50.519531"/>
<use xlink:href="#glyph-2-8" x="13.499023" y="47.519531"/>
</g>
<path fill-rule="nonzero" fill="rgb(100%, 100%, 100%)" fill-opacity="1" d="M -271.242188 246.519531 L 812.910156 246.519531 L 812.910156 195.519531 L -271.242188 195.519531 Z M -271.242188 246.519531 "/>
<path fill-rule="nonzero" fill="rgb(100%, 100%, 100%)" fill-opacity="1" stroke-width="1.066978" stroke-linecap="round" stroke-linejoin="round" stroke="rgb(0%, 0%, 0%)" stroke-opacity="1" stroke-miterlimit="10" d="M 28.957031 218.28125 L 46.238281 218.28125 L 46.238281 201 L 28.957031 201 Z M 28.957031 218.28125 "/>
<path fill-rule="nonzero" fill="rgb(57.647059%, 66.666667%, 0%)" fill-opacity="0.8" d="M 29.664062 217.574219 L 45.527344 217.574219 L 45.527344 201.710938 L 29.664062 201.710938 Z M 29.664062 217.574219 "/>
<path fill-rule="nonzero" fill="rgb(100%, 100%, 100%)" fill-opacity="1" stroke-width="1.066978" stroke-linecap="round" stroke-linejoin="round" stroke="rgb(0%, 0%, 0%)" stroke-opacity="1" stroke-miterlimit="10" d="M 28.957031 241.042969 L 46.238281 241.042969 L 46.238281 223.761719 L 28.957031 223.761719 Z M 28.957031 241.042969 "/>
<path fill-rule="nonzero" fill="rgb(0%, 72.941176%, 21.960784%)" fill-opacity="0.8" d="M 29.664062 240.332031 L 45.527344 240.332031 L 45.527344 224.46875 L 29.664062 224.46875 Z M 29.664062 240.332031 "/>
<path fill-rule="nonzero" fill="rgb(100%, 100%, 100%)" fill-opacity="1" stroke-width="1.066978" stroke-linecap="round" stroke-linejoin="round" stroke="rgb(0%, 0%, 0%)" stroke-opacity="1" stroke-miterlimit="10" d="M 225.195312 218.28125 L 242.476562 218.28125 L 242.476562 201 L 225.195312 201 Z M 225.195312 218.28125 "/>
<path fill-rule="nonzero" fill="rgb(0%, 75.686275%, 62.352941%)" fill-opacity="0.8" d="M 225.902344 217.574219 L 241.765625 217.574219 L 241.765625 201.710938 L 225.902344 201.710938 Z M 225.902344 217.574219 "/>
<path fill-rule="nonzero" fill="rgb(100%, 100%, 100%)" fill-opacity="1" stroke-width="1.066978" stroke-linecap="round" stroke-linejoin="round" stroke="rgb(0%, 0%, 0%)" stroke-opacity="1" stroke-miterlimit="10" d="M 225.195312 241.042969 L 242.476562 241.042969 L 242.476562 223.761719 L 225.195312 223.761719 Z M 225.195312 241.042969 "/>
<path fill-rule="nonzero" fill="rgb(0%, 72.54902%, 89.019608%)" fill-opacity="0.8" d="M 225.902344 240.332031 L 241.765625 240.332031 L 241.765625 224.46875 L 225.902344 224.46875 Z M 225.902344 240.332031 "/>
<path fill-rule="nonzero" fill="rgb(100%, 100%, 100%)" fill-opacity="1" stroke-width="1.066978" stroke-linecap="round" stroke-linejoin="round" stroke="rgb(0%, 0%, 0%)" stroke-opacity="1" stroke-miterlimit="10" d="M 429.433594 218.28125 L 446.714844 218.28125 L 446.714844 201 L 429.433594 201 Z M 429.433594 218.28125 "/>
<path fill-rule="nonzero" fill="rgb(38.039216%, 61.176471%, 100%)" fill-opacity="0.8" d="M 430.144531 217.574219 L 446.007812 217.574219 L 446.007812 201.710938 L 430.144531 201.710938 Z M 430.144531 217.574219 "/>
<path fill-rule="nonzero" fill="rgb(100%, 100%, 100%)" fill-opacity="1" stroke-width="1.066978" stroke-linecap="round" stroke-linejoin="round" stroke="rgb(0%, 0%, 0%)" stroke-opacity="1" stroke-miterlimit="10" d="M 429.433594 241.042969 L 446.714844 241.042969 L 446.714844 223.761719 L 429.433594 223.761719 Z M 429.433594 241.042969 "/>
<path fill-rule="nonzero" fill="rgb(85.882353%, 44.705882%, 98.431373%)" fill-opacity="0.8" d="M 430.144531 240.332031 L 446.007812 240.332031 L 446.007812 224.46875 L 430.144531 224.46875 Z M 430.144531 240.332031 "/>
<g fill="rgb(0.392157%, 27.058824%, 30.980392%)" fill-opacity="1">
<use xlink:href="#glyph-0-8" x="-104.523438" y="213.15918"/>
<use xlink:href="#glyph-0-9" x="-98.523438" y="213.15918"/>
<use xlink:href="#glyph-0-10" x="-95.523438" y="213.15918"/>
<use xlink:href="#glyph-0-11" x="-92.523438" y="213.15918"/>
<use xlink:href="#glyph-0-5" x="-86.523438" y="213.15918"/>
<use xlink:href="#glyph-0-12" x="-80.523438" y="213.15918"/>
<use xlink:href="#glyph-0-13" x="-74.523438" y="213.15918"/>
<use xlink:href="#glyph-0-5" x="-68.523438" y="213.15918"/>
<use xlink:href="#glyph-0-14" x="-62.523438" y="213.15918"/>
<use xlink:href="#glyph-0-10" x="-60.523438" y="213.15918"/>
<use xlink:href="#glyph-0-12" x="-57.523438" y="213.15918"/>
<use xlink:href="#glyph-0-6" x="-52.523438" y="213.15918"/>
<use xlink:href="#glyph-0-5" x="-49.523438" y="213.15918"/>
<use xlink:href="#glyph-0-15" x="-43.523438" y="213.15918"/>
<use xlink:href="#glyph-0-16" x="-37.523438" y="213.15918"/>
<use xlink:href="#glyph-0-17" x="-34.523438" y="213.15918"/>
<use xlink:href="#glyph-0-5" x="-28.523438" y="213.15918"/>
<use xlink:href="#glyph-0-18" x="-22.523438" y="213.15918"/>
<use xlink:href="#glyph-0-14" x="-20.523438" y="213.15918"/>
<use xlink:href="#glyph-0-19" x="-18.523438" y="213.15918"/>
<use xlink:href="#glyph-0-10" x="-12.523438" y="213.15918"/>
<use xlink:href="#glyph-0-20" x="-9.523438" y="213.15918"/>
<use xlink:href="#glyph-0-21" x="-1.523438" y="213.15918"/>
<use xlink:href="#glyph-0-22" x="4.476562" y="213.15918"/>
<use xlink:href="#glyph-0-23" x="8.476562" y="213.15918"/>
<use xlink:href="#glyph-0-7" x="13.476562" y="213.15918"/>
<use xlink:href="#glyph-0-22" x="19.476562" y="213.15918"/>
</g>
<g fill="rgb(0.392157%, 27.058824%, 30.980392%)" fill-opacity="1">
<use xlink:href="#glyph-0-8" x="-104.523438" y="235.920898"/>
<use xlink:href="#glyph-0-9" x="-98.523438" y="235.920898"/>
<use xlink:href="#glyph-0-10" x="-95.523438" y="235.920898"/>
<use xlink:href="#glyph-0-24" x="-92.523438" y="235.920898"/>
<use xlink:href="#glyph-0-5" x="-86.523438" y="235.920898"/>
<use xlink:href="#glyph-0-6" x="-80.523438" y="235.920898"/>
<use xlink:href="#glyph-0-18" x="-77.523438" y="235.920898"/>
<use xlink:href="#glyph-0-21" x="-75.523438" y="235.920898"/>
<use xlink:href="#glyph-0-24" x="-69.523438" y="235.920898"/>
<use xlink:href="#glyph-0-5" x="-63.523438" y="235.920898"/>
<use xlink:href="#glyph-0-14" x="-57.523438" y="235.920898"/>
<use xlink:href="#glyph-0-10" x="-55.523438" y="235.920898"/>
<use xlink:href="#glyph-0-12" x="-52.523438" y="235.920898"/>
<use xlink:href="#glyph-0-6" x="-47.523438" y="235.920898"/>
<use xlink:href="#glyph-0-5" x="-44.523438" y="235.920898"/>
<use xlink:href="#glyph-0-15" x="-38.523438" y="235.920898"/>
<use xlink:href="#glyph-0-10" x="-32.523438" y="235.920898"/>
<use xlink:href="#glyph-0-25" x="-29.523438" y="235.920898"/>
<use xlink:href="#glyph-0-7" x="-20.523438" y="235.920898"/>
<use xlink:href="#glyph-0-25" x="-14.523438" y="235.920898"/>
<use xlink:href="#glyph-0-26" x="-5.523438" y="235.920898"/>
<use xlink:href="#glyph-0-7" x="0.476562" y="235.920898"/>
<use xlink:href="#glyph-0-22" x="6.476562" y="235.920898"/>
</g>
<g fill="rgb(0.392157%, 27.058824%, 30.980392%)" fill-opacity="1">
<use xlink:href="#glyph-0-4" x="51.714844" y="213.15918"/>
<use xlink:href="#glyph-0-7" x="59.714844" y="213.15918"/>
<use xlink:href="#glyph-0-18" x="65.714844" y="213.15918"/>
<use xlink:href="#glyph-0-22" x="67.714844" y="213.15918"/>
<use xlink:href="#glyph-0-10" x="71.714844" y="213.15918"/>
<use xlink:href="#glyph-0-27" x="74.714844" y="213.15918"/>
<use xlink:href="#glyph-0-14" x="81.714844" y="213.15918"/>
<use xlink:href="#glyph-0-10" x="83.714844" y="213.15918"/>
<use xlink:href="#glyph-0-28" x="86.714844" y="213.15918"/>
<use xlink:href="#glyph-0-5" x="93.714844" y="213.15918"/>
<use xlink:href="#glyph-0-14" x="99.714844" y="213.15918"/>
<use xlink:href="#glyph-0-5" x="101.714844" y="213.15918"/>
<use xlink:href="#glyph-0-8" x="107.714844" y="213.15918"/>
<use xlink:href="#glyph-0-9" x="113.714844" y="213.15918"/>
<use xlink:href="#glyph-0-10" x="116.714844" y="213.15918"/>
<use xlink:href="#glyph-0-21" x="119.714844" y="213.15918"/>
<use xlink:href="#glyph-0-6" x="125.714844" y="213.15918"/>
<use xlink:href="#glyph-0-8" x="128.714844" y="213.15918"/>
<use xlink:href="#glyph-0-7" x="134.714844" y="213.15918"/>
<use xlink:href="#glyph-0-22" x="140.714844" y="213.15918"/>
</g>
<g fill="rgb(0.392157%, 27.058824%, 30.980392%)" fill-opacity="1">
<use xlink:href="#glyph-0-29" x="51.714844" y="235.920898"/>
<use xlink:href="#glyph-0-5" x="59.714844" y="235.920898"/>
<use xlink:href="#glyph-0-30" x="65.714844" y="235.920898"/>
<use xlink:href="#glyph-0-5" x="70.714844" y="235.920898"/>
<use xlink:href="#glyph-0-10" x="76.714844" y="235.920898"/>
<use xlink:href="#glyph-0-31" x="79.714844" y="235.920898"/>
<use xlink:href="#glyph-0-18" x="87.714844" y="235.920898"/>
<use xlink:href="#glyph-0-6" x="89.714844" y="235.920898"/>
<use xlink:href="#glyph-0-19" x="92.714844" y="235.920898"/>
<use xlink:href="#glyph-0-9" x="97.714844" y="235.920898"/>
<use xlink:href="#glyph-0-10" x="100.714844" y="235.920898"/>
<use xlink:href="#glyph-0-11" x="103.714844" y="235.920898"/>
<use xlink:href="#glyph-0-5" x="109.714844" y="235.920898"/>
<use xlink:href="#glyph-0-12" x="115.714844" y="235.920898"/>
<use xlink:href="#glyph-0-13" x="121.714844" y="235.920898"/>
<use xlink:href="#glyph-0-5" x="127.714844" y="235.920898"/>
<use xlink:href="#glyph-0-14" x="133.714844" y="235.920898"/>
<use xlink:href="#glyph-0-10" x="135.714844" y="235.920898"/>
<use xlink:href="#glyph-0-12" x="138.714844" y="235.920898"/>
<use xlink:href="#glyph-0-6" x="143.714844" y="235.920898"/>
<use xlink:href="#glyph-0-5" x="146.714844" y="235.920898"/>
<use xlink:href="#glyph-0-15" x="152.714844" y="235.920898"/>
<use xlink:href="#glyph-0-16" x="158.714844" y="235.920898"/>
<use xlink:href="#glyph-0-17" x="161.714844" y="235.920898"/>
<use xlink:href="#glyph-0-5" x="167.714844" y="235.920898"/>
<use xlink:href="#glyph-0-18" x="173.714844" y="235.920898"/>
<use xlink:href="#glyph-0-14" x="175.714844" y="235.920898"/>
<use xlink:href="#glyph-0-19" x="177.714844" y="235.920898"/>
<use xlink:href="#glyph-0-10" x="183.714844" y="235.920898"/>
<use xlink:href="#glyph-0-20" x="186.714844" y="235.920898"/>
<use xlink:href="#glyph-0-21" x="194.714844" y="235.920898"/>
<use xlink:href="#glyph-0-22" x="200.714844" y="235.920898"/>
<use xlink:href="#glyph-0-23" x="204.714844" y="235.920898"/>
<use xlink:href="#glyph-0-7" x="209.714844" y="235.920898"/>
<use xlink:href="#glyph-0-22" x="215.714844" y="235.920898"/>
</g>
<g fill="rgb(0.392157%, 27.058824%, 30.980392%)" fill-opacity="1">
<use xlink:href="#glyph-0-29" x="247.953125" y="213.15918"/>
<use xlink:href="#glyph-0-5" x="255.953125" y="213.15918"/>
<use xlink:href="#glyph-0-30" x="261.953125" y="213.15918"/>
<use xlink:href="#glyph-0-5" x="266.953125" y="213.15918"/>
<use xlink:href="#glyph-0-10" x="272.953125" y="213.15918"/>
<use xlink:href="#glyph-0-31" x="275.953125" y="213.15918"/>
<use xlink:href="#glyph-0-18" x="283.953125" y="213.15918"/>
<use xlink:href="#glyph-0-6" x="285.953125" y="213.15918"/>
<use xlink:href="#glyph-0-19" x="288.953125" y="213.15918"/>
<use xlink:href="#glyph-0-9" x="293.953125" y="213.15918"/>
<use xlink:href="#glyph-0-10" x="296.953125" y="213.15918"/>
<use xlink:href="#glyph-0-24" x="299.953125" y="213.15918"/>
<use xlink:href="#glyph-0-5" x="305.953125" y="213.15918"/>
<use xlink:href="#glyph-0-6" x="311.953125" y="213.15918"/>
<use xlink:href="#glyph-0-18" x="314.953125" y="213.15918"/>
<use xlink:href="#glyph-0-21" x="316.953125" y="213.15918"/>
<use xlink:href="#glyph-0-24" x="322.953125" y="213.15918"/>
<use xlink:href="#glyph-0-5" x="328.953125" y="213.15918"/>
<use xlink:href="#glyph-0-14" x="334.953125" y="213.15918"/>
<use xlink:href="#glyph-0-10" x="336.953125" y="213.15918"/>
<use xlink:href="#glyph-0-12" x="339.953125" y="213.15918"/>
<use xlink:href="#glyph-0-6" x="344.953125" y="213.15918"/>
<use xlink:href="#glyph-0-5" x="347.953125" y="213.15918"/>
<use xlink:href="#glyph-0-15" x="353.953125" y="213.15918"/>
<use xlink:href="#glyph-0-10" x="359.953125" y="213.15918"/>
<use xlink:href="#glyph-0-25" x="362.953125" y="213.15918"/>
<use xlink:href="#glyph-0-7" x="371.953125" y="213.15918"/>
<use xlink:href="#glyph-0-25" x="377.953125" y="213.15918"/>
<use xlink:href="#glyph-0-26" x="386.953125" y="213.15918"/>
<use xlink:href="#glyph-0-7" x="392.953125" y="213.15918"/>
<use xlink:href="#glyph-0-22" x="398.953125" y="213.15918"/>
</g>
<g fill="rgb(0.392157%, 27.058824%, 30.980392%)" fill-opacity="1">
<use xlink:href="#glyph-0-32" x="247.953125" y="235.920898"/>
<use xlink:href="#glyph-0-8" x="254.953125" y="235.920898"/>
<use xlink:href="#glyph-0-5" x="260.953125" y="235.920898"/>
<use xlink:href="#glyph-0-24" x="266.953125" y="235.920898"/>
<use xlink:href="#glyph-0-10" x="272.953125" y="235.920898"/>
<use xlink:href="#glyph-0-33" x="275.953125" y="235.920898"/>
<use xlink:href="#glyph-0-13" x="282.953125" y="235.920898"/>
<use xlink:href="#glyph-0-24" x="288.953125" y="235.920898"/>
<use xlink:href="#glyph-0-18" x="294.953125" y="235.920898"/>
<use xlink:href="#glyph-0-12" x="296.953125" y="235.920898"/>
<use xlink:href="#glyph-0-9" x="301.953125" y="235.920898"/>
<use xlink:href="#glyph-0-10" x="304.953125" y="235.920898"/>
<use xlink:href="#glyph-0-11" x="307.953125" y="235.920898"/>
<use xlink:href="#glyph-0-5" x="313.953125" y="235.920898"/>
<use xlink:href="#glyph-0-12" x="319.953125" y="235.920898"/>
<use xlink:href="#glyph-0-13" x="325.953125" y="235.920898"/>
<use xlink:href="#glyph-0-5" x="331.953125" y="235.920898"/>
<use xlink:href="#glyph-0-14" x="337.953125" y="235.920898"/>
<use xlink:href="#glyph-0-10" x="339.953125" y="235.920898"/>
<use xlink:href="#glyph-0-12" x="342.953125" y="235.920898"/>
<use xlink:href="#glyph-0-6" x="347.953125" y="235.920898"/>
<use xlink:href="#glyph-0-5" x="350.953125" y="235.920898"/>
<use xlink:href="#glyph-0-15" x="356.953125" y="235.920898"/>
<use xlink:href="#glyph-0-16" x="362.953125" y="235.920898"/>
<use xlink:href="#glyph-0-17" x="365.953125" y="235.920898"/>
<use xlink:href="#glyph-0-5" x="371.953125" y="235.920898"/>
<use xlink:href="#glyph-0-18" x="377.953125" y="235.920898"/>
<use xlink:href="#glyph-0-14" x="379.953125" y="235.920898"/>
<use xlink:href="#glyph-0-19" x="381.953125" y="235.920898"/>
<use xlink:href="#glyph-0-10" x="387.953125" y="235.920898"/>
<use xlink:href="#glyph-0-20" x="390.953125" y="235.920898"/>
<use xlink:href="#glyph-0-21" x="398.953125" y="235.920898"/>
<use xlink:href="#glyph-0-22" x="404.953125" y="235.920898"/>
<use xlink:href="#glyph-0-23" x="408.953125" y="235.920898"/>
<use xlink:href="#glyph-0-7" x="413.953125" y="235.920898"/>
<use xlink:href="#glyph-0-22" x="419.953125" y="235.920898"/>
</g>
<g fill="rgb(0.392157%, 27.058824%, 30.980392%)" fill-opacity="1">
<use xlink:href="#glyph-0-32" x="452.195312" y="213.15918"/>
<use xlink:href="#glyph-0-8" x="459.195312" y="213.15918"/>
<use xlink:href="#glyph-0-5" x="465.195312" y="213.15918"/>
<use xlink:href="#glyph-0-24" x="471.195312" y="213.15918"/>
<use xlink:href="#glyph-0-10" x="477.195312" y="213.15918"/>
<use xlink:href="#glyph-0-33" x="480.195312" y="213.15918"/>
<use xlink:href="#glyph-0-13" x="487.195312" y="213.15918"/>
<use xlink:href="#glyph-0-24" x="493.195312" y="213.15918"/>
<use xlink:href="#glyph-0-18" x="499.195312" y="213.15918"/>
<use xlink:href="#glyph-0-12" x="501.195312" y="213.15918"/>
<use xlink:href="#glyph-0-9" x="506.195312" y="213.15918"/>
<use xlink:href="#glyph-0-10" x="509.195312" y="213.15918"/>
<use xlink:href="#glyph-0-24" x="512.195312" y="213.15918"/>
<use xlink:href="#glyph-0-5" x="518.195312" y="213.15918"/>
<use xlink:href="#glyph-0-6" x="524.195312" y="213.15918"/>
<use xlink:href="#glyph-0-18" x="527.195312" y="213.15918"/>
<use xlink:href="#glyph-0-21" x="529.195312" y="213.15918"/>
<use xlink:href="#glyph-0-24" x="535.195312" y="213.15918"/>
<use xlink:href="#glyph-0-5" x="541.195312" y="213.15918"/>
<use xlink:href="#glyph-0-14" x="547.195312" y="213.15918"/>
<use xlink:href="#glyph-0-10" x="549.195312" y="213.15918"/>
<use xlink:href="#glyph-0-12" x="552.195312" y="213.15918"/>
<use xlink:href="#glyph-0-6" x="557.195312" y="213.15918"/>
<use xlink:href="#glyph-0-5" x="560.195312" y="213.15918"/>
<use xlink:href="#glyph-0-15" x="566.195312" y="213.15918"/>
<use xlink:href="#glyph-0-10" x="572.195312" y="213.15918"/>
<use xlink:href="#glyph-0-25" x="575.195312" y="213.15918"/>
<use xlink:href="#glyph-0-7" x="584.195312" y="213.15918"/>
<use xlink:href="#glyph-0-25" x="590.195312" y="213.15918"/>
<use xlink:href="#glyph-0-26" x="599.195312" y="213.15918"/>
<use xlink:href="#glyph-0-7" x="605.195312" y="213.15918"/>
<use xlink:href="#glyph-0-22" x="611.195312" y="213.15918"/>
</g>
<g fill="rgb(0.392157%, 27.058824%, 30.980392%)" fill-opacity="1">
<use xlink:href="#glyph-0-32" x="452.195312" y="235.920898"/>
<use xlink:href="#glyph-0-8" x="459.195312" y="235.920898"/>
<use xlink:href="#glyph-0-5" x="465.195312" y="235.920898"/>
<use xlink:href="#glyph-0-24" x="471.195312" y="235.920898"/>
<use xlink:href="#glyph-0-10" x="477.195312" y="235.920898"/>
<use xlink:href="#glyph-0-33" x="480.195312" y="235.920898"/>
<use xlink:href="#glyph-0-13" x="487.195312" y="235.920898"/>
<use xlink:href="#glyph-0-24" x="493.195312" y="235.920898"/>
<use xlink:href="#glyph-0-18" x="499.195312" y="235.920898"/>
<use xlink:href="#glyph-0-12" x="501.195312" y="235.920898"/>
<use xlink:href="#glyph-0-9" x="506.195312" y="235.920898"/>
<use xlink:href="#glyph-0-10" x="509.195312" y="235.920898"/>
<use xlink:href="#glyph-0-21" x="512.195312" y="235.920898"/>
<use xlink:href="#glyph-0-6" x="518.195312" y="235.920898"/>
<use xlink:href="#glyph-0-8" x="521.195312" y="235.920898"/>
<use xlink:href="#glyph-0-7" x="527.195312" y="235.920898"/>
<use xlink:href="#glyph-0-22" x="533.195312" y="235.920898"/>
</g>
</svg>
